<svg xmlns="http://www.w3.org/2000/svg" viewBox="0 0 36 36"><title>guide</title><g id="Layer_2" data-name="Layer 2"><g id="완료"><path d="M18,36A18,18,0,1,1,36,18,18,18,0,0,1,18,36ZM18,2.25A15.75,15.75,0,1,0,33.75,18,15.77,15.77,0,0,0,18,2.25Z"/><circle cx="18.04" cy="23.63" r="1.13"/><path d="M18,21.38a1.13,1.13,0,0,1-1.12-1.13c0-1.5,1.32-2.64,2.62-3.55a2.06,2.06,0,0,0,.6-2,2.15,2.15,0,0,0-2-1.23h0A2.47,2.47,0,0,0,15.72,15a1.12,1.12,0,0,1-1.44.66,1.13,1.13,0,0,1-.67-1.45,4.73,4.73,0,0,1,4.5-3h0A4.39,4.39,0,0,1,22.28,14a4.29,4.29,0,0,1-1.44,4.53c-1.51,1.07-1.67,1.56-1.67,1.72A1.14,1.14,0,0,1,18,21.38Z"/></g></g></svg>