<svg xmlns="http://www.w3.org/2000/svg" viewBox="0 0 88 88"><defs><style>.cls-1{fill:#768bc2;}.cls-12,.cls-2,.cls-4{fill:#fff;}.cls-2{stroke:#b1dff7;}.cls-11,.cls-12,.cls-13,.cls-15,.cls-2,.cls-3,.cls-4,.cls-7,.cls-8,.cls-9{stroke-linecap:round;stroke-linejoin:round;}.cls-11,.cls-12,.cls-13,.cls-15,.cls-2,.cls-6,.cls-7,.cls-8,.cls-9{stroke-width:0.54px;}.cls-3,.cls-8{fill:#faddd1;stroke:#faddd1;}.cls-3{stroke-width:0.27px;}.cls-4{stroke:#c8c8c9;stroke-width:0.81px;}.cls-5,.cls-6{fill:#bce3f8;}.cls-6{stroke:#bce3f8;stroke-miterlimit:10;}.cls-7{fill:#fcd164;stroke:#fcd164;}.cls-9{fill:#ffe368;stroke:#ffe368;}.cls-10{fill:#f7b647;}.cls-11{fill:#612d14;stroke:#612d14;}.cls-12{stroke:#fff;}.cls-13{fill:#f7cac6;stroke:#f7cac6;}.cls-14{fill:#f1a0ae;}.cls-15{fill:none;stroke:#eb756a;}</style></defs><title>menu_inheritance3</title><g id="Layer_2" data-name="Layer 2"><g id="다운로드"><circle class="cls-1" cx="44" cy="44" r="44"/><path class="cls-2" d="M53.79,52.54s10.74.83,10,7.41c-.14,1.18-1.61,3-4.75,0,0,0-.31,4.09-4.26,1a2.59,2.59,0,0,1-4,1.13C48,60.37,49.52,51.68,53.79,52.54Z"/><path class="cls-3" d="M57.61,57.13a.74.74,0,0,1-.17-.85.7.7,0,0,1,.87-.47.71.71,0,0,1,.32.94.53.53,0,0,1-.08.15l.28,0c.81.12,1.41.65,1.33,1.19s-.8.87-1.62.75-1.41-.65-1.33-1.19A.78.78,0,0,1,57.61,57.13Z"/><path class="cls-4" d="M49.89,55s5.89,1.46,7.62.56c0,0-.48,7.06-1.25,7.13s-6.92-3.56-6.92-3.56Z"/><path class="cls-2" d="M37.12,52.54s-10.74.83-10,7.41c.14,1.18,1.6,3,4.75,0,0,0,.3,4.09,4.25,1a2.6,2.6,0,0,0,4,1.13C43,60.37,41.39,51.68,37.12,52.54Z"/><path class="cls-3" d="M33.29,57.38a.76.76,0,0,0,.18-.85.71.71,0,0,0-.88-.47.71.71,0,0,0-.31.94.55.55,0,0,0,.08.15l-.29,0c-.81.12-1.41.66-1.33,1.19s.81.88,1.62.76,1.42-.66,1.34-1.2A.81.81,0,0,0,33.29,57.38Z"/><path class="cls-4" d="M41,55.24s-5.89,1.45-7.62.55c0,0,.49,7.07,1.25,7.14s6.93-3.57,6.93-3.57Z"/><path class="cls-5" d="M40.14,54.09s0,0,0,0S40.15,54.08,40.14,54.09Z"/><path class="cls-6" d="M37.12,68.9a25.81,25.81,0,0,0,0,3.4.42.42,0,0,0,0,.15c.07.09,1.54,2.38,7.91,2.38h.24c6.37,0,7.85-2.29,7.91-2.38a.42.42,0,0,0,0-.15,27.09,27.09,0,0,0,0-3.81A14.88,14.88,0,0,1,37.12,68.9Z"/><path class="cls-4" d="M50.07,54l-4.5-1.87a.25.25,0,0,0-.12,0h-.56a.25.25,0,0,0-.12,0L40.27,54a.22.22,0,0,0-.09.07s0,0,0,0a.35.35,0,0,0,0,.08,70.67,70.67,0,0,0-3,14.73,14.88,14.88,0,0,0,16.08-.41,72.17,72.17,0,0,0-3-14.32A.33.33,0,0,0,50.07,54Z"/><path class="cls-7" d="M63.1,43.3c1.95-21.87-13.79-22.67-19-22.09C39,20.81,23.28,22.17,26,44a5.13,5.13,0,0,0-3.73,4.78c.05,2.77,2.69,5,5.91,4.92s5.78-2.35,5.73-5.13a5,5,0,0,0-3.42-4.47l10.62.2,0,.26,3.47-.19L48,44.4l0-.26,10.61-.58a5,5,0,0,0-3.26,4.59c0,2.78,2.7,5,5.91,4.92S67.05,50.72,67,48A5.13,5.13,0,0,0,63.1,43.3Z"/><path class="cls-8" d="M60,38.56c0-6.24-7.14-5.39-15.58-5.39s-15.58-.85-15.58,5.39c0,2-.9,17.23,15.58,17.23C61.41,55.79,60,40.61,60,38.56Z"/><path class="cls-7" d="M57.33,27.6l-11.8-1.75v-.32l-1.1.16-1.11-.16v.32L31.55,27.6s-4.3,4.51-3.19,9.29H60.51C61.62,32.11,57.33,27.6,57.33,27.6Z"/><path class="cls-9" d="M44.75,11.45c-5.2,0-9.42,1.71-9.42,3.81s4.22,3.81,9.42,3.81,9.43-1.7,9.43-3.81S50,11.45,44.75,11.45Zm0,6c-3.67,0-6.65-1-6.65-2.15s3-2.15,6.65-2.15,6.66,1,6.66,2.15S48.43,17.41,44.75,17.41Z"/><path class="cls-10" d="M31.55,27.6a12.28,12.28,0,0,0-.75,1c-.23.35-.46.71-.67,1.08s-.4.73-.57,1.12-.32.77-.47,1.16a12.34,12.34,0,0,0-.33,1.19c-.05.2-.08.41-.11.61s-.07.4-.08.61l0,.6a4.09,4.09,0,0,0,0,.61,3.07,3.07,0,0,0,.07.6l.12.58-.39-.32c2.68,0,5.35,0,8,.06s5.35.1,8,.15l4-.09,4-.06c2.68-.05,5.36-.06,8-.06l-.4.32.11-.58a4.11,4.11,0,0,0,.08-.6c0-.2,0-.4,0-.61l0-.6a6,6,0,0,0-.08-.61,4.34,4.34,0,0,0-.11-.61A10,10,0,0,0,59.78,32a10.43,10.43,0,0,0-.47-1.16,9.06,9.06,0,0,0-.57-1.12c-.21-.37-.43-.73-.67-1.08s-.48-.7-.74-1a14.17,14.17,0,0,1,1.64,2c.24.35.47.71.68,1.09s.4.76.59,1.15A12.69,12.69,0,0,1,60.69,33a3.53,3.53,0,0,1,.16.64c0,.22.1.43.13.65l.07.66c0,.22,0,.44,0,.67a2.93,2.93,0,0,1,0,.66l-.09.67a.36.36,0,0,1-.35.32h0c-2.68.13-5.36.26-8,.36l-4,.14-4,.12c-2.69-.09-5.37-.15-8-.27s-5.36-.22-8-.36H28.3A.36.36,0,0,1,28,37l-.1-.67a3.66,3.66,0,0,1,0-.66c0-.23,0-.45,0-.67l.07-.66c0-.22.08-.43.12-.65a4.16,4.16,0,0,1,.17-.63,12,12,0,0,1,.45-1.23c.19-.39.37-.78.59-1.15a11.05,11.05,0,0,1,.68-1.09A12.89,12.89,0,0,1,31.55,27.6Z"/><path class="cls-10" d="M26,35.22s0,.22,0,.61,0,.94,0,1.6,0,1.43,0,2.25,0,1.7.13,2.57a22.09,22.09,0,0,0,.33,2.53c.07.41.18.78.26,1.15s.22.69.32,1,.25.56.35.81a3.35,3.35,0,0,0,.33.61l.33.51s-.16-.15-.42-.44a3,3,0,0,1-.44-.56,5.68,5.68,0,0,1-.47-.79c-.13-.31-.31-.64-.44-1a11.52,11.52,0,0,1-.36-1.17,12.41,12.41,0,0,1-.25-1.27c-.07-.44-.13-.88-.16-1.33s-.06-.89-.07-1.33,0-.87,0-1.29c0-.84.12-1.61.19-2.28A18,18,0,0,1,26,35.22Z"/><path class="cls-10" d="M62.93,34a17,17,0,0,1,.41,2.19c.08.66.17,1.44.2,2.27,0,.42,0,.85,0,1.29s0,.89-.06,1.33-.09.9-.16,1.33-.17.86-.26,1.28a9.83,9.83,0,0,1-.36,1.16c-.12.37-.3.69-.43,1a6.51,6.51,0,0,1-.47.8,3.4,3.4,0,0,1-.44.55c-.26.29-.42.45-.42.45l.32-.52a3,3,0,0,0,.34-.6c.09-.25.25-.51.35-.82a9.84,9.84,0,0,0,.32-1c.08-.37.19-.74.26-1.14A24.4,24.4,0,0,0,62.87,41c.08-.87.1-1.74.12-2.56s0-1.6,0-2.26,0-1.21,0-1.6S62.93,34,62.93,34Z"/><path class="cls-11" d="M55.09,42.58a2.34,2.34,0,1,1-.83-3.16A2.3,2.3,0,0,1,55.09,42.58Z"/><path class="cls-12" d="M52.83,40.63a.72.72,0,0,1-1,.23.71.71,0,1,1,.73-1.22A.72.72,0,0,1,52.83,40.63Z"/><path class="cls-11" d="M33.81,42.58a2.34,2.34,0,1,0,.83-3.16A2.3,2.3,0,0,0,33.81,42.58Z"/><path class="cls-12" d="M36.07,40.63a.72.72,0,0,0,1,.23.71.71,0,1,0-.73-1.22A.72.72,0,0,0,36.07,40.63Z"/><path class="cls-13" d="M45.48,45.46a.78.78,0,0,1-.85.68.69.69,0,1,1,0-1.35A.78.78,0,0,1,45.48,45.46Z"/><path class="cls-14" d="M45.67,45.39a.86.86,0,0,1,0,.18.7.7,0,0,1-.25.43,1.13,1.13,0,0,1-.66.27,1.08,1.08,0,0,1-.4,0,1.1,1.1,0,0,1-.4-.17.82.82,0,0,1-.36-.78.66.66,0,0,1,.17-.37A.8.8,0,0,1,44,44.7a1.08,1.08,0,0,1,.47-.11l.18,0a1.16,1.16,0,0,0-.56.24.7.7,0,0,0-.18.2.54.54,0,0,0-.08.27.52.52,0,0,0,.27.49.85.85,0,0,0,.28.15,1.24,1.24,0,0,0,.33,0,1.26,1.26,0,0,0,.57-.14.78.78,0,0,0,.3-.3A.82.82,0,0,0,45.67,45.39Z"/><path class="cls-15" d="M48.62,47.19c-.1,2.38-3,2.44-3.87,2.44-1.41,0-3.67-.32-3.86-2.33"/><path class="cls-10" d="M44.44,21.71l-.55.05c-.35,0-.85.11-1.44.19a25.77,25.77,0,0,0-4.26,1l-1.11.4c-.35.17-.71.31-1,.48s-.66.33-.94.52-.56.35-.79.53l-.64.51c-.19.15-.32.32-.45.44l-.39.39.33-.44a6.21,6.21,0,0,1,.4-.5l.6-.58c.23-.2.5-.39.78-.6a8.25,8.25,0,0,1,.93-.59c.33-.19.69-.34,1-.51l1.13-.44c.39-.11.78-.24,1.17-.33S40,22,40.37,22a17.48,17.48,0,0,1,2.05-.25A14.69,14.69,0,0,1,44.44,21.71Z"/><path class="cls-10" d="M43.77,22.19s-.65.21-1.6.59c-.47.18-1,.43-1.58.71a12.37,12.37,0,0,0-1.7,1,9.72,9.72,0,0,0-1.49,1.26c-.19.25-.39.47-.56.71s-.29.47-.4.7-.17.44-.25.63a3.7,3.7,0,0,0-.12.52c-.06.3-.1.46-.1.46s0-.17,0-.47a3.86,3.86,0,0,1,0-.54c.05-.21.11-.44.18-.7s.24-.49.36-.76.35-.52.54-.79.45-.5.71-.72a8.24,8.24,0,0,1,.82-.64,10.49,10.49,0,0,1,1.78-1,13.24,13.24,0,0,1,1.67-.6A11.28,11.28,0,0,1,43.77,22.19Z"/><path class="cls-10" d="M44.67,21.71a14.51,14.51,0,0,1,2,0,17.23,17.23,0,0,1,2,.25c.38.07.76.16,1.14.25s.78.22,1.17.33l1.13.44c.36.17.72.32,1,.51a9.44,9.44,0,0,1,.94.59c.27.21.55.4.77.6s.42.41.6.58a6.21,6.21,0,0,1,.4.5l.33.44-.39-.39c-.13-.12-.26-.29-.45-.44s-.41-.32-.63-.51-.52-.34-.8-.53-.62-.33-.93-.52-.69-.31-1-.48l-1.11-.4a25.32,25.32,0,0,0-4.26-1c-.59-.08-1.09-.16-1.44-.19Z"/><path class="cls-10" d="M45.33,22.19a11.53,11.53,0,0,1,1.68.37,13.14,13.14,0,0,1,1.66.6,10.49,10.49,0,0,1,1.78,1,8.24,8.24,0,0,1,.82.64c.26.22.48.49.71.72s.39.53.54.79.26.52.36.76.13.49.18.7a2.77,2.77,0,0,1,0,.54c0,.3,0,.47,0,.47s0-.16-.1-.46a2.68,2.68,0,0,0-.12-.52c-.08-.19-.16-.4-.25-.63s-.26-.46-.4-.7-.37-.46-.56-.71a9.26,9.26,0,0,0-1.49-1.26,12.37,12.37,0,0,0-1.7-1,17.09,17.09,0,0,0-1.58-.71C46,22.4,45.33,22.19,45.33,22.19Z"/></g></g></svg>