<svg xmlns="http://www.w3.org/2000/svg" viewBox="0 0 88 88"><defs><style>.cls-1{fill:#3d9fac;}.cls-2{fill:#f45665;}.cls-3{fill:#f5f3d8;}.cls-4{fill:#fbd264;}.cls-5{fill:#cc9f27;}</style></defs><title>menu_inheritance1</title><g id="Layer_2" data-name="Layer 2"><g id="다운로드"><circle class="cls-1" cx="44" cy="44" r="44"/><polygon class="cls-2" points="44.56 19 44.56 19 44.56 19 44.56 19 44.56 19 22.48 33.06 22.48 62.37 66.64 62.37 66.64 33.06 44.56 19"/><rect class="cls-3" x="26.54" y="26.4" width="36.03" height="26.04" rx="2.53" ry="2.53"/><path class="cls-2" d="M50,32.8c-3-1.09-4.95,1.88-5.48,2.47-.54-.59-2.43-3.56-5.48-2.47-3.64,1.3-4.46,8.62,5.48,13.49h0C54.5,41.42,53.68,34.1,50,32.8Z"/><polygon class="cls-4" points="66.64 36.19 50.75 49.96 66.64 60.63 66.64 36.19"/><polygon class="cls-5" points="66.64 64.77 66.64 60.63 50.75 49.96 48.69 51.74 66.64 64.77"/><polygon class="cls-4" points="22.48 36.19 22.48 60.63 38.37 49.96 22.48 36.19"/><polygon class="cls-5" points="40.43 51.74 38.37 49.96 22.48 60.63 22.48 64.77 40.43 51.74"/><polygon class="cls-4" points="44.56 47.32 44.56 47.32 44.56 47.32 44.56 47.32 44.56 47.32 22.48 62.15 22.48 64.77 66.64 64.77 66.64 62.15 44.56 47.32"/></g></g></svg>