<svg xmlns="http://www.w3.org/2000/svg" viewBox="0 0 88 88"><defs><style>.cls-1{fill:#ffb72d;}.cls-2{fill:#fefdf5;}.cls-3{fill:#f5e55d;}.cls-4{fill:#623d15;}.cls-5{fill:#795821;}.cls-6{fill:#724f1d;}.cls-7{fill:#654117;}.cls-8{fill:#836326;}.cls-9{fill:#654017;}.cls-10{fill:#7f5e23;}</style></defs><title>menu_inheritance4</title><g id="Layer_2" data-name="Layer 2"><g id="다운로드"><circle class="cls-1" cx="44" cy="44" r="44"/><path class="cls-2" d="M45.71,68.55h-2c-3.29-.84-4.76-3.89-3.61-7.39-1.55,2.11-3,4.29-5.33,5.76-1.43.91-2.94,1.43-4.44.44s-1.55-2.62-1.2-4.29a26.69,26.69,0,0,1,2.59-6.28c-2.11,1-4.06,2.3-6.28,2.82-2.54.64-5.09,0-5.72-1.51-.91-2.22.2-4,1.67-5.52a12.92,12.92,0,0,1,4.84-3.46c-2.1-.23-4.45-.35-6.51-1.43-2.9-1.47-3.3-4.41-1-6.71,2.1-2.11,4.72-2.5,7.5-2.34a25.22,25.22,0,0,1,3.5.51A17,17,0,0,1,24.58,34c-1.08-1.91-1.08-3.58.15-5a4.8,4.8,0,0,1,5.17-1.67c2.62.76,4.33,2.71,6,4.73.47.64.79,1.35,1.31,2.11A47.44,47.44,0,0,1,38.56,27a11.76,11.76,0,0,1,2.7-5c2.5-2.46,5.68-1.71,6.51,1.67a18.25,18.25,0,0,1,.36,9,5.34,5.34,0,0,0,1.51-1.83,26.75,26.75,0,0,1,4.29-5.2,9.47,9.47,0,0,1,3.93-2.23c2.59-.63,4.33.88,4.18,3.5a6.77,6.77,0,0,1-.76,2.46,31.78,31.78,0,0,1-5.64,7.83A28.83,28.83,0,0,1,65.17,32a5.75,5.75,0,0,1,2.19-.16c2.38.16,3.49,1.91,2.66,4.17a11.55,11.55,0,0,1-4.41,5.25c-1.75,1.27-3.57,2.38-5.44,3.57a21.67,21.67,0,0,1,5.52.12c3.34.32,4.89,1.87,4.81,4.81,0,2.74-2.15,4.69-5.17,4.92-3.77.32-7.35-.63-11.08-2.1a22.34,22.34,0,0,1,3.26,4.25c1.55,3,1,6-1.27,7.19s-5.45-.12-7-3.14C49.52,64.89,48.29,67.56,45.71,68.55Z"/><path class="cls-3" d="M42.85,35.18a9.93,9.93,0,1,1-9.85,10A9.92,9.92,0,0,1,42.85,35.18Z"/><path class="cls-4" d="M38.2,42.73c.76.12,1.19.55,1.11,1.31a1.09,1.09,0,0,1-1.19,1A1.12,1.12,0,0,1,37,43.8,1.19,1.19,0,0,1,38.2,42.73Z"/><path class="cls-4" d="M49.68,43.92a1.17,1.17,0,0,1-1.07,1.19A1.1,1.1,0,0,1,47.34,44a1.11,1.11,0,0,1,1.23-1.19A1.14,1.14,0,0,1,49.68,43.92Z"/><path class="cls-5" d="M45.27,45.83c.6-.6.84-.16.8.35,0,.88.23,2-1,2.31-.24.08-.24-.36-.2-.64C45.35,47.26,44.91,46.46,45.27,45.83Z"/><path class="cls-6" d="M41.42,49l1.91.48c.23.28.71.08.91.48-1.19.59-2.3.71-3.3-.44A.59.59,0,0,1,41.42,49Z"/><path class="cls-7" d="M41.42,49c-.16.16-.32.36-.48.52a1.44,1.44,0,0,1-.79-1.15c-.12-.64-.68-1.35.43-1.63Z"/><path class="cls-7" d="M44.6,49c.16.16.31.36.47.52a1.43,1.43,0,0,0,.8-1.15c.12-.64.67-1.35-.44-1.63C45.15,47.46,44.87,48.21,44.6,49Z"/><path class="cls-8" d="M40.58,46.7c-.63.44-.31,1.07-.43,1.63a2.27,2.27,0,0,1-.44-1.67c0-.48-.24-1.31.4-1.31C40.94,45.31,40.58,46.14,40.58,46.7Z"/><path class="cls-9" d="M44.2,49.92c-.36-.08-.72-.12-.91-.48.47-.2,1-.63,1.39-.12C45,49.64,44.56,49.88,44.2,49.92Z"/><path class="cls-10" d="M45.27,45.83c0,.67.28,1.43-.32,2.06A4,4,0,0,1,45.27,45.83Z"/></g></g></svg>