<svg xmlns="http://www.w3.org/2000/svg" viewBox="0 0 88 88"><defs><style>.cls-1{fill:#cb2e48;}.cls-2{fill:#fee8e7;}.cls-3{fill:#fe786f;}.cls-4{fill:#fe9c94;}.cls-5{fill:#fe7d76;}.cls-6{fill:#fea7a1;}.cls-7{fill:#fe837c;}.cls-8{fill:#fe766d;}.cls-9{fill:#fea29b;}.cls-10{fill:#fec8c5;}.cls-11{fill:#fe736a;}.cls-12{fill:#fe6c63;}.cls-13{fill:#fea59f;}.cls-14{fill:#fe7269;}.cls-15{fill:#fe6e65;}.cls-16{fill:#fe6f66;}.cls-17{fill:#fe7168;}.cls-18{fill:#fec6c2;}.cls-19{fill:#fec4c0;}.cls-20{fill:#fea39d;}.cls-21{fill:#fea19b;}.cls-22{fill:#fe6a61;}.cls-23{fill:#fe9992;}.cls-24{fill:#fe9f99;}.cls-25{fill:#fe9b94;}.cls-26{fill:#fe9d97;}.cls-27{fill:#fe9c96;}.cls-28{fill:#fe9b95;}.cls-29{fill:#fe9d96;}.cls-30{fill:#fe8179;}.cls-31{fill:#fe958e;}.cls-32{fill:#fe938c;}.cls-33{fill:#fe9790;}.cls-34{fill:#fe9f98;}</style></defs><title>menu_inheritance2</title><g id="Layer_2" data-name="Layer 2"><g id="다운로드"><circle class="cls-1" cx="44" cy="44" r="44"/><path class="cls-2" d="M31.81,53.55a8.85,8.85,0,0,0-1.14.23c-.85.17-1.7.33-2.56.44-.64.07-1.28.13-1.93.17A9.55,9.55,0,0,1,22.61,54,3.22,3.22,0,0,1,21,52.89,1.22,1.22,0,0,1,21.28,51a4.06,4.06,0,0,1,.91-.52l-.79.08a12,12,0,0,1-1.8,0,7.36,7.36,0,0,1-1.92-.39A4.09,4.09,0,0,1,15.88,49,2.29,2.29,0,0,1,17,45.25a5.48,5.48,0,0,1,1.49-.3c-.33-.18-.63-.34-.91-.52a8.8,8.8,0,0,1-1.14-.87,6.27,6.27,0,0,1-1.15-1.32,3.85,3.85,0,0,1-.62-2.5,2.86,2.86,0,0,1,2.47-2.59,5.32,5.32,0,0,1,3.26.48,13.93,13.93,0,0,1,3.07,2l.81.69c.05,0,.07.1.14.07s0-.09,0-.14.09.09.09.16.05.32.08.48a17.12,17.12,0,0,0,.57,2.35,21.37,21.37,0,0,0,1.71,3.89,25.67,25.67,0,0,0,2.56,3.73,29.66,29.66,0,0,0,2.27,2.48C31.75,53.41,31.83,53.45,31.81,53.55Z"/><path class="cls-2" d="M64.54,40.43c.2-.06.31-.23.46-.36a16.44,16.44,0,0,1,3.47-2.38,6.36,6.36,0,0,1,2-.6,4.08,4.08,0,0,1,2.24.32,2.65,2.65,0,0,1,1.58,2.11A4,4,0,0,1,73.12,43a8.54,8.54,0,0,1-2.52,1.9l-.09.06a5.11,5.11,0,0,1,1.79.43,2.16,2.16,0,0,1,1.34,1.7,2.45,2.45,0,0,1-1.16,2.45,5.89,5.89,0,0,1-2.39.9,11.19,11.19,0,0,1-2.31.12c-.34,0-.67-.07-1-.1a4.89,4.89,0,0,1,.89.51,1.74,1.74,0,0,1,.59.67A1.19,1.19,0,0,1,68,52.83a3.63,3.63,0,0,1-2.18,1.33,9.62,9.62,0,0,1-1.6.22,9.14,9.14,0,0,1-1.17,0c-.61,0-1.22-.08-1.83-.15a33.66,33.66,0,0,1-4-.71h-.09c0-.14.11-.19.18-.27a29.45,29.45,0,0,0,3.11-3.58,25.6,25.6,0,0,0,1.91-3A20.34,20.34,0,0,0,64.2,42c.1-.44.19-.89.26-1.34A.22.22,0,0,1,64.54,40.43Z"/><path class="cls-3" d="M49.86,27.6a2.68,2.68,0,0,1,1.89.16c.14,0,.28.12.42.18a1.77,1.77,0,0,1,.6.33,4.31,4.31,0,0,1,.79.75c.14.16.26.34.4.51s.22.31.31.47l.16.3a2.75,2.75,0,0,1,.17.29c0,.09.09.18.12.27s0,.05,0,.08.1.2.13.3a1,1,0,0,0,.07.15l.15.35c0,.14.09.28.14.43s.09.25.13.38c.1.37.21.73.29,1.11s.18.9.25,1.36a1.64,1.64,0,0,0,0,.22.29.29,0,0,1,0,.09,1.52,1.52,0,0,0,0,.21s0,.06,0,.09a.65.65,0,0,0,0,.28.2.2,0,0,0,0,.07,26.7,26.7,0,0,1,.12,2.68,31.1,31.1,0,0,1-.73,5.85,32.08,32.08,0,0,1-1.87,5.66,31.45,31.45,0,0,1-3.09,5.48c0,.08-.08.18-.21.16s0,0,0,0c.1-.46-.1-.92,0-1.37a1.48,1.48,0,0,0,0-.47c0-.41,0-.81,0-1.21s0-.8,0-1.21a1.19,1.19,0,0,1,0-.53.75.75,0,0,0,0-.42,8,8,0,0,1,0-1.09c0-.56,0-1.13,0-1.7a4.43,4.43,0,0,0,0-.51,3.75,3.75,0,0,1,0-.58,1.06,1.06,0,0,0,0-.47,1.36,1.36,0,0,1,0-.45,7.3,7.3,0,0,1,0-.81.74.74,0,0,0,0-.21,3.62,3.62,0,0,1,0-.93,4.71,4.71,0,0,0,0-.84.59.59,0,0,1,0-.14c0-.39,0-.76,0-1.15,0-.79-.07-1.59,0-2.39,0-.36,0-.72,0-1.08a3.25,3.25,0,0,0,0-.88,9.14,9.14,0,0,1,0-1.17c0-.39,0-.78,0-1.18a9.07,9.07,0,0,1,0-1.38,11.17,11.17,0,0,0,0-1.53,4,4,0,0,1,0-1.47.17.17,0,0,0,0-.1,3,3,0,0,1-.08-.84,6.77,6.77,0,0,1,0-1.35,2.76,2.76,0,0,0-.06-.57C49.85,27.72,49.82,27.66,49.86,27.6Z"/><path class="cls-4" d="M36.74,28a4.21,4.21,0,0,1,1.42-.45A3.1,3.1,0,0,1,40,28a6.81,6.81,0,0,1,2.1,2l.15.22c.1.07.07.17.07.26-.06.52-.11,1-.14,1.55s-.08,1-.11,1.56c0,1.13-.07,2.27-.1,3.4,0,.77,0,1.53,0,2.3,0,.44,0,.88,0,1.33s0,.32-.35.33-.72,0-1.08,0A1.45,1.45,0,0,1,40,41a2.18,2.18,0,0,0-.57,0c-.66,0-1.31,0-2,0S36,41,35.25,41s-1.31,0-2,0c-.11,0-.17.07-.23.14s-.1-.1-.1-.16a2.4,2.4,0,0,0,0-.28,22.86,22.86,0,0,1-.14-2.74,21.6,21.6,0,0,1,.93-5.76,9.18,9.18,0,0,1,1.63-3.07,4.87,4.87,0,0,1,1.15-1A.75.75,0,0,1,36.74,28Z"/><path class="cls-5" d="M36.74,28a5.51,5.51,0,0,0-1.16.93,7.77,7.77,0,0,0-1.28,1.94,13.35,13.35,0,0,0-.91,2.67A18.94,18.94,0,0,0,33,35.62a23.3,23.3,0,0,0-.2,3.22c0,.6.1,1.2.12,1.8,0,.34-.07.46-.41.43l-.13,0c-.11,0-.18,0-.14.15s0,.17-.1.22-.19.1-.3,0-.19-.14-.22-.28-.1-.09-.15,0a1.23,1.23,0,0,0-.12.26s0,.07-.06.08-.07,0-.09-.07a.52.52,0,0,1,0-.35.43.43,0,0,0-.13.27c0,.09-.06.18-.17.14s-.12-.12-.09-.22a.42.42,0,0,0,.05-.17.88.88,0,0,0-.45.06.21.21,0,0,1-.23,0c-.15-.1-.25-.06-.29.11s-.05.16-.16.16-.12-.08-.13-.16a.2.2,0,0,0-.3-.17.44.44,0,0,1-.34,0,.13.13,0,0,0-.12,0c-.2.11-.42,0-.62.08s-.15,0-.2,0-.34-.05-.5-.05-.28,0-.3.2a.14.14,0,0,1-.14.13c-.08,0-.09,0-.11-.12a.37.37,0,0,0-.54-.21c-.05,0,0,.07,0,.1s.08.21-.05.25-.18-.09-.22-.19,0-.08,0-.13c-.07.12-.15.19-.28.17s-.06-.13-.07-.2-.07.09-.12.12-.22.1-.28,0S25,41,24.8,41s-.21,0-.27-.1l-.12-.66a19.37,19.37,0,0,1-.12-2.15,11.79,11.79,0,0,1,2-6.66,9.29,9.29,0,0,1,10.31-3.53Z"/><path class="cls-6" d="M52.74,28.3l-.58-.36c.38-.06.74-.2,1.12-.26a8.64,8.64,0,0,1,2.64-.13,10.27,10.27,0,0,1,3.48,1A9.09,9.09,0,0,1,63,32a11.28,11.28,0,0,1,1.53,4.28,12.66,12.66,0,0,1,.17,2.3c0,.55-.08,1.11-.15,1.65a1.48,1.48,0,0,0,0,.21c-.13.7-.26,1.41-.45,2.1a20.19,20.19,0,0,1-1.09,3,24.23,24.23,0,0,1-2.88,4.72c-.54.71-1.13,1.39-1.73,2-.4.43-.83.83-1.22,1.25s-1,1-1.54,1.41-1.14,1-1.74,1.43c-.08-.12,0-.2.07-.27.51-.67,1-1.33,1.48-2a27.1,27.1,0,0,0,2.23-4c.26-.58.53-1.15.75-1.74a28.66,28.66,0,0,0,.92-2.85A25.42,25.42,0,0,0,60,42.4a21.08,21.08,0,0,0,.17-3.89,15.37,15.37,0,0,0-.51-3.43,11,11,0,0,0-2.09-4.31,6.92,6.92,0,0,0-2.73-2,6.36,6.36,0,0,0-2-.46A.12.12,0,0,1,52.74,28.3Z"/><path class="cls-7" d="M31.81,53.55c-.44-.47-.9-.91-1.34-1.39a27.09,27.09,0,0,1-3.63-4.94s0,0,0,0,.12-.09.2-.1h7.18c.15,0,.18.14.21.24.24.74.52,1.47.81,2.19l.27.63a31.53,31.53,0,0,0,2.92,5.27A34,34,0,0,0,41,58.68c.69.78,1.43,1.51,2.17,2.24.32.32.66.62,1,.91a.33.33,0,0,1,.13.16s0,.07-.05,0c-.81-.38-1.6-.8-2.39-1.23a52.37,52.37,0,0,1-6.21-4A38.56,38.56,0,0,1,32,53.68,1.79,1.79,0,0,1,31.81,53.55Z"/><path class="cls-8" d="M49.86,27.6A3,3,0,0,1,50,28.9a3.57,3.57,0,0,0,0,.46c0,.23.12.47,0,.71a.14.14,0,0,0,0,.14c.17.26,0,.54,0,.81a2.9,2.9,0,0,0,0,.72,4,4,0,0,1,0,.49,11.09,11.09,0,0,1,0,1.16,1.39,1.39,0,0,0,0,.7.29.29,0,0,1,0,.18.68.68,0,0,0,0,.42l0,.07c-.12.34.06.69,0,1a1.83,1.83,0,0,0,0,.66,1.82,1.82,0,0,1,0,.32c0,.3,0,.6.07.91s0,.66,0,1,0,.55,0,.83a3.21,3.21,0,0,1,0,.62,6.88,6.88,0,0,0,.05,1.11c0,.14-.05.25,0,.41.07.42,0,.86,0,1.28,0,.23,0,.45,0,.67a2.46,2.46,0,0,1,0,.81c0,.09,0,.15,0,.23,0,.33,0,.66,0,1s-.08.49,0,.74a.57.57,0,0,1,0,.26c0,.11-.08.21,0,.33a.14.14,0,0,1,0,.17.14.14,0,0,0,0,.17c.12.16,0,.35,0,.51s0,.51,0,.77c0,.46.07.93,0,1.39a2.46,2.46,0,0,0,.06.66,4.11,4.11,0,0,1,0,.7c0,.09,0,.19,0,.28,0,.38,0,.75,0,1.13a3.4,3.4,0,0,1,0,.84,2.59,2.59,0,0,0,0,.55c0,.11,0,.22,0,.32a1.75,1.75,0,0,0,0,.85c.07.16-.08.35-.09.53s0,.14-.07.2c-.23.33-.47.66-.72,1s-.47.6-.71.9c-.06.07-.11.16-.23.11a1.44,1.44,0,0,1-.06-.65c0-.65,0-1.3,0-1.94a4.36,4.36,0,0,1,0-1v-.12c0-.77,0-1.55-.07-2.32,0-.56,0-1.13,0-1.69,0-.27-.07-.53-.06-.8a2.16,2.16,0,0,0,0-.8s0,0,0,0c.2-.44,0-.89,0-1.34s0-.61.05-.91-.05-.54,0-.82a15.7,15.7,0,0,1,0-1.94,4.9,4.9,0,0,0-.07-.67,3.75,3.75,0,0,1,0-.58,2.92,2.92,0,0,0,0-.59c0-.39,0-.78,0-1.16,0-.67,0-1.34,0-2a6.63,6.63,0,0,1,0-1.26,4.84,4.84,0,0,0,0-.76c0-.5,0-1,0-1.5s0-1,0-1.5,0-1,0-1.56,0-1.17-.07-1.76a5,5,0,0,1,0-1c0-.21-.11-.4-.06-.61A3.74,3.74,0,0,1,49.86,27.6Z"/><path class="cls-9" d="M44.26,62c.06-.08,0-.1,0-.13a31.3,31.3,0,0,1-2.63-2.52,31.73,31.73,0,0,1-2.13-2.51,32.87,32.87,0,0,1-2.21-3.27,25.11,25.11,0,0,1-1.76-3.47c0-.11.08-.12.16-.13a1.41,1.41,0,0,1,.29,0H42a.53.53,0,0,0,.45-.13c.15,0,.12.1.13.17.08.75.15,1.5.24,2.25.19,1.59.41,3.19.68,4.77a3.43,3.43,0,0,0,.06.34c.13.79.29,1.57.45,2.35s.32,1.41.49,2.12a.1.1,0,0,0,0,.08c.05,0,0,.12,0,.18S44.36,62.05,44.26,62Z"/><path class="cls-10" d="M43.49,57.42c-.1-.57-.2-1.14-.29-1.71s-.15-1-.23-1.53-.12-1-.19-1.44-.13-1.13-.19-1.7c0-.34-.07-.66-.09-1,0-.06,0-.14,0-.19a.32.32,0,0,1-.05-.23.9.9,0,0,0,0-.23.9.9,0,0,1,0-.23.78.78,0,0,0,0-.26.62.62,0,0,1,0-.19.77.77,0,0,0,0-.3.86.86,0,0,1,0-.16.93.93,0,0,0,0-.33,1.41,1.41,0,0,1,0-.2,1,1,0,0,0,0-.34,1.69,1.69,0,0,1,0-.32.89.89,0,0,0,0-.28c0-.58-.06-1.16-.1-1.74-.06-.75-.08-1.5-.11-2.26a16.46,16.46,0,0,1,0-1.72c0-.53,0-1.07,0-1.61a.17.17,0,0,0,0-.12v-.1c0-1.3,0-2.59,0-3.88,0-.87.06-1.74.12-2.61s.14-1.59.21-2.38v-.12a5.71,5.71,0,0,0,.16-.92,7.14,7.14,0,0,1,.4-1.49c.07-.14.15-.31.3-.31s.23.17.3.31a5.5,5.5,0,0,1,.31,1.05.18.18,0,0,0,0,.12c0,.41,0,.82,0,1.23s0,.76,0,1.14c0,1.29,0,2.57,0,3.85,0,.66,0,1.32,0,2-.07,4.88,0,9.76,0,14.63,0,.58,0,1.15,0,1.73s0,1.3,0,2,0,1.14,0,1.72C43.63,57.32,43.66,57.45,43.49,57.42Z"/><path class="cls-11" d="M48,28.63a2.44,2.44,0,0,1,.12.61c0,.23,0,.48,0,.71s.08.76.05,1.15a1.32,1.32,0,0,0,0,.76c0,.09,0,.21,0,.32,0,.87,0,1.74,0,2.62,0,.32,0,.65,0,1a7.62,7.62,0,0,1,0,1.17c0,.18.06.37,0,.58a7.94,7.94,0,0,0,0,1.29,14,14,0,0,1,0,1.45.07.07,0,0,0,0,.06c.12.33,0,.66,0,1a7.89,7.89,0,0,0,.06,1c0,.09-.06.15-.06.23a3.17,3.17,0,0,0,.07.81,1,1,0,0,1,0,.38,4.28,4.28,0,0,0,0,.8c0,.28,0,.57,0,.86a2.06,2.06,0,0,0,.07.92c.06.13,0,.22-.07.33-.06.3,0,.61,0,.91a1.08,1.08,0,0,1,0,.31.12.12,0,0,0,0,.13c.19.18.05.36,0,.53s-.06.14,0,.2a1.21,1.21,0,0,1,0,.68,7.72,7.72,0,0,0,.06.83c0,.21,0,.42,0,.63a12.36,12.36,0,0,0,0,1.61c0,.4.06.81,0,1.21s0,.7,0,1,0,.63,0,.94c0,.59,0,1.19,0,1.78a1.31,1.31,0,0,0,.05.62c0,.12-.09.17-.14.26a5.85,5.85,0,0,1-.4.47c-.05.06-.11.16-.21,0a1.88,1.88,0,0,1-.09-.7,8.17,8.17,0,0,0,0-1,2.18,2.18,0,0,1,0-.57,5.41,5.41,0,0,0,0-.9c0-.65,0-1.29,0-1.93s0-1.55,0-2.32a5.31,5.31,0,0,1,0-.69c0-.32,0-.63,0-.94a21.31,21.31,0,0,0,0-2.26,1.74,1.74,0,0,1,0-.32,2.91,2.91,0,0,0,0-.66c0-.3,0-.6,0-.9,0-.49,0-1,0-1.48v0c0-.51,0-1,0-1.55,0-.14,0-.28,0-.41,0-.38,0-.77,0-1.15s0-1,0-1.52a1.13,1.13,0,0,1,0-.32,1.16,1.16,0,0,0,0-.49,6,6,0,0,1,0-.85c0-.34,0-.67,0-1s0-.76,0-1.15a2,2,0,0,0,0-.49,1.48,1.48,0,0,1,0-.47c0-.48,0-1,0-1.45,0-.68-.09-1.35-.08-2,0-.52,0-1.05,0-1.58a2.26,2.26,0,0,0,0-.26A3.17,3.17,0,0,1,48,28.63Z"/><path class="cls-12" d="M44.52,34.23c.22-.35.34-.74.53-1.1a1,1,0,0,1,.08-.14c.14,0,.13.16.14.26.06.61,0,1.23.09,1.85.06.9.07,1.8.12,2.7,0,.18,0,.37,0,.55,0,.67.05,1.33.07,2s0,1.49,0,2.24,0,1.27,0,1.91c0,1,.09,2.09.1,3.13,0,.45,0,.89,0,1.34,0,1.3.05,2.6.05,3.9,0,.82,0,1.65,0,2.48,0,.58,0,1.16,0,1.74,0,.9,0,1.8,0,2.71,0,.35,0,.71,0,1.06s-.22.31-.35.45-.19.23-.35.25l-.06,0a1,1,0,0,1-.07-.66c0-.38,0-.75,0-1.13s0-.8,0-1.21V57.38c0-.48,0-1,0-1.42s0-1.13,0-1.7,0-1.27,0-1.91c0-1-.05-1.92-.07-2.88,0-.32,0-.64,0-1,0-.68-.09-1.36,0-2,0-.15,0-.31,0-.46a13.11,13.11,0,0,0-.06-1.4,4.42,4.42,0,0,1,0-.63c0-.55,0-1.08,0-1.62a10.85,10.85,0,0,1,0-1.27c0-.23,0-.46,0-.68,0-.64-.09-1.27-.05-1.9a10.38,10.38,0,0,0,0-1.25,1.11,1.11,0,0,0-.07-.26,4.72,4.72,0,0,1,0-.84c0-.54,0-1.07,0-1.61C44.45,34.43,44.43,34.31,44.52,34.23Z"/><path class="cls-13" d="M52.74,28.3a2.61,2.61,0,0,1,.84.06,6.36,6.36,0,0,1,2.41,1,7.62,7.62,0,0,1,2.32,2.44,11.68,11.68,0,0,1,1.08,2.36,15.39,15.39,0,0,1,.59,2.5,21.22,21.22,0,0,1,.19,3.82c0,.54-.09,1.09-.14,1.64s-.16,1.18-.26,1.77-.29,1.32-.46,2S59,47,58.75,47.63c-.29.81-.61,1.61-1,2.39s-.79,1.65-1.25,2.44a28.34,28.34,0,0,1-2,2.94l-.63.83a.17.17,0,0,0,0,.15,20.53,20.53,0,0,1-1.77,1.29c-.09-.12,0-.2.08-.27.59-.64,1.15-1.3,1.68-2A30.23,30.23,0,0,0,56,52.17a28.1,28.1,0,0,0,2.17-4.81,25.44,25.44,0,0,0,1.09-4.56,22.3,22.3,0,0,0,.23-3.65,16.11,16.11,0,0,0-.79-4.82,9.19,9.19,0,0,0-1.8-3.23,6.08,6.08,0,0,0-3.26-2,.25.25,0,0,1-.13,0A7.85,7.85,0,0,0,52.74,28.3Z"/><path class="cls-14" d="M47.32,29.37c.12.05.06.17.07.25,0,.32,0,.64,0,1,0,.51,0,1,0,1.51a5.51,5.51,0,0,0,.06.57,6.92,6.92,0,0,1,0,.91c0,.49,0,1,0,1.47s.05.83,0,1.24,0,.87,0,1.3.1.58,0,.87a.29.29,0,0,0,0,.16,1.27,1.27,0,0,1,0,.58,11.37,11.37,0,0,0,0,1.43,5.78,5.78,0,0,1,0,.93,2.11,2.11,0,0,0,0,.36c0,.35,0,.69,0,1,0,.73,0,1.47,0,2.2,0,.41,0,.82,0,1.24,0,.69,0,1.39,0,2.08,0,.42,0,.85,0,1.28a9.45,9.45,0,0,1,0,1.19c-.07.59.06,1.17,0,1.75,0,.31.05.63,0,.93,0,.55,0,1.1,0,1.65a2,2,0,0,0,0,.59c.07.43-.05.84,0,1.26s0,1,0,1.48c0,.08,0,.15,0,.22a1.57,1.57,0,0,1-.56.66s-.08,0-.1,0a3.72,3.72,0,0,1,0-.67c0-.64,0-1.27,0-1.9,0-.31,0-.62,0-.93s0-.87,0-1.31,0-1,0-1.45,0-1.1,0-1.64,0-1.16,0-1.74,0-1.46,0-2.2c0-.54,0-1.08,0-1.62s0-1.06,0-1.59c0-1.07,0-2.14,0-3.21,0-.66,0-1.32,0-2-.05-.82,0-1.64-.05-2.46a5.41,5.41,0,0,1,0-.9,1.73,1.73,0,0,0,0-.64,3.92,3.92,0,0,1,0-.84c0-1,0-1.94-.09-2.91,0-.29,0-.57,0-.86a.55.55,0,0,0-.07-.31A6.16,6.16,0,0,1,47.32,29.37Z"/><path class="cls-15" d="M45.83,60.92a5.58,5.58,0,0,1,0-1c0-.58,0-1.16,0-1.73,0-.17,0-.34,0-.51,0-.33-.05-.65,0-1s0-.72,0-1.09a6.63,6.63,0,0,0-.05-1.09c0-.15,0-.28,0-.42,0-.33-.05-.67,0-1,0-.53,0-1.06,0-1.6,0-.26,0-.54,0-.81,0-.74,0-1.48,0-2.23s0-1.23,0-1.84c0-.43,0-.84-.07-1.26s0-1,0-1.47,0-.73,0-1.1,0-1,0-1.51,0-1.24,0-1.86,0-1,0-1.46,0-1,0-1.52c0-.32-.06-.65-.05-1,0-.57-.06-1.13-.06-1.71a1.29,1.29,0,0,0-.11-.77,7,7,0,0,1,.5-1c.14-.11.16,0,.18.1a1.59,1.59,0,0,1,.06.61,6.11,6.11,0,0,0,0,1.13c0,.46.05.93.06,1.39s0,1,.06,1.52a12.53,12.53,0,0,0,0,1.37c.06.5,0,1,.05,1.49a2.44,2.44,0,0,1,0,.54,2.29,2.29,0,0,0,0,.69.38.38,0,0,1,0,.15,18.77,18.77,0,0,0,0,2.25c0,.6,0,1.2.07,1.81,0,.36,0,.72,0,1.08s0,1,0,1.5,0,.83,0,1.25c0,1.19,0,2.37,0,3.55,0,.62,0,1.23,0,1.85,0,.92,0,1.85,0,2.77,0,1.1,0,2.2,0,3.3A.89.89,0,0,1,45.83,60.92Z"/><path class="cls-16" d="M46.37,60.42a.77.77,0,0,1,0-.45c0-.66,0-1.32,0-2,0-.89,0-1.78,0-2.67,0-.34,0-.68,0-1,0-.56,0-1.11,0-1.66,0-.3,0-.6,0-.9,0-.53,0-1.05,0-1.58s0-1.1,0-1.65c0-.33,0-.68,0-1s0-.43,0-.64a9.93,9.93,0,0,0,0-1.09,2.48,2.48,0,0,1,0-.39c0-.48-.07-1-.07-1.44,0-.23,0-.45,0-.67,0-.63,0-1.25,0-1.88a11.45,11.45,0,0,1,0-1.31,1.24,1.24,0,0,0,0-.47,1.46,1.46,0,0,1,0-.47A10.53,10.53,0,0,0,46,37.88a4.68,4.68,0,0,1,0-1c0-.07,0-.13,0-.2,0-.3-.05-.59,0-.89,0-.58-.05-1.16-.05-1.74,0-.38-.08-.75-.07-1.12a4.8,4.8,0,0,0,0-.85c0-.07,0-.14-.13-.09a7,7,0,0,1,.58-1c.16,0,.15.1.16.19s0,.3,0,.45c0,.91.07,1.81.1,2.71s.07,1.71.09,2.57c0,.52,0,1,0,1.57,0,.78,0,1.55,0,2.32,0,.54,0,1.08,0,1.62,0,1.13,0,2.25.06,3.37,0,.5,0,1,0,1.5,0,.69.05,1.38,0,2.07s0,1.27,0,1.9,0,1.1,0,1.64,0,.91,0,1.36c0,.92,0,1.84,0,2.77s0,1.91,0,2.87a.29.29,0,0,1-.07.18l-.29.28S46.45,60.45,46.37,60.42Z"/><path class="cls-17" d="M46.86,59.93a2.11,2.11,0,0,1,0-.71c0-.32,0-.64,0-1s0-.54,0-.81,0-.49,0-.74c0-.46,0-.92,0-1.39s0-.83,0-1.24a9,9,0,0,1,0-1,2,2,0,0,0,0-.54c0-.23,0-.45,0-.67s0-.18,0-.27a11.63,11.63,0,0,1,0-1.32,3.43,3.43,0,0,0-.06-.34,4.63,4.63,0,0,1,.05-.51c0-.32-.05-.64,0-1,0-.59,0-1.18,0-1.76,0-1,0-2-.05-2.93,0-.44,0-.88,0-1.32s0-.87,0-1.31c0-.66,0-1.32,0-2,0-.5,0-1,0-1.51s0-1.08,0-1.62,0-1.11-.06-1.66c0-.37-.06-.75-.06-1.13s-.06-1.05,0-1.58a5.65,5.65,0,0,0,0-.58A.08.08,0,0,0,46.2,31a4.93,4.93,0,0,1,.45-.7c.17,0,.13.1.13.19,0,.35,0,.7,0,1.05s0,.86.05,1.28a9,9,0,0,0,0,1.27,1.47,1.47,0,0,1,0,.51c0,.49.1,1,.06,1.47a12.06,12.06,0,0,0,0,1.59c0,.34,0,.68,0,1s0,.72,0,1.08a.47.47,0,0,1,0,.2,3.63,3.63,0,0,0,0,.87c0,.41,0,.82,0,1.22s0,.68,0,1a9.73,9.73,0,0,1,0,1.21c0,.43,0,.85,0,1.29s0,.89,0,1.34.05.75,0,1.12c0,.7,0,1.39,0,2.08,0,.36,0,.72,0,1.07s0,.66,0,1c0,.48.05,1,0,1.44a5.57,5.57,0,0,1,0,1.08.08.08,0,0,0,0,.08c.11.19,0,.38,0,.57,0,.59,0,1.17,0,1.75a4.61,4.61,0,0,1,0,.83c0,.26,0,.52,0,.78v.8C47.18,59.67,47.09,59.86,46.86,59.93Z"/><path class="cls-18" d="M43.49,57.42s.1,0,.09-.09a4.44,4.44,0,0,0,0-1c0-.1,0-.19,0-.29,0-.35,0-.7,0-1.06s0-.56,0-.84c0-.56,0-1.11,0-1.67a2.61,2.61,0,0,1,0-.39q0-6.86,0-13.7c0-.36,0-.72,0-1.08s0-.67,0-1,0-.51,0-.76c0-1.26,0-2.51,0-3.76,0-.45,0-.9,0-1.35a8.83,8.83,0,0,0,0-1.26c0-.09,0-.2.09-.25.06.36.13.73.18,1.1s.07.47.11.7c0,.06,0,.15,0,.21a1.9,1.9,0,0,0,0,.41c.05.06,0,.14,0,.21v.12a.3.3,0,0,1,0,.23c0,.65,0,1.31,0,2,0,.23,0,.47,0,.71,0,1.4,0,2.79,0,4.18-.07,4.51,0,9,0,13.53,0,.73,0,1.46,0,2.19,0,1.65,0,3.29,0,4.93a1.37,1.37,0,0,1,0,.29c0,.07,0,.15-.13.1C43.77,59,43.61,58.21,43.49,57.42Z"/><path class="cls-19" d="M43.94,59.76c.12,0,.08-.12.08-.2V56.73c0-.64,0-1.28,0-1.92,0-.37,0-.75,0-1.12a9.2,9.2,0,0,0,0-1c0-.12,0-.24,0-.36V40.37c0-.28,0-.55,0-.84,0-1.74,0-3.48,0-5.23,0-.77,0-1.54,0-2.32,0-.05,0-.11,0-.15s0,0,0,0,0,.11,0,.16,0,.14,0,.21,0,.1,0,.16,0,.14,0,.21v.16c0,.08,0,.17,0,.25v.12c0,.08,0,.17,0,.25v.16c0,.08,0,.18,0,.25v.16c0,.07,0,.15,0,.21l.05.09V37a6,6,0,0,1,.06,1V61.53c0,.14,0,.29-.07.41l0,0s0,0,0,0C44.27,61.23,44.1,60.49,43.94,59.76Z"/><path class="cls-20" d="M53.52,29a1.84,1.84,0,0,1,.8.18A6.49,6.49,0,0,1,56.91,31a7.94,7.94,0,0,1,1.18,1.72A12.1,12.1,0,0,1,59.22,36a14.5,14.5,0,0,1,.27,2,20.77,20.77,0,0,1,.07,2.23,21.62,21.62,0,0,1-.23,2.53,22.88,22.88,0,0,1-.47,2.47,26.69,26.69,0,0,1-1.44,4.26,27.47,27.47,0,0,1-2.25,4.17,23.69,23.69,0,0,1-2.09,2.8c-.29.34-.57.7-.89,1a.21.21,0,0,0-.07.18,8.77,8.77,0,0,1-1.07.73c-.07-.14,0-.21.12-.29.45-.46.88-.94,1.3-1.43a27.4,27.4,0,0,0,3.17-4.47,25.92,25.92,0,0,0,2.18-4.8,24.59,24.59,0,0,0,1.11-4.63c.08-.59.13-1.18.17-1.77a16.71,16.71,0,0,0,0-1.87,14.9,14.9,0,0,0-1-5.2,8.58,8.58,0,0,0-1.95-3,6,6,0,0,0-2.09-1.3.84.84,0,0,1-.19-.08C53.77,29.4,53.67,29.2,53.52,29Z"/><path class="cls-21" d="M53.93,29.54a1,1,0,0,1,.46.14,5.92,5.92,0,0,1,2.45,1.86,10.12,10.12,0,0,1,1.79,3.65A13.1,13.1,0,0,1,59,37c.07.52.12,1,.15,1.57s0,1.2,0,1.8A19.64,19.64,0,0,1,59,42.94a26.2,26.2,0,0,1-.77,3.49,24.83,24.83,0,0,1-1,2.7,28.92,28.92,0,0,1-4.16,6.93c-.42.51-.86,1-1.31,1.49l-.62.66a.35.35,0,0,0-.1.2A10.7,10.7,0,0,1,50,59.1c-.07-.14,0-.22.12-.3l1.09-1.09a29.11,29.11,0,0,0,3.56-4.56,24.79,24.79,0,0,0,1.31-2.3,26.12,26.12,0,0,0,1.68-4.15,25.15,25.15,0,0,0,1-5.71c0-.63.05-1.27,0-1.9a13.76,13.76,0,0,0-1.43-6A6.71,6.71,0,0,0,55,30.43a7.88,7.88,0,0,0-.76-.4A4.94,4.94,0,0,1,53.93,29.54Z"/><path class="cls-22" d="M44.51,61.94V37.41c0-.13,0-.26,0-.39a.3.3,0,0,1,.08.22,17.94,17.94,0,0,1,0,1.94.78.78,0,0,0,0,.34c.07.15,0,.28,0,.43,0,.61,0,1.23.08,1.85,0,.24,0,.49,0,.73,0,.65,0,1.29,0,1.94a6.51,6.51,0,0,0,.07.76c0,.28,0,.56,0,.85s0,.59,0,.89a2,2,0,0,1,0,.35,3.74,3.74,0,0,0,.06.75s0,.08,0,.13c-.09.94,0,1.88,0,2.82,0,.42,0,.86,0,1.28s.05.61,0,.91c0,.48.06.95,0,1.42s0,.72,0,1.09a11,11,0,0,0,0,1.15c0,.43,0,.87,0,1.3a8.86,8.86,0,0,0,0,1.15,1.36,1.36,0,0,1,0,.6,1.11,1.11,0,0,0,0,.48c0,.31-.07.61,0,.92a.83.83,0,0,0,.08.22s0,.07,0,.1a3.84,3.84,0,0,1-.54.44l0,0C44.49,62.07,44.53,62,44.51,61.94Z"/><path class="cls-23" d="M44.6,62.07a2.92,2.92,0,0,1,.53-.46,1.37,1.37,0,0,0,.2-.13,15.18,15.18,0,0,0,2.44-1.77,27.9,27.9,0,0,0,2.45-2.29,29.07,29.07,0,0,0,3-3.73,28.56,28.56,0,0,0,1.49-2.48,25.38,25.38,0,0,0,1.87-4.51,23.37,23.37,0,0,0,.85-4c.07-.56.11-1.12.15-1.68a13.27,13.27,0,0,0,0-1.41,14.74,14.74,0,0,0-.93-5.09,8.39,8.39,0,0,0-1.13-2,2.86,2.86,0,0,1-.36-.42c-.08-.13-.09-.28-.16-.42.12-.07.19,0,.25.08a6.72,6.72,0,0,1,1.37,1.9,12.34,12.34,0,0,1,1.13,3.89A17.79,17.79,0,0,1,57.92,41,22.7,22.7,0,0,1,57,46.33a26.38,26.38,0,0,1-1.31,3.54,27.48,27.48,0,0,1-2.61,4.52c-.45.63-.94,1.24-1.44,1.83s-1.15,1.34-1.78,2a31.46,31.46,0,0,1-3.41,2.9l-.18.14a1,1,0,0,1-.4.24A10,10,0,0,1,44.6,62.07Z"/><path class="cls-24" d="M54.23,30a1.38,1.38,0,0,1,.7.3,6.08,6.08,0,0,1,1.78,1.61,10.5,10.5,0,0,1,1.83,4.32,19.18,19.18,0,0,1,.32,4.41,22.86,22.86,0,0,1-.39,3.3,26.15,26.15,0,0,1-1.47,5c-.29.73-.64,1.45-1,2.15a24.9,24.9,0,0,1-1.89,3.14,28.8,28.8,0,0,1-1.79,2.33c-.67.8-1.42,1.54-2.16,2.28a.44.44,0,0,0-.17.27l-.66.38c0-.13.06-.21.14-.27.28-.23.52-.51.79-.75s.73-.72,1.08-1.1a29.57,29.57,0,0,0,2-2.43,27.15,27.15,0,0,0,2.94-5,26,26,0,0,0,1.86-5.61,21.18,21.18,0,0,0,.42-3.07c0-.52.08-1,.07-1.58a16.12,16.12,0,0,0-.84-5.16,8.08,8.08,0,0,0-1.94-3.19,5.31,5.31,0,0,0-1.48-1.05Z"/><path class="cls-25" d="M46.28,61.21a2.82,2.82,0,0,1,.7-.59c.58-.46,1.15-.94,1.71-1.43a22.34,22.34,0,0,0,1.65-1.58c.39-.41.78-.84,1.15-1.27a23.85,23.85,0,0,0,1.53-2c.47-.67.92-1.35,1.33-2s.76-1.38,1.1-2.09A25.21,25.21,0,0,0,57,46.07a25.7,25.7,0,0,0,.59-2.74c.11-.7.18-1.4.22-2.11a19.26,19.26,0,0,0,0-2,15.87,15.87,0,0,0-.37-2.91,11.45,11.45,0,0,0-.7-2.17,7,7,0,0,0-1.56-2.29.25.25,0,0,0-.2-.09l-.12-.37c.09-.06.15,0,.22.05a5.82,5.82,0,0,1,1.4,1.68,10.83,10.83,0,0,1,1.33,3.8c.13.75.19,1.51.25,2.28s0,1.29,0,1.93a17.63,17.63,0,0,1-.21,2,27.45,27.45,0,0,1-.67,3.09,27.33,27.33,0,0,1-3.35,7.26A29,29,0,0,1,52,56c-.44.53-.89,1.06-1.36,1.55s-1,1-1.55,1.5-1.14,1-1.72,1.46c-.1.09-.23.12-.3.25A5.91,5.91,0,0,1,46.28,61.21Z"/><path class="cls-24" d="M54.39,30.32a.84.84,0,0,1,.52.22,6.62,6.62,0,0,1,2.29,2.52,11.81,11.81,0,0,1,1.2,3.5,13.27,13.27,0,0,1,.23,1.79c0,.52.08,1,.07,1.57q0,1.14-.15,2.28a21.77,21.77,0,0,1-.52,3A25.48,25.48,0,0,1,57,48.59a26.88,26.88,0,0,1-1.22,2.68,28.19,28.19,0,0,1-2,3.19c-.46.64-.93,1.26-1.43,1.86s-.77.91-1.19,1.33-.9.89-1.34,1.34c-.16.17-.39.27-.47.5a2.05,2.05,0,0,1-.66.4c0-.12.08-.18.15-.24.74-.67,1.45-1.35,2.13-2.06a28.21,28.21,0,0,0,5-7.21,27.66,27.66,0,0,0,1.68-4.5,25.09,25.09,0,0,0,.57-2.71c.09-.62.16-1.24.2-1.86s0-1,0-1.52a16.7,16.7,0,0,0-.33-3.38,11.86,11.86,0,0,0-1-3.07,6.53,6.53,0,0,0-2.21-2.54c-.1-.07-.22-.12-.32-.18Z"/><path class="cls-26" d="M54.55,30.6a.5.5,0,0,1,.24.06,6.56,6.56,0,0,1,2,2.12A10.82,10.82,0,0,1,58.1,36a15.85,15.85,0,0,1,.32,2,13.75,13.75,0,0,1,.07,1.57c0,.5,0,1,0,1.49s-.11,1.23-.19,1.85a23.8,23.8,0,0,1-1.23,5,26.77,26.77,0,0,1-1.86,4.08c-.42.75-.87,1.48-1.36,2.19S52.66,55.71,52,56.48s-1.53,1.66-2.33,2.45c-.33.32-.71.6-1,1a2,2,0,0,1-.54.33c-.06-.13.08-.17.12-.26a.28.28,0,0,1,.1-.09.34.34,0,0,0,.16-.13.28.28,0,0,1,.1-.09.47.47,0,0,0,.22-.2.48.48,0,0,1,.11-.09.83.83,0,0,0,.31-.28.35.35,0,0,1,.14-.13,2.12,2.12,0,0,0,.51-.48,8.41,8.41,0,0,1,.79-.79,1.83,1.83,0,0,0,.45-.47.24.24,0,0,1,.09-.11,1.12,1.12,0,0,0,.31-.34l.05-.06a.67.67,0,0,0,.2-.21l0,0a.68.68,0,0,0,.18-.23l0-.06A.44.44,0,0,0,52.2,56a.1.1,0,0,1,0-.06.65.65,0,0,0,.16-.17l0,0c0-.05.09-.1.13-.16l0,0a.78.78,0,0,0,.1-.15.13.13,0,0,1,0-.06.36.36,0,0,0,.11-.13l0,0A.38.38,0,0,0,53,55a1,1,0,0,1,.21-.29.33.33,0,0,0,.12-.16.35.35,0,0,1,.08-.13.29.29,0,0,0,.13-.16.42.42,0,0,1,.09-.14,3.63,3.63,0,0,0,.48-.68s0,0,0,0a5.8,5.8,0,0,0,.34-.52l0,0a.87.87,0,0,0,.11-.18s0,0,0,0a1.71,1.71,0,0,0,.13-.23s0,0,0-.05a1.4,1.4,0,0,0,.1-.16.08.08,0,0,1,0-.05,1,1,0,0,0,.14-.24l0-.05a3.8,3.8,0,0,0,.26-.49s0,0,0,0a8,8,0,0,0,.49-1l0-.05a2,2,0,0,0,.19-.42l0-.06a24.82,24.82,0,0,0,1.18-3.15,19.94,19.94,0,0,0,.52-2c.15-.74.28-1.47.36-2.21a20.5,20.5,0,0,0,.15-2.82,16,16,0,0,0-.72-4.5,9.13,9.13,0,0,0-1.36-2.72A6,6,0,0,0,54.87,31a.75.75,0,0,0-.2-.1Z"/><path class="cls-27" d="M49.41,59a.25.25,0,0,0-.12.13c-.13.08-.21.21-.33.28a.2.2,0,0,0-.09.09c-.09.05-.15.15-.24.2s-.07,0-.08.08l-.17.13s-.06,0-.08.08a3.23,3.23,0,0,0-.37.37,2.51,2.51,0,0,1-.54.28c0-.11,0-.14.1-.19.38-.32.77-.62,1.14-1,.59-.53,1.17-1.07,1.73-1.64a27.14,27.14,0,0,0,2.52-2.94,27.38,27.38,0,0,0,3.62-6.53,25.19,25.19,0,0,0,1.06-3.5A24.81,24.81,0,0,0,58,42.29a20.07,20.07,0,0,0,.1-3.38,16.07,16.07,0,0,0-.5-3.24,9.27,9.27,0,0,0-1.47-3.19,5.84,5.84,0,0,0-1-1.08,1.23,1.23,0,0,0-.25-.14l-.13-.33c.14-.05.22.07.3.13a6.89,6.89,0,0,1,2.16,2.79,13.45,13.45,0,0,1,1.1,4.5,19.27,19.27,0,0,1,0,3.72,24.39,24.39,0,0,1-.88,4.39,29.93,29.93,0,0,1-1.24,3.31c-.06.16-.15.3-.2.45-.18.36-.34.73-.54,1.07-.11.17-.18.37-.29.54a2,2,0,0,0-.16.29,2.12,2.12,0,0,0-.12.2c-.07.09-.1.2-.17.29s-.07.14-.12.2-.26.38-.37.58-.32.5-.5.74a.83.83,0,0,1-.08.12l-.12.17-.08.12-.13.17A1.1,1.1,0,0,0,53,55l-.13.17a1,1,0,0,1-.12.16l0,0a1.77,1.77,0,0,0-.12.17c-.05.07-.12.13-.17.2s-.12.13-.16.21l0,0c0,.08-.12.13-.17.21l0,0c-.06.09-.15.15-.21.24s-.15.16-.2.25l0,0c-.09.14-.24.23-.33.37s-.07,0-.08.08-.33.31-.46.5a9.57,9.57,0,0,0-.78.78C49.75,58.63,49.61,58.84,49.41,59Z"/><path class="cls-28" d="M54.84,31.26a.15.15,0,0,1,.2,0,6.62,6.62,0,0,1,1.53,1.77,10.37,10.37,0,0,1,1.16,3,18.12,18.12,0,0,1,.43,4.56,22.57,22.57,0,0,1-.27,2.72,25,25,0,0,1-1.66,5.81c-.25.59-.51,1.17-.79,1.74a27.47,27.47,0,0,1-2.48,4q-.75,1-1.59,2c-.6.67-1.23,1.32-1.89,1.94a21.77,21.77,0,0,1-1.92,1.66c-.07.05-.16.11-.17.21l-.33.18c0-.18.21-.25.33-.34.54-.44,1.08-.88,1.59-1.35s.81-.72,1.18-1.11a31.42,31.42,0,0,0,2.4-2.76A28.14,28.14,0,0,0,55.1,51.3a26.85,26.85,0,0,0,1.8-4.24,24,24,0,0,0,.85-3.49A18.86,18.86,0,0,0,58,41.45c0-.59.09-1.18.07-1.76a19.2,19.2,0,0,0-.23-2.5,12.42,12.42,0,0,0-.48-2.07A8.61,8.61,0,0,0,55.9,32.3a6,6,0,0,0-.78-.81.43.43,0,0,0-.21-.11S54.87,31.3,54.84,31.26Z"/><path class="cls-29" d="M47.93,60.34A.7.7,0,0,1,48.3,60c0,.1-.16.13-.17.25A2.12,2.12,0,0,0,47.93,60.34Z"/><path class="cls-18" d="M44.43,33.77c-.07-.07,0-.16,0-.25C44.46,33.59,44.42,33.69,44.43,33.77Z"/><path class="cls-18" d="M44.39,33.36c-.07-.07,0-.16,0-.25C44.42,33.19,44.38,33.27,44.39,33.36Z"/><path class="cls-18" d="M44.35,33c-.07-.07,0-.16,0-.25C44.38,32.82,44.34,32.9,44.35,33Z"/><path class="cls-10" d="M44.18,31.51c-.06-.06,0-.14,0-.21S44.18,31.44,44.18,31.51Z"/><path class="cls-18" d="M44.47,34.14c-.06-.06,0-.14,0-.21S44.47,34.07,44.47,34.14Z"/><path class="cls-10" d="M44.1,30.89c-.06-.05,0-.13,0-.2S44.1,30.82,44.1,30.89Z"/><path class="cls-18" d="M44.31,32.58c-.07-.06,0-.14,0-.21S44.3,32.51,44.31,32.58Z"/><path class="cls-18" d="M44.26,32.21c-.06-.06,0-.14,0-.21S44.26,32.14,44.26,32.21Z"/><path class="cls-10" d="M44.22,31.84h0v-.21C44.25,31.69,44.22,31.77,44.22,31.84Z"/><path class="cls-30" d="M34.27,47.1a.52.52,0,0,1-.28,0H27.1a.55.55,0,0,0-.28,0,19.26,19.26,0,0,1-1.38-2.9A19,19,0,0,1,24.53,41a.41.41,0,0,1,0-.11c.23.08.49,0,.72.08.06,0,.14,0,.13.09s0,.12.09.12.16,0,.2-.08a.16.16,0,0,1,0-.1s.07-.08.12,0,0,.08,0,.13-.13.1,0,.13.18,0,.2-.1,0-.14.07-.13.07.09.08.15a.13.13,0,0,0,0,.06c0,.08.07.21.16.18s0-.16,0-.22,0-.17.1-.17a.64.64,0,0,1,.47.06c.07.05.15.06.09.17s0,.12.05.13.13-.07.11-.11c-.07-.28.17-.21.28-.24s.24,0,.35,0a.11.11,0,0,1,.11,0,.25.25,0,0,0,.35,0s.08,0,.09,0c.18.14.33,0,.5,0A.16.16,0,0,1,29,41a.15.15,0,0,0,.21,0,.26.26,0,0,1,.28,0c.11,0,.22,0,.15.21a.1.1,0,0,0,.1.14.1.1,0,0,0,.09-.15c-.06-.13.05-.13.11-.16s.19-.1.25,0,.11.08.2,0,.37,0,.56-.1c-.05.1,0,.21-.1.29s0,.1,0,.15.05,0,.08,0,.08-.07.05-.12.07-.14.07-.23a.12.12,0,0,1,.17-.09c.1.05,0,.09,0,.14s0,.2,0,.31c0-.14.12-.24.16-.36a.13.13,0,0,1,.16-.1.11.11,0,0,1,.09.14c0,.16.15.15.21.25s.17,0,.26,0,.08,0,0-.12,0-.27.2-.23a1.23,1.23,0,0,0,.27,0c.22,0,.28-.18.25-.39.11.14,0,.32.08.46a.22.22,0,0,1,.06.15.85.85,0,0,0,0,.23,29.77,29.77,0,0,0,1.14,5.38A.18.18,0,0,1,34.27,47.1Z"/><path class="cls-31" d="M46.86,59.93a3.54,3.54,0,0,0,.41-.45,4.84,4.84,0,0,0,.62-.66,6.88,6.88,0,0,0,.7-.82,9.79,9.79,0,0,0,.82-1l0,0a3.66,3.66,0,0,0,.81-.81,25.63,25.63,0,0,0,1.92-2.48,26.24,26.24,0,0,0,2.22-3.93A27.32,27.32,0,0,0,55.46,47a22.72,22.72,0,0,0,.75-3,23,23,0,0,0,.3-2.48c.05-.67,0-1.34,0-2a16.62,16.62,0,0,0-.36-2.81.92.92,0,0,0-.14-.39.17.17,0,0,1,0-.17.21.21,0,0,0,0-.2v0c-.07-.09,0-.2-.05-.29v-.08c0-.06,0-.14,0-.2v-.09c0-.06,0-.14,0-.2l-.24-1.4c.16,0,.21.09.26.19A5.72,5.72,0,0,1,56.4,35a13,13,0,0,1,.72,3.2,18.58,18.58,0,0,1,.11,2A22.46,22.46,0,0,1,57,42.88a23.59,23.59,0,0,1-.71,3.44,26.69,26.69,0,0,1-3.84,7.91,25.19,25.19,0,0,1-1.94,2.43c-.39.43-.78.86-1.2,1.27-.72.69-1.46,1.36-2.24,2-.1.07-.19.19-.35.12A.52.52,0,0,0,46.86,59.93Z"/><path class="cls-32" d="M56,36c.08,0,.16.1.07.21s0,.07,0,.09a2,2,0,0,1,.3,1.06,12.49,12.49,0,0,1,.22,1.84,20,20,0,0,1,0,2.05,9.51,9.51,0,0,1-.14,1.5c-.07.42-.08.85-.17,1.27-.12.61-.24,1.21-.4,1.82a23.48,23.48,0,0,1-.8,2.5c-.23.6-.48,1.18-.75,1.76a26.27,26.27,0,0,1-1.41,2.61A24.77,24.77,0,0,1,51,55.33c-.41.51-.83,1-1.28,1.48a.41.41,0,0,1-.3.16c.27-.38.58-.75.82-1.15A9.8,9.8,0,0,0,51,54.75a32.94,32.94,0,0,0,1.86-3.26,31.74,31.74,0,0,0,1.84-4.58,28.6,28.6,0,0,0,.88-3.51c.13-.69.24-1.38.31-2.08s.11-1.55.17-2.32,0-1.3,0-2C56.06,36.69,56,36.32,56,36Z"/><path class="cls-33" d="M46.77,60.05a1,1,0,0,0,.51-.33c.57-.48,1.13-1,1.67-1.48s.92-.91,1.36-1.39a22.63,22.63,0,0,0,2-2.42,28.46,28.46,0,0,0,2-3.14A26.66,26.66,0,0,0,56.07,47a22.66,22.66,0,0,0,.81-3.37,16.91,16.91,0,0,0,.22-1.88,18.25,18.25,0,0,0,.07-2.09c0-.59-.07-1.18-.14-1.77a12.35,12.35,0,0,0-.55-2.48,7.77,7.77,0,0,0-.68-1.6c0-.07-.09-.14-.18-.15a10.65,10.65,0,0,1-.29-1.11c.15,0,.21.12.28.21a7.87,7.87,0,0,1,1,1.86,13.33,13.33,0,0,1,.88,3.83,18.43,18.43,0,0,1,0,2.78,22.81,22.81,0,0,1-1,5.54,26.63,26.63,0,0,1-4.91,9.05c-.46.57-1,1.12-1.47,1.66a32.34,32.34,0,0,1-3.06,2.79,14.13,14.13,0,0,1-1.33,1c-.08.05-.16.13-.27.05l.33-.36a5.08,5.08,0,0,0,.54-.5Z"/><path class="cls-23" d="M45.5,61.29a1.68,1.68,0,0,0,.71-.41c.84-.62,1.64-1.29,2.42-2s1.26-1.19,1.85-1.83a27.89,27.89,0,0,0,3.06-4A26.8,26.8,0,0,0,55.24,50c.36-.8.68-1.61,1-2.43a25.85,25.85,0,0,0,1-3.58c.12-.64.19-1.29.26-1.94a21.76,21.76,0,0,0,.07-2.91,13.57,13.57,0,0,0-.37-2.76,10.26,10.26,0,0,0-1-2.74,3.5,3.5,0,0,0-.79-1.08,1,1,0,0,1-.12-.37,4.16,4.16,0,0,1,1,1.23,10.6,10.6,0,0,1,1.22,3.52,19.55,19.55,0,0,1,.25,2.29c0,.39,0,.79,0,1.19,0,.91-.11,1.81-.23,2.72a24.14,24.14,0,0,1-1.13,4.58,25.72,25.72,0,0,1-1.19,2.83,25,25,0,0,1-1.5,2.67,29.62,29.62,0,0,1-2,2.72A26.4,26.4,0,0,1,49,58.7a25.69,25.69,0,0,1-3.26,2.63c-.13.08-.28.15-.42.22a.09.09,0,0,1-.12,0C45.3,61.43,45.37,61.32,45.5,61.29Z"/><path class="cls-29" d="M56.11,49.77a2.64,2.64,0,0,1,.23-.61,24.56,24.56,0,0,0,1.53-4.89c.14-.68.22-1.37.3-2.06a18.83,18.83,0,0,0,.11-3.27,14.62,14.62,0,0,0-.67-3.87,9.32,9.32,0,0,0-1.18-2.49A6,6,0,0,0,54.88,31a.44.44,0,0,0-.17-.07l0,0c.16-.08.25.06.34.13a6.72,6.72,0,0,1,2.1,2.62,11.83,11.83,0,0,1,1,3.34,16.4,16.4,0,0,1,.22,2.11,14,14,0,0,1,0,1.45c0,.6-.07,1.19-.14,1.79a22.39,22.39,0,0,1-.58,3.15,26.94,26.94,0,0,1-1.28,3.8A1.74,1.74,0,0,1,56.11,49.77Z"/><path class="cls-32" d="M56,35.62c.18.08,0,.2,0,.29C55.91,35.82,56,35.72,56,35.62Z"/><path class="cls-32" d="M55.87,35.05c.06.05,0,.13,0,.2S55.87,35.12,55.87,35.05Z"/><path class="cls-32" d="M55.91,35.33c.06.06,0,.14,0,.21S55.92,35.4,55.91,35.33Z"/><path class="cls-34" d="M34.27,47.1a28.27,28.27,0,0,1-.75-2.84c-.15-.79-.32-1.57-.41-2.37a3,3,0,0,1,0-.43c0-.06,0-.14,0-.2v-.17c0-.21.1-.22.26-.2s.56,0,.84,0a7.36,7.36,0,0,0,1,0c.32,0,.64,0,1,0a1.65,1.65,0,0,1,.7,0,1.75,1.75,0,0,0,.51,0l1.48,0c.3,0,.6,0,.89,0s.39.08.59,0c.38-.08.78,0,1.16,0h.1c.33,0,.33,0,.33-.33V39.32c.07.07,0,.15,0,.22,0,.38,0,.75,0,1.13,0,.68,0,1.37,0,2s.05,1.27.08,1.91.1,1.45.12,2.18c0,.08,0,.18,0,.25s0,.22,0,.33,0,.23,0,.33v.2c.05.11,0,.23,0,.33v.17c.05.09,0,.2,0,.29v.2c.05.08,0,.17,0,.25v.24c.05.07,0,.15,0,.21v.25c0,.12,0,.18-.15.19H35.71c-.09,0-.19,0-.25.08a12.72,12.72,0,0,1-.54-1.25c-.21-.54-.41-1.09-.58-1.64A.41.41,0,0,0,34.27,47.1Z"/><path class="cls-9" d="M42.29,47.71c-.07-.1,0-.22,0-.32C42.33,47.49,42.28,47.6,42.29,47.71Z"/><path class="cls-9" d="M42.34,48.25c-.08-.1,0-.22-.05-.33C42.37,48,42.32,48.14,42.34,48.25Z"/><path class="cls-9" d="M42.38,48.7c-.08-.08,0-.19,0-.29C42.41,48.5,42.36,48.6,42.38,48.7Z"/><path class="cls-9" d="M42.41,49.15c-.07-.07,0-.16,0-.24C42.45,49,42.41,49.07,42.41,49.15Z"/><path class="cls-9" d="M42.25,47.06c-.07-.08,0-.17,0-.25S42.24,47,42.25,47.06Z"/><path class="cls-9" d="M42.45,49.61c-.06-.06,0-.14,0-.21S42.45,49.54,42.45,49.61Z"/><path class="cls-23" d="M45.21,61.53h.13a.43.43,0,0,1-.21.09l0-.09Z"/><path class="cls-29" d="M55.37,51.29a7.66,7.66,0,0,1,.54-1.07A3.85,3.85,0,0,1,55.37,51.29Z"/><path class="cls-29" d="M53.65,54.13a3.28,3.28,0,0,1,.49-.74A2.33,2.33,0,0,1,53.65,54.13Z"/><path class="cls-29" d="M49.41,59a2.06,2.06,0,0,1,.53-.49A1.65,1.65,0,0,1,49.41,59Z"/><path class="cls-29" d="M50.73,57.71a1.53,1.53,0,0,1,.45-.5A1.67,1.67,0,0,1,50.73,57.71Z"/><path class="cls-29" d="M54.14,53.39a1.79,1.79,0,0,1,.37-.58A1.6,1.6,0,0,1,54.14,53.39Z"/><path class="cls-29" d="M55.09,51.83a1.4,1.4,0,0,1,.28-.54A1.4,1.4,0,0,1,55.09,51.83Z"/><path class="cls-29" d="M51.26,57.13c.05-.17.21-.26.33-.37C51.54,56.94,51.38,57,51.26,57.13Z"/><path class="cls-29" d="M55.91,50.22a.87.87,0,0,1,.2-.45A.87.87,0,0,1,55.91,50.22Z"/><path class="cls-29" d="M49,59.39a.65.65,0,0,1,.33-.28C49.19,59.22,49.11,59.35,49,59.39Z"/><path class="cls-29" d="M48.63,59.68c.06-.08.12-.18.24-.2C48.81,59.56,48.75,59.66,48.63,59.68Z"/><path class="cls-29" d="M51.63,56.72c0-.12.12-.18.21-.25C51.82,56.6,51.72,56.66,51.63,56.72Z"/><path class="cls-29" d="M51.84,56.47c0-.12.12-.18.2-.24C52,56.35,51.92,56.41,51.84,56.47Z"/><path class="cls-29" d="M54.92,52.12a.42.42,0,0,1,.17-.29A.48.48,0,0,1,54.92,52.12Z"/><path class="cls-29" d="M54.63,52.61a.44.44,0,0,1,.17-.29A.44.44,0,0,1,54.63,52.61Z"/><path class="cls-29" d="M52.29,55.94a.29.29,0,0,1,.16-.21A.27.27,0,0,1,52.29,55.94Z"/><path class="cls-29" d="M52.08,56.19c0-.11.09-.16.17-.21A.3.3,0,0,1,52.08,56.19Z"/><path class="cls-29" d="M52.45,55.73c0-.1.09-.15.17-.2A.27.27,0,0,1,52.45,55.73Z"/><path class="cls-29" d="M54.51,52.81a.24.24,0,0,1,.12-.2A.24.24,0,0,1,54.51,52.81Z"/><path class="cls-29" d="M54.8,52.32a.23.23,0,0,1,.12-.2A.24.24,0,0,1,54.8,52.32Z"/><path class="cls-29" d="M53.44,54.42a.21.21,0,0,1,.12-.17C53.56,54.34,53.51,54.38,53.44,54.42Z"/><path class="cls-29" d="M53.23,54.71a.21.21,0,0,1,.13-.17A.23.23,0,0,1,53.23,54.71Z"/><path class="cls-29" d="M52.91,55.16A.19.19,0,0,1,53,55,.22.22,0,0,1,52.91,55.16Z"/><path class="cls-29" d="M52.78,55.32a.21.21,0,0,1,.13-.16A.2.2,0,0,1,52.78,55.32Z"/><path class="cls-29" d="M52.62,55.53a.21.21,0,0,1,.12-.17C52.74,55.45,52.68,55.49,52.62,55.53Z"/><path class="cls-29" d="M48.38,59.89a.21.21,0,0,1,.17-.13A.23.23,0,0,1,48.38,59.89Z"/><path class="cls-5" d="M26.92,41.36c0,.08,0,.12-.08.09s-.22-.08-.32-.15-.11-.13,0-.16.22-.08.31,0A.5.5,0,0,1,26.92,41.36Z"/><path class="cls-5" d="M28.14,41.4a.06.06,0,0,1-.05.06.43.43,0,0,1-.41-.19c0-.09,0-.15.08-.12a1.93,1.93,0,0,1,.36.22S28.13,41.38,28.14,41.4Z"/><path class="cls-5" d="M25.21,41.48c-.13,0-.28,0-.3-.18s.06-.1.11-.07.28,0,.29.18S25.26,41.5,25.21,41.48Z"/><path class="cls-5" d="M29.37,41.06c.06,0,.18,0,.18.16a.15.15,0,0,1-.17.14c-.1,0-.13-.07-.12-.16S29.25,41.05,29.37,41.06Z"/><path class="cls-5" d="M30.69,41.3c0,.06,0,.09-.08.09s-.07-.06-.08-.11,0-.1.06-.09A.11.11,0,0,1,30.69,41.3Z"/><path class="cls-5" d="M30.21,41.27c.05,0,.11,0,.11.09s-.06.08-.1.09a.07.07,0,0,1-.09-.08C30.12,41.31,30.15,41.28,30.21,41.27Z"/><path class="cls-5" d="M28.71,41.31c.05,0,.05,0,.05.09s0,.08-.05.08-.07-.06-.07-.11S28.66,41.31,28.71,41.31Z"/><path class="cls-5" d="M29,41.21s0,.08-.07.06-.05,0-.05-.07,0-.07.07-.06S29,41.19,29,41.21Z"/><path class="cls-5" d="M27.54,41.42a.05.05,0,0,1-.07,0,.08.08,0,0,1,0,0s0,0,.07,0S27.54,41.39,27.54,41.42Z"/><path class="cls-5" d="M25.78,41.39l0,0s0,0,0,0,0,0,0,0A0,0,0,0,1,25.78,41.39Z"/><path class="cls-4" d="M33,41.26c.07.05,0,.13,0,.2S33.05,41.33,33,41.26Z"/></g></g></svg>