<svg xmlns="http://www.w3.org/2000/svg" viewBox="0 0 37.26 38.3"><defs><style>.cls-1{fill:none;stroke:#000;stroke-miterlimit:10;stroke-width:2.3px;}</style></defs><title>airplane</title><g id="Layer_2" data-name="Layer 2"><g id="_2.3" data-name="2.3"><path class="cls-1" d="M35.74,1.29a.81.81,0,0,0-.87,0L1.55,20.65a.77.77,0,0,0-.39.79.79.79,0,0,0,.59.67l8.47,2.31a.83.83,0,0,0,.74-.15L24.48,13.44,15,25.25a.79.79,0,0,0-.17.49V36.35a.81.81,0,0,0,.59.77.91.91,0,0,0,.23,0,.82.82,0,0,0,.69-.37l5.89-9.07,8.61,2.35a.83.83,0,0,0,.67-.1.77.77,0,0,0,.36-.55L36.1,2.07A.8.8,0,0,0,35.74,1.29Z"/></g></g></svg>