<svg xmlns="http://www.w3.org/2000/svg" viewBox="0 0 60.44 32.25"><title>자산 6</title><g id="레이어_2" data-name="레이어 2"><g id="레이어_1-2" data-name="레이어 1"><path d="M17.46,18.83a13.37,13.37,0,0,1-7.78-7.31,13.77,13.77,0,0,1-8.13,8L0,17.24c4.79-1.73,8.14-6,8.14-10.58V5H.94V2.63H18.18V5H11.09V6.62c0,4.21,3.16,8.25,7.84,9.9Zm9.93,10.33v2.41H5.83v-10h3v7.56ZM23.51,8.93V0h3V23.69h-3V11.34H17V8.93Z"/><path d="M42.41,9.94c0,5.14,2.59,10.47,6.94,12.81L47.66,25A15.08,15.08,0,0,1,41,16.05c-1.12,4.11-3.38,7.71-6.55,9.62l-1.73-2.2c4.36-2.59,6.84-8.24,6.84-13.53V8.39h-6V5.94h6V1.15h2.84V5.94h5.94V8.39h-6ZM51.12.76h2.81V30.6H51.12V15.19H46.19V12.74h4.93ZM60.44,0V32.25H57.6V0Z"/></g></g></svg>