<svg xmlns="http://www.w3.org/2000/svg" viewBox="0 0 32.51 36"><title>animal</title><g id="Layer_2" data-name="Layer 2"><g id="일러스트"><path d="M16.22,35.1c-.52-.35-1-.65-1.5-1-.82-.6-1.59-1.25-2.41-1.85a14.24,14.24,0,0,0-4.64-2.36A37.78,37.78,0,0,1,2.56,28,4.58,4.58,0,0,1,.85,26.55,4.08,4.08,0,0,1,0,24.32a7.06,7.06,0,0,1,.86-4.08,5.18,5.18,0,0,1,2.27-2.15A12.53,12.53,0,0,1,6.47,17a28.9,28.9,0,0,0,6-2.07c.56-.3,1.12-.6,1.72-.86A4.64,4.64,0,0,1,18,14a6.15,6.15,0,0,1,1.85,1.12,4.16,4.16,0,0,1,1.33,2.7,31.54,31.54,0,0,0,1.68,6.36c.47,1.24,1,2.49,1.41,3.78a6.07,6.07,0,0,1,.35,2.92,6.14,6.14,0,0,1-1.81,3.48A5.46,5.46,0,0,1,19.44,36a8.44,8.44,0,0,1-1.5-.13,1.63,1.63,0,0,1-.43-.08Z"/><path d="M21.59.44a4.93,4.93,0,0,1,.77,1,4.06,4.06,0,0,1,.56,2.74,6.8,6.8,0,0,1-2.11,4.3A4.2,4.2,0,0,1,18,9.72,2.78,2.78,0,0,1,15.4,8a5.25,5.25,0,0,1-.08-3.86A6.48,6.48,0,0,1,17.72.83,3.51,3.51,0,0,1,20.81.1h.09Z"/><path d="M12.1,10.23A5.35,5.35,0,0,1,9.22,13a3.06,3.06,0,0,1-4-1.54A2.22,2.22,0,0,1,5,11a6.08,6.08,0,0,1,.3-4.26,6.29,6.29,0,0,1,2.15-2.7A3.36,3.36,0,0,1,10,3.36,3,3,0,0,1,12.4,5.25a5.85,5.85,0,0,1-.13,4.64A3.54,3.54,0,0,1,12.1,10.23Z"/><path d="M23.43,8.34A6.57,6.57,0,0,1,27,5.21a3.75,3.75,0,0,1,2.66,0A2.08,2.08,0,0,1,31,6.41a5.5,5.5,0,0,1-1.29,6.06,5.74,5.74,0,0,1-3.22,1.71,3.11,3.11,0,0,1-3.65-2.44,2.52,2.52,0,0,1,0-.82A5.52,5.52,0,0,1,23.43,8.34Z"/><path d="M24.81,19.29a6.72,6.72,0,0,1,2.75-3.09,3.6,3.6,0,0,1,2.66-.26,1.91,1.91,0,0,1,1.07.78,4.77,4.77,0,0,1,1,4.68,6.3,6.3,0,0,1-1.76,3,3.58,3.58,0,0,1-4.47.39,3.63,3.63,0,0,1-1.58-1.89,3.36,3.36,0,0,1-.13-2C24.47,20.28,24.72,19.64,24.81,19.29Z"/></g></g></svg>