<svg xmlns="http://www.w3.org/2000/svg" viewBox="0 0 36 36"><title>baby</title><g id="Layer_2" data-name="Layer 2"><g id="완료"><path d="M32.89,15.75A12.82,12.82,0,0,0,26,6.8a6.68,6.68,0,0,0,1-4.23,1.29,1.29,0,0,0-2.57,0c0,1.58,0,2.34-1,3.27A17,17,0,0,0,21,5.34a6.82,6.82,0,0,0,.88-4,1.29,1.29,0,1,0-2.57,0c0,1.83,0,2.65-1.72,3.87a20.6,20.6,0,0,0-2.41.16,9.81,9.81,0,0,0,.27-2.75,1.29,1.29,0,0,0-2.57,0c0,1.76,0,2.51-1.35,3.6a12.71,12.71,0,0,0-8.4,9.58C1.26,16.57,0,19,0,21.86c0,3.4,1.77,6.11,4.09,6.4C5.79,32,9.58,36,18,36s12.21-4,13.91-7.74c2.32-.29,4.09-3,4.09-6.4C36,19,34.74,16.57,32.89,15.75Zm-1.35,10a1.29,1.29,0,0,0-1.67.75c-1.76,4.62-5.75,7-11.87,7s-10.11-2.34-11.87-7a1.3,1.3,0,0,0-1.63-.76c-.91,0-1.93-1.65-1.93-3.85s1-3.7,1.82-3.83a1.27,1.27,0,0,0,1.08-1C6.65,10.84,10.87,7.71,18,7.71S29.34,10.84,30.53,17a1.27,1.27,0,0,0,1.07,1c.87.13,1.83,1.73,1.83,3.83S32.41,25.71,31.54,25.72Z"/><path d="M11.57,21.86a2.58,2.58,0,1,1,2.57-2.57A2.58,2.58,0,0,1,11.57,21.86Z"/><path d="M27,19.29a2.57,2.57,0,1,1-2.57-2.58A2.58,2.58,0,0,1,27,19.29Z"/><path d="M25.43,26.2a1.27,1.27,0,0,1-.2,1.8A11.51,11.51,0,0,1,18,30.84,11.51,11.51,0,0,1,10.77,28a1.28,1.28,0,0,1,1.6-2c3.84,3.07,7.42,3.07,11.26,0A1.27,1.27,0,0,1,25.43,26.2Z"/></g></g></svg>