<svg xmlns="http://www.w3.org/2000/svg" viewBox="0 0 41.49 29.13"><title>책</title><g id="Layer_2" data-name="Layer 2"><g id="_2.3_copy" data-name="2.3 copy"><g id="책"><path d="M40.19,0H24.81a1.25,1.25,0,0,0-.52.13L20.75,1.73,17.2.13A1.08,1.08,0,0,0,16.68,0H1.3A1.27,1.27,0,0,0,0,1.3V26a1.27,1.27,0,0,0,1.3,1.29H16.42L20.23,29a1.09,1.09,0,0,0,1,0l3.81-1.69H40.19A1.27,1.27,0,0,0,41.49,26V1.34A1.28,1.28,0,0,0,40.19,0ZM16.68,24.76H2.59V2.64H16.42l3,1.34V25.85l-2.25-1A2.27,2.27,0,0,0,16.68,24.76Zm22.22,0H24.81a1.25,1.25,0,0,0-.52.13l-2.25,1V4l3-1.34H38.9Z"/><path d="M15.34,6.74H6.66A1.27,1.27,0,0,0,5.36,8V18a1.28,1.28,0,0,0,1.3,1.3h8.68a1.28,1.28,0,0,0,1.3-1.3V8A1.27,1.27,0,0,0,15.34,6.74Zm-1.29,9.94H8V9.34h6.1Z"/><path d="M24.38,8a1.28,1.28,0,0,0,1.29,1.3h6.87a1.3,1.3,0,0,0,0-2.6H25.67A1.27,1.27,0,0,0,24.38,8Z"/><path d="M24.38,13a1.28,1.28,0,0,0,1.29,1.3h10a1.3,1.3,0,0,0,0-2.6h-10A1.27,1.27,0,0,0,24.38,13Z"/><path d="M35.7,16.68h-10a1.3,1.3,0,0,0,0,2.6h10a1.3,1.3,0,0,0,0-2.6Z"/></g></g></g></svg>