<svg xmlns="http://www.w3.org/2000/svg" viewBox="0 0 39.7 35.45"><title>담기</title><g id="Layer_2" data-name="Layer 2"><g id="완료"><path d="M30.3,25.24l-1,4.9v.12c-.2,1.2-.63,2.78-2,2.78H8.65c-1.33,0-2.07-1.5-2.2-2.65V30.3l0-.1-2-10.72h10a4,4,0,0,1,.22-2.34H2.3l0-6.17H13.92a10,10,0,0,1,.23-2.29H10.44L7.64,1.61A1.16,1.16,0,0,0,6.15,1l-.48.19A1.15,1.15,0,0,0,5,2.65l2.39,6h-5A2.45,2.45,0,0,0,0,11.12V17a2.44,2.44,0,0,0,2,2.39.43.43,0,0,1,0,.05L4,30.56c.33,2.75,2.17,4.89,4.83,4.89H26.81c2.65,0,4.35-2,4.82-4.89l1.14-5.43C32,25.2,31.12,25.24,30.3,25.24Z"/><path d="M25.61,3A11.09,11.09,0,1,1,14.53,14.08,11.09,11.09,0,0,1,25.61,3m0-3A14.09,14.09,0,1,0,39.7,14.08,14.09,14.09,0,0,0,25.61,0Z"/><path d="M31.9,12.12H27.57V7.8a1.47,1.47,0,0,0-1.46-1.47h-.66A1.47,1.47,0,0,0,24,7.8v4.32H19.66a1.48,1.48,0,0,0-1.47,1.47v.66a1.47,1.47,0,0,0,1.47,1.46H24V20a1.47,1.47,0,0,0,1.47,1.47h.66A1.47,1.47,0,0,0,27.57,20V15.71H31.9a1.47,1.47,0,0,0,1.46-1.46v-.66A1.48,1.48,0,0,0,31.9,12.12Z"/></g></g></svg>