<svg xmlns="http://www.w3.org/2000/svg" viewBox="0 0 29.23 36"><title>story</title><g id="Layer_2" data-name="Layer 2"><g id="완료"><path d="M26.44,0H2.71A2.66,2.66,0,0,0,0,2.71V33.29A2.66,2.66,0,0,0,2.71,36H26.53a2.65,2.65,0,0,0,2.7-2.71V2.71A2.85,2.85,0,0,0,26.44,0Zm0,33.38H2.71V2.8H26.53V33.38ZM6,16.06a1.39,1.39,0,0,0,1.36,1.35H21.92a1.35,1.35,0,1,0,0-2.7H7.31A1.33,1.33,0,0,0,6,16.06Zm16,5.23H7.31a1.36,1.36,0,1,0,0,2.71H21.92a1.36,1.36,0,1,0,0-2.71ZM7.22,11h7.94a1.36,1.36,0,0,0,0-2.71H7.31A1.39,1.39,0,0,0,6,9.65,1.32,1.32,0,0,0,7.22,11Z"/></g></g></svg>