<?xml version="1.0" standalone="no"?>
<!DOCTYPE svg PUBLIC "-//W3C//DTD SVG 20010904//EN"
 "http://www.w3.org/TR/2001/REC-SVG-20010904/DTD/svg10.dtd">
<svg version="1.0" xmlns="http://www.w3.org/2000/svg"
 width="764.000000pt" height="674.000000pt" viewBox="0 0 764.000000 674.000000"
 preserveAspectRatio="xMidYMid meet">

<g transform="translate(0.000000,674.000000) scale(0.100000,-0.100000)"
fill="#000000" stroke="none">
<path d="M4755 6384 c-562 -47 -1053 -272 -1440 -659 -185 -185 -341 -405
-442 -622 l-48 -103 -170 0 -170 0 -225 572 c-201 510 -229 576 -265 614 -45
47 -106 70 -158 58 -59 -12 -151 -54 -180 -82 -38 -35 -57 -80 -57 -133 0 -31
50 -169 191 -523 105 -265 193 -487 196 -493 4 -10 -82 -13 -409 -13 -447 0
-487 -4 -574 -55 -64 -38 -124 -104 -158 -175 l-31 -65 0 -575 0 -575 33 -67
c43 -87 129 -169 212 -199 59 -21 59 -21 69 -73 6 -28 80 -424 166 -881 85
-456 164 -877 175 -934 20 -102 78 -260 106 -292 8 -8 14 -19 14 -24 0 -4 20
-35 44 -69 75 -105 178 -190 300 -247 133 -62 54 -60 1764 -57 l1557 3 80 28
c190 67 328 193 428 392 63 126 73 164 167 608 48 230 89 419 91 421 2 1 40
24 84 51 338 208 643 542 823 901 104 208 184 463 218 699 24 163 24 467 0
629 -72 492 -291 932 -641 1281 -348 349 -795 573 -1276 640 -115 16 -381 26
-474 19z m316 -494 c314 -32 562 -121 829 -297 161 -107 366 -312 473 -473
182 -276 269 -526 299 -858 26 -300 -39 -636 -177 -913 -94 -186 -183 -309
-339 -465 -156 -156 -279 -245 -465 -339 -277 -138 -613 -203 -914 -177 -332
30 -580 117 -857 299 -161 107 -366 312 -473 473 -137 208 -222 407 -266 625
-98 481 -4 956 272 1364 103 153 314 363 467 464 358 236 751 337 1151 297z
m-2375 -1307 c-54 -314 -54 -637 0 -900 l7 -33 -762 0 -761 0 0 485 0 485 761
0 762 0 -7 -37z m177 -1426 c174 -374 488 -723 853 -949 261 -161 559 -269
870 -314 160 -24 467 -24 624 -1 64 10 169 30 233 46 81 19 117 25 117 16 0
-30 -112 -553 -131 -608 -34 -103 -93 -182 -164 -220 l-40 -22 -1555 0 -1555
0 -54 30 c-97 54 -174 168 -206 307 -11 48 -183 958 -334 1771 l-8 47 651 0
651 0 48 -103z"/>
<path d="M3913 4432 c-130 -46 -203 -150 -203 -291 0 -116 58 -208 162 -260
l61 -31 996 0 996 0 50 24 c73 34 110 69 144 138 55 109 39 242 -40 332 -22
25 -65 57 -97 73 l-57 28 -980 2 c-920 2 -983 1 -1032 -15z"/>
</g>
</svg>
