<svg xmlns="http://www.w3.org/2000/svg" viewBox="0 0 36 27.79"><title>카메라 (2)</title><g id="Layer_2" data-name="Layer 2"><g id="_2.3_copy" data-name="2.3 copy"><path id="카메라" d="M33.37,3.53H30.13a8.72,8.72,0,0,1-1.62-1.32C27.9,1.5,26.41,0,24.59,0H11.25A5.61,5.61,0,0,0,7.33,2.1,10.53,10.53,0,0,1,5.71,3.47l.44.06H2.54A2.31,2.31,0,0,0,0,6V24.92a2.7,2.7,0,0,0,2.63,2.87H33.54c1.56,0,2.46-1.3,2.46-2.87V6A2.35,2.35,0,0,0,33.37,3.53ZM18,22.94A7.94,7.94,0,1,1,25.9,15,7.93,7.93,0,0,1,18,22.94ZM23.27,15A5.27,5.27,0,1,1,18,9.7,5.28,5.28,0,0,1,23.27,15Z"/></g></g></svg>