<svg xmlns="http://www.w3.org/2000/svg" viewBox="0 0 36 27.79"><title>카메라</title><g id="Layer_2" data-name="Layer 2"><g id="_2.3_copy" data-name="2.3 copy"><g id="카메라"><path d="M24.59,2.3a3.51,3.51,0,0,1,2.17,1.4,10.54,10.54,0,0,0,2.15,1.78l.56.35h3.9a1.22,1.22,0,0,1,.33,0V24.92a1.69,1.69,0,0,1-.1.57h-31c-.33,0-.33-.56-.33-.57V6a.53.53,0,0,1,0-.14l.27,0,3.17-.06h.68L7,5.38A11.65,11.65,0,0,0,9.07,3.59,3.5,3.5,0,0,1,11.25,2.3H24.59M18,22.76A7.77,7.77,0,1,0,10.26,15,7.76,7.76,0,0,0,18,22.76M24.59,0H11.25A5.61,5.61,0,0,0,7.33,2.1,10.53,10.53,0,0,1,5.71,3.47l-3.17.06A2.31,2.31,0,0,0,0,6V24.92a2.7,2.7,0,0,0,2.63,2.87H33.54c1.56,0,2.46-1.3,2.46-2.87V6a2.35,2.35,0,0,0-2.63-2.42H30.13a8.72,8.72,0,0,1-1.62-1.32C27.9,1.5,26.41,0,24.59,0ZM18,20.46A5.47,5.47,0,1,1,23.44,15,5.44,5.44,0,0,1,18,20.46Z"/></g></g></g></svg>