<svg xmlns="http://www.w3.org/2000/svg" viewBox="0 0 36 34"><title>댓글</title><g id="Layer_2" data-name="Layer 2"><g id="_2.3_copy" data-name="2.3 copy"><path id="댓글" d="M0,15.43C0,6.88,8.09,0,18,0S36,6.88,36,15.43,27.91,30.87,18,30.87a21.25,21.25,0,0,1-3.2-.24A11.38,11.38,0,0,1,5,33.9a.88.88,0,0,1-.58-1.46A11.35,11.35,0,0,0,7.1,27.71,14.74,14.74,0,0,1,0,15.43ZM13.94,28.75a.89.89,0,0,1,.79-.26,18.75,18.75,0,0,0,3.27.29c8.74,0,15.77-6,15.77-13.3S26.74,2.17,18,2.17,2.23,8.16,2.23,15.48c0,4.33,2.48,8.32,6.59,10.81a.85.85,0,0,1,.41.88,11.47,11.47,0,0,1-2,4.65A9.19,9.19,0,0,0,13.94,28.75Z"/></g></g></svg>