<?xml version="1.0" standalone="no"?>
<!DOCTYPE svg PUBLIC "-//W3C//DTD SVG 20010904//EN"
 "http://www.w3.org/TR/2001/REC-SVG-20010904/DTD/svg10.dtd">
<svg version="1.0" xmlns="http://www.w3.org/2000/svg"
 width="711.000000pt" height="655.000000pt" viewBox="0 0 711.000000 655.000000"
 preserveAspectRatio="xMidYMid meet">

<g transform="translate(0.000000,655.000000) scale(0.100000,-0.100000)"
fill="#000000" stroke="none">
<path d="M3120 5975 l-345 -345 345 -345 345 -345 345 345 345 345 -345 345
-345 345 -345 -345z"/>
<path d="M2785 4156 l-670 -463 -3 -1262 -2 -1261 1355 0 1355 0 0 1258 0
1259 -675 466 c-371 257 -678 467 -682 467 -5 0 -309 -209 -678 -464z"/>
<path d="M420 2665 l0 -1495 680 0 680 0 0 1154 0 1154 -675 341 c-371 188
-677 341 -680 341 -3 0 -5 -673 -5 -1495z"/>
<path d="M5808 3818 l-678 -341 0 -1154 0 -1153 685 0 685 0 0 1495 c0 822 -3
1495 -7 1495 -5 0 -313 -154 -685 -342z"/>
<path d="M420 725 l0 -175 3040 0 3040 0 -2 173 -3 172 -3037 3 -3038 2 0
-175z"/>
</g>
</svg>
