<svg xmlns="http://www.w3.org/2000/svg" viewBox="0 0 32.58 36"><defs><style>.cls-1{fill:#010101;}</style></defs><title>Asset 246</title><g id="Layer_2" data-name="Layer 2"><g id="_2.3_copy" data-name="2.3 copy"><path class="cls-1" d="M18.54,20.2H7.16A1.16,1.16,0,0,0,6,21.35H6A1.16,1.16,0,0,0,7.16,22.5H18.54a1.16,1.16,0,0,0,1.15-1.15h0A1.18,1.18,0,0,0,18.54,20.2Z"/><path class="cls-1" d="M18.54,13.36H7.16A1.16,1.16,0,0,0,6,14.51H6a1.16,1.16,0,0,0,1.15,1.15H18.54a1.16,1.16,0,0,0,1.15-1.15h0A1.21,1.21,0,0,0,18.54,13.36Z"/><path class="cls-1" d="M18.54,6.55H7.16A1.16,1.16,0,0,0,6,7.7,1.15,1.15,0,0,0,7.16,8.86H18.54a1.16,1.16,0,0,0,0-2.31Z"/><path class="cls-1" d="M31.07,5.29H25.78V1.51A1.41,1.41,0,0,0,24.26,0H1.51A1.4,1.4,0,0,0,0,1.51V29.56a1.4,1.4,0,0,0,1.51,1.51H6.8v3.42A1.41,1.41,0,0,0,8.32,36H31.07a1.4,1.4,0,0,0,1.51-1.51V6.8A1.37,1.37,0,0,0,31.07,5.29ZM3.06,28.8A.7.7,0,0,1,2.3,28V3a.7.7,0,0,1,.76-.75H22.75a.7.7,0,0,1,.76.75V28a.7.7,0,0,1-.76.76ZM30.31,33a.7.7,0,0,1-.75.75H10.26A.7.7,0,0,1,9.5,33V31.07H24.3a1.4,1.4,0,0,0,1.51-1.51V8h3.78a.7.7,0,0,1,.76.75V33Z"/></g></g></svg>