<svg xmlns="http://www.w3.org/2000/svg" viewBox="0 0 36 43"><title>Layer 10 copy</title><g id="Layer_2" data-name="Layer 2"><g id="_2.3_copy" data-name="2.3 copy"><g id="Layer_10_copy" data-name="Layer 10 copy"><path d="M18,2.3a2.39,2.39,0,0,1,2.42,2.35v8.58l.95.69L33.68,22.8l-.07,3.72L23.33,20.44l-3.34-2-.13,3.88-.31,9.51,0,1.16.91.72,3,2.4V39L19,36.39,18,35.88l-1,.33-.23.08-.2.12L12.18,39V36.16l3.33-2.52,1-.74-.06-1.22-.51-9.41-.2-3.76L12.46,20.4,2.3,26.31V22.57l12.3-8.7,1-.69V4.65A2.38,2.38,0,0,1,18,2.3M18,0a4.69,4.69,0,0,0-4.71,4.65V12L0,21.38v8.93l13.61-7.92.51,9.42L9.88,35v8l7.9-4.61h0L25.77,43V35l-3.93-3.08.32-9.52,13.68,8.1L36,21.64,22.71,12.05V4.65A4.7,4.7,0,0,0,18,0Z"/></g></g></g></svg>