<svg xmlns="http://www.w3.org/2000/svg" viewBox="0 0 34.29 36"><title>Asset 247</title><g id="Layer_2" data-name="Layer 2"><g id="_2.3_copy" data-name="2.3 copy"><path d="M26.59,2.3c3,0,5.4,2.75,5.4,6.13s-2.42,6.12-5.4,6.12S21.2,11.8,21.2,8.43,23.62,2.3,26.59,2.3m0-2.3C22.34,0,18.9,3.77,18.9,8.43s3.44,8.42,7.69,8.42,7.7-3.77,7.7-8.42S30.84,0,26.59,0Z"/><path d="M26.61,15.09h0a1.16,1.16,0,0,0-1.15,1.15V34.85A1.16,1.16,0,0,0,26.6,36h0a1.16,1.16,0,0,0,1.15-1.15V16.24a1.16,1.16,0,0,0-1.15-1.15Z"/><path d="M5.62,9.55A1.16,1.16,0,0,0,6.77,8.4V1.63a1.15,1.15,0,1,0-2.3,0V8.4A1.16,1.16,0,0,0,5.62,9.55Z"/><path d="M15.45,1.63A1.16,1.16,0,0,0,14.3.47h0a1.16,1.16,0,0,0-1.15,1.16V8.4s0,0,0,0v.69a5.42,5.42,0,0,1-10.83,0V1.63a1.15,1.15,0,1,0-2.3,0V4.87H0V9.14a7.75,7.75,0,0,0,6.56,7.62V34.85a1.15,1.15,0,0,0,2.3,0V16.76a7.74,7.74,0,0,0,6.57-7.62V8.47a.14.14,0,0,0,0-.07Z"/><path d="M9.79,9.55A1.15,1.15,0,0,0,10.94,8.4V1.63a1.15,1.15,0,1,0-2.3,0V8.4A1.16,1.16,0,0,0,9.79,9.55Z"/></g></g></svg>