<?xml version="1.0" standalone="no"?>
<!DOCTYPE svg PUBLIC "-//W3C//DTD SVG 20010904//EN"
 "http://www.w3.org/TR/2001/REC-SVG-20010904/DTD/svg10.dtd">
<svg version="1.0" xmlns="http://www.w3.org/2000/svg"
 width="520.000000pt" height="672.000000pt" viewBox="0 0 520.000000 672.000000"
 preserveAspectRatio="xMidYMid meet">

<g transform="translate(0.000000,672.000000) scale(0.100000,-0.100000)"
fill="#000000" stroke="none">
<path d="M2580 6364 c-19 -2 -78 -9 -130 -15 -117 -14 -304 -60 -419 -104
-588 -224 -1034 -722 -1185 -1323 -58 -228 -56 -170 -56 -1916 l0 -1606 1920
0 1920 0 0 1606 c0 1762 2 1691 -60 1932 -190 731 -815 1293 -1566 1407 -99
15 -358 27 -424 19z m383 -509 c432 -76 816 -360 1022 -757 93 -180 139 -350
155 -567 5 -70 10 -692 10 -1383 l0 -1258 -1440 0 -1440 0 0 1258 c0 691 5
1313 10 1383 16 217 62 387 155 567 228 439 645 721 1150 776 72 8 288 -3 378
-19z"/>
<path d="M2550 5170 l0 -240 -240 0 -240 0 0 -165 0 -165 240 0 240 0 0 -560
0 -560 160 0 160 0 0 560 0 560 240 0 240 0 0 165 0 165 -240 0 -240 0 0 240
0 240 -160 0 -160 0 0 -240z"/>
<path d="M1750 3005 l0 -165 960 0 960 0 0 165 0 165 -960 0 -960 0 0 -165z"/>
<path d="M2070 2365 l0 -165 640 0 640 0 0 165 0 165 -640 0 -640 0 0 -165z"/>
<path d="M790 845 l0 -245 1920 0 1920 0 0 245 0 245 -1920 0 -1920 0 0 -245z"/>
</g>
</svg>
