<svg xmlns="http://www.w3.org/2000/svg" viewBox="0 0 40 34"><title>하트</title><g id="Layer_2" data-name="Layer 2"><g id="_2.3_copy" data-name="2.3 copy"><g id="하트"><path d="M20.17,34a1.15,1.15,0,0,1-.66-.21c-.85-.6-2.59-1.85-4.65-3.46a80.58,80.58,0,0,1-8-7,30,30,0,0,1-4.94-6.61A14.39,14.39,0,0,1,0,10,9.73,9.73,0,0,1,2.72,3.24,9.34,9.34,0,0,1,9.73,0h0a10.75,10.75,0,0,1,6.08,2A12.86,12.86,0,0,1,20,6.83,12.51,12.51,0,0,1,24.18,2a10.77,10.77,0,0,1,6.08-2h0a9.35,9.35,0,0,1,7,3.23A9.75,9.75,0,0,1,40,10a14.49,14.49,0,0,1-1.86,6.68h0a30,30,0,0,1-5,6.61,93.06,93.06,0,0,1-8.37,7.44c-1.3,1-2.43,1.9-3.25,2.51l-.72.54A1.15,1.15,0,0,1,20.17,34ZM9.74,2.34h0A7.14,7.14,0,0,0,4.41,4.83,7.37,7.37,0,0,0,2.3,10a12.13,12.13,0,0,0,1.59,5.56,27.38,27.38,0,0,0,4.57,6.08,79,79,0,0,0,7.8,6.83c1.58,1.23,3,2.24,3.89,2.91l.06,0c.79-.59,1.91-1.45,3.19-2.46a87.32,87.32,0,0,0,8.14-7.24,27.61,27.61,0,0,0,4.57-6.08h0A12.13,12.13,0,0,0,37.7,10a7.37,7.37,0,0,0-2.11-5.18,7.13,7.13,0,0,0-5.33-2.49h0a8.65,8.65,0,0,0-4.79,1.59A10.49,10.49,0,0,0,22,8.09l-.09.16-.08.14-.13.17-.12.13a1.45,1.45,0,0,1-.18.17.88.88,0,0,1-.17.12L21,9.09l-.26.12-.11,0-.19.05-.24,0h-.42l-.19,0-.23-.05-.16-.06-.12,0L19,9.07,18.8,9l-.15-.11a1.45,1.45,0,0,1-.18-.17l-.14-.15-.1-.14-.11-.19a.61.61,0,0,1-.07-.14,10.57,10.57,0,0,0-3.52-4.14A8.65,8.65,0,0,0,9.74,2.34Z"/></g></g></g></svg>