<svg xmlns="http://www.w3.org/2000/svg" viewBox="0 0 40 34"><title>Asset 267</title><g id="Layer_2" data-name="Layer 2"><g id="_2.3_copy" data-name="2.3 copy"><path d="M37.28,3.23a9.35,9.35,0,0,0-7-3.23h0a10.77,10.77,0,0,0-6.08,2A12.51,12.51,0,0,0,20,6.83,12.86,12.86,0,0,0,15.82,2,10.75,10.75,0,0,0,9.74,0h0a9.34,9.34,0,0,0-7,3.24A9.73,9.73,0,0,0,0,10a14.39,14.39,0,0,0,1.87,6.68,30,30,0,0,0,4.94,6.61,80.58,80.58,0,0,0,8.05,7c2.06,1.61,3.8,2.86,4.65,3.46a1.15,1.15,0,0,0,1.34,0l.72-.54c.82-.61,1.95-1.48,3.25-2.51a93.06,93.06,0,0,0,8.37-7.44,30,30,0,0,0,5-6.61A14.49,14.49,0,0,0,40,10,9.75,9.75,0,0,0,37.28,3.23Z"/></g></g></svg>