<svg xmlns="http://www.w3.org/2000/svg" viewBox="0 0 37.02 34.06"><title>홈</title><g id="Layer_2" data-name="Layer 2"><g id="_2.3_copy" data-name="2.3 copy"><g id="홈"><path d="M36.72,17.48,28.4,9.08V3.62a1.08,1.08,0,0,0-1.08-1.07h-.15A1.07,1.07,0,0,0,26.1,3.62V6.76L19.74.35A1.21,1.21,0,0,0,18.81,0,1,1,0,0,0,18,.3L.37,17.66a1.32,1.32,0,0,0-.09,1.73,1,1,0,0,0,1.56.11l17-16.76L34.88,19A1.31,1.31,0,0,0,36.6,19,1,1,0,0,0,36.72,17.48Z"/><path d="M30.63,17.06a1.16,1.16,0,0,0-1.15,1.15V31.76H22.67V26.1A1.16,1.16,0,0,0,21.52,25H16a1.16,1.16,0,0,0-1.15,1.15v5.66H8V18.21a1.15,1.15,0,0,0-2.3,0v14.7a1.15,1.15,0,0,0,1.15,1.15H16a1.14,1.14,0,0,0,1.15-1.15V27.25h3.25v5.66a1.14,1.14,0,0,0,1.15,1.15h9.11a1.15,1.15,0,0,0,1.15-1.15V18.21A1.16,1.16,0,0,0,30.63,17.06Z"/></g></g></g></svg>