<svg xmlns="http://www.w3.org/2000/svg" viewBox="0 0 53.42 42.4"><title>inheritance01</title><g id="Layer_2" data-name="Layer 2"><g id="_2.3" data-name="2.3"><path d="M21.52,3.8l.82.3a.67.67,0,0,1,.2.44c0,.17,0,.46.08.86l0,1.72-.26,1,.32.42a3.17,3.17,0,0,0,.76,0l.43,0,.39,0a4.21,4.21,0,0,0,.94-.16l.43-.08a1.84,1.84,0,0,1,.39,0l.78.52L26.58,10l-.32.54c0,.27-.15.39-.38.38l-1.46-.08-.21,0-.35,0a2.68,2.68,0,0,0-.42-.05,2.87,2.87,0,0,0-.42,0l-.28-.08a.22.22,0,0,0-.22.08,1.38,1.38,0,0,0-.14.24,1.77,1.77,0,0,0-.05.32.66.66,0,0,0,0,.22l-.06.88.3.7-.12.76,0,1.3-2.38.54-.42-.34.18-1.78-.12-1.34.18-1.24,0-.28L18.4,12.22l-1.86,1.36-4.18.36-2.06-.8a4.55,4.55,0,0,1-.3-1c-.05-.3-.09-.6-.12-.89s0-.63,0-1,0-.71,0-1.14l0-2.26.38-.46.18-1.38,1.92.22,1,3-.6,3a.9.9,0,0,0,0,.31.22.22,0,0,0,.12.15.53.53,0,0,0,.32.11.72.72,0,0,0,.34,0l1.46-.48,1.26-.12,3.58-1.7L19.84,6l.44-1.92Z"/><path d="M41.42,7.9l1.1-.18,0,.84a.79.79,0,0,0,.06.56,4.87,4.87,0,0,0,.28.56l-.64.36-3.64,0-4.6.52-.8,0-1.7.58-1.3-.1-.36.14L29.4,11,29,10.46l-.18-1A.31.31,0,0,1,29,9.27L29.16,9l.21-.22.15-.14L30.6,8.6l1.82-.12.44.22.56-.3.68,0,3.08,0ZM37.74.06l.74,1L38,2.32l-.18,1.42-.42-.14,0,.4-2.88.66-1.1.8.16.52,1,.1,2.66-1,.92,0a3.61,3.61,0,0,0,.7-.14l.34-.1a1.51,1.51,0,0,0,.36-.18l.58-.26.68-.1L41,5.94l.08.7L40.88,7a1.39,1.39,0,0,0-.44-.12L40,6.8l-1.1.06-2.3.78-.76-.22-1.4.4-2.72,0-.4.08L31,7.72l-.74-1.46.46-1.14,2.78-1.7.76-.14,1-.28.16-.8-2.54-.28-2.44.42-.16-1L30.4.5l.36-.5,1.88.2ZM31.18,18.94l-.1-1.66c0-.07,0-.11,0-.14a.83.83,0,0,0,.12-.24.67.67,0,0,0,0-.24v-.22a1.64,1.64,0,0,1,0-.23A.56.56,0,0,1,31.4,16a2.37,2.37,0,0,0,.57-.3.67.67,0,0,0,.21-.26.6.6,0,0,0,.07-.18.16.16,0,0,1,.11-.12l4.9-1.42L37,13l-.4-.18L34,13.28l-1.38.5-.46,0L32,12.14a1.79,1.79,0,0,1,1.06-.5L36.9,11l2.36.24.52.12.18.48-.3.36,0,.64-.22,1.88-5,1.48a.48.48,0,0,0-.25.15.77.77,0,0,0-.14.25,1.37,1.37,0,0,0-.07.29c0,.1,0,.19,0,.27.61,0,1.22-.09,1.82-.16l1.74-.22a1.88,1.88,0,0,0,.47-.1l.43-.16a2.39,2.39,0,0,0,.38-.13.67.67,0,0,1,.28-.07,3.33,3.33,0,0,0,.46-.06c.23,0,.48-.09.76-.16l.85-.21q.43-.1.75-.21l.3,1.2V17c0,.07-.06.16-.19.28a2.81,2.81,0,0,1-.51.36,6.27,6.27,0,0,1-.7.39,5.27,5.27,0,0,1-.8.31,1.85,1.85,0,0,1-.41.07,3.45,3.45,0,0,1-.45,0H38.2a4.07,4.07,0,0,1-.61.07l-.61,0-.64,0c-.21,0-.43,0-.64,0Z"/><path d="M4.1,35.58l1.06-2.74.38-1.06c.27-.07.39-.21.38-.44S5.61,31,5.2,31l-.92.16L2.42,31a1.2,1.2,0,0,0-.61-.06.89.89,0,0,0-.53.22L.52,30.9,0,29.08l2.34-.26H4l1.43,0c.49,0,.89,0,1.21.06l.7.4,1.1.28.24.74-.28.36-.8,2.24L7.2,35.2l-.62,1.26-.14,1.38-.36.78a.73.73,0,0,1-.46.26.19.19,0,0,1-.12,0H5.18l-1.76-.44Zm8.52-8,.82-.12,1.16.3a.47.47,0,0,1,.13.44,2.11,2.11,0,0,0,0,.66l0,1.72.1,3.48-.4.86.24,1.58.12,2.66-.6.44-2.56.12,0-.74.16-.46.12-1.2.12-2-.2-1.74a2.15,2.15,0,0,1,.08-.84V30.18Z"/><path d="M31.92,35l-1.32-.1-.22-.48-.4-.58.08-.86L30,31.92l-.5-.56-1.36,0-2.4.42c0,.15,0,.28,0,.41s0,.25,0,.37a2.65,2.65,0,0,1-.23.47,1.45,1.45,0,0,1-.47.51L22.28,35.1A4.22,4.22,0,0,1,19.7,35a1.71,1.71,0,0,1-.94-.3,1.29,1.29,0,0,1-.58-.8,2.11,2.11,0,0,1-.26-.83,2,2,0,0,1,.08-.81l1.5-3.44a1.57,1.57,0,0,0,.15-.19,2.75,2.75,0,0,0,.15-.25c.07-.08.14-.17.23-.26l.33-.3,1.26.14s.06,0,.07-.09,0-.16,0-.27a1,1,0,0,1,0-.29.39.39,0,0,1,.16-.23,1.6,1.6,0,0,1,1.86,0l1.54,1.14a1.38,1.38,0,0,1,.28.7q.07.41.12.84l.1-.12,1.2.1,1.34-.52.86-.3a.77.77,0,0,0,.47.09.7.7,0,0,0,.39-.15.16.16,0,0,0,.08-.21c0-.1-.16-.19-.4-.27l.14-1,.32-1.12,1-.64,1.6.12.12,1-.18,1.74-.06,1.9a2.16,2.16,0,0,0,0,.25l0,.15a.49.49,0,0,1,0,.13.28.28,0,0,0,0,.09,1.49,1.49,0,0,0,0,.3c0,.12.05.3.1.54l-.44,1.62,0,1Zm-10.6-4.14-.18.25c-.05.07-.1.14-.14.21a2.82,2.82,0,0,0-.21.38.62.62,0,0,0-.07.32,1.34,1.34,0,0,0,0,.21l0,.17c0,.09.1.18.26.26a.82.82,0,0,0,.54.08h.3a1.71,1.71,0,0,1,.32,0,3,3,0,0,0,.64-.06.77.77,0,0,0,.58-.44,1,1,0,0,0,0-.64,2.17,2.17,0,0,1-.07-.24.47.47,0,0,1,0-.28,2.25,2.25,0,0,1,0-.4,1.63,1.63,0,0,1,.07-.28,1.36,1.36,0,0,1,.18-.34.7.7,0,0,0,0-.32.66.66,0,0,0-.1-.4.61.61,0,0,0-.26-.18A1.3,1.3,0,0,0,23,29.1a1.87,1.87,0,0,0-.33,0,.34.34,0,0,0-.21.07ZM32.08,39.2l-.3,3-.45.07-.35,0a4.66,4.66,0,0,1-.64.08l-.5,0c-.43,0-.69-.18-.79-.47A2,2,0,0,1,29,41c0-.11,0-.43.06-1a5.26,5.26,0,0,1,.12-.86,2,2,0,0,1,.1-.29.83.83,0,0,1,.18-.25,1.33,1.33,0,0,0,.19-.24,1.28,1.28,0,0,0,.11-.24c.05-.16-.14-.24-.58-.24l-2.54.52-.36-.24-.78.46-1.42.26-.84-.5L23,36.72l.53-.12.55-.14.6-.14L26,36l.2,0,.66-.14.48-.1.32-.06a5.53,5.53,0,0,1,1.4.1l2.86-.2.5.52a3.21,3.21,0,0,0-.12.92c0,.33,0,.53.14.6l0,.08a.31.31,0,0,1-.05.1l-.12.24-.08.15a.49.49,0,0,0-.06.13,1.69,1.69,0,0,0-.12.28Z"/><path d="M36.2,30l4.56-.6a1.8,1.8,0,0,1,.45,0l.51.1.21.06.15,0c.05,0,.08,0,.08,0l.16,0,.29,0a2.67,2.67,0,0,0,.35-.05l.74-.15a1.79,1.79,0,0,0,.58-.23l1.18.66-.16.4c-.64.49-1.2,1-1.69,1.41a10.45,10.45,0,0,0-1,1.05.56.56,0,0,0,0,.32c0,.15,0,.23.13.26a1.33,1.33,0,0,0,.5.15l.58.09a2.61,2.61,0,0,1,.55.14,1.32,1.32,0,0,1,.49.34,4.11,4.11,0,0,0,.08.6,4,4,0,0,1,.08.58,1.81,1.81,0,0,1-.06,1,1.89,1.89,0,0,1-.47.5,7.19,7.19,0,0,1-.75.54,9.21,9.21,0,0,1-.81.49c-.26.14-.45.24-.57.29l-.46.22a4.65,4.65,0,0,1-.54.22,3.39,3.39,0,0,1-1.3.26,5.77,5.77,0,0,1-.71,0,7.5,7.5,0,0,1-.81-.11,4,4,0,0,1-.76-.26,1.3,1.3,0,0,1-.52-.42L37,37.24a.38.38,0,0,1,0-.26.49.49,0,0,1,.08-.12,2.7,2.7,0,0,0,.16-.26l1.78-3.3a2.47,2.47,0,0,1,.29-.24l.35-.24.3-.22a1.09,1.09,0,0,0,.22-.2,2.59,2.59,0,0,1,.39-.25l.41-.23a3.41,3.41,0,0,0,.37-.25,1.32,1.32,0,0,0,.29-.33c-.55-.08-.87-.12-1-.12h-.2l-.24,0a5,5,0,0,0-.5.11.79.79,0,0,0-.4.23,3.26,3.26,0,0,0-.69.09l-.83.21-.74.22a3.5,3.5,0,0,1-.46.12,1.52,1.52,0,0,1-.74.05.28.28,0,0,1-.22-.35l.16-1.52Zm5.28-2.54c.68.75,1,1.13.8,1.16H42l-.3,0a4.07,4.07,0,0,0-.66.1,2.81,2.81,0,0,0-.6.2l-.84-.28L38.12,26.9l.08-.66,1.24-.58,1.58,0Zm-.2,6.86a3.47,3.47,0,0,0-.43.43,6.07,6.07,0,0,0-.43.57c-.13.2-.25.38-.34.55a1.38,1.38,0,0,0-.16.37.36.36,0,0,0,.06.46.93.93,0,0,0,.56.22,3.42,3.42,0,0,0,.62,0l.44-.3.46-.34a1.88,1.88,0,0,0,.56-.54,1.73,1.73,0,0,0,0-.47,1,1,0,0,0-.16-.39,2.15,2.15,0,0,0-.37-.4.71.71,0,0,0-.39-.22ZM50.7,37.9l.24-4.06a.31.31,0,0,0-.11-.2,1.1,1.1,0,0,0-.21-.14l-.26.7-1.56,1-1,3.42a3.5,3.5,0,0,1-.48.06l-.55,0-.45,0a.25.25,0,0,1-.25-.09.5.5,0,0,1-.09-.23.33.33,0,0,1,0-.24s0-.37,0-1,0-1.53.06-2.74l-.12-1.44.28-1.4,0-3.06.26-.6,2.18.24.18.94c0,.31-.05.59-.08.84s0,.47-.08.66c0,.39-.1.74-.15,1.07a2,2,0,0,1-.11.53l-.15.14-.19.16-.15.17a.2.2,0,0,0,0,.17H48l.13,0,.34-.12a5.41,5.41,0,0,0,.56-.18l1.12-1.12.3-.42.06-.72.38-.66,0-.78.94-.46,1.28.68-.06,1.1a1.73,1.73,0,0,0,0,.6,1.41,1.41,0,0,0,.3.6L53,37.76l-.36,1L51,38.44Z"/></g></g></svg>