<svg xmlns="http://www.w3.org/2000/svg" viewBox="0 0 49.74 36.42"><title>inheritance02</title><g id="Layer_2" data-name="Layer 2"><g id="_2.3" data-name="2.3"><path d="M11.46,1.68l1,3-.6,3a.9.9,0,0,0,0,.31.22.22,0,0,0,.12.15.53.53,0,0,0,.32.11.72.72,0,0,0,.34,0l1.46-.48,1.26-.12L18.88,6a2.43,2.43,0,0,1,.1-.68V2.72l.66-2.6L20.46,0l1.16.3a.47.47,0,0,1,.13.44,2.11,2.11,0,0,0,0,.66l0,1.72.1,3.48-.4.86L21.72,9l.12,2.66-.6.44-2.56.12,0-.74.16-.46L19,9.86l.12-2L19,7l-1.56,1.6L15.58,10l-4.18.36-2.06-.8a4.55,4.55,0,0,1-.3-1c0-.3-.09-.6-.12-.89s0-.63,0-1,0-.71,0-1.14L9,3.3l.38-.46.18-1.38Z"/><path d="M26.26,10.06,28,7.6l.88-1.8.38-1.06c.27-.07.39-.21.38-.44s-.31-.37-.72-.38L28,4.08,26.12,4a1.2,1.2,0,0,0-.61-.06.89.89,0,0,0-.53.22l-.76-.26L23.7,2,26,1.78h1.7l1.43,0c.49,0,.89,0,1.21.06l.7.4,1.1.28.24.74-.28.36-.8,2.24-.76,2.06-.9,1.48-.38,1-.32.72a.73.73,0,0,1-.46.26.19.19,0,0,1-.12,0h-.32L26.32,11ZM37,.72a1.23,1.23,0,0,1,.22.7l.06.6,0,1.72L37,4.7l.32.42a3.14,3.14,0,0,0,.76,0h.21l.21,0h.2l.2,0a2.42,2.42,0,0,0,.47,0l.47-.11.21,0,.21,0,.2,0,.2,0,.78.52-.24,1.3-.32.54c0,.27-.15.39-.38.38l-1.46-.08-.22,0-.17,0-.17,0a2,2,0,0,0-.43,0h-.41l-.28-.08a.26.26,0,0,0-.22.1,1.64,1.64,0,0,0-.14.22,1.05,1.05,0,0,0-.06.33.91.91,0,0,0,0,.21L36.92,9l.3.7-.12.76,0,1.3-2.38.54-.42-.34.18-1.78L34.4,8.8l.18-1.24-.1-5L34.92.68,36.16.42Z"/><path d="M5,31.48l.82-.2,1.68-1.56L8,28.32l.38-.78L8.2,27.1,4,27.4,2.42,28a1.34,1.34,0,0,1-.36.09,2,2,0,0,1-.42,0A1.22,1.22,0,0,1,1.23,28,.25.25,0,0,1,1,27.8L.8,25.22l3-.42,5.36.08a.34.34,0,0,0-.08.3.31.31,0,0,0,.16.18.28.28,0,0,0,.24,0,.54.54,0,0,0,.26-.29l1-.08.54.46-.18,1.28.12,1.32-2,2.14-1.6,1.48-2.7,1.54a.2.2,0,0,0-.08.18.5.5,0,0,0,0,.12.64.64,0,0,0,.16.1.39.39,0,0,0,.32.08.46.46,0,0,0,.23-.06,1.23,1.23,0,0,0,.27-.26l2.06-.3,4.4-.08.36.46-.18,1a.75.75,0,0,1-.4.38l-.36.11-.32.07-1.44.34-.38,0-.72.32-.64.06-2.06-.1s-.07-.08-.16-.12l-.18-.08L5,35.54a.55.55,0,0,0-.36.16l-.14.11-.1.09-2.72.28H1.38a1,1,0,0,1-.28,0l-.22-.06H.78l0,0-.68-.76L0,34.14a3.33,3.33,0,0,0,.32-.24.82.82,0,0,0,.24-.32l1.66-.08Z"/><path d="M29.2,23.48l1.16.3a.47.47,0,0,1,.13.44,2.11,2.11,0,0,0,0,.66l0,1.72.1,3.48-.4.86.24,1.58.12,2.66-.6.44-2.56.12,0-.74.16-.46.12-1.2.12-2,0-.22-.42.4L25.6,33.4l-4,1.72c0-.08-.12-.09-.33,0a.67.67,0,0,0-.45.32l-.82.12-1.52.2-1-.42-.38-3.82.52-.8,1.8-1.26,1.92-2.06a.4.4,0,0,1,.3-.1h.46a2.87,2.87,0,0,0,.41,0,.27.27,0,0,0,.25-.13.67.67,0,0,0,0-.72q-.22-.36-.78-.18l-3,0-1.22.28-.92-.66V24.22l2.74-.14.62.24,3.14.28L25,24.26l.38.46-.06,1,.24.48.06.92L21,31.1l-.64.17a1.25,1.25,0,0,0-.44.17.16.16,0,0,0-.1.23,1.12,1.12,0,0,0,.46.39l.06.92.44.1,4.48-1.24,1.82-1.4.54-.54,0-.3a2,2,0,0,1,.08-.84V26.2l.66-2.6Z"/><path d="M40.58,29.58l1.68-.14h.32l.3,0h.27l.27,0,.24,0,.26,0,.26,0,.3-.06,1.5.34s0,.05-.08.06l-.48.24-.15.08-.15.08-.61.3-.33.16a1.17,1.17,0,0,0-.2.12l-.2.18a1.93,1.93,0,0,1-.18.22l-.16.16-4.14.42-3,.76L35.2,31.7l-.3-1,.3-.92.25,0h.25l.26,0h.3l.5,0a2.23,2.23,0,0,0,.56-.15ZM37.94,23.1l1.24.12s.06,0,.06-.06a.3.3,0,0,0,0-.1.5.5,0,0,1,0-.12.67.67,0,0,1,0-.24.31.31,0,0,1,.16-.18,1.87,1.87,0,0,1,1.82,0l1.52.9a1.86,1.86,0,0,0,.07.34c0,.11.07.21.11.32l.09.33c0,.11.06.24.09.37a7.16,7.16,0,0,1,.07.89,5.72,5.72,0,0,1-.11,1.17c0,.07-.09.17-.24.32a.44.44,0,0,1-.1.12l-.34.34L39.84,28.9a5,5,0,0,1-1.26.08,9.51,9.51,0,0,1-1.24-.18,1.25,1.25,0,0,1-.76-.45,3,3,0,0,1-.5-.77A1.29,1.29,0,0,1,36,26.8a2.68,2.68,0,0,1,.2-.72l.94-2.18.06-.06,0,0,0,0,.08-.09.1-.11A1.65,1.65,0,0,1,37.94,23.1Zm.4,13.2-.48-.8,1.34-2,.42-.84.76-.52.94-.18a.25.25,0,0,1,0,.07.25.25,0,0,0,0,.07l.06.1.07.11.07.09a1.36,1.36,0,0,1,.14.36l-.4,2.16a2.07,2.07,0,0,1-.32.8,1,1,0,0,1-.78.4ZM40,24.18l-1.1,1.38-.32.36a1.21,1.21,0,0,0-.2.3.48.48,0,0,0-.06.26.87.87,0,0,0,0,.18l0,.12c0,.07.09.13.26.2a.8.8,0,0,0,.52.06h.62a.94.94,0,0,0,.53-.05,1,1,0,0,0,.53-.35.5.5,0,0,0,.1-.26v-.24a.58.58,0,0,1,0-.2.22.22,0,0,1,0-.22l-.08-.46s.1,0,.18-.11a.76.76,0,0,0,.18-.23v-.26a.73.73,0,0,0-.06-.32.79.79,0,0,0-.26-.13,1.86,1.86,0,0,0-.34-.07,1.82,1.82,0,0,0-.33,0Zm2.24,8.6,2.72-.54a.84.84,0,0,0,.27-.17c.1-.09.1-.15,0-.19a4,4,0,0,0,1.3,0l.19,0,.19-.06a.57.57,0,0,0-.14-.42.5.5,0,0,0-.16,0l-.08,0a.08.08,0,0,1-.06,0l.1-4.44.18-.42-.18-.48.14-.64.06-.38,0-.82c0-.09.13-.14.38-.14h1.36a.75.75,0,0,1,.44.12.13.13,0,0,0,.1.1l0,.05a.1.1,0,0,0,.06.05l.58.72-.24,1.4L49.1,31l.36,5.06-.54.16-1.38.16-1-.2.24-1.5a.51.51,0,0,0,.15-.25c0-.09,0-.17-.13-.25l0-.16-.64,0-1.92.58-1.9.08a1.1,1.1,0,0,0-.06-.55.89.89,0,0,0-.28-.45Z"/></g></g></svg>