<svg xmlns="http://www.w3.org/2000/svg" viewBox="0 0 41.71 21.53"><title>inheritance</title><g id="Layer_2" data-name="Layer 2"><g id="_2.3" data-name="2.3"><path d="M11.5,11.64A9,9,0,0,1,6.36,6.79,9,9,0,0,1,1,12.24L0,10.68A7.88,7.88,0,0,0,5.35,3.29V1.08h2V3.46a7.29,7.29,0,0,0,5.21,6.64ZM17,17.57c0,2.5-2.71,3.91-7.08,3.91s-7.1-1.41-7.1-3.91,2.71-3.94,7.1-3.94S17,15.05,17,17.57Zm-2,0c0-1.51-1.94-2.4-5.11-2.4s-5.14.89-5.14,2.4S6.77,20,10,20,15.07,19.06,15.07,17.57ZM20,5.54V7.18H16.8V13h-2V0h2V5.54Z"/><path d="M41.71,10.78v1.6H22.18v-1.6h8.73V7.51h2v3.27Zm-2-2.14c-3.29-.55-6.46-2.26-7.82-4.73-1.35,2.47-4.52,4.18-7.8,4.73l-.75-1.58c3.82-.53,7.54-2.93,7.54-5.79v-1h2v1c0,2.86,3.73,5.26,7.57,5.79ZM24.34,14.47h14.9v7.06h-2V16.08H24.34Z"/></g></g></svg>