<svg xmlns="http://www.w3.org/2000/svg" viewBox="0 0 36.68 40.74"><title>inheritance04</title><g id="Layer_2" data-name="Layer 2"><g id="_2.3" data-name="2.3"><path d="M3.68,4.82l.94-.58a1,1,0,0,0,.24-.3.25.25,0,0,0-.06-.28l-.58-.1L.54,4,.08,3,0,1.74l2.9-.52L6,1.12l2.56.66.2,1L7.66,4.06,7.1,4.4a2,2,0,0,1-.57.65,2.67,2.67,0,0,1-.41.21,3.08,3.08,0,0,0-.42.47,1.76,1.76,0,0,0-.26.51l2.92.34a1.89,1.89,0,0,1,.36.16L9.08,7a3,3,0,0,1,.35.27,3,3,0,0,0,.35.27l-1,1.3-1,0a.86.86,0,0,0-.41.12,1.23,1.23,0,0,0-.27.22L6,8.78l-.22-.32a1.12,1.12,0,0,1-.21-.22L5.34,8a2.73,2.73,0,0,0-.2-.25A1,1,0,0,0,5,7.56l-.48-.44L3.8,8.18l-.32,1-.9,1.1L1.3,10.6.36,9.9l.06-1,1-1.44L2,6.4ZM11,10.12a1.58,1.58,0,0,0,0,.44.85.85,0,0,0,.11.34.48.48,0,0,0,.33.22,2.86,2.86,0,0,1,.67-.19,3.82,3.82,0,0,1,.83,0,3.64,3.64,0,0,1,.77.08,1,1,0,0,1,.49.22l.56.84a2.21,2.21,0,0,1,0,.63c0,.23-.06.46-.1.67s0,.43-.08.61a.83.83,0,0,0,0,.39,1.45,1.45,0,0,0-.28.27,2.91,2.91,0,0,1-.24.27,3.83,3.83,0,0,1-.35.35,4.2,4.2,0,0,1-.61.45l-4,1.08a2.1,2.1,0,0,1-.66-.12,7.08,7.08,0,0,1-.84-.24,2.34,2.34,0,0,1-.45-.19,2.22,2.22,0,0,1-.35-.25l-.31-.28-.31-.28a1.83,1.83,0,0,1-.27-.21A.36.36,0,0,1,5.8,15a.62.62,0,0,1,0-.25c0-.1,0-.24,0-.41a2.31,2.31,0,0,1,.11-.78,1.8,1.8,0,0,1,.47-.62.45.45,0,0,0,.51,0,.53.53,0,0,0,.31-.38L7.32,12a1,1,0,0,0,.23-.28.73.73,0,0,0,.09-.26c0-.08,0-.15,0-.22a.27.27,0,0,1,.12-.18,3.73,3.73,0,0,0,.45-.44,1.54,1.54,0,0,1,.35-.32l.33-.17L9.26,10a.81.81,0,0,1,.3,0h.36Zm.14,2.08a.12.12,0,0,1,0-.08h0a1.07,1.07,0,0,1-.26.1,4.53,4.53,0,0,1-.62.12L8.82,13.92a.45.45,0,0,0,0,.31.65.65,0,0,0,.26.31.44.44,0,0,0,.24.28,1.12,1.12,0,0,0,.46.12l2-.56a1.55,1.55,0,0,0,.29-.26.85.85,0,0,0,.21-.34.67.67,0,0,0,0-.28,1.75,1.75,0,0,0-.13-.28L12,13a.4.4,0,0,1-.07-.22.28.28,0,0,0-.1-.18,1.08,1.08,0,0,0-.24-.18l-.27-.14A.55.55,0,0,0,11.14,12.2Zm5.18-5.56-.32,0-.51,0-.45,0-.41,0-.35,0,0,1.06L13.7,9.32l-.42.15a4.26,4.26,0,0,1-.54.15,4.07,4.07,0,0,1-.56.07.6.6,0,0,1-.4-.09,1.08,1.08,0,0,1-.36-.28,1,1,0,0,1-.08-.48l.18-.72-.12-.54,0-2.24-.18-.56,0-.4.18-.48-.16-1.16.06-1.68L11.9.22,14.24,0l.22.66-.22,1L14,4.56c-.2.15-.28.25-.24.31a.3.3,0,0,0,.26.09,2.49,2.49,0,0,0,.46,0,.64.64,0,0,0,.3-.11,2.27,2.27,0,0,1,.38-.25,1.75,1.75,0,0,1,.4-.17,1.17,1.17,0,0,1,.36,0l.26,0,.21.07a.5.5,0,0,0,.27,0l.78.1c.08,0,.14.08.18.19a1.57,1.57,0,0,1,.08.43,4.86,4.86,0,0,1,0,.54,2,2,0,0,1-.08.48Z"/><path d="M27.9,10.8,26.84,12l-3,1c0-.08-.12-.09-.33,0a.67.67,0,0,0-.45.32l-.82.12H20.74l-1-.42-.38-3.62.32-.94,1.8-1.36,1.34-1.5.2-.14.16-.1a.93.93,0,0,0,.24-.3.67.67,0,0,0,0-.72q-.22-.36-.78-.18l-1.82,0-1.42.08-.92-.66V1.92l2.94.26.62.24L24,2.5l1.74-.34.38.46L26,3.6l.24.48.06.92-3,4-.64.17a1.25,1.25,0,0,0-.44.17.16.16,0,0,0-.1.23,1.12,1.12,0,0,0,.46.39l.06.92.38.42,1.42,0,1.22-.38.29-.11a1.51,1.51,0,0,0,.29-.13,2.31,2.31,0,0,0,.28-.19,1.75,1.75,0,0,0,.28-.27Zm.22-3.58.4-.16.72-.36.32.1c.19.19.34.28.46.27a.39.39,0,0,0,.3-.17.82.82,0,0,0,.14-.33,1.3,1.3,0,0,0,0-.29,2.22,2.22,0,0,1,0-.28c0-.13,0-.29,0-.46a4.13,4.13,0,0,0,0-.5,2,2,0,0,0-.07-.46,4.85,4.85,0,0,0,.37-.86A1.64,1.64,0,0,0,31,2.94a.91.91,0,0,1,.28-.49,1.46,1.46,0,0,1,.4-.25,1.34,1.34,0,0,1,.5-.06,5.58,5.58,0,0,1,.72,0c.21,0,.33.14.35.29a2.44,2.44,0,0,1,0,.47V5.3l-.16,2.8-.2.78.2,2.18L33,12.6l-.22.44-1.82.3-.62-.4c0-.56,0-1,.05-1.32a4.56,4.56,0,0,0,0-.6,2.13,2.13,0,0,1,0-.27c0-.1,0-.21,0-.33s0-.46,0-.71,0-.46,0-.63c0-.32-.19-.49-.46-.52l-.56.72-1.54.54a1.62,1.62,0,0,0-1.2-.54,1.66,1.66,0,0,1,0-.45c0-.14.05-.27.08-.39s0-.26,0-.39a2.8,2.8,0,0,0,0-.41Zm1.78-4a2.3,2.3,0,0,0,.05.63,1.14,1.14,0,0,0,.31.57l-.06.46L29.62,5,29.3,5,28.22,5l-.14.38a.64.64,0,0,1-.48,0,.53.53,0,0,1-.38-.24l-.18-1A.81.81,0,0,1,27,3.47a.45.45,0,0,1,.47-.37l1.64,0Zm4.24.26-.2-1.68c0-.09.09-.17.26-.22a2.5,2.5,0,0,1,.6-.1,3.73,3.73,0,0,1,.67,0,1.69,1.69,0,0,1,.45.1.72.72,0,0,1,.24.25,3.15,3.15,0,0,1,.2.41c0,.16.1.34.15.53s.1.39.17.59l-.1,2.32-.26,1,.36,1.78L36.54,12a1.84,1.84,0,0,1,.1.61.47.47,0,0,1-.16.33.79.79,0,0,1-.37.17l-.51.09a5.78,5.78,0,0,1-.7.08c-.23,0-.37,0-.44-.08a1.35,1.35,0,0,1-.4-.45,1.27,1.27,0,0,1-.18-.57c0-.09,0-.34,0-.73s0-.82,0-1.27,0-.87,0-1.26a2.53,2.53,0,0,1,.08-.72,1.72,1.72,0,0,0,.1-.64c0-.12,0-.24,0-.36s0-.23,0-.34Z"/><path d="M6,25.92l.5,0A4.43,4.43,0,0,1,7,26l.38.12c.11,0,.14,0,.1,0l.2,0a3.85,3.85,0,0,0,.68-.08L9.21,26a1.55,1.55,0,0,0,.65-.26l1.32,1.1-.18.4a3.09,3.09,0,0,1-1,.55,5.11,5.11,0,0,1-.87.17,3.35,3.35,0,0,1-.4,0,1.86,1.86,0,0,0-.34.05.8.8,0,0,0-.46.22c-.08.13,0,.23.16.3a4.22,4.22,0,0,0,.52.22l.26.11.28.11a3.71,3.71,0,0,1,1,.72,2.48,2.48,0,0,0,0,.29c0,.09,0,.17,0,.25a.76.76,0,0,1,.06.2.48.48,0,0,0,.06.18c0,.12,0,.24,0,.35a2.32,2.32,0,0,1-.07.39,1.6,1.6,0,0,1-.44.49,6.8,6.8,0,0,1-.68.47c-.25.16-.5.31-.75.44a4.61,4.61,0,0,1-.55.26l-.26.12-.26.12-.29.12-.29.12a4.5,4.5,0,0,1-.68.2,3.81,3.81,0,0,1-.78.08,8.36,8.36,0,0,1-1.5-.12,1.62,1.62,0,0,1-1.2-.72l-.18-.7a1.3,1.3,0,0,1,.05-.47,3.28,3.28,0,0,1,.27-.61l1-1.56L4,29.32a1.3,1.3,0,0,0,.2-.15L4.4,29A3.82,3.82,0,0,1,5,28.66a6.91,6.91,0,0,1,.87-.34.37.37,0,0,0-.05-.15A.36.36,0,0,0,5.62,28s-.2,0-.45,0a1.64,1.64,0,0,0-.73.37,3.32,3.32,0,0,0-1.18.22L3,28.71a1.11,1.11,0,0,1-.22.07,1.16,1.16,0,0,1-.34.1,1.94,1.94,0,0,1-.84.05.28.28,0,0,1-.24-.37L1.54,27l.36-.4Zm2.16,8.62,4.7-1.26-.28-.34.1-4.44.18-.42-.18-.48.14-.64.06-.38,0-.82c0-.09.13-.15.38-.16h1.36a.75.75,0,0,1,.44.12c0,.07.06.11.1.12l0,.05a.1.1,0,0,0,.06.05l.58.72-.24,1.4-.4,4.66.36,4.86-.94.16-1,.16-1-.2.24-1.3-.22-1.94L10.5,35.64l-.82.7L3.16,37.6l-1.22-.82L1.7,35.64l.3-.92,2.48-.06,1.26.46.74-.46ZM7.56,23.32l.5,1.08L7.6,25.56l-1.2,0-.84-.28L4.5,23.64,4.58,23l2.18.26Zm-1,6.5a5.65,5.65,0,0,0-.48.4l-.46.44c-.16.16-.29.31-.4.44a.55.55,0,0,0-.16.32.53.53,0,0,0-.06.24.35.35,0,0,0,.12.24.41.41,0,0,0,.24.14,1.93,1.93,0,0,0,.36.06,2.26,2.26,0,0,0,.37,0l.35,0a1.51,1.51,0,0,1,.21-.14l.25-.16.28-.16.14-.09.12-.09A1.28,1.28,0,0,0,8,30.92a.49.49,0,0,1,0-.13.23.23,0,0,0,0-.07v0l0,0H8l0,0a.4.4,0,0,1-.12-.18l-.18-.2A2.25,2.25,0,0,0,7.48,30l-.24-.16a.38.38,0,0,0-.18-.07Z"/><path d="M19.34,33.24l-.68-4.08L18,27.74V27l.82-1.28h.86l.52.72.78,0,1.56-.28,2.52-.82,2.14.54,0,1.86-.78,2.86,1.08.32,0,.92-1.1.94-3.08.66-1.84.08L20,33.82Zm5-5.48-1.68.16-1.3.82.18,2.84.52-.2.62-.1,1.06-.06.44-.46ZM28.4,34c.71.09,1.05.19,1,.28a.51.51,0,0,0,0,.3.85.85,0,0,0,.11.34.48.48,0,0,0,.33.22,2.86,2.86,0,0,1,.67-.19,3.82,3.82,0,0,1,.83,0,3.64,3.64,0,0,1,.77.08,1,1,0,0,1,.49.22l.56.84a2.21,2.21,0,0,1,0,.63c0,.23-.06.46-.1.67s-.05.43-.08.61a.83.83,0,0,0,0,.39,1.45,1.45,0,0,0-.28.27,2.91,2.91,0,0,1-.24.27,3.83,3.83,0,0,1-.35.35,4.2,4.2,0,0,1-.61.45l-4,1.08a2.1,2.1,0,0,1-.66-.12,7.08,7.08,0,0,1-.84-.24,2.34,2.34,0,0,1-.45-.19,2.22,2.22,0,0,1-.35-.25L25,39.66l-.31-.28a1.83,1.83,0,0,1-.27-.21.36.36,0,0,1-.11-.21.62.62,0,0,1,0-.25c0-.1,0-.24,0-.41a2.31,2.31,0,0,1,.11-.78,1.8,1.8,0,0,1,.47-.62.45.45,0,0,0,.51,0,.53.53,0,0,0,.31-.38L25.8,36a1,1,0,0,0,.23-.28.73.73,0,0,0,.09-.26c0-.08,0-.15,0-.22a.27.27,0,0,1,.12-.18,6.24,6.24,0,0,0,.66-.68l.47-.25.33-.13a.81.81,0,0,1,.3,0Zm1.22,2.22a.12.12,0,0,1,.05-.08h0a1.07,1.07,0,0,1-.26.1,4.53,4.53,0,0,1-.62.12L27.3,37.92a.45.45,0,0,0,0,.31.65.65,0,0,0,.26.31.44.44,0,0,0,.24.28,1.12,1.12,0,0,0,.46.12l2-.56a1.55,1.55,0,0,0,.29-.26.85.85,0,0,0,.21-.34.67.67,0,0,0,0-.28,1.75,1.75,0,0,0-.13-.28L30.49,37a.4.4,0,0,1-.07-.22.28.28,0,0,0-.1-.18,1.08,1.08,0,0,0-.24-.18l-.27-.14A.55.55,0,0,0,29.62,36.2Zm5.1-5.52a2.82,2.82,0,0,1-.52,0l-.46-.08a3.92,3.92,0,0,0-.78-.1l-.28.68L32,33l-.42.17a4.29,4.29,0,0,1-.54.19,4,4,0,0,1-.54.11.55.55,0,0,1-.4-.07,1.08,1.08,0,0,1-.36-.28,1,1,0,0,1-.08-.48l.18-.72-.12-.54,0-2.24-.18-.56,0-.4.18-.48-.16-1.16.06-1.68.56-.84,1.82-.2a.47.47,0,0,1,.58.36,1.65,1.65,0,0,1,.08.8l-.24,3.66c0,.08,0,.13,0,.15a.17.17,0,0,0,.14,0l.18-.08a.58.58,0,0,0,.15-.11,2.27,2.27,0,0,1,.38-.25,1.75,1.75,0,0,1,.4-.17l.49-.08.53-.08a3.5,3.5,0,0,0,.9-.12l.9.14a4,4,0,0,1,0,1,5.9,5.9,0,0,1-.18.93Z"/></g></g></svg>