<svg xmlns="http://www.w3.org/2000/svg" viewBox="0 0 35.92 36"><title>Asset 263</title><g id="Layer_2" data-name="Layer 2"><g id="_2.3_copy" data-name="2.3 copy"><path d="M21.4,32.48A1.53,1.53,0,0,1,20.33,32L4.51,16.2a6.17,6.17,0,0,1,0-8.79L7.34,4.59a6.24,6.24,0,0,1,4.35-1.84,5.94,5.94,0,0,1,4.36,1.84L31.87,20.41a1.48,1.48,0,0,1,0,2.14l-9.4,9.55A1.66,1.66,0,0,1,21.4,32.48ZM11.77,5.81a3.19,3.19,0,0,0-2.29.92L6.65,9.55a3.28,3.28,0,0,0-.92,2.3,3.24,3.24,0,0,0,.92,2.29L21.4,28.89l7.34-7.34L14,6.73A2.93,2.93,0,0,0,11.77,5.81Z"/><path d="M20.18,33.78a1.53,1.53,0,0,1-1.07-2.6l12-12a1.51,1.51,0,0,1,2.14,2.14l-12,12A1.5,1.5,0,0,1,20.18,33.78Z"/><path d="M7,8.56A1.5,1.5,0,0,1,6,8.1L.46,2.6A1.48,1.48,0,0,1,.46.46,1.48,1.48,0,0,1,2.6.46L8.1,6A1.53,1.53,0,0,1,7,8.56Z"/><path d="M7.41,18.5A1.55,1.55,0,0,1,6.34,18a1.48,1.48,0,0,1,0-2.14l2.37-2.37a1.51,1.51,0,1,1,2.14,2.14L8.48,18A1.51,1.51,0,0,1,7.41,18.5Z"/><path d="M12.38,23.39a1.5,1.5,0,0,1-1.07-.46,1.48,1.48,0,0,1,0-2.14l2.37-2.37a1.51,1.51,0,0,1,2.14,2.14L13.38,23A1.47,1.47,0,0,1,12.38,23.39Z"/><path d="M17.27,28.36a1.55,1.55,0,0,1-1.07-.46,1.48,1.48,0,0,1,0-2.14l2.37-2.37a1.51,1.51,0,0,1,2.14,2.14L18.34,27.9A1.51,1.51,0,0,1,17.27,28.36Z"/><path d="M30.65,32.18a1.5,1.5,0,0,1-1.07-.46l-4.43-4.43a1.51,1.51,0,0,1,2.14-2.14l4.43,4.43a1.48,1.48,0,0,1,0,2.14A1.27,1.27,0,0,1,30.65,32.18Z"/><path d="M27.36,36a1.5,1.5,0,0,1-1.07-.46,1.48,1.48,0,0,1,0-2.14l7-7a1.48,1.48,0,0,1,2.14,0,1.46,1.46,0,0,1,0,2.14l-7,7A1.47,1.47,0,0,1,27.36,36Z"/></g></g></svg>