<svg xmlns="http://www.w3.org/2000/svg" viewBox="0 0 60.17 67.77"><defs><style>.cls-1{fill:#f74f45;}</style></defs><title>lifemap_1</title><g id="Layer_2" data-name="Layer 2"><g id="_2.3" data-name="2.3"><path class="cls-1" d="M8.5,4H7A1,1,0,0,1,7,2H8.5a1,1,0,0,1,0,2Z"/><path class="cls-1" d="M13.71,29.12a10.21,10.21,0,0,1-2.57-1,1,1,0,1,0-1,1.72,11.74,11.74,0,0,0,3.1,1.23,1,1,0,0,0,.24,0,1,1,0,0,0,.24-2Z"/><path class="cls-1" d="M14.61,4h3.05a1,1,0,0,0,0-2H14.61a1,1,0,0,0,0,2Z"/><path class="cls-1" d="M12.19,17.93a1.09,1.09,0,0,0,.39-.08,12.7,12.7,0,0,1,2.71-.76,1,1,0,1,0-.31-2,14.07,14.07,0,0,0-3.17.89,1,1,0,0,0,.38,1.92Z"/><path class="cls-1" d="M8.26,20.09a1,1,0,0,0-1.29.6A8.24,8.24,0,0,0,6.5,23.5c0,.2,0,.4,0,.6a1,1,0,0,0,1,.93h.07A1,1,0,0,0,8.52,24a3.46,3.46,0,0,1,0-.46,6.3,6.3,0,0,1,.35-2.13A1,1,0,0,0,8.26,20.09Z"/><path class="cls-1" d="M23.77,4h3.06a1,1,0,0,0,0-2H23.77a1,1,0,0,0,0,2Z"/><path class="cls-1" d="M48.73,17h.64a12.09,12.09,0,0,0,2.62-.3,1,1,0,0,0,.75-1.19,1,1,0,0,0-1.19-.76,9.82,9.82,0,0,1-2.18.25h-.64a1,1,0,1,0,0,2Z"/><path class="cls-1" d="M51.07,4.19a8.3,8.3,0,0,1,2.56.9,1,1,0,0,0,.49.13,1,1,0,0,0,.5-1.87,10.3,10.3,0,0,0-3.18-1.12,1,1,0,1,0-.37,2Z"/><path class="cls-1" d="M45.15,2h-3a.94.94,0,0,0-.34.07A16.24,16.24,0,0,0,42.93,4h2.22a1,1,0,0,0,0-2Z"/><path class="cls-1" d="M54.09,40.33a6.9,6.9,0,0,1-2.47.92,1,1,0,0,0-.8,1.16,1,1,0,0,0,1,.82l.18,0A8.44,8.44,0,0,0,55.2,42a1,1,0,0,0,.28-1.39A1,1,0,0,0,54.09,40.33Z"/><path class="cls-1" d="M50.14,29.45a10,10,0,0,0-1.7.05H47a1,1,0,1,0,0,2h1.6a8.43,8.43,0,0,1,1.41,0,1,1,0,0,0,1.05-1A1,1,0,0,0,50.14,29.45Z"/><path class="cls-1" d="M56.27,32.32a1,1,0,0,0-1.4-.22,1,1,0,0,0-.22,1.4,4.94,4.94,0,0,1,.86,2.16l0,.22a1,1,0,0,0,1,.84h.16a1,1,0,0,0,.83-1.15l0-.23A7.17,7.17,0,0,0,56.27,32.32Z"/><path class="cls-1" d="M45.71,41.5H42.66a1,1,0,0,0,0,2h3.05a1,1,0,1,0,0-2Z"/><path class="cls-1" d="M57,9.24h1a1,1,0,0,0-1-1,1,1,0,0,0-1,1,5.83,5.83,0,0,1,0,.59,5.82,5.82,0,0,1-.44,1.9,1,1,0,0,0,.51,1.31,1,1,0,0,0,.4.09,1,1,0,0,0,.92-.6A7.88,7.88,0,0,0,58,10.07c0-.25,0-.5,0-.77Z"/><path class="cls-1" d="M18.23,41.5H15.17a1,1,0,0,0,0,2h3.06a1,1,0,1,0,0-2Z"/><path class="cls-1" d="M36.55,41.5h-3a1,1,0,0,0,0,2h3a1,1,0,0,0,0-2Z"/><path class="cls-1" d="M9,43.5H7.5a1,1,0,0,1,0-2H9a1,1,0,0,1,0,2Z"/><path class="cls-1" d="M3,6A3,3,0,1,1,6,3,3,3,0,0,1,3,6ZM3,2A1,1,0,1,0,4,3,1,1,0,0,0,3,2Z"/><path class="cls-1" d="M3,46a3,3,0,1,1,3-3A3,3,0,0,1,3,46Zm0-4a1,1,0,1,0,1,1A1,1,0,0,0,3,42Z"/><path class="cls-1" d="M30.89,33a32.74,32.74,0,0,0-3.72.61A34.79,34.79,0,0,0,22.66,35c.29,2.18.87,5.33,2.32,6.26,2,1.32,5.84.44,7-1.87S31.62,34.57,30.89,33Zm-.38-.95A11,11,0,0,1,30,28.15a37.55,37.55,0,0,1,1.14-5.61c.52-2.36-2.74-9.73-6.66-8.7s-6.46,9.74-4.65,13.48c.65,1.35,2.21,4.07,2.53,5.79,0,.21.08.54.13.94A34.46,34.46,0,0,1,27,32.67,34.14,34.14,0,0,1,30.51,32.06Z"/><path class="cls-1" d="M38.91,20.48a35.16,35.16,0,0,0-3.76,1c-.28,1.82-.8,4.62.82,6.21s5.59,1,7.14-1.15c1-1.42.79-4.42.47-6.6A31.7,31.7,0,0,0,38.91,20.48ZM35.77.22c-4,.66-5,9-3.81,11.07a33.07,33.07,0,0,1,2.66,4.87,10.85,10.85,0,0,1,.65,4.25,35.13,35.13,0,0,1,3.53-.91A32.47,32.47,0,0,1,43.42,19c-.09-.56-.16-1-.19-1.28-.19-1.77.51-5,.74-6.56C44.62,6.8,39.75-.43,35.77.22Z"/><path class="cls-1" d="M2.27,64.27H.61V51.16H2.27Z"/><path class="cls-1" d="M6.61,52.85H5V51.16H6.61Zm0,11.42H5V55.18H6.61Z"/><path class="cls-1" d="M9.84,64.27V56.41H8.42V55.18H9.84V54a3.11,3.11,0,0,1,.76-2.25,2.81,2.81,0,0,1,2.12-.8,3.68,3.68,0,0,1,.58.05c.19,0,.41.07.64.13l-.2,1.26-.36-.06-.45,0a1.31,1.31,0,0,0-1.08.43A2,2,0,0,0,11.5,54v1.15h1.65v1.23H11.5v7.86Z"/><path class="cls-1" d="M18.38,64.45a3.86,3.86,0,0,1-3-1.25,4.8,4.8,0,0,1-1.1-3.3v-.37a4.76,4.76,0,0,1,1.13-3.24A3.55,3.55,0,0,1,18.12,55a3.3,3.3,0,0,1,2.74,1.14,4.64,4.64,0,0,1,.91,3V60H16l0,0a3.78,3.78,0,0,0,.6,2.22,2.12,2.12,0,0,0,1.85.86,4.21,4.21,0,0,0,1.48-.24A3.42,3.42,0,0,0,21,62.26l.64,1.07a3.89,3.89,0,0,1-1.28.8A5.3,5.3,0,0,1,18.38,64.45Zm-.26-8.14a1.81,1.81,0,0,0-1.43.67A3.14,3.14,0,0,0,16,58.69v0h4.1V58.6A2.68,2.68,0,0,0,19.63,57,1.78,1.78,0,0,0,18.12,56.31Z"/><path class="cls-1" d="M29.39,55.18l.11,1.19a3.19,3.19,0,0,1,1.13-1,3.4,3.4,0,0,1,1.6-.36,2.84,2.84,0,0,1,1.56.42,2.57,2.57,0,0,1,1,1.26,3.44,3.44,0,0,1,1.13-1.23A3,3,0,0,1,37.55,55a2.74,2.74,0,0,1,2.19,1,4.38,4.38,0,0,1,.81,2.88v5.43H38.89V58.82a3,3,0,0,0-.46-1.91,1.7,1.7,0,0,0-1.38-.55,1.75,1.75,0,0,0-1.37.58,2.58,2.58,0,0,0-.62,1.49v5.84H33.4V58.82A3,3,0,0,0,32.92,57a1.64,1.64,0,0,0-1.37-.59,2.24,2.24,0,0,0-1.24.31,2.07,2.07,0,0,0-.75.87v6.73H27.91V55.18Z"/><path class="cls-1" d="M48.54,64.27c0-.27-.1-.51-.13-.72a4.48,4.48,0,0,1,0-.64A3.89,3.89,0,0,1,47.15,64a3.11,3.11,0,0,1-1.6.44,3,3,0,0,1-2.17-.73,2.68,2.68,0,0,1-.74-2,2.34,2.34,0,0,1,1.06-2,4.9,4.9,0,0,1,2.86-.74h1.8v-.89a1.69,1.69,0,0,0-.49-1.27,1.94,1.94,0,0,0-1.38-.47,2,2,0,0,0-1.3.41,1.21,1.21,0,0,0-.5,1l-1.57,0,0-.05A2.18,2.18,0,0,1,44,55.83,3.9,3.9,0,0,1,46.58,55a3.74,3.74,0,0,1,2.49.79A2.77,2.77,0,0,1,50,58.06v4.38a9.36,9.36,0,0,0,.05.94,5.21,5.21,0,0,0,.19.89Zm-2.75-1.21a3,3,0,0,0,1.63-.46,2.23,2.23,0,0,0,.94-1.06V60.06H46.5a2.38,2.38,0,0,0-1.6.51,1.5,1.5,0,0,0-.6,1.18,1.24,1.24,0,0,0,.37,1A1.58,1.58,0,0,0,45.79,63.06Z"/><path class="cls-1" d="M60.17,60.07a5,5,0,0,1-.94,3.17,3.11,3.11,0,0,1-2.6,1.21,3.62,3.62,0,0,1-1.48-.28,2.86,2.86,0,0,1-1.08-.85v4.45H52.42V55.18h1.27L54,56.36a2.8,2.8,0,0,1,1.11-1A3.27,3.27,0,0,1,56.6,55a3,3,0,0,1,2.63,1.34,6.12,6.12,0,0,1,.94,3.54Zm-1.66-.18a4.78,4.78,0,0,0-.61-2.54,2,2,0,0,0-1.79-1,2.16,2.16,0,0,0-1.22.32,2.43,2.43,0,0,0-.82.89V62a2.32,2.32,0,0,0,.82.88,2.27,2.27,0,0,0,1.23.32,2,2,0,0,0,1.79-.87,3.78,3.78,0,0,0,.6-2.22Z"/></g></g></svg>