<svg xmlns="http://www.w3.org/2000/svg" viewBox="0 0 27.92 36"><defs><style>.cls-1{fill:none;stroke:#000;stroke-linecap:round;stroke-miterlimit:10;stroke-width:2.3px;}</style></defs><title>Asset 241</title><g id="Layer_2" data-name="Layer 2"><g id="_2.3_copy" data-name="2.3 copy"><path d="M25.45,16.44v17h-23v-17h23m.3-2.3H2.17a2,2,0,0,0-2,2V33.78a2,2,0,0,0,2,2H25.75a2,2,0,0,0,2-2V16.14a2,2,0,0,0-2-2Z"/><path d="M13.86,22a1.14,1.14,0,1,1-1.14,1.14A1.15,1.15,0,0,1,13.86,22m0-2.3a3.44,3.44,0,1,0,3.45,3.44,3.44,3.44,0,0,0-3.45-3.44Z"/><line class="cls-1" x1="13.96" y1="25.43" x2="13.96" y2="29.52"/><path d="M14.35,2.52a5.55,5.55,0,0,1,5.41,5.67v5.69a2.35,2.35,0,0,1,0,.26H8a2.35,2.35,0,0,1,0-.26V8.19a5.55,5.55,0,0,1,5.41-5.67h.94m0-2.3h-.94a7.87,7.87,0,0,0-7.71,8v5.69a8.08,8.08,0,0,0,.42,2.56H21.64a8.08,8.08,0,0,0,.42-2.56V8.19a7.87,7.87,0,0,0-7.71-8Z"/><path d="M25.62,16.39V33.7H2.3V16.39H25.62m.3-2.3H2a2,2,0,0,0-2,2V34a2,2,0,0,0,2,2H25.92a2,2,0,0,0,2-2V16.09a2,2,0,0,0-2-2Z"/><path d="M17.35,23.22a3.49,3.49,0,1,0-4.54,3.31v3.13a1.15,1.15,0,1,0,2.3,0V26.47A3.47,3.47,0,0,0,17.35,23.22ZM13.86,22A1.17,1.17,0,0,1,14,24.38h0l-.15,0a1.18,1.18,0,0,1,0-2.36Z"/><path d="M14.36,2.3a5.65,5.65,0,0,1,5.5,5.77v5.76c0,.09,0,.19,0,.29H7.91c0-.1,0-.2,0-.29V8.07A5.65,5.65,0,0,1,13.4,2.3h1m0-2.3h-1A8,8,0,0,0,5.6,8.07v5.76A8.27,8.27,0,0,0,6,16.42H21.74a8.27,8.27,0,0,0,.42-2.59V8.07A8,8,0,0,0,14.36,0Z"/></g></g></svg>