<svg xmlns="http://www.w3.org/2000/svg" viewBox="0 0 27.92 36.26"><title>Asset 243</title><g id="Layer_2" data-name="Layer 2"><g id="_2.3_copy" data-name="2.3 copy"><path d="M23.69,15.55a1.16,1.16,0,0,1-1.15-1.15V12.25c0-.34,0-8-6.34-9.63a8.4,8.4,0,0,0-6.62.83A10.21,10.21,0,0,0,5.15,9.87a1.15,1.15,0,1,1-2.23-.54A12.49,12.49,0,0,1,8.39,1.48,10.72,10.72,0,0,1,16.76.39C23.22,2,24.87,8.86,24.84,12.26V14.4A1.15,1.15,0,0,1,23.69,15.55Z"/><path d="M25.62,16.65V34H2.3V16.65H25.62m.3-2.3H2a2,2,0,0,0-2,2V34.26a2,2,0,0,0,2,2H25.92a2,2,0,0,0,2-2V16.35a2,2,0,0,0-2-2Z"/><path d="M17.35,23.48a3.49,3.49,0,1,0-4.54,3.31v3.13a1.15,1.15,0,1,0,2.3,0V26.73A3.47,3.47,0,0,0,17.35,23.48ZM13.86,22.3A1.17,1.17,0,0,1,14,24.64h0a.8.8,0,0,0-.15,0,1.18,1.18,0,0,1,0-2.36Z"/></g></g></svg>