<svg xmlns="http://www.w3.org/2000/svg" viewBox="0 0 35.91 35.93"><title>로그인 copy</title><g id="Layer_2" data-name="Layer 2"><g id="_2.3_copy" data-name="2.3 copy"><g id="로그인_copy" data-name="로그인 copy"><path d="M18,21.86a1.15,1.15,0,0,0,1.15-1.15V1.15a1.15,1.15,0,1,0-2.3,0V20.71A1.16,1.16,0,0,0,18,21.86Z"/><path d="M30.47,5h0s-1.31-1.49-2.34-.42c0,0-.71.73.38,1.7h0a15.59,15.59,0,0,1,5.09,11.51A15.81,15.81,0,0,1,18,33.63,15.8,15.8,0,0,1,2.3,17.82a15.55,15.55,0,0,1,5-11.39l.19-.19,0,0h0a1,1,0,0,0,.08-1.37c-.51-.55-1.26-.3-1.8,0h0a4.8,4.8,0,0,0-.63.42h0C2.31,7.37,0,12.61,0,17.82A18.09,18.09,0,0,0,18,35.93a18.09,18.09,0,0,0,18-18.11A17.86,17.86,0,0,0,30.47,5Z"/></g></g></g></svg>