<svg xmlns="http://www.w3.org/2000/svg" viewBox="0 0 36 36"><title>man</title><g id="Layer_2" data-name="Layer 2"><g id="완료"><circle cx="12.86" cy="21.86" r="1.29"/><circle cx="23.14" cy="21.86" r="1.29"/><path d="M18,0C7.71,0,0,7.2,0,16.71c0,4.12,1.41,5.79,1.67,6.05a1.2,1.2,0,0,0,.9.38H2.7C3.21,32.66,7.33,36,18,36s14.79-3.34,15.3-12.86h.13a1.2,1.2,0,0,0,.9-.38c.26-.26,1.67-1.93,1.67-6.05C36,7.2,28.29,0,18,0Zm5.79,18c-2.19,0-3.6.51-4.12,1.93a2.5,2.5,0,0,0-3.34,0C15.69,18.51,14.4,18,12.21,18c-2.44,0-4,.64-4.37,2.57H4.76A16.15,16.15,0,0,0,6.3,15.3a15.58,15.58,0,0,0,6.56,1.41,21.33,21.33,0,0,0,9.38-2.44A13.11,13.11,0,0,1,27,12.86c4,0,4.89,5.14,5.14,7.71h-4C27.77,18.64,26.23,18,23.79,18ZM27,21.86c0,1.93-.26,2.57-3.21,2.57s-3.22-.64-3.22-2.57.52-2.57,3.22-2.57S27,20.06,27,21.86ZM12.21,19.29c2.7,0,3.22.77,3.22,2.57s-.26,2.57-3.22,2.57S9,23.79,9,21.86,9.51,19.29,12.21,19.29ZM18,34.71c-10.29,0-13.76-2.95-14.14-12.6A.45.45,0,0,1,4,21.86H7.71c0,2.95,1.16,3.85,4.5,3.85s4.5-1,4.5-3.85a1.29,1.29,0,0,1,2.58,0c0,2.95,1.15,3.85,4.5,3.85s4.5-1,4.5-3.85h3.85C31.89,31.63,28.41,34.71,18,34.71ZM33.43,21.86c0-3.86-1.29-10.29-6.43-10.29-3.86,0-7.71,3.86-14.14,3.86-3.86,0-6.43-1.29-7.72-2.57a16.15,16.15,0,0,1-2.57,9s-1.28-1.29-1.28-5.15c0-9,7.32-15.42,16.71-15.42S34.71,7.71,34.71,16.71C34.71,20.57,33.43,21.86,33.43,21.86Z"/><path d="M24.81,26.49a.73.73,0,0,0-.9.51s-1.15,3.34-5.65,3.34S12.6,27.13,12.6,27a.73.73,0,0,0-1.41.39,6.19,6.19,0,0,0,1.41,2.18,7.51,7.51,0,0,0,5.66,2.19,7.28,7.28,0,0,0,5.65-2.19,6.31,6.31,0,0,0,1.42-2.18.72.72,0,0,0-.52-.9"/><path d="M2.19,22.24s-3.09-5.53-1-10.67S9.51.26,17,.51,35.74,4.76,35.61,17.74c0,0-1,4.89-3,5.27,0,0,1.41-9.51-5.53-10.8l-10.67,3.6-4.76.39L5.91,14.79l-1,3.72L3,22.76Z"/></g></g></svg>