<?xml version="1.0" standalone="no"?>
<!DOCTYPE svg PUBLIC "-//W3C//DTD SVG 20010904//EN"
 "http://www.w3.org/TR/2001/REC-SVG-20010904/DTD/svg10.dtd">
<svg version="1.0" xmlns="http://www.w3.org/2000/svg"
 width="1000.000000pt" height="1000.000000pt" viewBox="0 0 1000.000000 1000.000000"
 preserveAspectRatio="xMidYMid meet">

<g transform="translate(0.000000,1000.000000) scale(0.100000,-0.100000)"
fill="#000000" stroke="none">
<path d="M4920 7490 c-2579 -340 -4105 -545 -4140 -557 -78 -25 -164 -92 -209
-163 -103 -160 -91 -377 29 -513 56 -64 1565 -1256 1623 -1283 70 -32 150 -46
212 -39 28 4 369 99 758 211 390 112 712 204 715 204 4 0 -196 -111 -443 -247
-476 -263 -525 -296 -574 -390 -11 -23 -224 -531 -472 -1129 -436 -1051 -451
-1091 -457 -1166 -6 -99 16 -186 68 -266 45 -70 94 -112 178 -154 112 -55 277
-49 382 15 19 12 427 291 905 620 479 330 875 601 881 604 5 2 323 -244 705
-547 382 -304 717 -562 744 -575 159 -75 349 -43 470 79 39 40 402 632 1608
2627 856 1417 1567 2599 1580 2625 19 41 22 66 22 159 0 106 -2 114 -34 180
-45 91 -120 166 -208 208 -60 27 -80 32 -163 34 -77 1 -868 -100 -4180 -537z
m4020 15 c0 -2 -644 -1070 -1432 -2372 -787 -1302 -1452 -2403 -1478 -2445
l-46 -76 -788 625 c-704 558 -790 624 -809 615 -12 -6 -429 -291 -927 -635
-498 -343 -906 -623 -908 -622 -8 7 761 1842 777 1855 10 8 1078 600 2374
1315 1296 715 2354 1301 2352 1303 -1 2 -1268 -362 -2814 -808 -1546 -446
-2818 -810 -2826 -808 -19 4 -1298 1019 -1291 1025 3 3 7740 1027 7804 1032 6
1 12 -1 12 -4z"/>
</g>
</svg>
