<svg xmlns="http://www.w3.org/2000/svg" viewBox="0 0 57.99 32.25"><title>자산 5</title><g id="레이어_2" data-name="레이어 2"><g id="레이어_1-2" data-name="레이어 1"><path d="M3,21.35a57,57,0,0,0,10.37-1l.29,2.55a59.68,59.68,0,0,1-11.56,1H0v-20H3ZM25.81,0V32.25H23V15.59H18.39v15H15.62V.72h2.77V13.14H23V0Z"/><path d="M41.22,3.49c0,7.78-1.62,15.3-7.49,21.53l-2.3-1.69c4.79-5,6.66-10.95,7-17.39H32.47V3.49ZM58,0V32.25H55V15.05H48.78a28.66,28.66,0,0,1-5.87,12.09l-2.37-1.62c5-5.69,6.4-12.78,6.65-19.58h-5V3.49H50a56.57,56.57,0,0,1-.69,9.14H55V0Z"/></g></g></svg>