<svg xmlns="http://www.w3.org/2000/svg" viewBox="0 0 36.79 36"><title>Asset 249</title><g id="Layer_2" data-name="Layer 2"><g id="_2.3_copy" data-name="2.3 copy"><path id="ë§ˆì´" d="M28.81,10.69a10.81,10.81,0,0,0-21.62,0,10.68,10.68,0,0,0,5.5,9.3C5.35,22,0,27.9,0,34.9a1.11,1.11,0,0,0,2.22,0C2.22,27.51,9.3,21.57,18,21.49,26,21.42,28.81,14.67,28.81,10.69Zm-19.4,0a8.59,8.59,0,0,1,17.18,0,8.59,8.59,0,0,1-17.18,0Z"/><path d="M35.65,22.87a3.93,3.93,0,0,0-2.94-1.35h0a4.51,4.51,0,0,0-2.55.84,5.27,5.27,0,0,0-1.74,2,5.42,5.42,0,0,0-1.75-2,4.51,4.51,0,0,0-2.55-.84h0a3.9,3.9,0,0,0-2.93,1.36A4,4,0,0,0,20,25.71a6,6,0,0,0,.78,2.8,12.61,12.61,0,0,0,2.07,2.77,34,34,0,0,0,3.37,2.95c.87.67,1.59,1.19,1.95,1.45a.54.54,0,0,0,.28.08.49.49,0,0,0,.28-.09l.3-.23c.34-.25.82-.62,1.36-1a38.72,38.72,0,0,0,3.51-3.11A12.61,12.61,0,0,0,36,28.51a6,6,0,0,0,.78-2.8A4,4,0,0,0,35.65,22.87Z"/></g></g></svg>