<svg xmlns="http://www.w3.org/2000/svg" viewBox="0 0 31.75 35.82"><title>알림</title><g id="Layer_2" data-name="Layer 2"><g id="_2.3_copy" data-name="2.3 copy"><path id="알림" d="M31.61,30,29.8,26.35V17.06A13.94,13.94,0,0,0,17.15,3.19V1.28a1.28,1.28,0,1,0-2.56,0V3.19A13.94,13.94,0,0,0,2,17.06v9.29L.13,30a1.3,1.3,0,0,0,.06,1.24,1.28,1.28,0,0,0,1.09.61h9.55a5.23,5.23,0,0,0,10.17,0h9.47a1.29,1.29,0,0,0,1.09-.61A1.27,1.27,0,0,0,31.61,30Zm-15.7,3.55a3,3,0,0,1-2.66-1.7h5.32A2.94,2.94,0,0,1,15.91,33.52ZM3.17,29.43l1-2.07a1.27,1.27,0,0,0,.14-.58V17.06a11.54,11.54,0,1,1,23.07,0v9.72a1.27,1.27,0,0,0,.14.58l1,2.07Z"/></g></g></svg>