<svg xmlns="http://www.w3.org/2000/svg" viewBox="0 0 36 36"><title>pen</title><g id="Layer_2" data-name="Layer 2"><g id="_2.3_copy" data-name="2.3 copy"><g id="pen"><path d="M33.61,2.39a8.15,8.15,0,0,0-11.53,0L2.39,22.08A8.17,8.17,0,0,0,0,27.68V36H8.32a8.17,8.17,0,0,0,5.6-2.39L33.61,13.92A8.14,8.14,0,0,0,33.61,2.39ZM13.17,30.86c-.67.67-4.35,4.74-8.81.27-3.58-3.58-.08-7.44,1.29-8.81L19.53,8.44l8,8ZM31.86,12.17l-2.57,2.57-8-8,2.57-2.57c.67-.67,4.5-3.7,8.24,0S32.53,11.5,31.86,12.17Z"/></g></g></g></svg>