<svg xmlns="http://www.w3.org/2000/svg" viewBox="0 0 35.64 36"><title>Asset 250</title><g id="Layer_2" data-name="Layer 2"><g id="_2.3_copy" data-name="2.3 copy"><path d="M0,14v20.9A1.09,1.09,0,0,0,1.08,36H34.56a1.08,1.08,0,0,0,1.08-1.08V14a1.08,1.08,0,0,0-1.08-1.08H31a7.15,7.15,0,0,0,2.53-4.59,7.3,7.3,0,0,0-1.4-5.46,7.39,7.39,0,0,0-10.32-1.4c-1.72,1.3-3,4.7-3.83,7.56-.81-2.86-2.11-6.26-3.83-7.56A7.39,7.39,0,0,0,3.78,3,7.28,7.28,0,0,0,2.38,8.4,7.12,7.12,0,0,0,4.91,13H1.13A1,1,0,0,0,0,14ZM15.77,33.89V15.1h4.1V33.84h-4.1Zm17.71,0H22V15.1H33.48ZM23.06,3.22a5.22,5.22,0,0,1,7.29,1,5.12,5.12,0,0,1,1,3.83,5.28,5.28,0,0,1-2,3.46c-1.57,1.19-6.59,1.35-10.1,1.19C20,9.21,21.49,4.41,23.06,3.22ZM4.48,8.08A5.2,5.2,0,0,1,9,2.25a2.84,2.84,0,0,1,.71-.06A5.14,5.14,0,0,1,12.8,3.27c1.57,1.19,3.08,6,3.83,9.45-3.51.17-8.53.06-10.1-1.18A5.2,5.2,0,0,1,4.48,8.08Zm-2.32,7H13.61V33.84H2.16Z"/></g></g></svg>