<?xml version="1.0" standalone="no"?>
<!DOCTYPE svg PUBLIC "-//W3C//DTD SVG 20010904//EN"
 "http://www.w3.org/TR/2001/REC-SVG-20010904/DTD/svg10.dtd">
<svg version="1.0" xmlns="http://www.w3.org/2000/svg"
 width="153.000000pt" height="153.000000pt" viewBox="0 0 153.000000 153.000000"
 preserveAspectRatio="xMidYMid meet">

<g transform="translate(0.000000,153.000000) scale(0.100000,-0.100000)"
fill="#000000" stroke="none">
<path d="M670 1471 c-83 -12 -167 -39 -245 -79 -96 -50 -237 -191 -287 -287
-110 -211 -110 -459 0 -670 50 -96 191 -237 287 -287 211 -110 459 -110 670 0
96 50 237 191 287 287 110 211 110 459 0 670 -50 96 -191 237 -287 287 -126
65 -295 97 -425 79z m227 -336 c57 -29 100 -74 135 -145 21 -41 23 -59 23
-200 0 -149 -1 -157 -28 -214 l-28 -60 53 -53 c52 -52 52 -52 32 -74 -42 -46
-52 -45 -109 11 l-52 52 -34 -18 c-51 -26 -177 -31 -236 -9 -140 54 -202 186
-190 410 5 108 24 168 73 232 27 36 98 81 147 94 55 14 156 2 214 -26z"/>
<path d="M685 1066 c-43 -19 -82 -64 -100 -115 -18 -51 -21 -254 -5 -312 26
-92 89 -142 179 -142 89 0 150 45 180 132 17 53 14 284 -5 329 -41 100 -156
150 -249 108z"/>
</g>
</svg>
