<svg xmlns="http://www.w3.org/2000/svg" viewBox="0 0 38.4 36"><title>공감2</title><g id="Layer_2" data-name="Layer 2"><g id="완료"><path id="마이" d="M28.81,10.69a10.81,10.81,0,0,0-21.62,0,10.68,10.68,0,0,0,5.5,9.3C5.35,22,0,27.9,0,34.9a1.11,1.11,0,0,0,2.22,0C2.22,27.51,9.3,21.57,18,21.49,26,21.42,28.81,14.67,28.81,10.69Zm-19.4,0a8.59,8.59,0,0,1,17.18,0,8.59,8.59,0,0,1-17.18,0Z"/><path d="M27,29.68a1.17,1.17,0,0,1-.84-.34,5.94,5.94,0,0,1,0-8.37l2.19-2.18a5.91,5.91,0,0,1,8.36,8.36A1.18,1.18,0,0,1,35,25.48a3.55,3.55,0,0,0,0-5,3.65,3.65,0,0,0-5,0l-2.18,2.18a3.57,3.57,0,0,0,0,5,1.17,1.17,0,0,1,0,1.66A1.14,1.14,0,0,1,27,29.68Zm-1.53,6.26a5.91,5.91,0,0,1-4.18-10.09,1.18,1.18,0,1,1,1.67,1.66,3.57,3.57,0,0,0-1,2.52,3.52,3.52,0,0,0,1,2.51,3.64,3.64,0,0,0,5,0l2-2a3.55,3.55,0,0,0,0-5,1.18,1.18,0,0,1,1.66-1.67,5.89,5.89,0,0,1,0,8.36l-2,2A5.9,5.9,0,0,1,25.43,35.94Z"/></g></g></svg>