<svg xmlns="http://www.w3.org/2000/svg" viewBox="0 0 40.08 38.3"><title>Asset 251</title><g id="Layer_2" data-name="Layer 2"><g id="_2.3_copy" data-name="2.3 copy"><path d="M9,38.3a2.15,2.15,0,0,1-1.27-.42,2.1,2.1,0,0,1-.81-2.11L8.77,24.58.66,16.68a2.15,2.15,0,0,1-.55-2.23A2.1,2.1,0,0,1,1.85,13L13.07,11.4l5-10.19a2.14,2.14,0,0,1,3.86,0h0L27,11.4,38.24,13A2.1,2.1,0,0,1,40,14.45a2.16,2.16,0,0,1-.53,2.22l-8.13,7.91,1.9,11.22A2.12,2.12,0,0,1,30.11,38L20,32.74,10,38.05A2.06,2.06,0,0,1,9,38.3Zm22-2.09h0Zm-21.81,0ZM8.88,36Zm22.31,0ZM20,30.41a2.08,2.08,0,0,1,1.07.29l9.78,5.15L29,24.89A2.19,2.19,0,0,1,29.62,23l8-7.75-11-1.59A2.29,2.29,0,0,1,25,12.58L20,2.5l-4.94,10a2.3,2.3,0,0,1-1.61,1.17l-11,1.6,8,7.74a2.17,2.17,0,0,1,.6,1.89l-1.85,11L19,30.67A1.86,1.86,0,0,1,20,30.41ZM20,32.7h0Zm.2,0,0,0ZM37.92,15.31h0Zm-35.75,0Z"/></g></g></svg>