<svg xmlns="http://www.w3.org/2000/svg" viewBox="0 0 34.42 35.75"><title>Asset 248</title><g id="Layer_2" data-name="Layer 2"><g id="_2.3_copy" data-name="2.3 copy"><path d="M23.69,7.43h4.8L26.4,30.54v.21a2.7,2.7,0,0,1-2.7,2.7H10.94a2.7,2.7,0,0,1-2.7-2.7v-.2L6.17,7.44H23.69m0-2.3H1.15a1.15,1.15,0,0,0,0,2.3H3.86L5.94,30.75a5,5,0,0,0,5,5H23.69a5,5,0,0,0,5-5L30.8,7.44h2.47a1.15,1.15,0,0,0,0-2.3H23.69Z"/><path d="M22.75,0H11.92a1.16,1.16,0,0,0-1.15,1.15,1.15,1.15,0,0,0,1.15,1.14H22.75A1.15,1.15,0,0,0,23.9,1.15,1.16,1.16,0,0,0,22.75,0Z"/></g></g></svg>