<svg xmlns="http://www.w3.org/2000/svg" viewBox="0 0 33.88 36"><title>woman</title><g id="Layer_2" data-name="Layer 2"><g id="완료"><path d="M7.06,28h0L7,27.77l-.06-.15a.69.69,0,0,0,0-.1L6.68,27h0c0-.09,0-.18-.08-.28h0a2.68,2.68,0,0,1-.07-.27h0a2.68,2.68,0,0,1-.07-.27v0a2.38,2.38,0,0,1,0-.26v0c0-.09,0-.18,0-.26v0c0-.09,0-.17,0-.25v0l0-.24V25c0-.08,0-.16,0-.23v-.06a1.79,1.79,0,0,1,0-.23V24.4a1.7,1.7,0,0,1,0-.22V17.27a26.11,26.11,0,0,0,5-1.53l.32-.13A17.63,17.63,0,0,0,18,10.91v0l.15-.18,0,0,.12-.16,0-.06a1.71,1.71,0,0,1,.11-.14.22.22,0,0,1,0-.08l.09-.13.07-.1.07-.11a.83.83,0,0,0,.08-.12,23.48,23.48,0,0,0,4.77,5.28l.06,0,.1.08a12.47,12.47,0,0,0,3.55,1.94h0l.17.06.06,0,.06,0v6.59h0v.35a1.62,1.62,0,0,0,0,.22v.07c0,.07,0,.14,0,.22v.06a2,2,0,0,1,0,.23V25l0,.24v0c0,.08,0,.16,0,.25v0c0,.08,0,.17-.05.26v0l-.06.26v0l-.06.27h0c0,.09-.05.18-.08.27h0a7.81,7.81,0,0,1-.26.82l0,.09-.06.16-.09.22v0A10.72,10.72,0,0,1,7.06,28M31.5,20.74s0,0,0,.06v.08s0,.05,0,.07a.22.22,0,0,1,0,.08s0,0,0,.08a.13.13,0,0,1,0,.06.29.29,0,0,1,0,.09v0l0,.1v0a.36.36,0,0,1,0,.1v0a.49.49,0,0,1,0,.11v0a.76.76,0,0,1,0,.11h0a1.17,1.17,0,0,1-.05.11v0a.37.37,0,0,1-.05.11h0l-.06.11h0l-.06.1v0l-.06.1h0l-.07.11h0a.61.61,0,0,1-.07.1h0l-.07.09h0l-.08.09h0l-.07.08h0l-.08.08h0a.6.6,0,0,0-.08.08h0l-.08.07h0l-.08.06,0,0-.08,0,0,0-.09,0,0,0-.07,0,0,0-.08,0,0,0-.07,0-.05,0-.07,0-.05,0-.07,0-.05,0-.07,0H29.2l-.06,0h-.06v-1.6c.32-.6.92-1.37,1.34-1.45a.7.7,0,0,0,.56-.82.69.69,0,0,0-.82-.56,2.35,2.35,0,0,0-1.08.56V17.45h.07l.08,0,.06,0,.08,0,.05,0,.08,0,.06,0,.08,0,0,0,.1.05,0,0,.12.06,0,0,.08.05,0,0,.07,0,.05,0,.07.05,0,0,.06.06.05,0,.06.05,0,0,.06.07,0,0,.09.11h0l.08.1,0,0,.05.07,0,.05,0,.07,0,0a.43.43,0,0,0,0,.07l0,.06,0,.07,0,.06,0,.08,0,0a1,1,0,0,1,0,.1l0,0a.78.78,0,0,0,.05.14v0l0,.1,0,.05a.29.29,0,0,0,0,.09v.06a.29.29,0,0,1,0,.09V20s0,.06,0,.09v.06s0,.06,0,.09v.52M4.81,17.44v2.43a2.44,2.44,0,0,0-1.08-.56.7.7,0,0,0-.27,1.38,2.91,2.91,0,0,1,1.35,1.45v1.6a3.26,3.26,0,0,1,0-6.3m29,5.62c-.14-3-.35-5.84-.37-6.11a21.63,21.63,0,0,0-2.12-8.42,15,15,0,0,0-4.91-5.86A16.23,16.23,0,0,0,16.94,0,16.2,16.2,0,0,0,7.53,2.67,15,15,0,0,0,2.61,8.53,21.83,21.83,0,0,0,.49,17c0,.27-.22,3.11-.36,6.11-.27,5.79-.07,7.16.11,7.69.35,1.06,1.92,1.72,5.09,2.15,1.7.23,3.33.31,3.92.33a12.06,12.06,0,0,0,15.38,0c.6,0,2.24-.1,3.93-.33,3.17-.43,4.74-1.09,5.08-2.15.18-.53.38-1.9.12-7.69M23,24.72a.7.7,0,0,0-.88.45s-1.07,3.21-5.4,3.21-5.36-3.08-5.4-3.21a.71.71,0,0,0-.89-.45.69.69,0,0,0-.45.88,5.83,5.83,0,0,0,1.37,2.13,7.23,7.23,0,0,0,5.37,2.06,7.23,7.23,0,0,0,5.37-2.06,6,6,0,0,0,1.37-2.13.7.7,0,0,0-.46-.88M12.5,21.88A1.85,1.85,0,1,0,10.66,20a1.84,1.84,0,0,0,1.84,1.84m8.45,0A1.85,1.85,0,1,0,19.12,20,1.84,1.84,0,0,0,21,21.88"/></g></g></svg>