<svg xmlns="http://www.w3.org/2000/svg" viewBox="0 0 178.69 178.55"><defs><style>.cls-1{fill:#1d9b9c;}.cls-2{fill:#0fa99e;}.cls-3{fill:#09a99e;}.cls-4{fill:#14a99e;}.cls-5{fill:#00a99e;}.cls-6{fill:#f74f45;}.cls-7{fill:#ff8500;}.cls-8{fill:#88c340;}.cls-9{fill:#0faeb0;}</style></defs><title>BI-color-vertical</title><g id="Layer_2" data-name="Layer 2"><g id="세로형"><path class="cls-1" d="M0,148.23a2.84,2.84,0,0,1,.8-2.1,2.84,2.84,0,0,1,2.1-.8,2.84,2.84,0,0,1,2.12.8,2.87,2.87,0,0,1,.78,2.1V168.8A2.87,2.87,0,0,1,5,170.9a2.84,2.84,0,0,1-2.12.8,2.84,2.84,0,0,1-2.1-.8,2.84,2.84,0,0,1-.8-2.1Z"/><path class="cls-1" d="M10.11,156.15H9.22c-1.36,0-2.05-.57-2.05-1.7s.69-1.7,2.05-1.7h.89v-3.14a2.54,2.54,0,0,1,.69-1.91,2.58,2.58,0,0,1,1.89-.67,2.58,2.58,0,0,1,1.89.67,2.54,2.54,0,0,1,.69,1.91v3.14h1.55c1.56,0,2.34.57,2.34,1.7s-.78,1.7-2.34,1.7H15.27v10.32c0,.8.45,1.2,1.34,1.2h.74c1.2,0,1.81.58,1.81,1.73q0,2.29-3.75,2.3a5.93,5.93,0,0,1-4-1.15,4.42,4.42,0,0,1-1.27-3.45Z"/><path class="cls-1" d="M21.35,146.18a3,3,0,0,1,4.52.41,5.53,5.53,0,0,1,.85,3.19,7.16,7.16,0,0,1-.44,2.74,6.77,6.77,0,0,1-1.36,2,7.15,7.15,0,0,1-1.51,1,3.77,3.77,0,0,1-1.71.51,1.22,1.22,0,0,1-.88-.3,1,1,0,0,1-.32-.76.77.77,0,0,1,.3-.65,4.31,4.31,0,0,1,1-.52,5.75,5.75,0,0,0,1.77-1.13,3,3,0,0,0,.7-2.05A2.4,2.4,0,0,1,23,151a2.31,2.31,0,0,1-1.85-.81,2.86,2.86,0,0,1-.69-1.91A2.79,2.79,0,0,1,21.35,146.18Z"/><path class="cls-1" d="M25.25,157a4.77,4.77,0,0,1,1.63-1.62,7.53,7.53,0,0,1,2.24-.91,10.86,10.86,0,0,1,2.49-.28,13.27,13.27,0,0,1,2.61.25,10.43,10.43,0,0,1,2.29.72,4.45,4.45,0,0,1,1.6,1.13,2.13,2.13,0,0,1,.07,2.87,1.78,1.78,0,0,1-1.42.59,1.72,1.72,0,0,1-.89-.21,5.69,5.69,0,0,1-.89-.68,5.9,5.9,0,0,0-1.3-.92,3.94,3.94,0,0,0-1.72-.32,4.54,4.54,0,0,0-2,.35,1.13,1.13,0,0,0-.7,1.08,1.1,1.1,0,0,0,.59,1.05,7.78,7.78,0,0,0,1.89.6l1.94.45a21.39,21.39,0,0,1,2.16.62,7,7,0,0,1,1.78.91A4.47,4.47,0,0,1,39,164.12a3.84,3.84,0,0,1,.51,2,4.8,4.8,0,0,1-.61,2.42,5.28,5.28,0,0,1-1.62,1.74,7.41,7.41,0,0,1-2.3,1,10.59,10.59,0,0,1-2.63.33,13.4,13.4,0,0,1-3-.32,9.32,9.32,0,0,1-2.47-.9,5.78,5.78,0,0,1-1.67-1.34,2.51,2.51,0,0,1-.6-1.6,2.06,2.06,0,0,1,.48-1.39,2,2,0,0,1,2.38-.28,6.6,6.6,0,0,1,1,.87A7.14,7.14,0,0,0,30.09,168a4,4,0,0,0,2.06.45,3.58,3.58,0,0,0,2-.48,1.39,1.39,0,0,0,.74-1.21,1.15,1.15,0,0,0-.54-1.08,7.43,7.43,0,0,0-1.87-.63l-.26-.07-2.73-.66a8.56,8.56,0,0,1-3.56-1.66,4.06,4.06,0,0,1-1.24-3.24A4.54,4.54,0,0,1,25.25,157Z"/><path class="cls-1" d="M48.35,154.87A2.68,2.68,0,0,1,49,153a2.6,2.6,0,0,1,3.57,0,2.64,2.64,0,0,1,.66,1.87v.68h.07a7.07,7.07,0,0,1,2.63-2.41,7.64,7.64,0,0,1,3.59-.85,5.82,5.82,0,0,1,2.9.78,4.74,4.74,0,0,1,2,2.48,8.25,8.25,0,0,1,2.59-2.43,7.91,7.91,0,0,1,8.15.66Q77,155.27,77,158.55v10.57a2.85,2.85,0,0,1-.59,1.87,3.16,3.16,0,0,1-4,0,2.84,2.84,0,0,1-.58-1.87v-9.26a3.93,3.93,0,0,0-.69-2.41,2.5,2.5,0,0,0-2.14-.91,3.6,3.6,0,0,0-2.63,1.11,3.86,3.86,0,0,0-1.12,2.88v8.59a2.84,2.84,0,0,1-.58,1.87,3.16,3.16,0,0,1-4,0,2.85,2.85,0,0,1-.59-1.87v-9.26a3.93,3.93,0,0,0-.69-2.41,2.49,2.49,0,0,0-2.13-.91,3.61,3.61,0,0,0-2.64,1.11,3.9,3.9,0,0,0-1.11,2.88v8.59a2.9,2.9,0,0,1-.58,1.87,3.17,3.17,0,0,1-4,0,2.84,2.84,0,0,1-.58-1.87Z"/><path class="cls-1" d="M86.17,166.29h.07l3.14-11.7a3.65,3.65,0,0,1,.89-1.68,2.12,2.12,0,0,1,1.59-.62,2.65,2.65,0,0,1,1.23.27,2.41,2.41,0,0,1,.83.64,2.72,2.72,0,0,1,.45.76,2.06,2.06,0,0,1,.14.67,5.15,5.15,0,0,1-.39,1.62l-6,16.93a10.74,10.74,0,0,1-2.27,4.1,5,5,0,0,1-3.63,1.27,3.78,3.78,0,0,1-2.44-.67,2.11,2.11,0,0,1-.81-1.69,1.91,1.91,0,0,1,.65-1.54,2.57,2.57,0,0,1,1.72-.55h.53a2,2,0,0,0,1.11-.28,2.11,2.11,0,0,0,.69-1.35l-5.37-15.3-.11-.28c-.19-.59-.32-1-.4-1.31a2.63,2.63,0,0,1-.13-.81,2.33,2.33,0,0,1,.75-1.77,2.46,2.46,0,0,1,1.76-.71,2.81,2.81,0,0,1,1.72.52,2.51,2.51,0,0,1,.93,1.43Z"/><path class="cls-1" d="M102.35,155.42a5.34,5.34,0,0,1,1.8-1.8,8.47,8.47,0,0,1,2.5-1,12.2,12.2,0,0,1,2.77-.32,14.63,14.63,0,0,1,2.9.29,11.83,11.83,0,0,1,2.54.79,5.11,5.11,0,0,1,1.79,1.26,2.37,2.37,0,0,1,.65,1.59,2.34,2.34,0,0,1-.58,1.61,2,2,0,0,1-1.57.65,2,2,0,0,1-1-.23,7,7,0,0,1-1-.76,6.86,6.86,0,0,0-1.45-1,4.4,4.4,0,0,0-1.91-.35,5,5,0,0,0-2.19.39,1.27,1.27,0,0,0-.78,1.2,1.24,1.24,0,0,0,.65,1.17,8.88,8.88,0,0,0,2.11.67l2.15.49c.9.22,1.7.45,2.41.69a8.8,8.8,0,0,1,2,1,5,5,0,0,1,1.48,1.59,4.28,4.28,0,0,1,.57,2.23,5.23,5.23,0,0,1-.68,2.68,5.78,5.78,0,0,1-1.8,2,8.06,8.06,0,0,1-2.56,1.15,11.92,11.92,0,0,1-2.92.37,14.46,14.46,0,0,1-3.28-.36,10.4,10.4,0,0,1-2.74-1,6.22,6.22,0,0,1-1.86-1.49,2.76,2.76,0,0,1-.67-1.78,2.29,2.29,0,0,1,.53-1.54,2.21,2.21,0,0,1,2.65-.32,8,8,0,0,1,1.13,1,8.14,8.14,0,0,0,1.73,1.42,4.59,4.59,0,0,0,2.3.49,4,4,0,0,0,2.18-.53,1.56,1.56,0,0,0,.83-1.34,1.26,1.26,0,0,0-.61-1.2,8.18,8.18,0,0,0-2.08-.71l-.28-.07-3-.74a9.49,9.49,0,0,1-4-1.84,4.52,4.52,0,0,1-1.38-3.61A5,5,0,0,1,102.35,155.42Z"/><path class="cls-1" d="M121.05,156.15h-.89c-1.36,0-2-.57-2-1.7s.69-1.7,2-1.7h.89v-3.14a2.54,2.54,0,0,1,.69-1.91,3,3,0,0,1,3.78,0,2.54,2.54,0,0,1,.69,1.91v3.14h1.55c1.56,0,2.34.57,2.34,1.7s-.78,1.7-2.34,1.7h-1.55v10.32c0,.8.45,1.2,1.34,1.2h.74c1.21,0,1.81.58,1.81,1.73q0,2.29-3.75,2.3a5.93,5.93,0,0,1-4-1.15,4.42,4.42,0,0,1-1.27-3.45Z"/><path class="cls-1" d="M130.86,158.14a8.64,8.64,0,0,1,1.82-3,10.4,10.4,0,0,1,14.2,0,8.79,8.79,0,0,1,1.82,3,11.29,11.29,0,0,1,.62,3.84,12.66,12.66,0,0,1-.53,3.76,8.62,8.62,0,0,1-1.64,3.08,7.67,7.67,0,0,1-3,2.1,11.31,11.31,0,0,1-4.4.78,11.52,11.52,0,0,1-4.38-.76,7.53,7.53,0,0,1-3-2.11,8.4,8.4,0,0,1-1.66-3.09,12.66,12.66,0,0,1-.53-3.76A11.29,11.29,0,0,1,130.86,158.14Zm5.63,8.06a4.06,4.06,0,0,0,6.58,0,7.59,7.59,0,0,0,1.09-4.22,7.36,7.36,0,0,0-1.11-4.26,4.13,4.13,0,0,0-6.54,0A7.36,7.36,0,0,0,135.4,162,7.59,7.59,0,0,0,136.49,166.2Z"/><path class="cls-1" d="M151.16,154.7a2.22,2.22,0,0,1,2.33-2.41,2.22,2.22,0,0,1,2.33,2.41v2h.08a8.5,8.5,0,0,1,1.53-3.15,3.37,3.37,0,0,1,2.74-1.24,2.94,2.94,0,0,1,2,.71,2.3,2.3,0,0,1,.8,1.8,2.41,2.41,0,0,1-.73,2,2.66,2.66,0,0,1-1.82.62h-.91a2.66,2.66,0,0,0-2.43,1.31,9,9,0,0,0-.79,4.42v6a2.84,2.84,0,0,1-.58,1.87,3.17,3.17,0,0,1-4,0,2.84,2.84,0,0,1-.58-1.87Z"/><path class="cls-1" d="M170.35,166.29h.07l3.15-11.7a3.73,3.73,0,0,1,.88-1.68,2.12,2.12,0,0,1,1.59-.62,2.73,2.73,0,0,1,1.24.27,2.51,2.51,0,0,1,.83.64,2.46,2.46,0,0,1,.44.76,2.06,2.06,0,0,1,.14.67,5.15,5.15,0,0,1-.39,1.62l-6,16.93a10.73,10.73,0,0,1-2.28,4.1,4.93,4.93,0,0,1-3.62,1.27,3.74,3.74,0,0,1-2.44-.67,2.11,2.11,0,0,1-.81-1.69,1.88,1.88,0,0,1,.65-1.54,2.56,2.56,0,0,1,1.71-.55h.53a2,2,0,0,0,1.12-.28,2.21,2.21,0,0,0,.69-1.35l-5.38-15.3c0-.12-.08-.21-.1-.28-.19-.59-.33-1-.41-1.31a2.94,2.94,0,0,1-.12-.81,2.35,2.35,0,0,1,.74-1.77,2.49,2.49,0,0,1,1.77-.71,2.8,2.8,0,0,1,1.71.52,2.57,2.57,0,0,1,.94,1.43Z"/><path class="cls-2" d="M125,71.55s-.55-10.16,1-12.49c1.07-1.58,4.85-.37,4.85-5.55,0,0-2.56-1.14-5.55,3.91,0,0-.4-5.54-5.56-4a4.63,4.63,0,0,0,3.38,5.44S124,69.6,125,71.55Z"/><path class="cls-2" d="M71.93,90.36A4.32,4.32,0,1,1,67.61,86,4.31,4.31,0,0,1,71.93,90.36Z"/><path class="cls-3" d="M67.61,95.47a5.11,5.11,0,1,1,5.1-5.11A5.11,5.11,0,0,1,67.61,95.47Zm0-8.64a3.54,3.54,0,1,0,3.53,3.53A3.53,3.53,0,0,0,67.61,86.83Z"/><path class="cls-2" d="M146.55,43a5.1,5.1,0,1,1-5.09-5.1A5.09,5.09,0,0,1,146.55,43Z"/><path class="cls-3" d="M141.46,49.2A6.23,6.23,0,1,1,147.69,43,6.24,6.24,0,0,1,141.46,49.2Zm0-10.19a4,4,0,1,0,4,4A4,4,0,0,0,141.46,39Z"/><path class="cls-4" d="M138.13,59.16c-1.11-5-.39-6.79,1-8.27.82-.92,3.08-.94,3.38,2.24a11.36,11.36,0,0,1-.57,3.16c-.14.9-.38,3.07,1.23,2.9.88-.09,2.36-2.38,3.27-2.83a4.58,4.58,0,0,1,4.4.34,2,2,0,0,1-.16,3.47c-1,.49-2.67-.28-3.93.44-1.44.8-2.8,2.52-.81,3.39,1.45.62,2.41.32,3.38,1.87.62,1,.88,2.53-.71,3-2.51.68-4.92-4.39-6.44-.79-.68,1.59.7,6.82-2.91,6.2-4.43-.77.76-6.12-1.68-8s-6.8,4.22-8.33,1.08c-1.66-3.37,5.67-3,5.84-5.5.17-2.91-6.64-2.31-6.14-5.39.4-2.6,2.89-2.86,4.86-1.6,1.44.93,2.83,3.54,4.37,4.28"/><path class="cls-5" d="M110.89,10.49c3.86,1.37,6.39,2.09,9,3.83a53.28,53.28,0,0,1,6.32,5.38s-2-24.67-28.49-16c0,0,1.4,20.22,28.49,16C126.23,19.7,114.75,17,110.89,10.49Z"/><path class="cls-2" d="M121.86,110.86a43.66,43.66,0,0,1,3.77-5.88c1.21-1.42,3.94-4.08,5.82-4.42,0,0-20.94,1.48-25.55,20,0,0,21.33,6.2,25.55-20C129.45,103.93,126.21,110.05,121.86,110.86Z"/><path class="cls-2" d="M142.79,81a.86.86,0,0,1-.86.85.85.85,0,0,1,0-1.7A.86.86,0,0,1,142.79,81Z"/><path class="cls-3" d="M141.93,83a2,2,0,1,1,2-2A2,2,0,0,1,141.93,83Z"/><path class="cls-5" d="M82,12.34c-1.78.41-1.37,2.68-1.37,2.68-.2,2.51-3.45,4.79-5.11,5.79a3.44,3.44,0,0,1,1-1.35h0c1.5-1.25,2.89-3.22,1.44-4.38a1.14,1.14,0,0,0-1.53.07c-.27.35-.05,1,0,1.38a6.83,6.83,0,0,1-1.48,2.9,3.91,3.91,0,0,1-.07-3.31c.44-1,.88-2.41-.71-2.44-1.3,0-1.88,1.32-1.83,2.46a7.74,7.74,0,0,0,1.17,3,2.29,2.29,0,0,0,.16.31c-.69-.13-1.31-1.67-1.61-2.22-.47-.83-1.1-2.47-2.09-2.75-1.18-.33-1.85.53-1.46,1.67.17.49.73.89,1.06,1.27s2.59,2.7,3.13,3.17c-.47-.32-3.08-1.94-3.65-2.21-1.07-.52-2.35-1.65-3.58-1.59-1.53.07-1.26,1.89-.17,2.45a53.51,53.51,0,0,1,6.32,2,16.79,16.79,0,0,1-6.49-.82c-3.11-1.35-4.66,2.35-1.34,3a11.49,11.49,0,0,0,5.33-.49,6.15,6.15,0,0,0-2.26,2.15,2.22,2.22,0,0,0-.24,1.57c.16.83.68,1,1.53,1,1.17.07,1.66-1.8,2.35-2.52,1.94-2,2.38-2.05,2.53-2.1.13.66-.58,1.3-.88,1.82s-.5.84-.71,1.29c-.37.81-1.29,2.61-.06,3.1,2.69,1.08,3.12-4.11,3.3-5.6,0-.31.08-.61.1-.92l.3,3.6c.1,1.12.49,2.09,1.74,2.18.8.06,1.14-.54,1.27-1.22a2.14,2.14,0,0,0-.29-1.52,33.11,33.11,0,0,0-1.61-3.07c-.1-.17-.22-.34-.33-.51a7.15,7.15,0,0,0,.77.9,7.78,7.78,0,0,0,2,1c.7.31,2.4,1,2.71-.11.36-1.3-1-2-2-2.07A8.84,8.84,0,0,1,76,21.41a1.55,1.55,0,0,1-.32-.2C84.8,19.68,84.68,11.73,82,12.34Z"/><path class="cls-2" d="M43.79,85.42a4.48,4.48,0,0,0-4.12-2.73c-2.88.32-3.74,2.52-4.14,4.32-4-.44-7.2,3-7.38,5.44-.23,3.07,2.69,4.65,5.65,4.33a7.56,7.56,0,0,0,3.39-1.67c.47-.37.87-1.19,1.49-1.07.34.06,1.15,1.18,1.69,1.55,2.5,1.71,5.29-.55,4.88-3.7,2.44.21,4.5-.8,4.1-3.69-.34-2.42-3.42-3.42-5.56-2.78"/><path class="cls-5" d="M86.39,2.42A4,4,0,0,0,82.75,0c-2.54.29-3.31,2.23-3.66,3.82-3.56-.39-6.36,2.66-6.53,4.82-.2,2.71,2.38,4.11,5,3.82a6.7,6.7,0,0,0,3-1.47c.41-.34.76-1.06,1.31-.95.31.06,1,1,1.5,1.37,2.21,1.51,4.68-.49,4.31-3.27,2.16.19,4-.71,3.63-3.27-.3-2.14-3-3-4.92-2.46"/><path class="cls-6" d="M107.26,25.17A.24.24,0,0,0,107,25l-.43.05a96.58,96.58,0,0,0-10.68,1.55l-.57-1.29c-.13-.31-.3-.73-.5-1.2A55.93,55.93,0,0,0,92,17.88a.23.23,0,0,0-.2-.11.24.24,0,0,0-.2.11,42.9,42.9,0,0,0-4.71,10.55h0A103.38,103.38,0,0,0,76.22,30.7a.24.24,0,0,0-.17.2.24.24,0,0,0,.11.23c2.69,1.74,5.92,3.63,8.65,5.18A65.39,65.39,0,0,0,83.3,47.65a.24.24,0,0,0,.12.21.2.2,0,0,0,.13,0,.28.28,0,0,0,.12,0c2.74-1.66,5-4.37,7-6.77l.76-.89.74.46a105,105,0,0,0,10.16,5.75.25.25,0,0,0,.26,0,.24.24,0,0,0,.08-.24,92.36,92.36,0,0,0-3.8-12.67l0-.12.11-.09a46.6,46.6,0,0,0,8.27-7.83A.23.23,0,0,0,107.26,25.17Z"/><path class="cls-7" d="M65.86,101.47a1.46,1.46,0,0,0-1.46-.76l-.31,0c-2.77.3-5.05.55-7.28,1l-.36-.88a38.62,38.62,0,0,0-2.32-5.06,1.49,1.49,0,0,0-2.48,0,33.76,33.76,0,0,0-3.49,7.65,71.9,71.9,0,0,0-7.58,1.64,1.5,1.5,0,0,0-.37,2.69c1.55,1,3.52,2.19,5.86,3.52a48.08,48.08,0,0,0-1,8,1.49,1.49,0,0,0,1.49,1.53,1.55,1.55,0,0,0,.78-.21,23.89,23.89,0,0,0,5.56-5.27,77.21,77.21,0,0,0,7.49,4.21,1.5,1.5,0,0,0,2.13-1.64,67.21,67.21,0,0,0-2.69-9.08,33.78,33.78,0,0,0,5.9-5.71A1.47,1.47,0,0,0,65.86,101.47Z"/><path class="cls-8" d="M44.27,63.37a2.58,2.58,0,0,1-1.14,1.17,3.29,3.29,0,0,1-1.38.31,3.09,3.09,0,0,1-1.34-.31,2.53,2.53,0,0,1-1.11-1.17L32.72,51v25a1.89,1.89,0,0,1-1.17,1.75,5.74,5.74,0,0,1-5.11,0,1.89,1.89,0,0,1-1.14-1.75V40.34a3.34,3.34,0,0,1,1.14-2.89A4.29,4.29,0,0,1,29,36.62a9,9,0,0,1,1.77.15,3.7,3.7,0,0,1,1.4.57,5.48,5.48,0,0,1,1.29,1.2,13.3,13.3,0,0,1,1.31,2l7,12.8,7-12.8a13.3,13.3,0,0,1,1.31-2,5.48,5.48,0,0,1,1.29-1.2,3.71,3.71,0,0,1,1.43-.57,9.46,9.46,0,0,1,1.8-.15,4.29,4.29,0,0,1,2.57.83,3.34,3.34,0,0,1,1.14,2.89V76.05a1.89,1.89,0,0,1-1.17,1.75,5.74,5.74,0,0,1-5.11,0A1.88,1.88,0,0,1,51,76.05V51.48Z"/><path class="cls-8" d="M92.21,87.62a8.24,8.24,0,0,0,4.48-1.2,4.12,4.12,0,0,0,1.92-3.77,4.66,4.66,0,0,0-1.37-3.46,14.66,14.66,0,0,0-3.4-2.4c-1.36-.7-2.82-1.38-4.4-2A21.33,21.33,0,0,1,85,72.34a12.68,12.68,0,0,1-3.4-3.63,10.18,10.18,0,0,1-1.38-5.54,10.58,10.58,0,0,1,1.26-5.38,10.69,10.69,0,0,1,3.23-3.51,13.29,13.29,0,0,1,4.46-1.94,20.92,20.92,0,0,1,4.94-.6c.84,0,1.88,0,3.12.17a18.32,18.32,0,0,1,3.57.68,10,10,0,0,1,2.94,1.4A2.74,2.74,0,0,1,105,56.31a4.94,4.94,0,0,1-.72,2.45,3.42,3.42,0,0,1-.94,1.06,2.1,2.1,0,0,1-1.31.43,2.7,2.7,0,0,1-1.32-.34c-.42-.23-.91-.48-1.48-.75a14.6,14.6,0,0,0-2.09-.74,11.27,11.27,0,0,0-3-.34,8.28,8.28,0,0,0-4.77,1.17,3.74,3.74,0,0,0-1.69,3.23,3.58,3.58,0,0,0,1.37,2.89,15.35,15.35,0,0,0,3.4,2c1.36.61,2.82,1.25,4.41,1.92a19.79,19.79,0,0,1,4.4,2.57,13.56,13.56,0,0,1,3.4,3.94A12.09,12.09,0,0,1,106,81.91a13.27,13.27,0,0,1-1,5.4,10.84,10.84,0,0,1-2.83,3.86,12.19,12.19,0,0,1-4.29,2.34,17.76,17.76,0,0,1-5.45.8,20.77,20.77,0,0,1-5.23-.63A16.5,16.5,0,0,1,83,92a9.5,9.5,0,0,1-2.77-2.28,4,4,0,0,1-1-2.52,3.8,3.8,0,0,1,.25-1.28,4.7,4.7,0,0,1,.72-1.32,4.43,4.43,0,0,1,1-1,2.19,2.19,0,0,1,1.25-.4,2.63,2.63,0,0,1,1.69.69c.55.46,1.18,1,1.88,1.51a13.14,13.14,0,0,0,2.52,1.52A8.61,8.61,0,0,0,92.21,87.62Z"/><path class="cls-8" d="M113.65,78.73a2.41,2.41,0,0,0,.51,1.74A2.65,2.65,0,0,0,116,81h1.66a2.12,2.12,0,0,1,1.77.72,2.52,2.52,0,0,1,0,3.19,2.1,2.1,0,0,1-1.77.73H116A9.09,9.09,0,0,1,110.16,84q-2-1.64-2-5.25V58.09a1.39,1.39,0,0,1,.87-1.23,4,4,0,0,1,3.77,0,1.38,1.38,0,0,1,.85,1.23v7.32h5a1.13,1.13,0,0,1,1,.64,2.72,2.72,0,0,1,.37,1.36,2.69,2.69,0,0,1-.37,1.38,1.15,1.15,0,0,1-1,.62h-5Z"/><path class="cls-8" d="M60.89,55.49a1.67,1.67,0,0,1,.24-1.89,4.35,4.35,0,0,1,1-.92,5.33,5.33,0,0,1,1.32-.62,4.2,4.2,0,0,1,1.31-.24,2.44,2.44,0,0,1,1,.22,1.23,1.23,0,0,1,.66.76l4.41,10.55L74.1,52.8a1.23,1.23,0,0,1,.64-.76,2.18,2.18,0,0,1,.92-.22,4,4,0,0,1,1.22.24,6.23,6.23,0,0,1,1.39.64,4.49,4.49,0,0,1,1.11.95,1.83,1.83,0,0,1,.45,1.17,1.41,1.41,0,0,1-.16.67L74.14,69.28c-.5,1.22-1,2.42-1.39,3.6A11.57,11.57,0,0,1,71,76a7.66,7.66,0,0,1-2.84,2.22,11.39,11.39,0,0,1-4.74.83A7.49,7.49,0,0,1,62.37,79a2,2,0,0,1-.87-.35,1.88,1.88,0,0,1-.59-.78,3.68,3.68,0,0,1-.21-1.37A4.27,4.27,0,0,1,61,74.77,1.17,1.17,0,0,1,62.18,74a13.65,13.65,0,0,0,1.44-.1,5.18,5.18,0,0,0,1.85-.56,4.19,4.19,0,0,0,1.58-1.48A5.23,5.23,0,0,0,67.71,69Z"/><path class="cls-8" d="M128.57,75a9.33,9.33,0,0,1,3.51.68,9.73,9.73,0,0,1,3,1.87,9.23,9.23,0,0,1,2,2.75,7.56,7.56,0,0,1,.74,3.34v3.49a7.51,7.51,0,0,1-.74,3.27,9.4,9.4,0,0,1-2,2.79,10.12,10.12,0,0,1-3,1.94,9,9,0,0,1-7.06,0,10,10,0,0,1-2.94-1.92,9.3,9.3,0,0,1-2-2.76,7.77,7.77,0,0,1-.74-3.32V83.59a7.79,7.79,0,0,1,.72-3.28,8.74,8.74,0,0,1,2-2.76,9.48,9.48,0,0,1,2.94-1.9A9.34,9.34,0,0,1,128.57,75Zm3.75,8.64a3.5,3.5,0,0,0-.3-1.41,4.52,4.52,0,0,0-.81-1.23,3.77,3.77,0,0,0-1.19-.87,3.45,3.45,0,0,0-2.9,0,3.77,3.77,0,0,0-1.19.87,4.52,4.52,0,0,0-.81,1.23,3.67,3.67,0,0,0-.29,1.41v3.49a3.89,3.89,0,0,0,.29,1.47,4.11,4.11,0,0,0,.81,1.23,4.3,4.3,0,0,0,1.19.87,3.26,3.26,0,0,0,2.9,0,4.3,4.3,0,0,0,1.19-.87,4.11,4.11,0,0,0,.81-1.23,3.72,3.72,0,0,0,.3-1.47Z"/><path class="cls-8" d="M81.55,101.22a2.8,2.8,0,0,1-.23-1,2.19,2.19,0,0,1,.53-1.43,5.76,5.76,0,0,1,1.32-1.17,7.37,7.37,0,0,1,1.67-.81,5.18,5.18,0,0,1,1.62-.3,3,3,0,0,1,1.37.3,1.67,1.67,0,0,1,.84,1l7.18,17.88,5.8-17.88a1.68,1.68,0,0,1,.8-1,2.6,2.6,0,0,1,1.23-.3,5.08,5.08,0,0,1,1.61.3,7.87,7.87,0,0,1,1.71.81,5.39,5.39,0,0,1,1.37,1.23,2.34,2.34,0,0,1,.57,1.49,2.26,2.26,0,0,1-.18.9L100,123.52c-.72,1.8-1.4,3.59-2.06,5.38a19.11,19.11,0,0,1-2.57,4.82,12.41,12.41,0,0,1-4.07,3.47,13.67,13.67,0,0,1-6.49,1.34,5.09,5.09,0,0,1-2.51-.57c-.68-.38-1-1.28-1-2.72a5.47,5.47,0,0,1,.44-2.27,1.56,1.56,0,0,1,1.53-1,10.26,10.26,0,0,0,2.36-.35,7.7,7.7,0,0,0,2.72-1.35,8.77,8.77,0,0,0,2.3-2.69,10.06,10.06,0,0,0,1.17-4.4Z"/><path class="cls-8" d="M78.69,109.86a4,4,0,0,0-1.81.44,5,5,0,0,0-1.55,1.26,6.3,6.3,0,0,0-1.11,2,7.68,7.68,0,0,0-.42,2.61v7.62A1.51,1.51,0,0,1,73,125a3.51,3.51,0,0,1-2,.56,3.17,3.17,0,0,1-1.94-.56,1.5,1.5,0,0,1-.74-1.19V107a1.42,1.42,0,0,1,.74-1.24,3.62,3.62,0,0,1,1.94-.46,3.14,3.14,0,0,1,1.74.46,1.45,1.45,0,0,1,.73,1.24v1.74a5.83,5.83,0,0,1,.82-1.34,7.64,7.64,0,0,1,1.22-1.19,5.93,5.93,0,0,1,1.49-.85,4.63,4.63,0,0,1,1.7-.32H80a1.8,1.8,0,0,1,1.38.7,2.48,2.48,0,0,1,.62,1.68,2.53,2.53,0,0,1-.62,1.7,1.78,1.78,0,0,1-1.38.73Z"/><path class="cls-2" d="M83.29,123a.85.85,0,1,1-.85-.85A.85.85,0,0,1,83.29,123Z"/><path class="cls-3" d="M82.44,125a2,2,0,1,1,2-2A2,2,0,0,1,82.44,125Z"/><path class="cls-9" d="M60.28,9a.66.66,0,0,0-.69,0L33.46,24.18a.6.6,0,0,0-.31.62.63.63,0,0,0,.46.53l6.64,1.81a.64.64,0,0,0,.58-.12l10.61-8.5L44,27.79a.61.61,0,0,0-.13.39V36.5a.62.62,0,0,0,.46.6l.18,0a.66.66,0,0,0,.54-.29l4.62-7.12,6.76,1.85a.67.67,0,0,0,.52-.08.64.64,0,0,0,.29-.44L60.56,9.61A.62.62,0,0,0,60.28,9Z"/><path class="cls-9" d="M76,36.61a3.23,3.23,0,0,0-2.45-1.13h0a3.74,3.74,0,0,0-2.13.7A4.31,4.31,0,0,0,70,37.87a4.44,4.44,0,0,0-1.47-1.69,3.71,3.71,0,0,0-2.13-.7h0a3.23,3.23,0,0,0-2.45,1.13A3.39,3.39,0,0,0,63,39a5.09,5.09,0,0,0,.65,2.34,10.45,10.45,0,0,0,1.73,2.31,29.62,29.62,0,0,0,2.82,2.47c.72.56,1.33,1,1.63,1.21a.45.45,0,0,0,.23.07.4.4,0,0,0,.23-.08l.26-.19,1.13-.88a31,31,0,0,0,2.93-2.6,10.15,10.15,0,0,0,1.73-2.31A5,5,0,0,0,77,39,3.43,3.43,0,0,0,76,36.61Z"/><path class="cls-9" d="M110.35,31.18a3,3,0,0,1,.84-2.65,2.94,2.94,0,0,1,2.64-.83,1,1,0,0,0,1.14-.8,1,1,0,0,0-.8-1.14,4.56,4.56,0,0,0-.9-.08,5,5,0,0,0-4.86,5.84,1,1,0,0,0,1,.81h.17A1,1,0,0,0,110.35,31.18Z"/><path class="cls-9" d="M131.44,27.14A5,5,0,0,0,128,25.68a4.56,4.56,0,0,0-.9.08,1,1,0,1,0,.34,1.94,3,3,0,0,1,3.48,3.48,1,1,0,0,0,.8,1.14h.17a1,1,0,0,0,1-.81A5,5,0,0,0,131.44,27.14Z"/><path class="cls-9" d="M131.3,37.72a10.69,10.69,0,1,0-17.71,8.05l-1.89,1.89a1,1,0,0,0,0,1.4,1,1,0,0,0,1.39,0l2.12-2.12a10.64,10.64,0,0,0,10.81,0l2.12,2.13a1,1,0,0,0,1.39,0,1,1,0,0,0,0-1.4l-1.89-1.89A10.67,10.67,0,0,0,131.3,37.72Zm-9.7,0a1,1,0,0,1-.49.86l-2.53,2.53a1,1,0,0,1-1.39,0,1,1,0,0,1,0-1.4l2.44-2.44V31.16a1,1,0,0,1,2,0Z"/><path class="cls-9" d="M117.45,90.84a2.2,2.2,0,0,0-1.66-.76h0a2.52,2.52,0,0,0-1.44.47,2.88,2.88,0,0,0-1,1.15,3.08,3.08,0,0,0-1-1.15,2.55,2.55,0,0,0-1.44-.47h0a2.23,2.23,0,0,0-1.67.76,2.32,2.32,0,0,0-.64,1.61,3.36,3.36,0,0,0,.44,1.59,7.42,7.42,0,0,0,1.17,1.57,22.31,22.31,0,0,0,1.91,1.67c.49.38.91.67,1.11.82a.27.27,0,0,0,.15.05.23.23,0,0,0,.16-.06l.18-.12.77-.6a22.87,22.87,0,0,0,2-1.76A7.49,7.49,0,0,0,117.66,94a3.48,3.48,0,0,0,.44-1.59A2.29,2.29,0,0,0,117.45,90.84Z"/></g></g></svg>