<svg xmlns="http://www.w3.org/2000/svg" viewBox="0 0 473.47 90.38"><defs><style>.cls-1{fill:#0fa99e;}.cls-2{fill:#09a99e;}.cls-3{fill:#14a99e;}.cls-4{fill:#00a99e;}.cls-5{fill:#f74f45;}.cls-6{fill:#ff8500;}.cls-7{fill:#88c340;}.cls-8{fill:#0faeb0;}.cls-9{fill:#1d9b9c;}</style></defs><title>BI</title><g id="Layer_2" data-name="Layer 2"><g id="가로형"><path class="cls-1" d="M65,46.68s-.35-6.63.67-8.14c.7-1,3.17-.25,3.17-3.63,0,0-1.67-.74-3.63,2.55,0,0-.25-3.61-3.62-2.62a3,3,0,0,0,2.2,3.55S64.39,45.41,65,46.68Z"/><path class="cls-1" d="M30.42,59a2.82,2.82,0,1,1-2.81-2.82A2.81,2.81,0,0,1,30.42,59Z"/><path class="cls-2" d="M27.61,62.28A3.33,3.33,0,1,1,30.94,59,3.33,3.33,0,0,1,27.61,62.28Zm0-5.63A2.31,2.31,0,1,0,29.91,59,2.3,2.3,0,0,0,27.61,56.65Z"/><path class="cls-1" d="M79.11,28a3.33,3.33,0,1,1-3.32-3.32A3.32,3.32,0,0,1,79.11,28Z"/><path class="cls-2" d="M75.79,32.1A4.07,4.07,0,1,1,79.85,28,4.08,4.08,0,0,1,75.79,32.1Zm0-6.65A2.59,2.59,0,1,0,78.37,28,2.59,2.59,0,0,0,75.79,25.45Z"/><path class="cls-3" d="M73.61,38.59c-.72-3.26-.25-4.42.62-5.39.54-.6,2-.61,2.21,1.47a7.63,7.63,0,0,1-.37,2.06c-.09.58-.25,2,.8,1.89.58-.06,1.54-1.56,2.13-1.85a3,3,0,0,1,2.88.22,1.31,1.31,0,0,1-.11,2.26c-.67.33-1.74-.17-2.56.29s-1.83,1.65-.53,2.21c.95.41,1.57.21,2.2,1.23.41.63.58,1.65-.46,1.94-1.64.43-3.21-2.87-4.2-.52-.44,1,.46,4.45-1.9,4-2.89-.5.5-4-1.1-5.19S68.79,46,67.79,44c-1.08-2.21,3.7-2,3.81-3.59.11-1.9-4.33-1.51-4-3.52.27-1.7,1.89-1.86,3.17-1,.95.6,1.85,2.3,2.85,2.78"/><path class="cls-4" d="M55.84,6.85a25.55,25.55,0,0,1,5.89,2.49,34.55,34.55,0,0,1,4.12,3.51S64.53-3.24,47.26,2.43c0,0,.92,13.2,18.59,10.42C65.85,12.85,58.36,11.1,55.84,6.85Z"/><path class="cls-1" d="M63,72.33a27.92,27.92,0,0,1,2.46-3.84c.79-.93,2.57-2.66,3.8-2.88,0,0-13.66,1-16.67,13.07,0,0,13.91,4,16.67-13.07C68,67.81,65.84,71.8,63,72.33Z"/><path class="cls-1" d="M76.65,52.85a.55.55,0,0,1-.55.55.56.56,0,1,1,0-1.11A.55.55,0,0,1,76.65,52.85Z"/><path class="cls-2" d="M76.1,54.14a1.3,1.3,0,1,1,1.29-1.29A1.3,1.3,0,0,1,76.1,54.14Z"/><path class="cls-4" d="M37,8.05c-1.17.27-.9,1.75-.9,1.75-.13,1.64-2.25,3.12-3.33,3.78a2.23,2.23,0,0,1,.63-.89h0c1-.81,1.89-2.1.94-2.85a.74.74,0,0,0-1,.05c-.18.22,0,.62,0,.89a4.51,4.51,0,0,1-1,1.9,2.55,2.55,0,0,1,0-2.16c.29-.66.58-1.58-.46-1.59-.85,0-1.23.86-1.19,1.6a4.88,4.88,0,0,0,.76,2,.78.78,0,0,0,.11.2c-.46-.08-.86-1.09-1.06-1.44-.3-.55-.72-1.62-1.36-1.8s-1.2.35-.95,1.09c.11.32.48.58.69.83s1.69,1.76,2,2.07c-.31-.21-2-1.27-2.38-1.45-.7-.33-1.53-1.07-2.34-1-1,0-.82,1.23-.11,1.6a35.17,35.17,0,0,1,4.13,1.29A10.85,10.85,0,0,1,26,13.31c-2-.88-3,1.53-.87,2A7.53,7.53,0,0,0,28.56,15a4,4,0,0,0-1.47,1.4,1.4,1.4,0,0,0-.15,1c.1.54.44.64,1,.67.76.05,1.07-1.17,1.53-1.64,1.26-1.33,1.55-1.34,1.65-1.37.08.43-.38.85-.57,1.19a9.62,9.62,0,0,0-.47.84c-.24.53-.84,1.7,0,2,1.76.7,2-2.68,2.15-3.66a5.93,5.93,0,0,0,.07-.59c.06.78.13,1.56.2,2.35s.31,1.36,1.13,1.42c.52,0,.74-.35.83-.8a1.43,1.43,0,0,0-.19-1,22.29,22.29,0,0,0-1-2L33,14.5a4.94,4.94,0,0,0,.51.59,5.43,5.43,0,0,0,1.27.65c.46.2,1.56.65,1.76-.07s-.64-1.29-1.29-1.36A5.55,5.55,0,0,1,33.09,14a.6.6,0,0,1-.21-.14C38.82,12.84,38.74,7.65,37,8.05Z"/><path class="cls-1" d="M12.06,55.73A2.9,2.9,0,0,0,9.38,54a3.09,3.09,0,0,0-2.7,2.82,4.5,4.5,0,0,0-4.82,3.55c-.15,2,1.76,3,3.69,2.82a4.94,4.94,0,0,0,2.21-1.09c.31-.24.57-.77,1-.7.23,0,.76.77,1.11,1C11.47,63.48,13.29,62,13,60c1.59.14,2.94-.52,2.67-2.41-.22-1.58-2.23-2.23-3.63-1.81"/><path class="cls-4" d="M39.86,1.58A2.56,2.56,0,0,0,37.49,0,2.73,2.73,0,0,0,35.1,2.5a4,4,0,0,0-4.26,3.14c-.14,1.77,1.55,2.68,3.26,2.49a4.21,4.21,0,0,0,1.95-1c.28-.21.5-.68.86-.61.2,0,.67.68,1,.89,1.44,1,3-.32,2.81-2.13,1.41.12,2.6-.47,2.37-2.13-.19-1.4-2-2-3.21-1.61"/><path class="cls-5" d="M53.47,16.42a.13.13,0,0,0-.15-.08l-.28,0a62.4,62.4,0,0,0-7,1c-.13-.28-.25-.56-.37-.84s-.2-.48-.32-.79a35.15,35.15,0,0,0-1.86-4.08.16.16,0,0,0-.26,0,27.88,27.88,0,0,0-3.08,6.88h0a67.37,67.37,0,0,0-7,1.48.16.16,0,0,0-.11.13.15.15,0,0,0,.07.15c1.76,1.14,3.86,2.37,5.65,3.38a43.15,43.15,0,0,0-1,7.4.14.14,0,0,0,.07.14l.08,0,.09,0a20.7,20.7,0,0,0,4.59-4.42l.49-.58.49.3a68,68,0,0,0,6.63,3.75.16.16,0,0,0,.16,0,.17.17,0,0,0,.06-.16A59.18,59.18,0,0,0,48,21.84l0-.08.07-.06a30.19,30.19,0,0,0,5.39-5.11A.14.14,0,0,0,53.47,16.42Z"/><path class="cls-6" d="M26.47,66.2a1,1,0,0,0-1-.49l-.2,0c-1.81.2-3.3.36-4.75.65l-.24-.58a25.26,25.26,0,0,0-1.51-3.3,1,1,0,0,0-1.61,0,21.74,21.74,0,0,0-2.28,5A49.6,49.6,0,0,0,10,68.56a1,1,0,0,0-.24,1.76c1,.65,2.3,1.43,3.82,2.3a31.76,31.76,0,0,0-.64,5.2,1,1,0,0,0,1,1,.94.94,0,0,0,.51-.14A15.63,15.63,0,0,0,18,75.25,48.92,48.92,0,0,0,22.91,78a1,1,0,0,0,1-.1,1,1,0,0,0,.36-1A44.71,44.71,0,0,0,22.54,71a22.19,22.19,0,0,0,3.85-3.73A1,1,0,0,0,26.47,66.2Z"/><path class="cls-7" d="M12.38,41.34a1.65,1.65,0,0,1-.75.77,2.21,2.21,0,0,1-.89.2,2.13,2.13,0,0,1-.88-.2,1.71,1.71,0,0,1-.73-.77L4.85,33.29V49.62a1.23,1.23,0,0,1-.77,1.14,3.59,3.59,0,0,1-1.66.39,3.52,3.52,0,0,1-1.67-.39A1.23,1.23,0,0,1,0,49.62V26.32a2.19,2.19,0,0,1,.75-1.89,2.76,2.76,0,0,1,1.67-.54,6.34,6.34,0,0,1,1.16.1,2.4,2.4,0,0,1,.91.37,3.78,3.78,0,0,1,.84.78,9.35,9.35,0,0,1,.86,1.33l4.58,8.35,4.59-8.35a8.55,8.55,0,0,1,.86-1.33,3.78,3.78,0,0,1,.84-.78A2.36,2.36,0,0,1,18,24a6.63,6.63,0,0,1,1.17-.1,2.81,2.81,0,0,1,1.68.54,2.19,2.19,0,0,1,.75,1.89v23.3a1.23,1.23,0,0,1-.77,1.14,3.59,3.59,0,0,1-1.66.39,3.52,3.52,0,0,1-1.67-.39,1.23,1.23,0,0,1-.75-1.14v-16Z"/><path class="cls-7" d="M43.66,57.17a5.4,5.4,0,0,0,2.92-.78,2.72,2.72,0,0,0,1.25-2.47,3,3,0,0,0-.89-2.25,9.52,9.52,0,0,0-2.22-1.57c-.88-.46-1.84-.9-2.87-1.32A13.58,13.58,0,0,1,39,47.19a8.2,8.2,0,0,1-2.22-2.36,6.65,6.65,0,0,1-.9-3.62,6.63,6.63,0,0,1,2.93-5.8,8.86,8.86,0,0,1,2.91-1.26,13.21,13.21,0,0,1,3.22-.4q.82,0,2,.12a12,12,0,0,1,2.33.44,6.58,6.58,0,0,1,1.92.92,1.78,1.78,0,0,1,.8,1.51,3.24,3.24,0,0,1-.11.76,3.43,3.43,0,0,1-.36.84,2.52,2.52,0,0,1-.61.69,1.39,1.39,0,0,1-.86.28,1.86,1.86,0,0,1-.86-.22c-.27-.15-.6-.31-1-.49a9.57,9.57,0,0,0-1.36-.48,7.32,7.32,0,0,0-2-.23,5.39,5.39,0,0,0-3.11.77,2.43,2.43,0,0,0-1.1,2.1,2.35,2.35,0,0,0,.89,1.89A10.5,10.5,0,0,0,43.82,44c.89.4,1.84.81,2.87,1.25a12.14,12.14,0,0,1,2.87,1.68,8.52,8.52,0,0,1,2.22,2.57,7.8,7.8,0,0,1,.9,4A8.7,8.7,0,0,1,52,57a7.06,7.06,0,0,1-1.85,2.52A8,8,0,0,1,47.37,61a11.58,11.58,0,0,1-3.57.52,13.79,13.79,0,0,1-3.41-.41A10.73,10.73,0,0,1,37.65,60a6.59,6.59,0,0,1-1.81-1.49,2.68,2.68,0,0,1-.65-1.64,2.56,2.56,0,0,1,.17-.84,3.13,3.13,0,0,1,.47-.86,2.75,2.75,0,0,1,.67-.65,1.36,1.36,0,0,1,.82-.26,1.76,1.76,0,0,1,1.1.44q.54.45,1.23,1a8.48,8.48,0,0,0,1.64,1A5.51,5.51,0,0,0,43.66,57.17Z"/><path class="cls-7" d="M57.65,51.36A1.58,1.58,0,0,0,58,52.5a1.73,1.73,0,0,0,1.22.33h1.08a1.36,1.36,0,0,1,1.15.48,1.59,1.59,0,0,1,.38,1,1.68,1.68,0,0,1-.38,1.06,1.39,1.39,0,0,1-1.15.47H59.2a6,6,0,0,1-3.83-1.07,4.17,4.17,0,0,1-1.31-3.43V37.9a.93.93,0,0,1,.57-.81,2.55,2.55,0,0,1,1.21-.3,2.6,2.6,0,0,1,1.25.3.93.93,0,0,1,.56.81v4.77h3.27a.74.74,0,0,1,.68.42,1.79,1.79,0,0,1,0,1.79.74.74,0,0,1-.68.4H57.65Z"/><path class="cls-7" d="M23.22,36.2a1.19,1.19,0,0,1-.12-.51,1.11,1.11,0,0,1,.28-.72,2.77,2.77,0,0,1,.67-.6,4,4,0,0,1,.86-.41,2.88,2.88,0,0,1,.86-.15,1.66,1.66,0,0,1,.66.14.83.83,0,0,1,.43.5l2.87,6.88,2.11-6.88a.82.82,0,0,1,.42-.5,1.39,1.39,0,0,1,.6-.14,2.75,2.75,0,0,1,.8.15,4.59,4.59,0,0,1,.9.42,2.77,2.77,0,0,1,.72.63,1.15,1.15,0,0,1,.3.76.83.83,0,0,1-.11.43l-3.6,9c-.33.79-.63,1.58-.91,2.35a7.68,7.68,0,0,1-1.11,2.06A5.13,5.13,0,0,1,28,51.06a7.38,7.38,0,0,1-3.09.54,4,4,0,0,1-.71-.05,1.17,1.17,0,0,1-1-.73,2.24,2.24,0,0,1-.14-.89,2.85,2.85,0,0,1,.21-1.15.77.77,0,0,1,.75-.48c.22,0,.54,0,.94-.06a3.67,3.67,0,0,0,1.21-.37,2.79,2.79,0,0,0,1-1,3.35,3.35,0,0,0,.43-1.85Z"/><path class="cls-7" d="M67.38,48.9a6.14,6.14,0,0,1,2.29.44,6.36,6.36,0,0,1,1.93,1.23,6,6,0,0,1,1.32,1.79,5,5,0,0,1,.48,2.18v2.27A5,5,0,0,1,72.92,59,6.27,6.27,0,0,1,69.67,62a5.62,5.62,0,0,1-2.29.47A5.73,5.73,0,0,1,65.06,62a6.26,6.26,0,0,1-1.91-1.25A6.12,6.12,0,0,1,61.84,59a5.09,5.09,0,0,1-.48-2.17V54.54a5,5,0,0,1,.47-2.14,5.65,5.65,0,0,1,1.29-1.81A6.21,6.21,0,0,1,65,49.36,6,6,0,0,1,67.38,48.9Zm2.44,5.64a2.26,2.26,0,0,0-.19-.92,3.06,3.06,0,0,0-.53-.81,2.29,2.29,0,0,0-.78-.56,2.21,2.21,0,0,0-1.88,0,2.29,2.29,0,0,0-.78.56,3.06,3.06,0,0,0-.53.81,2.26,2.26,0,0,0-.19.92v2.27a2.45,2.45,0,0,0,.19,1,2.6,2.6,0,0,0,.53.8,2.46,2.46,0,0,0,.78.57,2,2,0,0,0,1.88,0,2.46,2.46,0,0,0,.78-.57,2.6,2.6,0,0,0,.53-.8,2.45,2.45,0,0,0,.19-1Z"/><path class="cls-7" d="M36.7,66a1.91,1.91,0,0,1-.15-.67,1.46,1.46,0,0,1,.35-.93,3.53,3.53,0,0,1,.86-.76,4.78,4.78,0,0,1,1.09-.53,3.34,3.34,0,0,1,1-.19,2,2,0,0,1,.9.19,1.11,1.11,0,0,1,.55.66L46,75.48l3.78-11.67a1.12,1.12,0,0,1,.53-.66,1.69,1.69,0,0,1,.8-.19,3.34,3.34,0,0,1,1,.19,5.45,5.45,0,0,1,1.12.53,3.25,3.25,0,0,1,.89.8,1.51,1.51,0,0,1,.37,1,1.63,1.63,0,0,1-.11.59l-5.7,14.55q-.7,1.75-1.35,3.51a11.91,11.91,0,0,1-1.67,3.14,8,8,0,0,1-2.66,2.26,8.8,8.8,0,0,1-4.23.88A3.29,3.29,0,0,1,37.21,90q-.66-.37-.66-1.77a3.57,3.57,0,0,1,.29-1.49,1,1,0,0,1,1-.62,6.75,6.75,0,0,0,1.54-.23A5.06,5.06,0,0,0,41.15,85a5.7,5.7,0,0,0,1.5-1.76,6.55,6.55,0,0,0,.77-2.87Z"/><path class="cls-7" d="M34.84,71.67a2.46,2.46,0,0,0-1.18.3,3.26,3.26,0,0,0-1,.81,4.62,4.62,0,0,0-.72,1.3,5,5,0,0,0-.28,1.7v5a1,1,0,0,1-.54.78,2.27,2.27,0,0,1-1.29.36,2,2,0,0,1-1.26-.36,1,1,0,0,1-.49-.78V69.81a.9.9,0,0,1,.49-.8,2.35,2.35,0,0,1,1.26-.31A2.11,2.11,0,0,1,31,69a.92.92,0,0,1,.47.8V71a4.12,4.12,0,0,1,.54-.87,4.86,4.86,0,0,1,.79-.78,3.73,3.73,0,0,1,1-.55,3.05,3.05,0,0,1,1.12-.21h.86a1.18,1.18,0,0,1,.9.46,1.58,1.58,0,0,1,.4,1.09,1.63,1.63,0,0,1-.4,1.11,1.16,1.16,0,0,1-.9.47Z"/><path class="cls-1" d="M37.84,80.25a.56.56,0,0,1-.56.55.56.56,0,0,1,0-1.11A.56.56,0,0,1,37.84,80.25Z"/><path class="cls-2" d="M37.28,81.54a1.3,1.3,0,1,1,1.3-1.29A1.29,1.29,0,0,1,37.28,81.54Z"/><path class="cls-8" d="M22.83,5.86a.45.45,0,0,0-.45,0L5.32,15.77a.43.43,0,0,0-.2.41.39.39,0,0,0,.31.34l4.33,1.19a.47.47,0,0,0,.38-.08l6.92-5.55-4.83,6a.38.38,0,0,0-.09.25v5.43a.42.42,0,0,0,.3.4h.12a.44.44,0,0,0,.36-.19l3-4.64,4.41,1.2a.38.38,0,0,0,.34-.05.4.4,0,0,0,.19-.28L23,6.27A.43.43,0,0,0,22.83,5.86Z"/><path class="cls-8" d="M33.08,23.89a2.12,2.12,0,0,0-1.6-.74h0a2.5,2.5,0,0,0-1.39.45,2.82,2.82,0,0,0-.95,1.11,2.94,2.94,0,0,0-1-1.11,2.5,2.5,0,0,0-1.39-.45h0a2.12,2.12,0,0,0-1.6.74,2.22,2.22,0,0,0-.62,1.54A3.24,3.24,0,0,0,25,27a6.89,6.89,0,0,0,1.13,1.51A17.86,17.86,0,0,0,28,30.07c.48.37.87.66,1.07.79a.2.2,0,0,0,.15.05.3.3,0,0,0,.15-.05l.17-.12.74-.58a21.11,21.11,0,0,0,1.91-1.69A7.6,7.6,0,0,0,33.28,27a3.34,3.34,0,0,0,.42-1.53A2.18,2.18,0,0,0,33.08,23.89Z"/><path class="cls-8" d="M55.49,20.34a2,2,0,0,1,2.27-2.27.65.65,0,0,0,.75-.52A.65.65,0,0,0,58,16.8a3.79,3.79,0,0,0-.58-.05,3.26,3.26,0,0,0-2.27,1,3.2,3.2,0,0,0-.9,2.85.63.63,0,0,0,.63.54H55A.65.65,0,0,0,55.49,20.34Z"/><path class="cls-8" d="M69.25,17.71a3.27,3.27,0,0,0-2.27-1,4,4,0,0,0-.59.05.65.65,0,0,0-.52.75.64.64,0,0,0,.74.52,2,2,0,0,1,1.73.55,1.92,1.92,0,0,1,.55,1.72.65.65,0,0,0,.52.75h.11a.63.63,0,0,0,.63-.54A3.2,3.2,0,0,0,69.25,17.71Z"/><path class="cls-8" d="M69.16,24.61a7,7,0,1,0-11.55,5.25L56.37,31.1a.65.65,0,0,0,0,.91.67.67,0,0,0,.91,0l1.38-1.39a7,7,0,0,0,7.06,0L67.1,32a.64.64,0,0,0,.45.18A.67.67,0,0,0,68,32a.65.65,0,0,0,0-.91l-1.24-1.24A7,7,0,0,0,69.16,24.61Zm-6.33,0a.65.65,0,0,1-.32.56l-1.65,1.65a.65.65,0,0,1-.45.19.68.68,0,0,1-.46-.19.65.65,0,0,1,0-.91l1.6-1.59v-4a.64.64,0,0,1,.64-.64.64.64,0,0,1,.64.64Z"/><path class="cls-8" d="M60.13,59.27a1.45,1.45,0,0,0-1.09-.5h0a1.67,1.67,0,0,0-.94.31,2,2,0,0,0-.65.75,1.88,1.88,0,0,0-.65-.75,1.65,1.65,0,0,0-.94-.31h0a1.43,1.43,0,0,0-1.08.5,1.52,1.52,0,0,0-.43,1,2.24,2.24,0,0,0,.29,1,4.84,4.84,0,0,0,.77,1,14.24,14.24,0,0,0,1.24,1.09c.33.25.59.44.73.53a.17.17,0,0,0,.1,0,.19.19,0,0,0,.1,0l.12-.08.5-.39a14.11,14.11,0,0,0,1.29-1.15,4.84,4.84,0,0,0,.77-1,2.24,2.24,0,0,0,.29-1A1.51,1.51,0,0,0,60.13,59.27Z"/><path class="cls-9" d="M96.46,20.38a6.21,6.21,0,0,1,1.69-4.54,6.68,6.68,0,0,1,8.95,0,6.31,6.31,0,0,1,1.64,4.54V64.84a6.33,6.33,0,0,1-1.64,4.55,6.68,6.68,0,0,1-8.95,0,6.24,6.24,0,0,1-1.69-4.55Z"/><path class="cls-9" d="M117.87,37.49H116q-4.34,0-4.34-3.66T116,30.16h1.87v-6.8a5.57,5.57,0,0,1,1.46-4.12,6.27,6.27,0,0,1,8,0,5.56,5.56,0,0,1,1.45,4.12v6.8h3.3q4.93,0,4.94,3.67t-4.94,3.66h-3.3V59.8c0,1.73.95,2.6,2.85,2.6h1.57q3.83,0,3.82,3.74,0,5-7.94,5-5.84,0-8.53-2.49t-2.7-7.44Z"/><path class="cls-9" d="M141.68,16a6.26,6.26,0,0,1,9.58.88,12.26,12.26,0,0,1,1.8,6.91,15.51,15.51,0,0,1-.94,5.92A14.07,14.07,0,0,1,149.24,34a15.11,15.11,0,0,1-3.18,2.18,7.86,7.86,0,0,1-3.63,1.11,2.59,2.59,0,0,1-1.87-.65,2.2,2.2,0,0,1-.68-1.65,1.7,1.7,0,0,1,.64-1.41,9.86,9.86,0,0,1,2.06-1.11A12.11,12.11,0,0,0,146.32,30a6.66,6.66,0,0,0,1.5-4.43,5,5,0,0,1-2.55.69,4.87,4.87,0,0,1-3.93-1.76,6.28,6.28,0,0,1-1.46-4.13A6.09,6.09,0,0,1,141.68,16Z"/><path class="cls-9" d="M150,39.36a10.08,10.08,0,0,1,3.43-3.5,16,16,0,0,1,4.75-2,22.84,22.84,0,0,1,5.29-.62,28.08,28.08,0,0,1,5.52.55,22.62,22.62,0,0,1,4.85,1.55,10,10,0,0,1,3.4,2.44,4.64,4.64,0,0,1,1.24,3.09A4.59,4.59,0,0,1,177.33,44a3.8,3.8,0,0,1-3,1.27,3.56,3.56,0,0,1-1.88-.45,13.42,13.42,0,0,1-1.89-1.48,12.5,12.5,0,0,0-2.76-2,8,8,0,0,0-3.63-.69,9.42,9.42,0,0,0-4.18.76,2.46,2.46,0,0,0-1.48,2.34,2.36,2.36,0,0,0,1.25,2.26,15.93,15.93,0,0,0,4,1.31l4.11,1a45,45,0,0,1,4.58,1.34,15.37,15.37,0,0,1,3.77,2,9.62,9.62,0,0,1,2.83,3.09,8.46,8.46,0,0,1,1.08,4.33,10.46,10.46,0,0,1-1.28,5.22,11.52,11.52,0,0,1-3.44,3.78,15,15,0,0,1-4.88,2.23A21.27,21.27,0,0,1,165,71a27.55,27.55,0,0,1-6.26-.69,19.74,19.74,0,0,1-5.22-2A11.83,11.83,0,0,1,150,65.47,5.48,5.48,0,0,1,148.68,62a4.49,4.49,0,0,1,1-3,3.62,3.62,0,0,1,3-1.21,3.69,3.69,0,0,1,2.09.59,14.75,14.75,0,0,1,2.15,1.89,16.33,16.33,0,0,0,3.3,2.75,8.57,8.57,0,0,0,4.38,1,7.51,7.51,0,0,0,4.14-1,3,3,0,0,0,1.58-2.61A2.51,2.51,0,0,0,169.15,58a15.2,15.2,0,0,0-4-1.37l-.54-.14-5.79-1.44a17.74,17.74,0,0,1-7.54-3.58c-1.76-1.55-2.63-3.89-2.63-7A9.93,9.93,0,0,1,150,39.36Z"/><path class="cls-9" d="M197.38,34.74a5.73,5.73,0,0,1,1.39-4,5.43,5.43,0,0,1,7.56,0,5.77,5.77,0,0,1,1.38,4V36.2h.15a15.1,15.1,0,0,1,5.58-5.2,15.79,15.79,0,0,1,7.6-1.83,12.16,12.16,0,0,1,6.14,1.68,10.13,10.13,0,0,1,4.34,5.35A17.24,17.24,0,0,1,237,31a14.55,14.55,0,0,1,7.37-1.79q6.15,0,9.89,3.21T258,42.69V65.53a6.22,6.22,0,0,1-1.24,4q-1.23,1.53-4.23,1.53t-4.23-1.53a6.27,6.27,0,0,1-1.23-4v-20a8.61,8.61,0,0,0-1.46-5.2,5.25,5.25,0,0,0-4.53-2,7.58,7.58,0,0,0-5.58,2.41A8.54,8.54,0,0,0,233.16,47V65.53a6.27,6.27,0,0,1-1.23,4q-1.23,1.53-4.23,1.53t-4.23-1.53a6.27,6.27,0,0,1-1.24-4v-20a8.54,8.54,0,0,0-1.46-5.2,5.25,5.25,0,0,0-4.52-2,7.57,7.57,0,0,0-5.58,2.41A8.54,8.54,0,0,0,208.31,47V65.53a6.27,6.27,0,0,1-1.23,4q-1.25,1.53-4.23,1.53t-4.23-1.53a6.22,6.22,0,0,1-1.24-4Z"/><path class="cls-9" d="M277.48,59.42h.15l6.67-25.29a8.12,8.12,0,0,1,1.87-3.63,4.44,4.44,0,0,1,3.37-1.33,5.74,5.74,0,0,1,2.62.57,5.3,5.3,0,0,1,1.76,1.38,5.78,5.78,0,0,1,.93,1.64,4.41,4.41,0,0,1,.3,1.45,11.26,11.26,0,0,1-.82,3.51L281.68,74.31q-2.1,6.12-4.83,8.87c-1.83,1.83-4.38,2.75-7.68,2.75A7.82,7.82,0,0,1,264,84.47a4.57,4.57,0,0,1-1.72-3.66,4.15,4.15,0,0,1,1.38-3.33,5.38,5.38,0,0,1,3.63-1.18h1.12a4.2,4.2,0,0,0,2.36-.61,4.65,4.65,0,0,0,1.46-2.9L260.86,39.71c-.1-.25-.17-.46-.22-.61-.4-1.27-.69-2.22-.86-2.83a6.14,6.14,0,0,1-.26-1.75,5.08,5.08,0,0,1,1.57-3.82,5.17,5.17,0,0,1,3.74-1.53,5.81,5.81,0,0,1,3.63,1.11,5.46,5.46,0,0,1,2,3.09Z"/><path class="cls-9" d="M311.77,35.93a11.31,11.31,0,0,1,3.82-3.9,17.39,17.39,0,0,1,5.28-2.17,25.13,25.13,0,0,1,5.87-.69,30.45,30.45,0,0,1,6.14.61,24.52,24.52,0,0,1,5.39,1.72,10.94,10.94,0,0,1,3.78,2.71,5.19,5.19,0,0,1,1.39,3.44,5.11,5.11,0,0,1-1.24,3.47,4.17,4.17,0,0,1-3.33,1.42,4,4,0,0,1-2.1-.5,15.09,15.09,0,0,1-2.09-1.64,13.94,13.94,0,0,0-3.07-2.22,9,9,0,0,0-4-.76,10.44,10.44,0,0,0-4.65.84,2.75,2.75,0,0,0-1.64,2.6,2.66,2.66,0,0,0,1.38,2.52,18.17,18.17,0,0,0,4.46,1.45l4.56,1.07a48.74,48.74,0,0,1,5.09,1.49,17.43,17.43,0,0,1,4.2,2.17A11,11,0,0,1,344.11,53a9.41,9.41,0,0,1,1.2,4.81,11.71,11.71,0,0,1-1.42,5.81,12.8,12.8,0,0,1-3.82,4.2,16.83,16.83,0,0,1-5.43,2.48,23.83,23.83,0,0,1-6.18.81,30.74,30.74,0,0,1-7-.77,21.93,21.93,0,0,1-5.8-2.17A13.46,13.46,0,0,1,311.77,65a6.11,6.11,0,0,1-1.42-3.86,5,5,0,0,1,1.12-3.32,4.61,4.61,0,0,1,5.61-.69,16,16,0,0,1,2.4,2.1,17.37,17.37,0,0,0,3.67,3.05A9.43,9.43,0,0,0,328,63.31a8.34,8.34,0,0,0,4.6-1.14,3.39,3.39,0,0,0,1.76-2.9,2.8,2.8,0,0,0-1.27-2.6,17.43,17.43,0,0,0-4.42-1.53l-.6-.15-6.44-1.61a19.61,19.61,0,0,1-8.38-4q-2.92-2.59-2.92-7.79A11,11,0,0,1,311.77,35.93Z"/><path class="cls-9" d="M351.37,37.49H349.5c-2.9,0-4.34-1.22-4.34-3.66s1.44-3.67,4.34-3.67h1.87v-6.8a5.57,5.57,0,0,1,1.46-4.12,6.26,6.26,0,0,1,8,0,5.57,5.57,0,0,1,1.46,4.12v6.8h3.29q4.95,0,5,3.67t-5,3.66H362.3V59.8c0,1.73.95,2.6,2.85,2.6h1.57c2.54,0,3.82,1.25,3.82,3.74q0,5-7.94,5c-3.89,0-6.74-.83-8.53-2.49s-2.7-4.13-2.7-7.44Z"/><path class="cls-9" d="M372.15,41.81A19,19,0,0,1,376,35.2q5.46-6,15.05-6t15.05,6A19.21,19.21,0,0,1,410,41.81a25.24,25.24,0,0,1,1.31,8.29,28.38,28.38,0,0,1-1.12,8.13,18.7,18.7,0,0,1-3.48,6.65,16.29,16.29,0,0,1-6.29,4.55,26.81,26.81,0,0,1-18.6,0,16,16,0,0,1-6.29-4.54A18.74,18.74,0,0,1,372,58.23a28.38,28.38,0,0,1-1.12-8.13A25,25,0,0,1,372.15,41.81Zm11.94,17.42a8.49,8.49,0,0,0,13.92,0,16.61,16.61,0,0,0,2.32-9.13A16.16,16.16,0,0,0,398,40.89a8.65,8.65,0,0,0-13.85,0q-2.36,3.48-2.35,9.21A16.61,16.61,0,0,0,384.09,59.23Z"/><path class="cls-9" d="M415.15,34.36a5.12,5.12,0,0,1,1.39-3.82,5.3,5.3,0,0,1,7.11,0A5.16,5.16,0,0,1,425,34.36v4.28h.16a18.48,18.48,0,0,1,3.25-6.8,7,7,0,0,1,5.8-2.67,6.16,6.16,0,0,1,4.31,1.53,5,5,0,0,1,1.68,3.89,5.34,5.34,0,0,1-1.53,4.24,5.69,5.69,0,0,1-3.86,1.34H432.9A5.57,5.57,0,0,0,427.77,43c-1.12,1.89-1.69,5.07-1.69,9.55v13a6.27,6.27,0,0,1-1.23,4q-1.25,1.53-4.23,1.53t-4.23-1.53a6.22,6.22,0,0,1-1.24-4Z"/><path class="cls-9" d="M455.8,59.42H456l6.67-25.29a8.12,8.12,0,0,1,1.87-3.63,4.44,4.44,0,0,1,3.37-1.33,5.74,5.74,0,0,1,2.62.57,5.2,5.2,0,0,1,1.76,1.38,5.78,5.78,0,0,1,.93,1.64,4.41,4.41,0,0,1,.3,1.45,11.26,11.26,0,0,1-.82,3.51L460,74.31q-2.1,6.12-4.83,8.87c-1.83,1.83-4.38,2.75-7.68,2.75a7.84,7.84,0,0,1-5.16-1.46,4.57,4.57,0,0,1-1.72-3.66A4.15,4.15,0,0,1,442,77.48a5.38,5.38,0,0,1,3.63-1.18h1.12a4.2,4.2,0,0,0,2.36-.61,4.65,4.65,0,0,0,1.46-2.9L439.18,39.71c-.1-.25-.17-.46-.22-.61-.4-1.27-.69-2.22-.86-2.83a6.14,6.14,0,0,1-.26-1.75,5.08,5.08,0,0,1,1.57-3.82,5.17,5.17,0,0,1,3.74-1.53,5.81,5.81,0,0,1,3.63,1.11,5.46,5.46,0,0,1,2,3.09Z"/></g></g></svg>