<svg xmlns="http://www.w3.org/2000/svg" viewBox="0 0 229.67 166.77"><defs><style>.cls-1{fill:#fff;}</style></defs><title>BI_white</title><g id="Layer_2" data-name="Layer 2"><g id="세로형"><path class="cls-1" d="M0,127.79a3.65,3.65,0,0,1,1-2.7,3.65,3.65,0,0,1,2.7-1,3.64,3.64,0,0,1,2.73,1,3.68,3.68,0,0,1,1,2.7v26.44a3.68,3.68,0,0,1-1,2.7,3.61,3.61,0,0,1-2.73,1,3.62,3.62,0,0,1-2.7-1,3.65,3.65,0,0,1-1-2.7Z"/><path class="cls-1" d="M13,138H11.86c-1.76,0-2.64-.73-2.64-2.18s.88-2.18,2.64-2.18H13v-4.05a3.27,3.27,0,0,1,.89-2.45,3.35,3.35,0,0,1,2.43-.86,3.35,3.35,0,0,1,2.43.86,3.27,3.27,0,0,1,.88,2.45v4.05h2c2,0,3,.72,3,2.18s-1,2.18-3,2.18h-2v13.26c0,1,.58,1.55,1.73,1.55h.95c1.55,0,2.32.74,2.32,2.22q0,3-4.81,3c-2.37,0-4.09-.5-5.18-1.48A5.66,5.66,0,0,1,13,152.05Z"/><path class="cls-1" d="M27.44,125.16a3.56,3.56,0,0,1,2.63-1.09,3.61,3.61,0,0,1,3.18,1.61,7.19,7.19,0,0,1,1.09,4.11,9.08,9.08,0,0,1-.57,3.52A8.45,8.45,0,0,1,32,135.88a8.91,8.91,0,0,1-1.93,1.29,4.82,4.82,0,0,1-2.2.66,1.61,1.61,0,0,1-1.13-.38,1.28,1.28,0,0,1-.41-1,1,1,0,0,1,.38-.84A6,6,0,0,1,28,135a7.28,7.28,0,0,0,2.27-1.45,3.9,3.9,0,0,0,.91-2.64,3.12,3.12,0,0,1-1.54.41,3,3,0,0,1-2.39-1,3.69,3.69,0,0,1-.88-2.46A3.57,3.57,0,0,1,27.44,125.16Z"/><path class="cls-1" d="M32.46,139.08A6.09,6.09,0,0,1,34.54,137a9.9,9.9,0,0,1,2.88-1.17,14.37,14.37,0,0,1,3.21-.37,16.84,16.84,0,0,1,3.35.33,13.9,13.9,0,0,1,2.94.92A6.1,6.1,0,0,1,49,138.16a2.76,2.76,0,0,1,.75,1.84,2.69,2.69,0,0,1-.67,1.86,2.33,2.33,0,0,1-1.82.75,2.19,2.19,0,0,1-1.14-.26,8.65,8.65,0,0,1-1.15-.88,7.47,7.47,0,0,0-1.67-1.18,4.9,4.9,0,0,0-2.21-.41,5.76,5.76,0,0,0-2.53.45,1.47,1.47,0,0,0-.9,1.39,1.41,1.41,0,0,0,.75,1.34,9.55,9.55,0,0,0,2.44.78l2.49.57a28.85,28.85,0,0,1,2.78.8,9.87,9.87,0,0,1,2.29,1.16,6,6,0,0,1,1.71,1.84,5,5,0,0,1,.65,2.58,6.07,6.07,0,0,1-.77,3.1,6.81,6.81,0,0,1-2.09,2.25,9.28,9.28,0,0,1-3,1.33,13.6,13.6,0,0,1-3.37.43,17.29,17.29,0,0,1-3.8-.41,11.86,11.86,0,0,1-3.17-1.17,7.13,7.13,0,0,1-2.14-1.71,3.22,3.22,0,0,1-.78-2.07,2.62,2.62,0,0,1,.62-1.77,2.2,2.2,0,0,1,1.79-.72,2.28,2.28,0,0,1,1.27.35,9.52,9.52,0,0,1,1.31,1.12,9.44,9.44,0,0,0,2,1.64,5.28,5.28,0,0,0,2.66.57,4.69,4.69,0,0,0,2.51-.61,1.81,1.81,0,0,0,1-1.56,1.48,1.48,0,0,0-.7-1.39,9.48,9.48,0,0,0-2.41-.81l-.32-.09-3.52-.85a10.75,10.75,0,0,1-4.57-2.13,5.2,5.2,0,0,1-1.6-4.17A5.75,5.75,0,0,1,32.46,139.08Z"/><path class="cls-1" d="M62.14,136.33a3.38,3.38,0,0,1,.84-2.4,3.35,3.35,0,0,1,4.59,0,3.38,3.38,0,0,1,.84,2.4v.87h.09a9,9,0,0,1,3.39-3.09A9.68,9.68,0,0,1,76.5,133a7.42,7.42,0,0,1,3.72,1,6,6,0,0,1,2.64,3.18,10.46,10.46,0,0,1,3.34-3.12A8.91,8.91,0,0,1,90.67,133a9,9,0,0,1,6,1.91q2.27,1.9,2.27,6.13v13.58a3.68,3.68,0,0,1-.75,2.41,4.07,4.07,0,0,1-5.13,0,3.68,3.68,0,0,1-.75-2.41v-11.9a5,5,0,0,0-.89-3.09,3.21,3.21,0,0,0-2.75-1.18,4.63,4.63,0,0,0-3.38,1.43,5,5,0,0,0-1.43,3.7v11a3.68,3.68,0,0,1-.75,2.41,4.08,4.08,0,0,1-5.14,0,3.67,3.67,0,0,1-.74-2.41v-11.9a5,5,0,0,0-.89-3.09,3.21,3.21,0,0,0-2.75-1.18,4.63,4.63,0,0,0-3.38,1.43,5,5,0,0,0-1.43,3.7v11a3.68,3.68,0,0,1-.75,2.41,4.08,4.08,0,0,1-5.14,0,3.68,3.68,0,0,1-.75-2.41Z"/><path class="cls-1" d="M110.75,151h.09l4-15a4.84,4.84,0,0,1,1.14-2.16,2.7,2.7,0,0,1,2-.79,3.45,3.45,0,0,1,1.59.34,3,3,0,0,1,1.07.82,3.25,3.25,0,0,1,.57,1,2.64,2.64,0,0,1,.18.86,6.68,6.68,0,0,1-.5,2.09l-7.68,21.76a13.73,13.73,0,0,1-2.93,5.27,6.32,6.32,0,0,1-4.65,1.64,4.88,4.88,0,0,1-3.14-.86,2.75,2.75,0,0,1-1-2.19,2.44,2.44,0,0,1,.84-2,3.3,3.3,0,0,1,2.2-.71h.68a2.62,2.62,0,0,0,1.43-.36,2.74,2.74,0,0,0,.89-1.72l-6.91-19.67c-.06-.16-.1-.28-.13-.37-.24-.75-.42-1.31-.52-1.68a3.56,3.56,0,0,1-.16-1,3,3,0,0,1,1-2.27,3.16,3.16,0,0,1,2.27-.91,3.62,3.62,0,0,1,2.21.66,3.25,3.25,0,0,1,1.2,1.84Z"/><path class="cls-1" d="M131.55,137a6.78,6.78,0,0,1,2.32-2.32,10.86,10.86,0,0,1,3.2-1.29,15.28,15.28,0,0,1,3.57-.41,19.08,19.08,0,0,1,3.72.36,14.77,14.77,0,0,1,3.27,1,6.77,6.77,0,0,1,2.3,1.61,3.06,3.06,0,0,1,.84,2.05,3,3,0,0,1-.75,2.07,2.57,2.57,0,0,1-2,.84,2.41,2.41,0,0,1-1.27-.3,8.77,8.77,0,0,1-1.28-1,8.26,8.26,0,0,0-1.86-1.31,5.54,5.54,0,0,0-2.45-.46,6.5,6.5,0,0,0-2.82.5,1.65,1.65,0,0,0-1,1.55,1.59,1.59,0,0,0,.84,1.5,11.07,11.07,0,0,0,2.71.86l2.77.64a30.17,30.17,0,0,1,3.09.88,10.7,10.7,0,0,1,2.54,1.3,6.42,6.42,0,0,1,1.91,2,5.55,5.55,0,0,1,.72,2.86,6.75,6.75,0,0,1-.86,3.45,7.56,7.56,0,0,1-2.31,2.5,10.32,10.32,0,0,1-3.3,1.48,14.78,14.78,0,0,1-3.75.48,19.15,19.15,0,0,1-4.22-.46,13.27,13.27,0,0,1-3.52-1.29,8,8,0,0,1-2.39-1.91,3.61,3.61,0,0,1-.86-2.29,3,3,0,0,1,.68-2,2.84,2.84,0,0,1,3.41-.41,9.63,9.63,0,0,1,1.45,1.25,10.63,10.63,0,0,0,2.23,1.82,5.9,5.9,0,0,0,2.95.63,5.06,5.06,0,0,0,2.79-.68,2,2,0,0,0,1.07-1.73,1.65,1.65,0,0,0-.77-1.54,10.58,10.58,0,0,0-2.68-.91l-.36-.09-3.91-1a12.25,12.25,0,0,1-5.09-2.36,5.84,5.84,0,0,1-1.77-4.64A6.46,6.46,0,0,1,131.55,137Z"/><path class="cls-1" d="M155.58,138h-1.13c-1.76,0-2.64-.73-2.64-2.18s.88-2.18,2.64-2.18h1.13v-4.05a3.27,3.27,0,0,1,.89-2.45,3.86,3.86,0,0,1,4.86,0,3.27,3.27,0,0,1,.89,2.45v4.05h2c2,0,3,.72,3,2.18s-1,2.18-3,2.18h-2v13.26c0,1,.57,1.55,1.72,1.55h1q2.31,0,2.31,2.22,0,3-4.81,3c-2.36,0-4.09-.5-5.18-1.48a5.66,5.66,0,0,1-1.64-4.43Z"/><path class="cls-1" d="M168.19,140.53a11.34,11.34,0,0,1,2.34-3.92q3.32-3.6,9.13-3.59t9.13,3.59a11.34,11.34,0,0,1,2.34,3.92,14.73,14.73,0,0,1,.79,4.93,16.41,16.41,0,0,1-.68,4.84,11,11,0,0,1-2.11,3.95,9.83,9.83,0,0,1-3.82,2.71A16.56,16.56,0,0,1,174,157a9.72,9.72,0,0,1-3.82-2.7,11,11,0,0,1-2.13-4,16.41,16.41,0,0,1-.69-4.84A14.73,14.73,0,0,1,168.19,140.53Zm7.24,10.36a5.21,5.21,0,0,0,8.45,0,9.74,9.74,0,0,0,1.41-5.43,9.47,9.47,0,0,0-1.43-5.47,5.3,5.3,0,0,0-8.4,0,9.39,9.39,0,0,0-1.43,5.47A9.82,9.82,0,0,0,175.43,150.89Z"/><path class="cls-1" d="M194.29,136.11a3,3,0,0,1,.84-2.28,3.27,3.27,0,0,1,4.31,0,3,3,0,0,1,.84,2.28v2.54h.09a11.06,11.06,0,0,1,2-4,4.3,4.3,0,0,1,3.52-1.59,3.76,3.76,0,0,1,2.61.91,2.94,2.94,0,0,1,1,2.31,3.14,3.14,0,0,1-.93,2.52,3.48,3.48,0,0,1-2.34.8h-1.18a3.4,3.4,0,0,0-3.11,1.68q-1,1.68-1,5.68v7.72a3.68,3.68,0,0,1-.75,2.41,4.07,4.07,0,0,1-5.13,0,3.68,3.68,0,0,1-.75-2.41Z"/><path class="cls-1" d="M219,151H219l4.05-15a4.83,4.83,0,0,1,1.13-2.16,2.73,2.73,0,0,1,2.05-.79,3.51,3.51,0,0,1,1.59.34,3,3,0,0,1,1.06.82,3.25,3.25,0,0,1,.57,1,2.64,2.64,0,0,1,.18.86,6.41,6.41,0,0,1-.5,2.09l-7.67,21.76a13.87,13.87,0,0,1-2.93,5.27,6.36,6.36,0,0,1-4.66,1.64,4.85,4.85,0,0,1-3.13-.86,2.73,2.73,0,0,1-1.05-2.19,2.44,2.44,0,0,1,.84-2,3.32,3.32,0,0,1,2.2-.71h.69a2.64,2.64,0,0,0,1.43-.36,2.79,2.79,0,0,0,.88-1.72l-6.9-19.67c-.06-.16-.11-.28-.14-.37-.24-.75-.42-1.31-.52-1.68a3.56,3.56,0,0,1-.16-1,3,3,0,0,1,.95-2.27,3.19,3.19,0,0,1,2.28-.91,3.59,3.59,0,0,1,2.2.66,3.25,3.25,0,0,1,1.2,1.84Z"/><path class="cls-1" d="M143.78,58.62s-.45-8.33.84-10.23c.88-1.3,4-.31,4-4.56,0,0-2.09-.93-4.55,3.2,0,0-.32-4.53-4.55-3.29a3.8,3.8,0,0,0,2.77,4.46S143,57,143.78,58.62Z"/><path class="cls-1" d="M100.33,74a3.54,3.54,0,1,1-3.54-3.53A3.54,3.54,0,0,1,100.33,74Z"/><path class="cls-1" d="M96.79,78.2A4.18,4.18,0,1,1,101,74,4.18,4.18,0,0,1,96.79,78.2Zm0-7.07A2.9,2.9,0,1,0,99.68,74,2.9,2.9,0,0,0,96.79,71.13Z"/><path class="cls-1" d="M161.46,35.2A4.18,4.18,0,1,1,157.28,31,4.18,4.18,0,0,1,161.46,35.2Z"/><path class="cls-1" d="M157.28,40.3a5.1,5.1,0,1,1,5.11-5.1A5.11,5.11,0,0,1,157.28,40.3Zm0-8.35a3.25,3.25,0,1,0,3.25,3.25A3.25,3.25,0,0,0,157.28,32Z"/><path class="cls-1" d="M154.55,48.46c-.9-4.1-.31-5.56.78-6.77.68-.75,2.53-.77,2.78,1.84a9.86,9.86,0,0,1-.47,2.58c-.12.74-.31,2.51,1,2.38.73-.07,1.94-2,2.68-2.32a3.73,3.73,0,0,1,3.61.28,1.65,1.65,0,0,1-.13,2.84c-.85.41-2.19-.23-3.23.36s-2.29,2.07-.65,2.77c1.19.52,2,.27,2.76,1.54.51.8.73,2.07-.58,2.44-2,.55-4-3.61-5.28-.65-.55,1.3.58,5.58-2.38,5.07-3.63-.63.62-5-1.38-6.51s-5.57,3.45-6.81.88c-1.37-2.77,4.64-2.47,4.78-4.5.14-2.39-5.45-1.9-5-4.43.34-2.13,2.38-2.33,4-1.3,1.18.76,2.32,2.89,3.57,3.5"/><path class="cls-1" d="M132.24,8.6c3.17,1.11,5.23,1.7,7.39,3.13a43.56,43.56,0,0,1,5.18,4.41S143.14-4.07,121.47,3.05c0,0,1.15,16.57,23.34,13.09C144.81,16.14,135.41,13.94,132.24,8.6Z"/><path class="cls-1" d="M141.23,90.81A36.54,36.54,0,0,1,144.32,86c1-1.17,3.23-3.35,4.77-3.62,0,0-17.16,1.21-20.94,16.41,0,0,17.47,5.07,20.94-16.41C147.45,85.14,144.79,90.15,141.23,90.81Z"/><path class="cls-1" d="M158.37,66.35a.7.7,0,1,1-.7-.69A.7.7,0,0,1,158.37,66.35Z"/><path class="cls-1" d="M157.67,68a1.63,1.63,0,1,1,1.63-1.63A1.62,1.62,0,0,1,157.67,68Z"/><path class="cls-1" d="M108.6,10.11c-1.46.34-1.12,2.19-1.12,2.19-.16,2.06-2.83,3.93-4.19,4.75a3,3,0,0,1,.79-1.11h0c1.23-1,2.37-2.64,1.19-3.59a.94.94,0,0,0-1.26.06c-.22.28,0,.79,0,1.13a5.59,5.59,0,0,1-1.21,2.38,3.18,3.18,0,0,1-.06-2.71c.36-.82.72-2-.58-2-1.06,0-1.54,1.08-1.5,2a6.32,6.32,0,0,0,1,2.45,1.58,1.58,0,0,0,.13.26c-.57-.11-1.07-1.37-1.32-1.82-.39-.69-.9-2-1.71-2.26-1-.27-1.52.44-1.2,1.37.14.4.6.73.87,1s2.13,2.21,2.56,2.6c-.38-.26-2.52-1.59-3-1.81C97.06,14.62,96,13.7,95,13.74c-1.25.06-1,1.55-.14,2A43.89,43.89,0,0,1,100,17.38a13.79,13.79,0,0,1-5.32-.67c-2.54-1.11-3.81,1.93-1.1,2.48a9.37,9.37,0,0,0,4.37-.4,5.13,5.13,0,0,0-1.85,1.76A1.8,1.8,0,0,0,96,21.84c.13.68.55.81,1.25.85,1,.06,1.35-1.47,1.92-2.07,1.59-1.66,1.95-1.67,2.08-1.71.1.53-.48,1.06-.72,1.49s-.42.68-.59,1.06c-.3.66-1.06,2.13,0,2.54,2.2.88,2.55-3.37,2.7-4.59,0-.26.06-.51.08-.76.08,1,.16,2,.25,3s.39,1.71,1.42,1.79c.65.05.93-.44,1-1a1.77,1.77,0,0,0-.24-1.25,24.94,24.94,0,0,0-1.32-2.51c-.08-.14-.18-.28-.27-.42a7.57,7.57,0,0,0,.63.74,6.87,6.87,0,0,0,1.6.81c.58.25,2,.82,2.22-.09.3-1.07-.81-1.61-1.63-1.7a7.18,7.18,0,0,1-2.66-.43,1.06,1.06,0,0,1-.26-.17C110.87,16.12,110.77,9.61,108.6,10.11Z"/><path class="cls-1" d="M77.27,70a3.64,3.64,0,0,0-3.37-2.23c-2.36.26-3.07,2.06-3.39,3.54-3.3-.36-5.9,2.46-6.05,4.46-.19,2.51,2.21,3.8,4.63,3.54a6.16,6.16,0,0,0,2.78-1.37c.38-.3.71-1,1.22-.87.28,0,.94,1,1.38,1.26,2,1.41,4.34-.45,4-3,2,.17,3.69-.66,3.36-3-.28-2-2.8-2.8-4.56-2.28"/><path class="cls-1" d="M112.17,2a3.22,3.22,0,0,0-3-2c-2.08.23-2.71,1.83-3,3.13a5,5,0,0,0-5.35,3.94c-.17,2.22,2,3.37,4.09,3.13A5.42,5.42,0,0,0,107.39,9c.34-.27.63-.87,1.08-.78.25,0,.84.86,1.23,1.12,1.81,1.24,3.83-.4,3.53-2.68,1.77.16,3.26-.58,3-2.67-.24-1.76-2.48-2.47-4-2"/><path class="cls-1" d="M129.27,20.62a.19.19,0,0,0-.2-.1l-.35,0A76.82,76.82,0,0,0,120,21.83c-.16-.36-.31-.71-.46-1.07s-.25-.59-.41-1a47.41,47.41,0,0,0-2.33-5.13.19.19,0,0,0-.16-.09.2.2,0,0,0-.17.09,35,35,0,0,0-3.86,8.64h0a86.88,86.88,0,0,0-8.72,1.86.19.19,0,0,0-.14.16.22.22,0,0,0,.09.2c2.21,1.42,4.85,3,7.09,4.23A54.32,54.32,0,0,0,109.64,39a.22.22,0,0,0,.1.18.19.19,0,0,0,.1,0,.23.23,0,0,0,.11,0,25.72,25.72,0,0,0,5.76-5.55l.62-.73.61.38A84.57,84.57,0,0,0,125.26,38a.22.22,0,0,0,.21,0,.23.23,0,0,0,.08-.2,75.51,75.51,0,0,0-3.13-10.38l0-.1.09-.07a38.65,38.65,0,0,0,6.77-6.42A.18.18,0,0,0,129.27,20.62Z"/><path class="cls-1" d="M95.36,83.12a1.22,1.22,0,0,0-1.21-.62l-.25,0c-2.27.25-4.14.46-6,.81l-.3-.72a32.9,32.9,0,0,0-1.89-4.14,1.23,1.23,0,0,0-1-.54,1.2,1.2,0,0,0-1,.54,27.47,27.47,0,0,0-2.87,6.27,59.58,59.58,0,0,0-6.21,1.34,1.23,1.23,0,0,0-.3,2.2c1.28.83,2.89,1.79,4.8,2.89a39.82,39.82,0,0,0-.81,6.53,1.24,1.24,0,0,0,.61,1.1,1.22,1.22,0,0,0,.62.16,1.18,1.18,0,0,0,.63-.18,19.53,19.53,0,0,0,4.56-4.31,64.54,64.54,0,0,0,6.13,3.45,1.27,1.27,0,0,0,1.3-.13,1.22,1.22,0,0,0,.44-1.22,54.21,54.21,0,0,0-2.2-7.43,27.72,27.72,0,0,0,4.84-4.68A1.23,1.23,0,0,0,95.36,83.12Z"/><path class="cls-1" d="M77.67,51.91a2.08,2.08,0,0,1-.94,1,2.69,2.69,0,0,1-1.12.26,2.54,2.54,0,0,1-1.1-.26,2.1,2.1,0,0,1-.92-1L68.21,41.8V62.3a1.54,1.54,0,0,1-1,1.43,4.72,4.72,0,0,1-4.19,0,1.56,1.56,0,0,1-.94-1.43V33a2.73,2.73,0,0,1,.94-2.36A3.52,3.52,0,0,1,65.17,30a7.64,7.64,0,0,1,1.45.12,3.18,3.18,0,0,1,1.15.47,4.73,4.73,0,0,1,1,1,12,12,0,0,1,1.08,1.66l5.75,10.49,5.76-10.49a11.14,11.14,0,0,1,1.08-1.66,4.52,4.52,0,0,1,1.05-1,3.13,3.13,0,0,1,1.17-.47A8,8,0,0,1,86.19,30a3.49,3.49,0,0,1,2.1.68A2.71,2.71,0,0,1,89.23,33V62.3a1.54,1.54,0,0,1-1,1.43,4.72,4.72,0,0,1-4.19,0,1.56,1.56,0,0,1-.94-1.43V42.17Z"/><path class="cls-1" d="M116.94,71.78a6.8,6.8,0,0,0,3.67-1,3.38,3.38,0,0,0,1.57-3.09,3.77,3.77,0,0,0-1.12-2.83,11.53,11.53,0,0,0-2.79-2c-1.11-.58-2.31-1.13-3.6-1.66a17.79,17.79,0,0,1-3.61-2,10.7,10.7,0,0,1-2.78-3,8.32,8.32,0,0,1-1.13-4.54,8.3,8.3,0,0,1,3.68-7.28,11.13,11.13,0,0,1,3.65-1.59,17.65,17.65,0,0,1,4-.49c.69,0,1.54,0,2.55.14a15.5,15.5,0,0,1,2.93.56,8.17,8.17,0,0,1,2.41,1.15,2.23,2.23,0,0,1,1,1.9,3.59,3.59,0,0,1-.14,1,4,4,0,0,1-.44,1,3.05,3.05,0,0,1-.77.87,1.79,1.79,0,0,1-1.08.35,2.35,2.35,0,0,1-1.08-.28c-.34-.19-.75-.39-1.21-.61a11.47,11.47,0,0,0-1.71-.61,9.15,9.15,0,0,0-2.46-.28,6.78,6.78,0,0,0-3.91,1,3,3,0,0,0-1.38,2.64,2.91,2.91,0,0,0,1.12,2.37,12.62,12.62,0,0,0,2.79,1.66c1.11.5,2.31,1,3.6,1.57a16.06,16.06,0,0,1,3.61,2.1,11,11,0,0,1,2.78,3.23,9.88,9.88,0,0,1,1.13,5,10.66,10.66,0,0,1-.85,4.42,8.72,8.72,0,0,1-2.31,3.16,10,10,0,0,1-3.51,1.92,14.45,14.45,0,0,1-4.47.66,16.81,16.81,0,0,1-4.29-.52,13.35,13.35,0,0,1-3.44-1.36,7.89,7.89,0,0,1-2.27-1.87,3.27,3.27,0,0,1-.82-2.06,3.15,3.15,0,0,1,.21-1,4.05,4.05,0,0,1,.59-1.08,3.83,3.83,0,0,1,.84-.82,1.82,1.82,0,0,1,1-.32,2.12,2.12,0,0,1,1.38.56c.45.37,1,.79,1.55,1.24A10.8,10.8,0,0,0,114,71.22,7,7,0,0,0,116.94,71.78Z"/><path class="cls-1" d="M134.5,64.49a2,2,0,0,0,.42,1.43,2.17,2.17,0,0,0,1.54.42h1.36a1.73,1.73,0,0,1,1.44.59,2,2,0,0,1,0,2.61,1.71,1.71,0,0,1-1.44.6h-1.36a7.45,7.45,0,0,1-4.81-1.34A5.24,5.24,0,0,1,130,64.49V47.59a1.14,1.14,0,0,1,.71-1,3.13,3.13,0,0,1,1.52-.39,3.18,3.18,0,0,1,1.57.39,1.13,1.13,0,0,1,.69,1v6h4.12a.94.94,0,0,1,.85.52,2.21,2.21,0,0,1,.3,1.12,2.15,2.15,0,0,1-.3,1.13.93.93,0,0,1-.85.51H134.5Z"/><path class="cls-1" d="M91.28,45.45a1.46,1.46,0,0,1-.15-.64,1.37,1.37,0,0,1,.35-.9,3.37,3.37,0,0,1,.84-.75,4.39,4.39,0,0,1,1.09-.52,3.72,3.72,0,0,1,1.07-.19,2,2,0,0,1,.83.18,1,1,0,0,1,.54.62l3.6,8.65,2.65-8.65a1.07,1.07,0,0,1,.53-.62,1.66,1.66,0,0,1,.75-.18,3.66,3.66,0,0,1,1,.19,5.53,5.53,0,0,1,1.13.53,3.86,3.86,0,0,1,.91.78,1.51,1.51,0,0,1,.36,1,1.13,1.13,0,0,1-.12.54l-4.53,11.3c-.41,1-.79,2-1.14,3a9.61,9.61,0,0,1-1.4,2.59,6.38,6.38,0,0,1-2.33,1.82,9.31,9.31,0,0,1-3.88.68,6.13,6.13,0,0,1-.89-.06,1.55,1.55,0,0,1-.72-.29,1.52,1.52,0,0,1-.48-.64,2.84,2.84,0,0,1-.17-1.11,3.49,3.49,0,0,1,.27-1.44,1,1,0,0,1,.94-.61,10.44,10.44,0,0,0,1.18-.08A4.11,4.11,0,0,0,95,60.1a3.46,3.46,0,0,0,1.3-1.21,4.25,4.25,0,0,0,.54-2.33Z"/><path class="cls-1" d="M146.73,61.4A7.84,7.84,0,0,1,152,63.49a7.47,7.47,0,0,1,1.66,2.25,6.2,6.2,0,0,1,.61,2.73v2.86a6.18,6.18,0,0,1-.61,2.69A7.59,7.59,0,0,1,152,76.3a8.2,8.2,0,0,1-2.42,1.59,7.37,7.37,0,0,1-5.78,0,8.29,8.29,0,0,1-2.41-1.57,7.71,7.71,0,0,1-1.64-2.27,6.36,6.36,0,0,1-.61-2.72V68.47a6.31,6.31,0,0,1,.6-2.68,7.11,7.11,0,0,1,1.62-2.26,7.66,7.66,0,0,1,5.35-2.13Zm3.06,7.07a2.93,2.93,0,0,0-.24-1.15,3.67,3.67,0,0,0-.66-1,3.12,3.12,0,0,0-1-.71,2.83,2.83,0,0,0-2.37,0,3,3,0,0,0-1,.71,4,4,0,0,0-.67,1,2.93,2.93,0,0,0-.24,1.15v2.86a3.15,3.15,0,0,0,.24,1.21,3.49,3.49,0,0,0,.67,1,3.29,3.29,0,0,0,1,.71,2.65,2.65,0,0,0,2.37,0,3.47,3.47,0,0,0,1-.71,3.27,3.27,0,0,0,.66-1,3.15,3.15,0,0,0,.24-1.21Z"/><path class="cls-1" d="M108.21,82.92a2.35,2.35,0,0,1-.19-.84,1.78,1.78,0,0,1,.44-1.17,4.73,4.73,0,0,1,1.07-1,6.74,6.74,0,0,1,1.38-.66,4.3,4.3,0,0,1,1.32-.24,2.49,2.49,0,0,1,1.12.24,1.37,1.37,0,0,1,.69.83l5.88,14.65,4.75-14.65a1.4,1.4,0,0,1,.66-.83,2.18,2.18,0,0,1,1-.24,4.3,4.3,0,0,1,1.32.24,7.08,7.08,0,0,1,1.39.66,4.4,4.4,0,0,1,1.13,1,2,2,0,0,1,.47,1.22,1.85,1.85,0,0,1-.15.74l-7.15,18.27q-.88,2.2-1.69,4.41a15.3,15.3,0,0,1-2.11,3.94,9.92,9.92,0,0,1-3.33,2.84,11.08,11.08,0,0,1-5.31,1.1,4.16,4.16,0,0,1-2.06-.46c-.56-.31-.83-1-.83-2.23a4.41,4.41,0,0,1,.36-1.86,1.29,1.29,0,0,1,1.25-.79,7.92,7.92,0,0,0,1.94-.29,6.44,6.44,0,0,0,2.23-1.1,7.4,7.4,0,0,0,1.88-2.21,8.25,8.25,0,0,0,1-3.6Z"/><path class="cls-1" d="M105.86,90a3.28,3.28,0,0,0-1.48.37,4.12,4.12,0,0,0-1.27,1A5.48,5.48,0,0,0,102.2,93a6.28,6.28,0,0,0-.34,2.14v6.24a1.25,1.25,0,0,1-.68,1,2.91,2.91,0,0,1-1.63.45,2.59,2.59,0,0,1-1.58-.45,1.24,1.24,0,0,1-.61-1V87.66a1.14,1.14,0,0,1,.61-1,2.89,2.89,0,0,1,1.58-.39,2.53,2.53,0,0,1,1.43.39,1.15,1.15,0,0,1,.6,1v1.43a4.83,4.83,0,0,1,.68-1.1,6.56,6.56,0,0,1,1-1,4.74,4.74,0,0,1,1.22-.69,3.65,3.65,0,0,1,1.39-.26h1.08a1.51,1.51,0,0,1,1.14.57,2,2,0,0,1,.5,1.38,2.1,2.1,0,0,1-.5,1.39,1.47,1.47,0,0,1-1.14.59Z"/><path class="cls-1" d="M109.63,100.76a.7.7,0,1,1-.7-.7A.69.69,0,0,1,109.63,100.76Z"/><path class="cls-1" d="M108.93,102.38a1.63,1.63,0,1,1,1.63-1.62A1.62,1.62,0,0,1,108.93,102.38Z"/><path class="cls-1" d="M90.79,7.36a.55.55,0,0,0-.57,0L68.81,19.81a.5.5,0,0,0-.25.51.51.51,0,0,0,.38.43l5.44,1.48a.53.53,0,0,0,.47-.09l8.69-7-6.06,7.59a.54.54,0,0,0-.11.32V29.9a.5.5,0,0,0,.38.49.39.39,0,0,0,.15,0,.53.53,0,0,0,.44-.23l3.79-5.83,5.53,1.51a.54.54,0,0,0,.43-.07.49.49,0,0,0,.23-.35L91,7.87A.53.53,0,0,0,90.79,7.36Z"/><path class="cls-1" d="M103.66,30a2.7,2.7,0,0,0-2-.93h0a3,3,0,0,0-1.74.58A3.62,3.62,0,0,0,98.71,31a3.56,3.56,0,0,0-1.2-1.38,3,3,0,0,0-1.74-.58h0a2.7,2.7,0,0,0-2,.93A2.75,2.75,0,0,0,93,31.93a4.19,4.19,0,0,0,.53,1.92,8.57,8.57,0,0,0,1.42,1.89,22.21,22.21,0,0,0,2.31,2c.59.46,1.09.82,1.33,1a.33.33,0,0,0,.38,0l.21-.16c.23-.17.56-.42.93-.72a24.39,24.39,0,0,0,2.4-2.13,8.57,8.57,0,0,0,1.42-1.89,4.19,4.19,0,0,0,.53-1.92A2.75,2.75,0,0,0,103.66,30Z"/><path class="cls-1" d="M131.8,25.54a2.45,2.45,0,0,1,2.85-2.85.81.81,0,1,0,.28-1.59,4.62,4.62,0,0,0-.74-.06,4.07,4.07,0,0,0-4,4.78.81.81,0,0,0,.79.67h.14A.81.81,0,0,0,131.8,25.54Z"/><path class="cls-1" d="M149.08,22.23A4.13,4.13,0,0,0,146.22,21a4.49,4.49,0,0,0-.73.06.8.8,0,0,0-.66.93.82.82,0,0,0,.94.66,2.46,2.46,0,0,1,2.85,2.85.81.81,0,0,0,.66.94h.14a.81.81,0,0,0,.79-.67A4.11,4.11,0,0,0,149.08,22.23Z"/><path class="cls-1" d="M149,30.9a8.75,8.75,0,1,0-14.5,6.59L132.9,39a.83.83,0,0,0,0,1.15.83.83,0,0,0,1.15,0l1.73-1.74a8.78,8.78,0,0,0,8.86,0l1.73,1.74a.83.83,0,0,0,1.15,0,.83.83,0,0,0,0-1.15L146,37.49A8.71,8.71,0,0,0,149,30.9Zm-7.94,0a.81.81,0,0,1-.4.7l-2.08,2.07a.81.81,0,0,1-1.14-1.14l2-2v-5a.81.81,0,0,1,1.62,0Z"/><path class="cls-1" d="M137.62,74.42a1.78,1.78,0,0,0-1.36-.63h0a2.06,2.06,0,0,0-1.19.39,2.53,2.53,0,0,0-.81.94,2.45,2.45,0,0,0-.81-.94,2.05,2.05,0,0,0-1.18-.39h0a1.78,1.78,0,0,0-1.36.63,1.91,1.91,0,0,0-.53,1.31,2.78,2.78,0,0,0,.36,1.3,5.73,5.73,0,0,0,1,1.29,16.63,16.63,0,0,0,1.56,1.37c.4.31.74.55.91.67a.17.17,0,0,0,.12,0,.18.18,0,0,0,.13,0l.15-.11c.15-.12.38-.28.63-.49a16.66,16.66,0,0,0,1.62-1.44,5.73,5.73,0,0,0,1-1.29,2.78,2.78,0,0,0,.36-1.3A1.91,1.91,0,0,0,137.62,74.42Z"/></g></g></svg>