<?xml version="1.0" encoding="utf-8"?>
<!-- Generator: Adobe Illustrator 22.0.1, SVG Export Plug-In . SVG Version: 6.00 Build 0)  -->
<svg version="1.1" xmlns="http://www.w3.org/2000/svg" xmlns:xlink="http://www.w3.org/1999/xlink" x="0px" y="0px"
	 viewBox="0 0 200 200" style="enable-background:new 0 0 200 200;" xml:space="preserve">
<style type="text/css">
	.st0{fill:#BA4646;}
	.st1{fill:url(#SVGID_1_);}
	.st2{fill:#F7EBD7;}
	.st3{fill:#EDE3CD;}
	.st4{fill:#CFC8B1;}
	.st5{fill:url(#SVGID_2_);}
	.st6{fill:url(#SVGID_3_);}
	.st7{fill:url(#SVGID_4_);}
	.st8{fill:#EDE1CF;}
	.st9{fill:url(#SVGID_5_);}
	.st10{fill:url(#SVGID_6_);}
	.st11{fill:#BA9641;}
	.st12{fill:#C09B42;}
	.st13{fill:#C79F42;}
	.st14{fill:#CDA342;}
	.st15{fill:#D3A843;}
	.st16{fill:#DAAC43;}
	.st17{fill:#E0B144;}
	.st18{fill:#C04949;}
	.st19{fill:#C74B4B;}
	.st20{fill:#CD4E4E;}
	.st21{fill:#D35050;}
	.st22{fill:#DA5252;}
	.st23{fill:#E05555;}
	.st24{fill:#E6DCC7;}
	.st25{fill:#FFFFFF;}
	.st26{opacity:0.68;fill:url(#SVGID_7_);}
	.st27{fill:#38566E;}
	.st28{fill:url(#SVGID_8_);}
	.st29{fill:#FCE662;}
	.st30{fill:#D6A529;}
	.st31{fill:#F5CE47;}
	.st32{fill:url(#SVGID_9_);}
	.st33{fill:#B0AA91;}
	.st34{fill:url(#SVGID_10_);}
	.st35{fill:#FFEDD9;}
	.st36{opacity:0.68;fill:url(#SVGID_11_);}
	.st37{opacity:0.68;fill:url(#SVGID_12_);}
	.st38{fill:none;stroke:#FFFFFF;stroke-width:0.5;stroke-linecap:round;stroke-linejoin:round;stroke-miterlimit:10;}
	.st39{opacity:0.68;fill:url(#SVGID_13_);}
	.st40{fill:#C24545;}
	.st41{fill:#E39E49;}
	.st42{fill:#EDE34A;}
	.st43{fill:#B3CC4E;}
	.st44{fill:#52B3C7;}
	.st45{fill:#D95B5B;}
	.st46{fill:#BF5151;}
	.st47{fill:#694D36;}
	.st48{fill:#E07575;}
	.st49{fill:#6B9650;}
	.st50{fill:#648C4B;}
	.st51{fill:#86B6E0;}
	.st52{enable-background:new    ;}
	.st53{clip-path:url(#SVGID_15_);}
	.st54{fill:#4A5761;}
	.st55{clip-path:url(#SVGID_17_);enable-background:new    ;}
	.st56{fill:#797979;}
	.st57{clip-path:url(#SVGID_19_);}
	.st58{clip-path:url(#SVGID_21_);enable-background:new    ;}
	.st59{clip-path:url(#SVGID_23_);}
	.st60{fill:#FFE15E;}
	.st61{clip-path:url(#SVGID_25_);}
	.st62{fill:#CCA225;}
	.st63{clip-path:url(#SVGID_27_);}
	.st64{clip-path:url(#SVGID_29_);}
	.st65{fill:#F0CF3E;}
	.st66{fill:#FADB2D;}
	.st67{clip-path:url(#SVGID_31_);}
	.st68{fill:#F7D540;}
	.st69{fill:#FFE32E;}
	.st70{fill:#F7C52D;}
	.st71{fill:#FFE645;}
	.st72{fill:#5C6C78;}
	.st73{fill:#6D818F;}
	.st74{fill:#AAC7E0;}
	.st75{fill:#5C7C99;}
	.st76{fill:#171D21;}
	.st77{fill:#B04949;}
	.st78{fill:#1C2429;}
	.st79{fill:#212A30;}
	.st80{fill:#335066;}
	.st81{fill:#EAECED;}
	.st82{fill:#2E485C;}
	.st83{fill:#F9F9F9;}
	.st84{fill:#EECEB5;}
	.st85{fill:#464C6E;}
	.st86{fill:#695C66;}
	.st87{fill:#C4C4C4;}
	.st88{clip-path:url(#SVGID_33_);fill:#574432;}
	.st89{fill:#FFE1BF;}
	.st90{clip-path:url(#SVGID_35_);fill:#FFFFFF;}
	.st91{clip-path:url(#SVGID_37_);fill:#574432;}
	.st92{fill:#446B96;}
	.st93{fill:#4A74A2;}
	.st94{fill:#334E63;}
	.st95{fill:#786F42;}
	.st96{clip-path:url(#SVGID_39_);fill:#FFFFFF;}
	.st97{fill:url(#SVGID_40_);}
	.st98{fill:#ABBAE6;}
	.st99{opacity:0.5;fill:#87A5E4;}
	.st100{fill:#5A6996;}
	.st101{fill:#C4E8FF;}
	.st102{fill:#879BC0;}
	.st103{fill:#838DB9;}
	.st104{fill:#D3EAFB;}
</style>
<g id="_x30_2">
	<polygon class="st0" points="20.1,192 36.5,178.8 46.8,180.7 34,192.1 	"/>
	<polygon class="st0" points="179.8,192 161.2,177.2 153,180.7 165.9,192.1 	"/>
	<g>
		<linearGradient id="SVGID_1_" gradientUnits="userSpaceOnUse" x1="95.4349" y1="195.4576" x2="95.4349" y2="183.7924">
			<stop  offset="0" style="stop-color:#999285"/>
			<stop  offset="0.4031" style="stop-color:#6C675D"/>
			<stop  offset="0.9125" style="stop-color:#45423C"/>
		</linearGradient>
		<path class="st1" d="M44.7,191.4c0,0,45.2-2,45.3-2c-0.1,0.1,1,1.4,1.1,1.5c0.7,0.8,1.7,1,2.8,1.2c1.9,0.3,3.8,0.1,5.6,0
			c0,0,5.3-0.2,5.3-0.2l2.9-1l1.4-1.5l37,2v-6.2l-46.3-4.4l-26.4,1.9L44.7,191.4z"/>
		<g>
			<path class="st2" d="M99.7,165.5c0-5.6-6.9-7.5-11.2-7.1c-6.8,0.6-12.7,3.8-18.7,6.8c-1.1,0.5-2.1,1-3.2,1.5
				c-7.1,3.3-14.6,6-22.5,5.8c-0.1,0-0.7-0.1-0.8,0c0,0-13.3,12.3-13.3,12.3l0,0c10.3-0.6,16.1-1.3,24.3-3.7
				c6.2-1.9,13.1-5,19.4-6.6c9.2-2.4,15.6-2.2,21.5,2.3c0.5,0.4,3.6,2.5,4.5,4.4h0C99.7,181.1,99.7,165.5,99.7,165.5z"/>
			<path class="st3" d="M37.9,180.1c3.2-2.9,5-4.6,6-5.6c0,0,0.6,0,0.8,0c8.4,0,16.2-3,22.6-6c1.1-0.5,2.2-1,3.3-1.6l1.5-0.7
				c5.5-2.7,10.7-5.3,16.6-5.8c0.3,0,0.6,0,1,0c3.2,0,8.1,1.4,8.1,5.1v10.6c-0.4-0.3-0.8-0.6-1.1-0.8l-0.2-0.2
				c-3.8-2.9-7.8-4.2-12.7-4.2c-3,0-6.4,0.5-10.5,1.6c-3.6,0.9-7.4,2.4-11.1,3.7c-2.9,1.1-5.7,2.1-8.4,2.9
				c-6.4,1.9-11.2,2.7-18.2,3.3L37.9,180.1z"/>
		</g>
		<path class="st4" d="M91.1,188.9c0,0,8.6-7.8,8.6-7.8c-0.9-1.9-4-4-4.5-4.4c-5.9-4.5-12.3-4.7-21.5-2.3
			c-6.3,1.6-13.2,4.8-19.4,6.6c-8.2,2.5-14,3.1-24.3,3.7l-2.2,3l-0.4,0.2l-1.9,2.7l-0.4,0.1l-1.5,1.8l27.8-1.6
			c4.6-0.3,12.4-0.9,16.9-1.9C77.2,187.1,89.5,184.3,91.1,188.9z"/>
		<linearGradient id="SVGID_2_" gradientUnits="userSpaceOnUse" x1="61.4845" y1="188.1132" x2="61.0868" y2="179.6819">
			<stop  offset="0" style="stop-color:#999285"/>
			<stop  offset="1" style="stop-color:#45423C"/>
		</linearGradient>
		<path class="st5" d="M33.4,189.5c11.1,0.1,22.8-1.7,33.1-5.8c7.6-3,18.6-5.4,22.9,1.9c-0.9-1.4-3.1-2.5-4.5-3
			c-7.4-2.6-13.8,0.7-20.6,2.7c-6.9,2.1-14.3,3.6-21.5,4.1C39.7,189.6,36.6,189.5,33.4,189.5z"/>
		<linearGradient id="SVGID_3_" gradientUnits="userSpaceOnUse" x1="77.0971" y1="179.9887" x2="93.4454" y2="179.9887">
			<stop  offset="0" style="stop-color:#999285"/>
			<stop  offset="1" style="stop-color:#45423C"/>
		</linearGradient>
		<path class="st6" d="M77.1,178c0,0,11.8-3.9,16.3,4.8C93.4,182.8,90.5,175.8,77.1,178z"/>
		<linearGradient id="SVGID_4_" gradientUnits="userSpaceOnUse" x1="71.7631" y1="178.0669" x2="97.6089" y2="178.0669">
			<stop  offset="0" style="stop-color:#999285"/>
			<stop  offset="1" style="stop-color:#45423C"/>
		</linearGradient>
		<path class="st7" d="M97.6,181.9c0,0-5.4-12.3-25.8-5.7C71.8,176.2,89.7,170.6,97.6,181.9z"/>
		<path class="st8" d="M129.6,165.2c1.1,0.5,2.1,1,3.2,1.5c7.1,3.3,14.6,6,22.5,5.8c0.1,0,0.7-0.1,0.8,0l13.3,12.3l-69.8-3.7
			c0,0,0-15.6,0-15.6c0-5.6,6.9-7.5,11.2-7.1C117.7,159.1,123.6,162.3,129.6,165.2z"/>
		<path class="st4" d="M108.2,188.9c0,0-8.6-7.8-8.6-7.8c0.9-1.9,4-4,4.5-4.4c5.9-4.5,12.3-4.7,21.5-2.3c6.3,1.6,13.2,4.8,19.4,6.6
			c8.2,2.5,14,3.1,24.3,3.7l2.2,3l0.4,0.2l1.9,2.7l0.4,0.1l1.5,1.8l-27.8-1.6c-4.6-0.3-12.4-0.9-16.9-1.9
			C122.1,187.1,109.8,184.3,108.2,188.9z"/>
		<linearGradient id="SVGID_5_" gradientUnits="userSpaceOnUse" x1="136.9144" y1="186.0388" x2="137.1531" y2="180.7885">
			<stop  offset="0" style="stop-color:#999285"/>
			<stop  offset="1" style="stop-color:#45423C"/>
		</linearGradient>
		<path class="st9" d="M164.3,189.5c-10.8,0.1-22.8-2.2-33.1-6.1c-7.4-2.8-17.5-4.9-21.8,2.2c0.8-1.4,3-2.4,4.4-2.9
			c7.2-2.5,13.5,0.6,20.1,2.6c6.8,2,14,3.5,21,4C158.1,189.6,161.2,189.5,164.3,189.5z"/>
		<linearGradient id="SVGID_6_" gradientUnits="userSpaceOnUse" x1="130.1093" y1="182.1431" x2="130.1093" y2="177.3373">
			<stop  offset="0" style="stop-color:#999285"/>
			<stop  offset="0.5414" style="stop-color:#6C675D"/>
			<stop  offset="1" style="stop-color:#45423C"/>
		</linearGradient>
		<path class="st10" d="M133.1,179.8c16.1,5.5,24,5.4,24,5.4c-11-1-21.5-5.9-32.3-9c-4-1.1-8.1-1.8-12.2-1.2c-3.7,0.6-7.3,3-9.4,6.1
			c0,0,4-5.7,13.5-5.3C120.6,176.1,126.9,177.7,133.1,179.8z"/>
		<g>
			<g>
				<path class="st11" d="M108.1,189c-0.4,0-0.9-0.2-1.4-0.7l-3.5-3.2l-3.5-3.2l-3.5,3.3l-3.5,3.3c-0.5,0.5-0.9,0.7-1.4,0.7
					c-0.3,0-0.5-0.2-0.5-0.5c0-0.3,0.2-0.5,0.5-0.5c0,0,0.3,0,0.7-0.5l3.7-3.4l3.7-3.4c0.2-0.2,0.5-0.2,0.6,0l3.7,3.4l3.7,3.4
					c0.5,0.5,0.7,0.5,0.7,0.5c0,0,0,0,0,0c0.3,0,0.5,0.2,0.5,0.5C108.6,188.7,108.4,189,108.1,189C108.1,189,108.1,189,108.1,189z"
					/>
				<path class="st12" d="M99.4,180.8c0.1-0.1,0.2-0.1,0.3-0.1c0.1,0,0.2,0.1,0.3,0.1l3.7,3.4l3.7,3.4c0.1,0.1,0.2,0.2,0.3,0.3
					c0.2,0.2,0.4,0.2,0.4,0.2c0,0,0,0,0,0c0.2,0,0.4,0.2,0.5,0.3c0,0,0,0,0,0c0,0,0,0,0,0.1c0,0.1,0,0.2-0.1,0.3
					c-0.1,0.1-0.2,0.2-0.3,0.2c0,0,0,0,0,0c-0.4,0-0.8-0.2-1.3-0.7l-3.5-3.3l-3.5-3.3l-3.6,3.3l-3.5,3.2c0,0-0.1,0.1-0.1,0.1
					c-0.4,0.4-0.9,0.6-1.3,0.6c-0.1,0-0.3-0.1-0.3-0.2c-0.1-0.1-0.1-0.2-0.1-0.3c0,0,0,0,0,0c0-0.2,0.2-0.4,0.5-0.4
					c0,0,0.1,0,0.4-0.2c0.1-0.1,0.2-0.2,0.3-0.3l3.7-3.4L99.4,180.8z"/>
				<path class="st13" d="M99.4,180.8c0.1-0.1,0.2-0.1,0.3-0.1c0.1,0,0.2,0.1,0.3,0.1l3.6,3.3l3.6,3.3c0.1,0.1,0.2,0.2,0.3,0.3
					c0.2,0.2,0.3,0.2,0.4,0.2c0,0,0,0,0,0c0.2,0.1,0.4,0.2,0.5,0.3c0,0,0,0,0,0c0,0,0,0,0,0.1c0,0.1,0,0.2,0,0.3
					c-0.1,0.1-0.2,0.2-0.3,0.2c0,0,0,0,0,0c-0.4,0-0.8-0.2-1.3-0.7l-3.6-3.3l-3.6-3.3l-3.6,3.3l-3.5,3.2c0,0-0.1,0.1-0.1,0.1
					c-0.4,0.4-0.9,0.6-1.2,0.6c-0.1,0-0.3-0.1-0.3-0.2c0-0.1,0-0.2,0-0.3c0,0,0,0,0,0c0-0.2,0.2-0.3,0.5-0.4c0,0,0.2-0.1,0.4-0.2
					c0.1,0,0.2-0.2,0.3-0.3l3.6-3.3L99.4,180.8z"/>
				<path class="st14" d="M99.4,180.8c0.1-0.1,0.2-0.1,0.3-0.1c0.1,0,0.2,0.1,0.3,0.2l3.6,3.3l3.6,3.3c0.1,0.1,0.2,0.2,0.3,0.3
					c0.2,0.2,0.3,0.2,0.4,0.3c0,0,0,0,0,0c0.2,0.1,0.4,0.2,0.5,0.3c0,0,0,0,0,0c0,0,0,0,0,0c0,0.1,0.1,0.2,0,0.3
					c0,0.1-0.2,0.2-0.3,0.2c0,0,0,0,0,0c-0.4,0-0.8-0.2-1.3-0.7l-3.6-3.3l-3.6-3.3l-3.6,3.3l-3.5,3.2c0,0-0.1,0.1-0.1,0.1
					c-0.5,0.4-0.9,0.6-1.2,0.6c-0.1,0-0.2-0.1-0.3-0.2c0-0.1,0-0.2,0.1-0.3c0,0,0,0,0,0c0.1-0.1,0.2-0.2,0.5-0.4
					c0.1,0,0.2-0.1,0.3-0.2c0,0,0.2-0.2,0.3-0.3l3.6-3.3L99.4,180.8z"/>
				<path class="st15" d="M99.5,180.9c0.1-0.1,0.2-0.1,0.3,0c0,0,0.2,0.1,0.2,0.2l3.6,3.3l3.5,3.2c0,0,0.2,0.2,0.3,0.2
					c0.2,0.2,0.3,0.2,0.4,0.3c0,0,0,0,0,0c0.2,0.1,0.4,0.2,0.5,0.3c0,0,0,0,0,0c0,0,0,0,0,0c0.1,0.1,0.1,0.1,0.1,0.2
					c0,0.1-0.1,0.2-0.3,0.2c0,0,0,0,0,0c-0.4,0-0.8-0.2-1.3-0.7l-3.6-3.3l-3.6-3.3l-3.6,3.3l-3.5,3.2c0,0-0.1,0.1-0.1,0.1
					c-0.5,0.4-0.9,0.7-1.2,0.7c-0.1,0-0.2-0.1-0.3-0.2c0-0.1,0-0.2,0.1-0.3c0,0,0,0,0,0c0.1-0.1,0.2-0.2,0.5-0.3
					c0.1,0,0.2-0.1,0.3-0.2c0,0,0.2-0.2,0.3-0.3l3.5-3.2L99.5,180.9z"/>
				<path class="st16" d="M99.5,180.9c0.1-0.1,0.2-0.1,0.3,0c0,0,0.2,0.2,0.2,0.2l3.5,3.2l3.5,3.2c0,0,0.2,0.2,0.3,0.2
					c0.2,0.1,0.3,0.2,0.4,0.3c0,0,0,0,0,0c0.3,0.2,0.4,0.2,0.5,0.3c0,0,0,0,0,0c0,0,0,0,0.1,0c0.1,0,0.1,0.1,0.1,0.2
					c0,0.1-0.1,0.2-0.2,0.2c0,0,0,0,0,0c-0.4,0-0.8-0.2-1.2-0.7l-3.6-3.3l-3.6-3.3l-3.6,3.3l-3.5,3.2c0,0-0.1,0.1-0.1,0.1
					c-0.5,0.4-0.9,0.7-1.2,0.7c-0.1,0-0.2-0.1-0.2-0.2c0-0.1,0.1-0.2,0.2-0.2c0,0,0,0,0,0c0.1,0,0.3-0.1,0.6-0.3
					c0.1-0.1,0.2-0.1,0.3-0.3c0,0,0.3-0.2,0.3-0.2l3.5-3.2L99.5,180.9z"/>
				<path class="st17" d="M108.1,188.7c-0.4,0-0.7-0.2-1.2-0.7l-3.6-3.3l-3.6-3.3l-3.6,3.3l-3.6,3.3c-0.5,0.5-0.9,0.7-1.2,0.7
					c-0.1,0-0.2-0.1-0.2-0.2c0-0.1,0.1-0.2,0.2-0.2c0,0,0,0,0,0c0.1,0,0.4-0.1,0.9-0.5l3.7-3.4l3.7-3.4c0.1-0.1,0.2-0.1,0.3,0
					l3.7,3.4l3.7,3.4c0.5,0.5,0.8,0.5,0.9,0.5c0,0,0,0,0,0c0.1,0,0.2,0.1,0.2,0.2C108.4,188.6,108.3,188.7,108.1,188.7
					C108.1,188.7,108.1,188.7,108.1,188.7z"/>
			</g>
		</g>
		<g>
			<g>
				<path class="st0" d="M179.3,193.8C179.3,193.8,179.3,193.8,179.3,193.8l-66.1-3.4c-0.3,0-0.8-0.1-1.2-0.1
					c-0.5-0.1-1.8-0.3-2.1-0.1c-1.2,2-3.4,2.3-5.1,2.5l-0.6,0.1c0,0-1.4,0.3-4,0.4c-0.2,0-0.4,0-0.6,0c-0.2,0-0.4,0-0.6,0
					c-2.3,0.2-4.3-0.2-4.3-0.2c-0.2,0-0.4-0.1-0.7-0.1c-1.5-0.2-3.4-0.4-4.4-2.2c-0.1-0.2-0.2-0.3-0.2-0.4c0,0,0,0,0,0
					c-0.1,0-0.2,0-0.4,0c-0.2,0-0.3,0-0.4,0l-67.9,3.4c-0.6,0-1-0.4-1-0.9c0-0.5,0.4-1,0.9-1l67.9-3.4c0.1,0,0.3,0,0.5,0l0.3,0
					c1.2-0.1,1.6,0.5,1.9,1.1c0,0.1,0.1,0.2,0.2,0.3c0.5,0.8,1.4,1,2.9,1.2c0.3,0,0.5,0.1,0.8,0.1c0,0,1.8,0.3,3.8,0.1
					c0.3,0,0.5,0,0.8,0c0.2,0,0.3,0,0.5,0c2.4-0.1,3.6-0.3,3.7-0.3l0.7-0.1c1.6-0.2,3-0.4,3.7-1.6c0.8-1.3,2.7-1.1,4-0.8
					c0.4,0.1,0.7,0.1,1,0.1l66.1,3.4c0.5,0,1,0.5,0.9,1C180.3,193.4,179.8,193.8,179.3,193.8z"/>
				<path class="st18" d="M88.6,188.4c0.1,0,0.3,0,0.5,0l0.3,0c1.2-0.1,1.5,0.5,1.8,1.1c0,0.1,0.1,0.2,0.2,0.3c0.5,0.9,1.5,1,3,1.2
					c0.3,0,0.5,0.1,0.8,0.1c0,0,1.8,0.3,3.8,0.1c0.3,0,0.5,0,0.8,0c0.2,0,0.3,0,0.5,0c2.4-0.1,3.7-0.3,3.7-0.3l0.7-0.1
					c1.6-0.2,3-0.4,3.7-1.6c0.8-1.3,2.6-1,4-0.8c0.4,0.1,0.7,0.1,1,0.1l66,3.3c0.2,0,0.5,0.1,0.7,0.3c0.2,0.2,0.3,0.4,0.3,0.7
					c0,0.5-0.4,0.9-0.9,0.9c0,0,0,0,0,0l-66.1-3.4c-0.3,0-0.7-0.1-1.2-0.1c-0.6-0.1-1.8-0.3-2.1-0.1c-0.1,0.1-0.2,0.3-0.3,0.4
					c-1.2,1.6-3.2,1.9-4.8,2.1l-0.6,0.1c0,0-1.4,0.3-3.9,0.4c-0.2,0-0.4,0-0.6,0c-0.2,0-0.4,0-0.6,0c-2.3,0.2-4.3-0.2-4.3-0.2
					c-0.2,0-0.4-0.1-0.7-0.1c-1.5-0.2-3.4-0.4-4.3-2.1c-0.1-0.2-0.2-0.3-0.2-0.4c0,0,0,0-0.1,0c-0.1,0-0.2,0-0.4,0
					c-0.1,0-0.3,0-0.4,0c0,0-0.4,0-0.4,0L21,193.7c-0.2,0-0.6-0.1-0.7-0.2c-0.2-0.1-0.4-0.4-0.4-0.7c0-0.3,0.1-0.5,0.3-0.7
					c0.1-0.2,0.5-0.3,0.7-0.3L88.6,188.4z"/>
				<path class="st19" d="M88.6,188.5c0.1,0,0.3,0,0.5,0l0.3,0c1.1-0.1,1.5,0.4,1.8,1c0,0.1,0.1,0.2,0.2,0.3c0.5,0.9,1.6,1.1,3,1.2
					c0.3,0,0.5,0.1,0.8,0.1c0,0,1.8,0.3,3.9,0.1c0.2,0,0.5,0,0.7,0c0.2,0,0.3,0,0.5,0c2.4-0.1,3.7-0.3,3.7-0.3l0.7-0.1
					c1.6-0.2,3.1-0.4,3.8-1.7c0.8-1.3,2.5-1,3.9-0.8c0.4,0.1,0.7,0.1,1,0.1l65.8,3.3c0.2,0,0.6,0.1,0.7,0.2c0.2,0.1,0.4,0.4,0.3,0.7
					c0,0.4-0.4,0.8-0.8,0.8c0,0,0,0,0,0l-66.1-3.4c-0.3,0-0.7-0.1-1.2-0.1c-0.6-0.1-1.7-0.3-2.1-0.1c-0.1,0.1-0.2,0.2-0.3,0.4
					c-1.2,1.7-3.1,1.9-4.8,2.1l-0.6,0.1c0,0-1.4,0.3-3.9,0.4c-0.2,0-0.4,0-0.6,0c-0.2,0-0.4,0-0.6,0c-2.3,0.1-4.2-0.2-4.3-0.2
					c-0.2,0-0.4-0.1-0.7-0.1c-1.5-0.2-3.3-0.4-4.2-2.1c-0.1-0.2-0.2-0.3-0.2-0.4c0,0-0.1-0.1-0.1-0.1c-0.1,0-0.2,0-0.4,0
					c-0.1,0-0.3,0-0.4,0c-0.1,0-0.4,0-0.4,0l-67.4,3.4c-0.2,0-0.6,0-0.7-0.1c-0.2-0.1-0.4-0.3-0.4-0.6c0-0.3,0.1-0.5,0.3-0.7
					c0.1-0.1,0.5-0.2,0.7-0.2L88.6,188.5z"/>
				<path class="st20" d="M88.6,188.6c0.1,0,0.3,0,0.5,0l0.3,0c1.1,0,1.4,0.4,1.7,1c0,0.1,0.1,0.2,0.2,0.3c0.5,0.9,1.7,1.1,3.1,1.3
					c0.3,0,0.5,0.1,0.8,0.1c0,0,1.8,0.3,3.9,0.1c0.2,0,0.5,0,0.7,0c0.2,0,0.3,0,0.5,0c2.4-0.1,3.7-0.3,3.7-0.3l0.6-0.1
					c1.6-0.2,3.1-0.4,3.9-1.7c0.7-1.2,2.5-0.9,3.8-0.7c0.4,0.1,0.7,0.1,1,0.1l65.7,3.3c0.1,0,0.6,0.1,0.7,0.2
					c0.2,0.1,0.4,0.3,0.4,0.6c0,0.4-0.3,0.7-0.7,0.7c0,0,0,0,0,0l-66.1-3.4c-0.3,0-0.7-0.1-1.2-0.1c-0.6-0.1-1.7-0.3-2.1-0.1
					c-0.1,0.1-0.3,0.2-0.4,0.3c-1.2,1.7-3.1,1.9-4.8,2.2l-0.6,0.1c0,0-1.4,0.3-3.9,0.4c-0.2,0-0.4,0-0.6,0c-0.2,0-0.4,0-0.6,0
					c-2.3,0.1-4.2-0.2-4.2-0.2c-0.2,0-0.5-0.1-0.7-0.1c-1.5-0.2-3.3-0.4-4.2-2c-0.1-0.2-0.2-0.3-0.2-0.4c0-0.1-0.1-0.1-0.1-0.1
					c0,0-0.1,0-0.4,0c-0.1,0-0.3,0-0.4,0c-0.1,0-0.3,0-0.4,0l-67.3,3.4c-0.1,0-0.6,0-0.7-0.1c-0.2-0.1-0.4-0.3-0.4-0.6
					c0-0.3,0.1-0.5,0.4-0.6c0.1-0.1,0.6-0.2,0.7-0.2L88.6,188.6z"/>
				<path class="st21" d="M88.6,188.7c0.1,0,0.3,0,0.4,0l0.3,0c1,0,1.3,0.4,1.6,0.9c0,0.1,0.1,0.2,0.2,0.3c0.6,1,1.7,1.2,3.1,1.3
					c0.3,0,0.5,0.1,0.8,0.1c0,0,1.8,0.3,3.9,0.1c0.2,0,0.5,0,0.7,0c0.2,0,0.3,0,0.5,0c2.4-0.1,3.7-0.3,3.7-0.3l0.6-0.1
					c1.6-0.2,3.1-0.4,3.9-1.7c0.7-1.2,2.4-0.9,3.7-0.7c0.4,0.1,0.7,0.1,1,0.1l65.6,3.3c0.1,0,0.6,0.1,0.7,0.1
					c0.2,0.1,0.4,0.3,0.4,0.6c0,0.4-0.3,0.6-0.7,0.6c0,0,0,0,0,0l-66.1-3.4c-0.3,0-0.7-0.1-1.2-0.1c-0.6-0.1-1.6-0.3-2.1-0.1
					c-0.2,0.1-0.3,0.2-0.4,0.3c-1.1,1.7-3.1,2-4.8,2.2l-0.6,0.1c0,0-1.4,0.3-3.9,0.4c-0.2,0-0.4,0-0.5,0c-0.2,0-0.4,0-0.6,0
					c-2.3,0.1-4.2-0.2-4.2-0.2c-0.2,0-0.5-0.1-0.7-0.1c-1.5-0.2-3.2-0.4-4.1-2c-0.1-0.2-0.2-0.3-0.2-0.4c0-0.1-0.1-0.2-0.1-0.2
					c0,0-0.1,0-0.4,0c-0.1,0-0.3,0-0.4,0c-0.1,0-0.3,0-0.4,0l-67.3,3.4c-0.1,0-0.7,0-0.7-0.1c-0.2,0-0.4-0.3-0.5-0.5
					c0-0.3,0.2-0.5,0.4-0.6c0.1-0.1,0.6-0.1,0.7-0.1L88.6,188.7z"/>
				<path class="st22" d="M88.6,188.8c0.1,0,0.3,0,0.4,0l0.3,0c1,0,1.3,0.3,1.5,0.9c0,0.1,0.1,0.2,0.2,0.3c0.6,1,1.8,1.2,3.2,1.4
					c0.3,0,0.5,0.1,0.8,0.1c0,0,1.8,0.3,3.9,0.1c0.2,0,0.5,0,0.7,0c0.2,0,0.3,0,0.5,0c2.4-0.1,3.7-0.3,3.7-0.3l0.6-0.1
					c1.6-0.2,3.2-0.4,4-1.8c0.7-1.1,2.3-0.9,3.6-0.7c0.4,0.1,0.7,0.1,1,0.1l65.5,3.3c0,0,0.7,0.1,0.7,0.1c0.3,0,0.5,0.3,0.4,0.6
					c0,0.3-0.3,0.5-0.6,0.5c0,0,0,0,0,0l-66.1-3.4c-0.3,0-0.7-0.1-1.2-0.1c-0.7-0.1-1.6-0.2-2.1-0.1c-0.2,0.1-0.3,0.2-0.4,0.3
					c-1.1,1.7-3.1,2-4.8,2.2l-0.6,0.1c0,0-1.4,0.3-3.9,0.4c-0.2,0-0.4,0-0.5,0c-0.2,0-0.4,0-0.6,0c-2.3,0.1-4.2-0.2-4.2-0.2
					c-0.2,0-0.5-0.1-0.7-0.1c-1.5-0.2-3.2-0.4-4.1-2c-0.1-0.2-0.2-0.3-0.2-0.4c0-0.1-0.1-0.2-0.1-0.2c0,0-0.1,0-0.4,0
					c-0.1,0-0.2,0-0.4,0c-0.1,0-0.3,0-0.4,0l-67.2,3.4c0,0-0.7,0-0.7,0c-0.3,0-0.5-0.2-0.5-0.5c0-0.3,0.2-0.5,0.4-0.6
					c0,0,0.7-0.1,0.7-0.1L88.6,188.8z"/>
				<path class="st23" d="M179.3,193.3C179.3,193.3,179.3,193.3,179.3,193.3l-66.1-3.4c-0.3,0-0.7-0.1-1.1-0.1
					c-0.9-0.1-2.3-0.3-2.5,0.1c-1.1,1.8-3,2-4.8,2.3l-0.6,0.1c0,0-1.4,0.3-3.9,0.4c-0.2,0-0.4,0-0.5,0c-0.2,0-0.4,0-0.6,0
					c-2.2,0.1-4.2-0.2-4.2-0.2c-0.2,0-0.5-0.1-0.7-0.1c-1.5-0.2-3.1-0.4-4-1.9c-0.1-0.2-0.2-0.3-0.2-0.4c0-0.1-0.1-0.2-0.1-0.3
					c0,0-0.1,0-0.4,0c-0.1,0-0.2,0-0.4,0c-0.2,0-0.3,0-0.4,0l-67.9,3.4c-0.3,0-0.5-0.2-0.5-0.5c0-0.3,0.2-0.5,0.5-0.5l67.9-3.4
					c0.1,0,0.3,0,0.4,0l0.3,0c0.9,0,1.2,0.3,1.4,0.8c0,0.1,0.1,0.2,0.2,0.4c0.6,1.1,1.9,1.2,3.3,1.4c0.3,0,0.5,0.1,0.8,0.1
					c0,0,1.8,0.3,3.9,0.1c0.2,0,0.5,0,0.7,0c0.2,0,0.3,0,0.5,0c2.4-0.1,3.7-0.3,3.7-0.3l0.6-0.1c1.7-0.2,3.2-0.4,4-1.8
					c0.6-1.1,2.3-0.8,3.5-0.6c0.4,0.1,0.7,0.1,1,0.1l66.1,3.4c0.3,0,0.5,0.2,0.5,0.5C179.8,193.1,179.6,193.3,179.3,193.3z"/>
			</g>
		</g>
		<g>
			<path class="st8" d="M104.2,176.7c5.9-4.5,12.3-4.7,21.5-2.3c6.3,1.6,13.2,4.8,19.4,6.6c8.2,2.5,14,3.1,24.3,3.7l0,0l-13.3-12.3
				c-0.1-0.1-0.7,0-0.8,0c-7.9,0.2-15.4-2.6-22.5-5.8c-1.1-0.5-2.1-1-3.2-1.5c-6-3-11.9-6.2-18.7-6.8c-4.3-0.4-11.2,1.4-11.2,7.1
				c0,0,0,15.6,0,15.6h0C100.6,179.2,103.7,177.1,104.2,176.7z"/>
			<path class="st24" d="M164,182.5c-7-0.6-11.9-1.4-18.2-3.3c-2.7-0.8-5.5-1.8-8.4-2.9c-3.7-1.4-7.5-2.8-11.1-3.7
				c-4.2-1.1-7.5-1.6-10.5-1.6c-4.9,0-8.9,1.3-12.7,4.2l-0.2,0.2c-0.4,0.3-0.7,0.5-1.1,0.8c0-4.6,0-10.6,0-10.6
				c0-3.8,4.9-5.1,8.1-5.1c0.3,0,0.7,0,1,0c5.9,0.5,11.1,3.1,16.6,5.8l1.5,0.7c1.1,0.5,2.2,1.1,3.3,1.6c6.5,3,14.2,6,22.6,6
				c0.2,0,0.8,0,0.8,0c1,1,2.8,2.7,6,5.6L164,182.5z"/>
		</g>
	</g>
	<path class="st24" d="M102.2,171.5c0,0.6-1.1,1-2.5,1c-1.4,0-2.5-0.5-2.5-1c0-0.6,1.1-1,2.5-1C101,170.5,102.2,171,102.2,171.5z"/>
	<circle class="st25" cx="92.2" cy="152.9" r="1.6"/>
	<path class="st25" d="M108.4,152.8c0,0.9-0.7,1.6-1.6,1.6c-0.9,0-1.6-0.7-1.6-1.6c0-0.9,0.7-1.6,1.6-1.6
		C107.7,151.2,108.4,151.9,108.4,152.8z"/>
</g>
<g id="_x30_3">
	<path class="st25" d="M51.2,149.9c-0.5,0-0.9,0.1-1.3,0.3c-0.1-1.2-1.3-2.2-2.8-2.2c-1.5,0-2.8,1-2.8,2.3c0,0.2,0,0.4,0.1,0.6
		c-0.2,0-0.3-0.1-0.5-0.1c-1.3,0-2.3,0.8-2.3,1.9c0,1,0.9,1.8,2,1.9l0,0h7.6c1.5,0,2.8-1,2.8-2.3S52.7,149.9,51.2,149.9z"/>
	<linearGradient id="SVGID_7_" gradientUnits="userSpaceOnUse" x1="35.8587" y1="178.2821" x2="64.4233" y2="178.2821">
		<stop  offset="0" style="stop-color:#FFFFFF"/>
		<stop  offset="5.390044e-02" style="stop-color:#FDFCFA"/>
		<stop  offset="0.4116" style="stop-color:#F0EADE"/>
		<stop  offset="0.7249" style="stop-color:#E9E0CD"/>
		<stop  offset="0.9579" style="stop-color:#E6DCC7"/>
	</linearGradient>
	<path class="st26" d="M64.4,173.6C64.3,173.6,64.3,173.5,64.4,173.6c-0.5-0.2-1.1,0.3-1.5,0.4c-1.4,0.4-6.3,2.8-6.9,2.7
		c-1.1-0.4,4.2-2.1,3.6-2.8c-0.7-0.9-2.7-0.1-3.3,0.1c-3.5,0.8-6.9,1.7-10.3,2.6c-2.5,0.7-5.5,0.9-7.8,2.4c-0.9,0.6-2.6,1.9-2.3,3.1
		c0.3,1.4,2.4,1.3,3.5,1c6.9-2,9.7-1.9,16.5-4.3c1.7-0.6,3.5-1.3,6.6-3.1C62.8,175.4,64.8,173.8,64.4,173.6z"/>
	<path class="st27" d="M56.2,152.6c-0.3,0.3-0.5,0.7-0.6,1.2c-0.1,0.4,0.1,1.3,0.9,1.4c0.3,0,0.3-0.2,0.5-0.4l1.4-4.4
		C57.6,151,56.8,151.8,56.2,152.6z"/>
	<g>
		
			<linearGradient id="SVGID_8_" gradientUnits="userSpaceOnUse" x1="-714.8922" y1="-1074.7775" x2="-710.6481" y2="-1070.7986" gradientTransform="matrix(0.9878 -0.1559 0.1559 0.9878 915.558 1086.155)">
			<stop  offset="5.076140e-03" style="stop-color:#FA9A82"/>
			<stop  offset="6.460968e-02" style="stop-color:#F7957D"/>
			<stop  offset="0.4256" style="stop-color:#E87D63"/>
			<stop  offset="0.7487" style="stop-color:#DE6E53"/>
			<stop  offset="1" style="stop-color:#DB694D"/>
		</linearGradient>
		<path class="st28" d="M51.3,137.5c1.2,0.9,1.2,3-0.1,4.9l0,0c-1.3,1.8-3.3,2.6-4.6,1.7l-4.9-3.4c-1.2-0.9-1.2-3,0.1-4.9l0,0
			c1.3-1.8,3.3-2.6,4.6-1.7L51.3,137.5z"/>
		<polygon class="st29" points="76.4,155.2 71.6,162.1 46.3,144.1 51.1,137.3 		"/>
		<polygon class="st30" points="73.1,159.9 71.6,162.1 46.3,144.1 47.8,142 		"/>
		<polygon class="st31" points="74.9,157.3 73,160 47.8,142 49.7,139.3 		"/>
		
			<linearGradient id="SVGID_9_" gradientUnits="userSpaceOnUse" x1="-704.6992" y1="-1077.3228" x2="-713.8953" y2="-1064.7688" gradientTransform="matrix(0.9878 -0.1559 0.1559 0.9878 915.558 1086.155)">
			<stop  offset="5.076140e-03" style="stop-color:#8C8773"/>
			<stop  offset="0.2966" style="stop-color:#7C7765"/>
			<stop  offset="0.6919" style="stop-color:#6C6758"/>
			<stop  offset="1" style="stop-color:#666253"/>
		</linearGradient>
		<polygon class="st32" points="47.1,137.5 45.2,140.2 43.7,142.3 46.3,144.1 47.8,142 49.7,139.3 51.1,137.3 48.5,135.4 		"/>
		<polygon class="st33" points="48.7,138.6 46.7,141.3 45.3,143.4 45.7,143.6 47.1,141.6 49,138.9 50.5,136.8 50.1,136.5 		"/>
		<polygon class="st33" points="47.8,138 45.9,140.7 44.5,142.8 44.8,143.1 46.3,141 48.2,138.3 49.7,136.2 49.3,136 		"/>
		<g>
			
				<linearGradient id="SVGID_10_" gradientUnits="userSpaceOnUse" x1="-681.5145" y1="-1047.9061" x2="-685.2285" y2="-1042.2471" gradientTransform="matrix(0.9878 -0.1559 0.1559 0.9878 915.558 1086.155)">
				<stop  offset="5.076140e-03" style="stop-color:#EDDCAF"/>
				<stop  offset="0.2114" style="stop-color:#E7D399"/>
				<stop  offset="0.5157" style="stop-color:#E1C77F"/>
				<stop  offset="0.7881" style="stop-color:#DCC06F"/>
				<stop  offset="1" style="stop-color:#DBBE69"/>
			</linearGradient>
			<polygon class="st34" points="76.4,155.2 74.2,155 74.9,157.3 72.4,157.6 73,160 70.7,160.2 71.6,162 77.8,163.9 82.1,165.2 
				82.9,164.2 80.2,160.5 			"/>
			<polygon points="84,165.8 82.9,164.2 82.1,165.2 			"/>
		</g>
	</g>
	<path class="st35" d="M69.3,154.2c0-0.1-0.1,0-0.2,0c-0.3,0-0.7,0.1-0.8,0.1c0-0.1,0.5-0.4,0.7-0.7c0,0,0.1-0.1,0-0.2
		c0-0.1-0.1,0-0.2,0c-0.2,0.1-0.8,0.5-0.8,0.4c0-0.1,0.4-0.4,0.5-0.6c0-0.1,0.1-0.2,0-0.3c-0.1,0-0.2,0-0.2,0.1
		c-0.3,0.3-0.5,0.6-0.9,0.6c0,0-0.1,0-0.1,0c0,0,0,0,0,0c0-0.1,0-0.2,0-0.3c0-0.1,0-0.3-0.1-0.3c-0.1,0-0.2,0.2-0.3,0.3
		c-0.1,0.2-0.1,0.4-0.1,0.7l0.1,1.3c0.5,0,1.6,0.4,1.6,0.3c0.2-0.1-0.2-0.4-0.3-0.4c0,0,0.4,0,0.7,0c0.1,0,0.2,0,0.2-0.1
		c0-0.1,0-0.1-0.1-0.2c-0.1,0-0.1,0-0.2-0.1c-0.2,0-0.2-0.1-0.4-0.1c0.3-0.1,0.6-0.1,0.9-0.3C69.3,154.4,69.4,154.3,69.3,154.2z"/>
	<linearGradient id="SVGID_11_" gradientUnits="userSpaceOnUse" x1="118.2132" y1="179.6067" x2="114.0528" y2="171.9164">
		<stop  offset="0" style="stop-color:#FFFFFF"/>
		<stop  offset="5.390044e-02" style="stop-color:#FDFCFA"/>
		<stop  offset="0.4116" style="stop-color:#F0EADE"/>
		<stop  offset="0.7249" style="stop-color:#E9E0CD"/>
		<stop  offset="0.9579" style="stop-color:#E6DCC7"/>
	</linearGradient>
	<path class="st36" d="M120.9,179.5c-0.2-0.5-0.5-1-0.7-1.5c-0.7-1.8,0.5-4-0.2-5.8c-0.4-1.1-1.5-1.8-2.6-2.2
		c-1.1-0.3-0.8,0.3-2,0.4l-4,0.2c-0.9,0-2,0.4-2.5,1.7c-0.3,0.8,0.4,1.8,1.4,2c0.8,0.2,1.6,0.4,2.5,0.4c0.8,0,1.8,0.3,2.2,1.1
		c0.5,1.1-0.5,2.3-0.5,3.5c0,1.3,1.1,2.3,2.2,3c0.4,0.3,1,0.5,1.5,0.3c0.4-0.2,0.6-0.7,0.5-1.2c-0.1-0.5-0.3-0.9-0.4-1.3
		c-0.3-1.3,0.1-2.6,0.3-4c0,0.8-0.1,1.6-0.1,2.3c0,0.7,0,1.4,0.3,2c0.4,0.6,1.2,1,1.8,0.5C121,180.7,121.1,180.1,120.9,179.5z"/>
	<linearGradient id="SVGID_12_" gradientUnits="userSpaceOnUse" x1="134.8895" y1="167.9373" x2="164.1395" y2="183.1874">
		<stop  offset="0" style="stop-color:#FFFFFF"/>
		<stop  offset="5.390044e-02" style="stop-color:#FDFCFA"/>
		<stop  offset="0.4116" style="stop-color:#F0EADE"/>
		<stop  offset="0.7249" style="stop-color:#E9E0CD"/>
		<stop  offset="0.9579" style="stop-color:#E6DCC7"/>
	</linearGradient>
	<path class="st37" d="M166.4,185.1c-3.7-6.3-10.8-9.5-17.4-12.4c-2.2-0.9-3.8-15.9-6.1-15.6c-5.4,0.9-8.3,1.6-12.2,2.7
		c-3.3,0.9-1.4,13-1.1,15.8c0.1,1.1,2.1,3.3,3.6,4.5c4.4,3.6,6.2,6.3,11.3,6.9c1.3,0.2,2.7,0.2,4,0.4c1,0.2,2,0.6,2.9,0.9
		c3,1.2,9.3,3.9,12.3,5.1l1.3-3.2c1.1,0.2,2.1-0.8,2.3-1.9C167.5,187.2,167,186.1,166.4,185.1z"/>
	<path class="st25" d="M187.5,150.6c-0.5,0-0.9,0.1-1.3,0.3c-0.1-1.2-1.3-2.2-2.8-2.2c-1.5,0-2.8,1-2.8,2.3c0,0.2,0,0.4,0.1,0.6
		c-0.2,0-0.3-0.1-0.5-0.1c-1.3,0-2.3,0.8-2.3,1.9c0,1,0.9,1.8,2,1.9l0,0h7.6c1.5,0,2.8-1,2.8-2.3S189.1,150.6,187.5,150.6z"/>
	<polygon class="st38" points="75.6,132.5 76,133.6 77.3,134 76,134.4 75.6,135.5 75.2,134.4 74,134 75.2,133.6 	"/>
	<polygon class="st38" points="145.4,144.2 145.8,145.3 147,145.6 145.8,146 145.4,147.1 145,146 143.8,145.6 145,145.3 	"/>
	<polygon class="st25" points="61.8,132.2 62,132.7 62.6,132.8 62,133 61.8,133.5 61.6,133 61,132.8 61.6,132.7 	"/>
	<polygon class="st25" points="172.2,171.1 172.4,171.7 173,171.8 172.4,172 172.2,172.5 172,172 171.4,171.8 172,171.7 	"/>
	<polygon class="st25" points="117.3,145 117.6,145.8 118.6,146 117.6,146.3 117.3,147.1 117,146.3 116.1,146 117,145.8 	"/>
	
		<linearGradient id="SVGID_13_" gradientUnits="userSpaceOnUse" x1="161.4125" y1="179.4882" x2="142.1062" y2="174.2785" gradientTransform="matrix(1.0144 -0.3031 0.2863 0.9581 -71.7809 45.7997)">
		<stop  offset="0" style="stop-color:#FFFFFF"/>
		<stop  offset="5.390044e-02" style="stop-color:#FDFCFA"/>
		<stop  offset="0.4116" style="stop-color:#F0EADE"/>
		<stop  offset="0.7249" style="stop-color:#E9E0CD"/>
		<stop  offset="0.9579" style="stop-color:#E6DCC7"/>
	</linearGradient>
	<path class="st39" d="M125.1,167.2c-2.1,0.1-7.8,1.1-3.8,3.4c1.9,1.1,6,1.2,8,1.2c0,0,10.6,0.3,8.5-2.5
		C137.7,169.3,137.5,166.8,125.1,167.2z"/>
	<g>
		<g>
			<path class="st40" d="M130.7,155.4c1.7-5.8,5.6-10.6,10.9-13.4c5.3-2.9,11.4-3.5,17.1-1.8c11.9,3.6,18.6,16.2,15,28.2l-2-0.6
				c3.3-10.9-2.8-22.3-13.6-25.5c-5.2-1.6-10.7-1-15.5,1.6c-4.8,2.6-8.3,6.9-9.9,12.2L130.7,155.4z"/>
		</g>
		<g>
			<path class="st41" d="M131.4,156.7c1.7-5.8,5.5-10.6,10.6-13.5c5.1-2.9,11-3.7,16.5-2c11.4,3.4,17.7,15.9,14.1,27.9l-2-0.6
				c3.3-10.9-2.4-22.2-12.7-25.3c-5-1.5-10.2-0.8-14.8,1.8c-4.6,2.7-8.1,7-9.6,12.3L131.4,156.7z"/>
		</g>
		<g>
			<path class="st42" d="M131.9,158c1.7-5.8,5.4-10.6,10.3-13.6c4.9-3,10.5-3.8,15.8-2.2c5.2,1.6,9.5,5.3,11.9,10.6
				c2.4,5.2,2.8,11.2,1.1,17l-2-0.6c1.6-5.3,1.2-10.8-1-15.5c-2.2-4.7-6-8-10.6-9.4c-4.7-1.4-9.7-0.7-14.1,2
				c-4.5,2.7-7.8,7.1-9.4,12.4L131.9,158z"/>
		</g>
		<g>
			<path class="st43" d="M132.6,159.2c1.7-5.7,5.3-10.5,10-13.4c4.8-3,10.2-3.8,15.3-2.3c10.4,3.1,16,15.2,12.4,27l-2-0.6
				c3.2-10.7-1.7-21.6-11-24.4c-4.5-1.3-9.3-0.6-13.5,2.1c-4.3,2.7-7.5,7.1-9.1,12.3L132.6,159.2z"/>
		</g>
		<g>
			<path class="st44" d="M133.9,161c3.5-11.7,14.2-18.8,23.8-15.9c9.6,2.9,14.6,14.7,11.1,26.4l-1.5-0.5c3.2-10.8-1.2-21.8-10-24.4
				c-8.8-2.6-18.6,4-21.8,14.9L133.9,161z"/>
		</g>
	</g>
	<g>
		<path class="st45" d="M141.2,161.2c0,5.3-4.2,9.5-9.5,9.5c-4.7,0-9.5-4.1-9.5-9.4c0-2.7,1.1-5.4,3.2-7c1-0.8,2.1-1.3,3.4-1.6
			c0.6-0.1,1.5,0.1,2.2,0.1c1.3-0.2,2.4-0.6,3.9-0.1c1.2,0.4,2.3,1,3.2,1.8C140,156.2,141.2,158.7,141.2,161.2z"/>
		<path class="st46" d="M133,154.3c-0.2-0.3-0.6-0.6-1-0.6l-1.2,0c-0.3,0.1-0.6,0.1-0.8,0.3c-0.2,0.2-0.4,0.4-0.4,0.7
			c0,0.5,0.5,0.8,0.9,0.9c0.5,0.1,0.9,0,1.4,0C132.5,155.6,133.6,155.1,133,154.3z"/>
		<path class="st47" d="M131.3,154.6c0,0-1.3-2.6-1.3-4.7c0,0,0.1-0.5,1-0.2c0,0,0.6,2.5,0.7,4.3C131.7,154,131.8,155,131.3,154.6z"
			/>
		<g>
			<ellipse class="st48" cx="135.9" cy="155.9" rx="1.3" ry="1.2"/>
		</g>
		<g>
			<path class="st48" d="M137.4,168c-0.1,0-0.3,0-0.4-0.1c-0.3-0.2-0.3-0.6-0.1-0.9c3.3-4.5,0.3-8.5,0.2-8.5
				c-0.2-0.3-0.2-0.7,0.1-0.9c0.3-0.2,0.7-0.2,0.9,0.1c0,0,3.7,4.7-0.2,10C137.7,167.9,137.6,168,137.4,168z"/>
		</g>
		<path class="st49" d="M131.2,152.2c0,0,1.1-3,4.3-1.7C135.4,150.5,135.5,153.7,131.2,152.2z"/>
		<path class="st50" d="M131.2,152.2c0,0,2.3-1.5,4.3-1.7C135.4,150.5,135.7,153.8,131.2,152.2z"/>
	</g>
	<g>
		<g>
			<polygon class="st51" points="155.7,169.4 155.7,183.7 159.6,185.9 159.6,171.6 			"/>
		</g>
		<g>
			<g>
				<g class="st52">
					<g class="st52">
						<defs>
							<path id="SVGID_14_" class="st52" d="M147.4,184.2l7.3-4.3c0.6-0.3,1-1.1,1-2.1l-7.3,4.3
								C148.3,183.1,147.9,183.9,147.4,184.2z"/>
						</defs>
						<clipPath id="SVGID_15_">
							<use xlink:href="#SVGID_14_"  style="overflow:visible;"/>
						</clipPath>
						<g class="st53">
							<path class="st54" d="M147.4,184.2l7.3-4.3c0.6-0.3,1-1.1,1-2.1l-7.3,4.3C148.3,183.1,147.9,183.9,147.4,184.2"/>
						</g>
					</g>
				</g>
				<g class="st52">
					<g class="st52">
						<defs>
							<path id="SVGID_16_" class="st52" d="M150.1,172.1l-7.3,4.3c0.6-0.3,1.4-0.3,2.3,0.2l7.3-4.3
								C151.5,171.8,150.7,171.8,150.1,172.1z"/>
						</defs>
						<clipPath id="SVGID_17_">
							<use xlink:href="#SVGID_16_"  style="overflow:visible;"/>
						</clipPath>
						<g class="st55">
							<path class="st56" d="M145.1,176.6l7.3-4.3c-0.9-0.5-1.7-0.5-2.3-0.2l-7.3,4.3C143.4,176,144.2,176.1,145.1,176.6"/>
						</g>
					</g>
					<g class="st52">
						<defs>
							<path id="SVGID_18_" class="st52" d="M148.3,182.1l7.3-4.3c0-2.1-1.5-4.5-3.3-5.5l-7.3,4.3
								C146.9,177.6,148.3,180,148.3,182.1z"/>
						</defs>
						<clipPath id="SVGID_19_">
							<use xlink:href="#SVGID_18_"  style="overflow:visible;"/>
						</clipPath>
						<g class="st57">
							<path class="st54" d="M148.3,182.1l7.3-4.3c0-2.1-1.5-4.5-3.3-5.5l-7.3,4.3C146.9,177.6,148.3,180,148.3,182.1"/>
						</g>
					</g>
				</g>
			</g>
			<g>
				<g class="st52">
					<g class="st52">
						<defs>
							<path id="SVGID_20_" class="st52" d="M167.7,181.8l-7.3,4.3c0.6-0.3,1.4-0.3,2.3,0.2l7.3-4.3
								C169.1,181.5,168.3,181.4,167.7,181.8z"/>
						</defs>
						<clipPath id="SVGID_21_">
							<use xlink:href="#SVGID_20_"  style="overflow:visible;"/>
						</clipPath>
						<g class="st58">
							<path class="st56" d="M162.7,186.2l7.3-4.3c-0.9-0.5-1.7-0.5-2.3-0.2l-7.3,4.3C161,185.7,161.8,185.7,162.7,186.2"/>
						</g>
					</g>
					<g class="st52">
						<defs>
							<path id="SVGID_22_" class="st52" d="M165,193.9l7.3-4.3c0.6-0.3,1-1.1,1-2.1c0-2.1-1.5-4.5-3.3-5.5l-7.3,4.3
								c1.8,1,3.3,3.5,3.3,5.5C165.9,192.8,165.6,193.5,165,193.9z"/>
						</defs>
						<clipPath id="SVGID_23_">
							<use xlink:href="#SVGID_22_"  style="overflow:visible;"/>
						</clipPath>
						<g class="st59">
							<path class="st54" d="M165,193.9l7.3-4.3c0.6-0.3,1-1.1,1-2.1c0-2.1-1.5-4.5-3.3-5.5l-7.3,4.3c1.8,1,3.3,3.5,3.3,5.5
								C165.9,192.8,165.6,193.5,165,193.9"/>
						</g>
					</g>
				</g>
			</g>
			<g>
				<g class="st52">
					<path class="st60" d="M152.7,150.2c0.5-0.3,1.1-0.2,1.6,0.1l21.8,12.1c0.5,0.3,1,0.8,1.3,1.4c0.4,0.7,0.5,1.4,0.5,2l0,6.8
						l4.6,2.5c0.5,0.3,0.9,0.7,1.3,1.4c0.4,0.6,0.5,1.3,0.5,1.9l0,5.5l-14.6,8.5l0-5.5c0-0.6-0.2-1.2-0.5-1.9
						c-0.4-0.6-0.8-1.1-1.3-1.4l-4.6-2.5l0-6.8c0-0.6-0.2-1.3-0.5-2c-0.4-0.7-0.8-1.2-1.3-1.4l-21.8-12.1c-0.6-0.3-1.1-0.4-1.5-0.1
						C143,155.9,147.8,153,152.7,150.2z"/>
					<g class="st52">
						<defs>
							<path id="SVGID_24_" class="st52" d="M157.4,167.8l-14.6,8.5c-0.6,0.3-3.3-0.3-3.3,0.8l16.9-7.2
								C156.4,168.9,156.8,168.1,157.4,167.8z"/>
						</defs>
						<clipPath id="SVGID_25_">
							<use xlink:href="#SVGID_24_"  style="overflow:visible;"/>
						</clipPath>
						<g class="st61">
							<path class="st62" d="M139.5,177.1l16.9-7.2c0-1,0.4-1.8,1-2.1l-14.6,8.5C142.2,176.7,139.5,176.1,139.5,177.1"/>
						</g>
					</g>
					<g class="st52">
						<defs>
							<path id="SVGID_26_" class="st52" d="M152.7,150.2c-4.9,2.9-9.6,5.7-14.5,8.5c0.5-0.3,0.9-0.2,1.5,0.1l14.6-8.5
								C153.7,149.9,153.1,149.9,152.7,150.2z"/>
						</defs>
						<clipPath id="SVGID_27_">
							<use xlink:href="#SVGID_26_"  style="overflow:visible;"/>
						</clipPath>
						<g class="st63">
							<path class="st60" d="M139.7,158.8l14.6-8.5c-0.4-0.2-1-0.5-1.6-0.1l-14.5,8.5C138.6,158.3,139.3,158.6,139.7,158.8"/>
						</g>
					</g>
					<g class="st52">
						<defs>
							<path id="SVGID_28_" class="st52" d="M175.1,177.6c-4.9,2.9-9.8,5.7-14.6,8.5c-0.6,0.3-1,1.1-1,2.1l14.6-8.5
								C174.1,178.7,174.5,177.9,175.1,177.6z"/>
						</defs>
						<clipPath id="SVGID_29_">
							<use xlink:href="#SVGID_28_"  style="overflow:visible;"/>
						</clipPath>
						<g class="st64">
							<path class="st62" d="M159.5,188.2l14.6-8.5c0-1,0.4-1.8,1-2.1l-14.6,8.5C159.8,186.5,159.5,187.2,159.5,188.2"/>
						</g>
					</g>
					<g>
						<polygon class="st65" points="169.7,192.3 184.3,183.8 184.3,178.3 169.7,186.9 						"/>
					</g>
					<g>
						<polygon class="st66" points="167.9,183.6 182.5,175.1 178,172.5 163.3,181.1 						"/>
					</g>
					<g class="st52">
						<defs>
							<path id="SVGID_30_" class="st52" d="M169.7,186.9l14.6-8.5c0-0.6-0.2-1.2-0.5-1.9c-0.4-0.6-0.8-1.1-1.3-1.4l-14.6,8.5
								c0.5,0.3,0.9,0.7,1.3,1.4C169.5,185.6,169.7,186.3,169.7,186.9z"/>
						</defs>
						<clipPath id="SVGID_31_">
							<use xlink:href="#SVGID_30_"  style="overflow:visible;"/>
						</clipPath>
						<g class="st67">
							<path class="st68" d="M169.7,186.9l14.6-8.5c0-0.6-0.2-1.2-0.5-1.9c-0.4-0.6-0.8-1.1-1.3-1.4l-14.6,8.5
								c0.5,0.3,0.9,0.7,1.3,1.4C169.5,185.6,169.7,186.3,169.7,186.9"/>
						</g>
					</g>
					<g>
						<polygon class="st68" points="163.3,181.1 178,172.5 178,165.8 163.3,174.3 						"/>
					</g>
					<g>
						<polygon class="st69" points="161.5,171 176.1,162.4 154.3,150.3 139.7,158.8 						"/>
					</g>
					<g>
						<path class="st70" d="M139.7,158.8c-0.6-0.3-1.1-0.4-1.6-0.1c-0.5,0.3-0.7,1-0.7,1.8l0,13.5c0,0.5,0.1,1,0.4,1.6
							c0.3,0.5,0.7,0.9,1.1,1.1l2.9,1.8c0-2.1,1.5-2.9,3.3-1.9c1.8,1,3.3,3.5,3.3,5.5l11.1,6.2c0-2.1,1.5-2.9,3.3-1.9
							c1.8,1,3.3,3.5,3.3,5.5l2.5,1.4c0.3,0.2,0.6,0.2,0.9,0c0.2-0.2,0.4-0.5,0.4-0.9l0-5.5c0-0.6-0.2-1.2-0.5-1.9
							c-0.4-0.6-0.8-1.1-1.3-1.4l-4.6-2.5l0-6.8c0-0.6-0.2-1.3-0.5-2c-0.4-0.7-0.8-1.2-1.3-1.4L139.7,158.8z"/>
					</g>
					<path class="st71" d="M176.1,162.4c0.5,0.3,1,0.8,1.3,1.4c0.4,0.7,0.5,1.4,0.5,2l-14.6,8.5c0-0.6-0.2-1.3-0.5-2
						c-0.4-0.7-0.8-1.2-1.3-1.4L176.1,162.4z"/>
					<path class="st68" d="M168.7,185.2c-0.3-0.5-0.7-1-1.1-1.2l-4.6-2.5l-0.3-0.1v-0.3l0-6.8c0-0.5-0.2-1.1-0.5-1.7
						c-0.3-0.5-0.7-1-1.1-1.2l-21.8-12.1c-0.3-0.1-0.4-0.2-0.6-0.2c-0.2,0-0.3,0-0.4,0.1c-0.3,0.2-0.5,0.7-0.5,1.3l0,13.5
						c0,0.1,0,0.2,0,0.3c0,0.5,0,0.9,0,1.4c0-0.1-0.1-0.1-0.1-0.2c-0.3-0.5-0.4-1.1-0.4-1.6l0-13.5c0-0.8,0.2-1.4,0.7-1.8
						c0.2-0.2,0.5-0.2,0.7-0.2c0.3,0,0.7,0.1,1,0.3l21.7,12.1c0.5,0.3,1,0.8,1.3,1.4c0.4,0.7,0.5,1.4,0.5,2l0,6.8l4.6,2.5
						c0.5,0.3,0.9,0.7,1.3,1.4c0.4,0.6,0.5,1.3,0.5,1.9l0,5.5c0,0.4-0.1,0.7-0.4,0.9c0,0-0.1,0-0.2,0v-1c0-0.1,0-0.1,0-0.1l0-5.3
						C169.2,186.4,169,185.8,168.7,185.2z"/>
				</g>
			</g>
			<path class="st72" d="M145.1,176.6c1.8,1,3.3,3.5,3.3,5.5c0,2.1-1.5,2.9-3.3,1.9c-1.8-1-3.3-3.5-3.3-5.5
				C141.8,176.4,143.3,175.6,145.1,176.6z"/>
			<g>
				<path class="st72" d="M162.7,186.2c-1.8-1-3.3-0.1-3.3,1.9c0,2.1,1.5,4.5,3.3,5.5c1.8,1,3.3,0.1,3.3-1.9
					C165.9,189.7,164.5,187.2,162.7,186.2z"/>
			</g>
			<g>
				<path class="st25" d="M162.5,188.7c-0.6-0.3-1.1,0-1.1,0.6c0,0.7,0.5,1.5,1.1,1.9c0.6,0.3,1.1,0,1.1-0.6
					C163.6,189.8,163.1,189,162.5,188.7z"/>
			</g>
			<g>
				<path class="st25" d="M144.8,179c-0.6-0.3-1.1,0-1.1,0.6c0,0.7,0.5,1.5,1.1,1.9c0.6,0.3,1.1,0,1.1-0.6
					C145.9,180.2,145.4,179.3,144.8,179z"/>
			</g>
			<polygon class="st72" points="184.3,180.9 169.7,189.4 169.7,188.8 184.4,180.3 			"/>
			<path class="st73" d="M169.7,188.8c0,0-0.2,0.2-0.5,0.1l0,0.6c0,0,0.3,0.1,0.5,0V188.8z"/>
			<polygon class="st72" points="169.2,188.9 169.2,189.5 160,184.3 160,183.8 			"/>
			<polygon class="st72" points="137.4,171.2 155.3,181.2 155.3,181.7 137.4,171.8 			"/>
			<path class="st72" d="M169.3,193.3c0.2-0.2,0.4-0.5,0.4-0.9v0v-0.2l3.5-2v0l11.2-6.6l0,0.3l-0.7,0.4l0.7-0.4
				c0,0.4-0.1,0.7-0.4,0.9c0,0,0,0,0,0L169.3,193.3C169.3,193.3,169.3,193.3,169.3,193.3z"/>
		</g>
		<polygon class="st51" points="155.7,169.4 159.2,171.4 159.6,171.6 159.6,185.9 155.7,183.7 155.7,183.3 		"/>
		<g>
			<polygon class="st51" points="150.3,166.6 150.3,174.1 154.3,176.4 154.3,168.8 			"/>
		</g>
		<polygon class="st51" points="150.3,166.6 153.9,168.6 154.3,168.8 154.3,176.4 150.3,174.1 150.3,173.7 		"/>
		<g>
			<polygon class="st51" points="164.5,179.9 177.1,172.4 177.1,168 164.6,175.4 			"/>
		</g>
		<g>
			<polygon class="st25" points="170.4,191 172.8,189.6 172.8,188.1 170.4,189.5 			"/>
		</g>
		<g>
			<polygon class="st72" points="176.9,188.7 179.3,187.3 179.3,185.8 176.9,187.2 			"/>
		</g>
		<g>
			<polygon class="st25" points="169.6,172.2 172.6,170.3 172.6,169.3 169.6,171.1 			"/>
		</g>
		<polygon class="st51" points="145.3,170.9 145.3,163.8 149.3,166 149.3,173.6 149.3,173.6 149.3,173.6 145.3,171.4 145.3,170.9 		
			"/>
		<polygon class="st51" points="140.1,168 140.1,168 140.1,161 143.7,162.9 143.7,162.9 144.1,163.2 144.1,163.2 144.2,163.2 
			144.2,170.7 140.1,168.5 140.1,168.5 140.1,168.5 		"/>
		<polygon class="st74" points="154.3,168.8 154.3,173.8 150.8,168.9 150.7,166.8 		"/>
		<polygon class="st74" points="149.3,166 149.3,171 145.8,166.1 145.7,164 		"/>
		<polygon class="st74" points="144.2,163.2 144.2,168.2 140.6,163.3 140.6,161.2 		"/>
		<polygon class="st74" points="159.6,171.6 159.6,180.2 156.1,176.1 156.1,169.7 		"/>
		<polygon class="st75" points="155.7,169.4 155.7,183.7 159.6,185.9 159.6,185.3 156,183.3 156.1,169.7 		"/>
		<polygon class="st75" points="150.3,166.6 150.3,174.1 154.3,176.4 154.3,175.8 150.7,173.9 150.7,166.8 		"/>
		<polygon class="st75" points="145.3,163.8 145.3,171.4 149.3,173.6 149.3,173.1 145.6,171.1 145.7,164 		"/>
		<polygon class="st75" points="140.1,161 140.1,168.5 144.1,170.7 144.1,170.2 140.5,168.2 140.5,161.2 		"/>
	</g>
	<g>
		<path class="st76" d="M122.1,179.9c0.7,0.4,0.5,1.1,0.2,1.4c-0.2,0.1-0.4,0.3-0.6,0.3c-0.3,0-0.6-0.2-0.8-0.3c0,0-1.4-1.1-1.4-1.1
			c-0.2-0.1-0.3-0.6-0.3-1.1l0.6-0.5c0.2-0.2,0.6-0.2,1,0.1C120.7,178.7,121.6,179.6,122.1,179.9z"/>
		<path class="st27" d="M116.5,160.2l1.4,3.1c0,0-0.3,1.7-0.4,1.8s-0.8,0-0.8,0L116.5,160.2z"/>
		<polygon class="st77" points="118.6,165 118.1,162.9 116.6,167.4 117.6,168.1 		"/>
		<path class="st76" d="M120.1,180.9c0.7,0.4,0.5,1.1,0.2,1.4c-0.2,0.1-0.4,0.3-0.6,0.3c-0.3,0-0.6-0.2-0.8-0.3c0,0-1.4-1.1-1.4-1.1
			c-0.2-0.1-0.3-0.6-0.3-1.1l0.6-0.5c0.2-0.2,0.6-0.2,1,0.1C118.7,179.7,119.6,180.6,120.1,180.9z"/>
		<path class="st78" d="M112.6,167.2c0.1,0.8-0.3,1.5-0.2,2.3c0.1,0.6,0.2,1.1,0.5,1.5c0.4,0.6,1,0.6,1.7,0.6c1.1,0.1,1.7,0.2,3,0.5
			c1,0.2,0.8,2.9,0.8,4.1c0,0.6-0.1,1.8-0.2,2.8c0,0.5,2.8,0.4,2.9,0c0.3-1.3,0.3-2,0.3-3c0.1-1.3,0.1-2.2,0.1-3.3
			c-0.1-0.9,0-1.9-0.5-2.7c-0.5-0.9-1.6-1.1-2.5-1.4c-1-0.3-2-1-3-1c-0.6,0-1.4,0.2-2,0.1c-0.3-0.1-0.5-0.2-0.8-0.3L112.6,167.2z"/>
		<path class="st79" d="M110.6,168.1c0.1,0.8-0.3,1.1-0.3,2.2c0.1,1.2,0.9,2.3,2.1,2.5c1.2,0.3,2.4,0.1,3.5,0.4
			c1,0.3,0.8,2.9,0.8,4.1c0,0.6-0.1,1.8-0.2,2.8c0,0.5,2.7,0.5,2.8,0c0.3-1.3,0.3-2.2,0.4-3.2c0.1-1.5,0.4-5.6-0.8-6.4
			c-1.1-0.7-0.9-0.8-2.1-1.1c-1.1-0.3-1.9-0.8-3-0.8c-0.6,0-1.4,0.2-2,0.1c-0.3-0.1-0.5-0.2-0.8-0.3L110.6,168.1z"/>
		<path class="st80" d="M110.4,167.3c0.1-0.5,0.2-1.1,0.2-1.6c0-1.2-0.6-2.3-0.6-3.7c0-0.8-0.3-1.5,0.3-2.1c0.3-0.3,0.8-0.4,1.1-0.7
			c0.2-0.2,0.9-1,1.2-1.1c0.3,0,1.9,0,2.6,0.6c0.4,0.4,0.3,0.5,1.2,1.2c0.5,0.4,0.4,1.4,0.4,2.1c0.1,1.1,0,2.3,0.1,3.4
			c0,0.6,0.2,1.1,0.3,1.7l0,0.3c0.1,0.9-0.7,1.7-0.7,1.7c-0.2,0.1-0.4-0.2-0.4-0.3c0,0,0.1,0.4-0.1,0.5c0,0-0.1,0.4-3-0.2
			c-0.6-0.1-1.2-0.2-1.8-0.4c-0.2-0.1-0.3-0.1-0.4-0.2c-0.1-0.1-0.3-0.2-0.3-0.4C110.3,167.9,110.3,167.5,110.4,167.3z"/>
		<path class="st81" d="M115.2,158.7l-0.1,0.1l-2.7-0.6l-0.3,0.2c-0.1,0.7,3,3.5,3,3.5C115.5,161.2,115.2,158.7,115.2,158.7z"/>
		<path class="st82" d="M114.8,161.7c0,0,0.7,0.6,0.7,1.3l0.3,5.3l0.1,0.5l-0.2-5.8c0,0,0-0.7-0.5-1L114.8,161.7z"/>
		<path class="st45" d="M115,159.6c0,0-0.5,0.2-0.5,0.2l0.3,0.7l0.3-0.1L115,159.6"/>
		<path class="st45" d="M115.1,160.3l0.3,0.8c0,0,0,0.6-0.2,0.9c0,0-0.3-0.3-0.6-0.6l0.2-1.1L115.1,160.3z"/>
		<path class="st83" d="M115.3,159.7c0,0,0,0.1-0.1,0.3c0,0-0.2-0.4-0.4-0.6c0,0,0.2-0.3,0.2-0.6l0.1-0.4
			C115.1,158.5,115.3,159,115.3,159.7z"/>
		<path class="st83" d="M114.8,159.4c0,0-0.4,0.4-0.3,0.8c0,0-1.7-0.5-2.4-1.7l0.3-0.2C112.4,158.3,113.4,159.4,114.8,159.4z"/>
		<path class="st84" d="M112.5,157.7c0,0,0,0.4-0.1,0.6c0,0.1,0.4,0.4,0.5,0.4c0.4,0.3,0.8,0.5,1.2,0.6c0.2,0.1,0.4,0.1,0.6,0.1
			c0.2,0,0.3-0.4,0.3-0.6c0-0.3,0-0.5,0-0.5L112.5,157.7z"/>
		<path class="st35" d="M116,154c0,0-0.2,1.6-0.2,1.9c0,1.4-0.8,3.2-2.3,2.8c-1.1-0.3-1.6-1.2-1.8-2.2c-0.2-0.8-0.6-2.7,0.2-3.4
			C111.9,153.2,114.5,151.4,116,154z"/>
		<path class="st82" d="M114.3,162.6c0,0-1.2,0.4-1.7,0.2l0,0.4l0-0.3C112.6,163,113.4,163,114.3,162.6c0,0.1,0.1,0.3,0.1,0.4
			C114.3,163,114.4,162.7,114.3,162.6z"/>
		<path class="st82" d="M114.3,163c0,0-1,0.3-1.4,0.3C113,163.3,113.9,163.2,114.3,163z"/>
		<path class="st78" d="M115,163.1c0,0.1,0.1,0.2,0.2,0.2l0,0c0.1,0,0.2-0.1,0.2-0.2l0,0c0-0.1-0.1-0.2-0.2-0.2l0,0
			C115,162.9,114.9,163,115,163.1L115,163.1z"/>
		<path class="st85" d="M115,164c0,0.1,0.1,0.2,0.2,0.2l0,0c0.1,0,0.2-0.1,0.2-0.2l0,0c0-0.1-0.1-0.2-0.2-0.2l0,0
			C115.1,163.8,115,163.9,115,164L115,164z"/>
		<path class="st85" d="M115.1,164.9c0,0.1,0.1,0.2,0.2,0.2l0,0c0.1,0,0.2-0.1,0.2-0.2l0,0c0-0.1-0.1-0.2-0.2-0.2l0,0
			C115.2,164.7,115.1,164.8,115.1,164.9L115.1,164.9z"/>
		<path class="st85" d="M115.2,165.8c0,0.1,0.1,0.2,0.2,0.2l0,0c0.1,0,0.2-0.1,0.2-0.2l0,0c0-0.1-0.1-0.2-0.2-0.2l0,0
			C115.2,165.6,115.2,165.7,115.2,165.8L115.2,165.8z"/>
		<path class="st86" d="M114.4,154.7c-0.5,0.4-0.6,0.5-1.3,0.6c0,0,0.2-0.1,0.3-0.3c0,0-0.1,0.1-0.6,0.3c0,0,0-0.2,0-0.4
			c0,0-0.2,0.5-0.4,0.9c0,0-0.3,0.3-0.4,0.7c-0.1,0.5,0.2,1.4-0.1,0.9c-0.9-1.6-1-3.7,0.2-4.6c0.8-0.6,2.1-0.5,2.9-0.1
			c0.9,0.4,1.1,1.4,1,2.3c0,0.1-0.1,0.3-0.1,0.4c0-0.1-0.1-0.6-0.5-0.9c0,0-0.5,0.6-1.3,0.7C114.1,155.2,114.3,154.8,114.4,154.7z"
			/>
		<path class="st35" d="M112.3,156c0,0-0.2-0.5-0.5-0.2c0,0-0.4,0.5,0.4,1.1C112.2,157,112.6,156.5,112.3,156z"/>
		<path class="st27" d="M111.1,160c0.5,0.1,0.8,1,0.6,1.5l-0.9,3.2c0,0,2.2,1,2.4,1.2c0.3,0.2,0.5,0.6,0.1,1.3
			c-0.2,0.4-0.3,0.9-0.9,0.6c-0.1-0.1-0.8-0.4-1-0.5c-0.6-0.4-0.6-0.3-1.7-0.8c-0.3-0.1-1-0.4-1-0.8c-0.1-0.4,0-0.8,0.1-1.3
			c0.1-0.3,0.2-0.7,0.3-1c0.2-0.7,0.2-0.9,0.4-1.6c0-0.2,0.2-0.8,0.3-1C110,160.3,110.5,159.9,111.1,160z"/>
		<polygon class="st83" points="117.5,163.1 116.8,164.3 118.2,165 		"/>
		<path class="st81" d="M114.6,164.4l0.3-0.6c0,0,2.8,0.4,3.3,1.1c0,0-0.8-1.4-0.7-1.8l0.5-0.2l0.5,2l-0.4,0.5l-1.4,0.1L114.6,164.4
			z"/>
		<polygon class="st45" points="114.3,164.3 113.1,168.6 117,168.8 118.2,165.1 		"/>
		<polyline class="st77" points="118.2,165.1 118.6,165 117.5,168.7 117,168.8 118.1,165.1 		"/>
		<g>
			<path class="st84" d="M113.5,166.5c0.3-0.1,0.7-0.2,1.1-0.2c0,0,0.1,0,0.1,0c0.1,0,0.1,0.2,0,0.2c0,0,0,0-0.1,0
				c-0.2,0.1-0.4,0.2-0.6,0.2c0.3,0.1,0.7,0.1,1,0.2c0.1,0,0.3,0,0.3,0.1c0.1,0.1,0,0.2-0.1,0.2c0.1,0,0.1,0,0.2,0
				c0.1,0,0.1,0.1,0.1,0.2c0,0.1-0.1,0.1-0.1,0.1c-0.1,0-0.1,0-0.2,0c0.1,0,0.1,0,0.2,0c0,0,0.1,0.1,0.1,0.1c0,0.1,0,0.1-0.1,0.1
				c0,0-0.1,0-0.2,0c-0.2,0-0.4,0-0.6,0c0,0,0.1,0,0.1,0c0,0,0.1,0.1,0.1,0.1c0,0-0.1,0-0.1,0.1c-0.1,0-0.2,0-0.3,0
				c-0.5,0-1.1-0.2-1.5-0.6c0,0-0.1-0.1-0.1-0.1c0,0,0-0.1,0-0.1c0-0.1,0-0.2,0.1-0.3C113.2,167,113.3,166.6,113.5,166.5z"/>
		</g>
	</g>
	<g>
		<g>
			<path class="st87" d="M58.5,173c0.6,0,1,0.2,1,0.8c0.1,0.6-1.6,0.9-2.4,1c-0.1,0-0.1-0.1-0.2-0.1c-0.1,0-0.1,0.2-0.2,0.2
				c-0.5,0.1-1.3-0.3-1.2-0.6c0-0.5,0.1-0.8,0.2-1.2L58.5,173z"/>
		</g>
		<g>
			<defs>
				<path id="SVGID_32_" d="M58.5,173c0.6,0,1,0.2,1,0.8c0.1,0.6-1.6,0.9-2.4,1c-0.1,0-0.1-0.1-0.2-0.1c-0.1,0-0.1,0.2-0.2,0.2
					c-0.5,0.1-1.3-0.3-1.2-0.6c0-0.2,0-0.5,0.1-0.7c0-0.1,0-0.2,0.1-0.3c0-0.1,0-0.1,0.1-0.2c0-0.1,0.2-0.1,0.3-0.1
					c0.2,0,0.3,0,0.5,0c0.4,0,0.7,0,1.1,0C57.9,173,58.2,173,58.5,173z"/>
			</defs>
			<use xlink:href="#SVGID_32_"  style="overflow:visible;fill:#7A6046;"/>
			<clipPath id="SVGID_33_">
				<use xlink:href="#SVGID_32_"  style="overflow:visible;"/>
			</clipPath>
			<path class="st88" d="M55.5,174.1c0,0,0.4,0.6,1.1,0.6l1.5-0.3c0,0,1.4-0.2,1.4-0.8c0,0-0.1-0.8-0.2-0.8c-0.1,0-0.7-0.1-0.7-0.1
				l-3,0.2L55.5,174.1z"/>
		</g>
		<path class="st89" d="M59.4,164.9l-1.1,4.4l-1.3,3.9c0,0-0.5,0.6-1.2,0c0,0,0.4-2.9,1-4.1c0,0,0.2-4.4,0.5-5.2L59.4,164.9z"/>
		<g>
			<defs>
				<path id="SVGID_34_" d="M59.4,164.9l-1.1,4.4l-1.3,3.9c0,0-0.5,0.6-1.2,0c0,0,0.4-2.9,1-4.1c0,0,0.2-4.4,0.5-5.2L59.4,164.9z"/>
			</defs>
			<clipPath id="SVGID_35_">
				<use xlink:href="#SVGID_34_"  style="overflow:visible;"/>
			</clipPath>
			<path class="st90" d="M58.9,167.2c0,0-1,0.5-1.8-0.2l-0.3,0l-1.4,6.2l1.3,0.5l1-0.4L58.9,167.2z"/>
		</g>
		<path class="st86" d="M58.3,147.8c0,0,0.6-1.5,2.1-0.7C60.4,147.1,59.7,148.7,58.3,147.8z"/>
		<g>
			<path class="st87" d="M63.2,172.8c0.6-0.1,1,0,1.2,0.6c0.2,0.6-1.4,1.2-2.2,1.4c-0.1,0-0.1-0.1-0.2-0.1c-0.1,0-0.1,0.2-0.1,0.2
				c-0.4,0.2-1.3,0-1.3-0.3c-0.1-0.5-0.1-0.8,0-1.3L63.2,172.8z"/>
		</g>
		<g>
			<defs>
				<path id="SVGID_36_" d="M63.2,172.8c0.6-0.1,1,0,1.2,0.6c0.2,0.6-1.4,1.2-2.2,1.4c-0.1,0-0.1-0.1-0.2-0.1
					c-0.1,0-0.1,0.2-0.1,0.2c-0.4,0.2-1.3,0-1.3-0.3c0-0.2-0.1-0.5-0.1-0.7c0-0.1,0-0.2,0-0.3c0-0.1,0-0.1,0-0.2
					c0-0.1,0.2-0.1,0.3-0.1c0.1,0,0.3-0.1,0.4-0.1c0.4-0.1,0.7-0.2,1.1-0.2C62.6,172.9,62.9,172.9,63.2,172.8z"/>
			</defs>
			<use xlink:href="#SVGID_36_"  style="overflow:visible;fill:#7A6046;"/>
			<clipPath id="SVGID_37_">
				<use xlink:href="#SVGID_36_"  style="overflow:visible;"/>
			</clipPath>
			<path class="st91" d="M60.4,174.4c0,0,0.5,0.5,1.2,0.4l1.5-0.6c0,0,1.4-0.5,1.2-1c0,0-0.3-0.7-0.3-0.7c-0.1,0-0.7,0-0.7,0
				l-2.9,0.7L60.4,174.4z"/>
		</g>
		<path class="st89" d="M62.6,164.7l-0.3,4.5l-0.6,4c0,0-0.4,0.7-1.2,0.2c0,0-0.2-2.9,0.3-4.2c0,0-0.6-4.3-0.4-5.2L62.6,164.7z"/>
		<g>
			<path class="st92" d="M63.5,160.3c0,0,0.6,4.4,0.7,4.8c0,0-4.1,2.1-8-0.6l1.2-5.4l6.1,1"/>
			<path class="st93" d="M63,160l0.6,5.5c0,0-0.5,0.2-0.8,0.2l-0.4-5.8L63,160z"/>
			<path class="st93" d="M61.7,159.8l0.5,6.1c0,0-0.6,0.2-0.9,0.2l-0.3-6.5l0.7,0.1"/>
			<path class="st93" d="M60.5,166.1c0,0-0.7,0.1-0.9,0l0.5-6.7l0.6,0L60.5,166.1z"/>
			<path class="st93" d="M58.9,165.9c0,0-0.9-0.1-1-0.2l1.1-6.4l0.6,0L58.9,165.9z"/>
			<path class="st93" d="M57.4,165.4c0,0-0.8-0.3-1-0.4l1.5-6.1l0.7,0.1L57.4,165.4z"/>
		</g>
		<path class="st35" d="M63.2,148.9c0,0.9-0.1,0.7-0.5,0.7l-1-0.1c-0.3,0-0.8,0-0.7-0.7l0,0c0.1-0.4,0.1-0.5,0.2-0.9l2-0.1
			C63.2,148.2,63.1,148.6,63.2,148.9L63.2,148.9z"/>
		<path class="st35" d="M64.7,145.4c0,0.9-0.1,1.5-0.4,2.2c-0.3,0.7-1.3,1-2,1c-1.4,0-2.7-1.5-2.6-3.4c0-1.9,0.8-3,2.2-3
			C63.3,142.2,64.7,143.5,64.7,145.4z"/>
		<path class="st35" d="M64.7,145.8c0,0,0.2,0.5,0.2,0.7c0,0-0.1,0.4-0.5,0.2L64.7,145.8z"/>
		<path class="st25" d="M60.2,149.1c0.6-0.7,0.9-0.7,1.8-0.3c0.4,0.2,0.7,0.3,1,0.6c0.2,0.2,0.4,0.8,0.5,0.9
			C63.6,150.3,61.3,149.1,60.2,149.1z"/>
		<g>
			<g>
				<path class="st94" d="M63.5,160.1c-0.9,0.5-2.6,0.5-3.4,0.4c-1.2-0.3-1.9-0.5-2.6-1.4c0-1.7,0.1-3.2,0.3-4.7
					c0.1-1.2,0.4-2.4,0.7-3.5c0.3-1.1,1-2.1,2.3-1.9c0.9,0.1,2,0.6,2.7,1.1c0.2,0.1,0.4,0.3,0.5,0.5c0.1,0.1,0.3,0.6,0.3,0.8
					c-0.2,1.7-0.3,3.2-0.5,4.9C63.7,157.5,63.5,160.1,63.5,160.1z"/>
			</g>
		</g>
		<path class="st27" d="M67.3,154.4c-0.5-1-1-0.7-1-0.7c-1.7,0.8-2.3,1.1-2.3,1.1c0-1.6,0.1-1.6,0.3-3.1c0.2-1.4-1.6-1.7-2-0.3
			c-0.2,1.6-0.3,2.1-0.4,3.8c0.1,2.2,1.5,1.9,1.5,1.9c1.2,0,3.8-1.5,3.8-1.5C67.8,155.2,67.3,154.4,67.3,154.4z"/>
		<path class="st46" d="M61.9,150.3c0,0,1-0.7,1.7-0.1l0.2,0.2l0.1,0.1c0,0-0.3-0.2-0.9-0.2c-0.3,0-0.6,0.1-0.8,0.5L61.9,150.3z"/>
		<path class="st46" d="M58.5,149.6c0,0,0.4-0.7,1.3-0.6l0.5,0c0,0-1.3,0.1-1.3,1L58.5,149.6z"/>
		<path class="st46" d="M61.3,157.7c-0.1,0.7-0.7,1.1-1.4,1l-2.6-1.1c-0.6-0.1-1.4-0.8-1.3-1.4l1.2-6.2c0.1-0.7,1.1-0.9,1.7-0.8
			l2.4,0.9c0.6,0.1,1.1,0.8,1,1.4L61.3,157.7z"/>
		<path class="st45" d="M57.3,149.8c0,0-0.5,1.4-0.6,2.1c0,0-0.1,0.4,0.5,0.7c0,0,2,1,3.2,1c0,0,0,0.2,0.2-0.3c0,0,0-0.1,0-0.1
			c0-0.1,0-0.2,0-0.3c0-0.1,0-0.3,0.1-0.4c0-0.2,0.1-0.3,0.1-0.5c0-0.2,0.1-0.3,0.2-0.5c0.1-0.1,0.1-0.3,0.2-0.4
			c0.1-0.1,0.2-0.2,0.3-0.3c0.1-0.1,0.3-0.1,0.5-0.1c0.2,0,0.4,0,0.5,0.2c0,0,0-0.9-1.3-1.2l-2.1-0.8
			C59,149.1,57.6,148.9,57.3,149.8z"/>
		<path class="st95" d="M59.3,154c0,0.1-0.1,0.2-0.2,0.2l0,0c-0.1,0-0.2-0.1-0.2-0.2l0.2-0.9c0-0.1,0.1-0.2,0.2-0.2l0,0
			c0.1,0,0.2,0.1,0.2,0.2L59.3,154z"/>
		<path class="st95" d="M57.6,153.3c0,0.1-0.1,0.2-0.2,0.2l0,0c-0.1,0-0.2-0.1-0.2-0.2l0.2-0.9c0-0.1,0.1-0.2,0.2-0.2l0,0
			c0.1,0,0.2,0.1,0.2,0.2L57.6,153.3z"/>
		<g>
			<defs>
				<path id="SVGID_38_" d="M62.6,164.7l-0.3,4.5l-0.6,4c0,0-0.4,0.7-1.2,0.2c0,0-0.2-2.9,0.3-4.2c0,0-0.6-4.3-0.4-5.2L62.6,164.7z"
					/>
			</defs>
			<clipPath id="SVGID_39_">
				<use xlink:href="#SVGID_38_"  style="overflow:visible;"/>
			</clipPath>
			<path class="st96" d="M62.5,167.1c0,0-0.9,0.7-1.8,0.1l-0.3,0.1l-0.3,6.3l1.4,0.3l1-0.6L62.5,167.1z"/>
		</g>
		<path class="st86" d="M62.6,147.3c0,0,1.6,0,1.4,1.7C64,149.1,62.3,149,62.6,147.3z"/>
		<path class="st86" d="M64.8,143.6c-0.1-0.6-0.5-1-1-1.2c-0.1-0.1-0.3-0.1-0.4-0.2c-0.9-0.4-2-0.4-3.1,0.2
			c-0.3,0.2-0.6,0.7-0.8,1.1c-0.4,1.1,0,2.7,0.6,3.7c0.6,1,0.6,1,2,1.1c0.4,0,0.7-0.3,0.8-0.7c0.1-0.2,0.1-0.4,0.2-0.6
			c0-0.1,0.2-0.4,0.1-0.5c0-0.1-0.3-0.1-0.3-0.2c-0.2-0.1-0.3-0.3-0.3-0.5c0-0.2,0-0.4,0.1-0.5c0.1-0.1,0.3-0.2,0.4,0
			c0.1,0.2,0.2,0.4,0.2,0.4C64.8,145.3,64.9,144.2,64.8,143.6z"/>
	</g>
	<g>
		
			<radialGradient id="SVGID_40_" cx="97.0792" cy="543.1917" r="9.7068" gradientTransform="matrix(0.9816 0.1909 -0.1909 0.9816 37.6809 -401.1929)" gradientUnits="userSpaceOnUse">
			<stop  offset="0" style="stop-color:#6D87AA"/>
			<stop  offset="0.8485" style="stop-color:#60779F"/>
			<stop  offset="1" style="stop-color:#5D739D"/>
		</radialGradient>
		<path class="st97" d="M35.7,155.5c-0.8,4.2-4.9,7-9.2,6.2c-4.2-0.8-7-4.9-6.2-9.2c0.8-4.2,4.9-7,9.2-6.2
			C33.7,147.1,36.5,151.2,35.7,155.5z"/>
		<path class="st98" d="M25,147.8c-0.6,0-1,0.5-1,1c0,0.5,0.5,1,1.1,0.9c0.6,0,1-0.5,1-1C26.1,148.2,25.6,147.8,25,147.8z"/>
		<path class="st98" d="M23.4,150.6c-0.3,0-0.5,0.2-0.5,0.5c0,0.3,0.3,0.5,0.5,0.5c0.3,0,0.5-0.2,0.5-0.5
			C23.9,150.8,23.7,150.6,23.4,150.6z"/>
		<path class="st98" d="M24.8,153c-0.2,0-0.4,0.2-0.4,0.5c0,0.2,0.2,0.4,0.5,0.4c0.2,0,0.4-0.2,0.4-0.5S25.1,152.9,24.8,153z"/>
		<path class="st98" d="M27.2,151.4c-0.4,0-0.7,0.3-0.7,0.7c0,0.4,0.4,0.7,0.8,0.7c0.4,0,0.7-0.4,0.7-0.7
			C27.9,151.7,27.6,151.4,27.2,151.4z"/>
		<path class="st98" d="M27.7,147.1c-0.2,0-0.4,0.2-0.4,0.5c0,0.2,0.2,0.4,0.5,0.4c0.2,0,0.4-0.2,0.4-0.5
			C28.2,147.3,28,147.1,27.7,147.1z"/>
		<path class="st98" d="M22.6,154.8c-0.2,0-0.4,0.2-0.4,0.5c0,0.2,0.2,0.4,0.5,0.4c0.2,0,0.4-0.2,0.4-0.5
			C23.1,155,22.9,154.8,22.6,154.8z"/>
		<path class="st98" d="M28,149.2c-0.2,0-0.4,0.2-0.4,0.5c0,0.2,0.2,0.4,0.5,0.4c0.2,0,0.4-0.2,0.4-0.5
			C28.5,149.4,28.3,149.2,28,149.2z"/>
		<path class="st98" d="M30,153.1c-0.3,0-0.5,0.3-0.5,0.6c0,0.3,0.3,0.5,0.6,0.5c0.3,0,0.5-0.3,0.5-0.6
			C30.6,153.3,30.3,153.1,30,153.1z"/>
		<path class="st98" d="M26.2,155.8c-0.4,0-0.7,0.3-0.6,0.7c0,0.4,0.3,0.6,0.7,0.6c0.4,0,0.7-0.3,0.6-0.7
			C26.9,156,26.6,155.7,26.2,155.8z"/>
		<path class="st99" d="M30.4,147.2c-0.2,0-0.3,0.1-0.3,0.3c0,0.2,0.2,0.3,0.3,0.3c0.2,0,0.3-0.1,0.3-0.3
			C30.7,147.3,30.5,147.2,30.4,147.2z"/>
		<path class="st99" d="M34.2,151.3c-0.2,0-0.4,0.2-0.4,0.5c0,0.2,0.2,0.4,0.5,0.4s0.4-0.2,0.4-0.5
			C34.6,151.5,34.4,151.3,34.2,151.3z"/>
		<g>
			<path class="st100" d="M35.5,152.1c-1,4.4-5.4,7.3-9.9,6.4c-2-0.4-3.8-1.5-5-3c-0.2-0.2-0.3-0.4-0.5-0.6c0.4,3.3,2.9,6.1,6.3,6.7
				c4.2,0.8,8.4-1.9,9.2-6.2C35.8,154.3,35.8,153.2,35.5,152.1z"/>
		</g>
		<g>
			<path class="st101" d="M35.6,151.1c-0.2-0.2-0.4-0.3-0.5-0.4c0.2,0.4,0.4,0.9,0.5,1.4c2.2,2.5,1.4,5.3-2,6.6
				c-3.8,1.3-9.4,0.2-12.4-2.4c-2.9-2.5-2.5-5.5,0.7-7c0.3-0.4,0.6-0.7,1-1c-0.3,0.1-0.6,0.2-0.9,0.3c-4.2,1.5-4.9,5.1-1.5,8
				c3.4,2.9,9.5,4.1,13.7,2.7C38.2,157.6,38.9,154,35.6,151.1z"/>
		</g>
		<path class="st102" d="M32.9,151.6c-0.7,0.8-2,0.7-2.9-0.1c-0.9-0.8-1.2-2.1-0.5-2.9c0.7-0.8,2-0.7,2.9,0.1
			C33.3,149.5,33.5,150.8,32.9,151.6z"/>
		<path class="st102" d="M34,152.8c-0.4-0.4-0.9-0.4-1.2-0.1s-0.2,1,0.2,1.4c0.4,0.4,0.9,0.4,1.2,0.1
			C34.5,153.8,34.4,153.2,34,152.8z"/>
		<path class="st103" d="M33.9,153.3c0.1,0.2,0.1,0.5-0.2,0.7c-0.2,0.2-0.5,0.1-0.7-0.1c-0.1-0.2-0.1-0.5,0.2-0.7
			C33.4,153,33.7,153.1,33.9,153.3z"/>
	</g>
	<path class="st104" d="M25,158.3c-0.3,0-0.7,0-1,0.1c0,0,0-0.1,0-0.1c0-1.7-1.6-3.1-3.6-3.2c-2,0-3.7,1.3-3.7,3
		c0,0.2,0,0.4,0.1,0.5c-0.2,0-0.5-0.1-0.7-0.1c-2,0-3.6,1.2-3.6,2.8c0,1.6,1.5,2.9,3.5,3c0.6,0,1.2-0.1,1.7-0.3
		c0.7,0.7,1.6,1.2,2.8,1.2c1.3,0,2.5-0.6,3.1-1.4c0.4,0.1,0.9,0.2,1.3,0.3c2,0,3.6-1.2,3.6-2.8C28.5,159.7,26.9,158.3,25,158.3z"/>
	<path class="st31" d="M13.1,152.3l-1-0.2c-0.1,0-0.1,0-0.2,0.1l-0.7,0.8c-0.1,0.1-0.3,0.1-0.3-0.1l-0.1-1.1c0-0.1-0.1-0.1-0.1-0.2
		l-1-0.4c-0.2-0.1-0.2-0.3,0-0.3l1-0.4c0.1,0,0.1-0.1,0.1-0.2l0.1-1.1c0-0.2,0.2-0.2,0.3-0.1l0.7,0.8c0,0.1,0.1,0.1,0.2,0.1l1-0.3
		c0.2,0,0.3,0.1,0.2,0.3l-0.5,0.9c0,0.1,0,0.1,0,0.2l0.6,0.9C13.4,152.2,13.2,152.3,13.1,152.3z"/>
	<path class="st31" d="M33.8,141.7l-0.3-0.8c0-0.1-0.1-0.1-0.1-0.1l-0.8-0.1c-0.1,0-0.2-0.2-0.1-0.3l0.7-0.5c0,0,0.1-0.1,0.1-0.1
		l-0.1-0.8c0-0.1,0.1-0.2,0.2-0.1l0.7,0.5c0,0,0.1,0,0.2,0l0.8-0.4c0.1-0.1,0.2,0,0.2,0.2l-0.3,0.8c0,0.1,0,0.1,0,0.1l0.6,0.6
		c0.1,0.1,0,0.2-0.1,0.2l-0.9,0c-0.1,0-0.1,0-0.1,0.1l-0.4,0.8C34,141.9,33.8,141.9,33.8,141.7z"/>
	<path class="st31" d="M41,164l-0.1-0.7c0,0,0-0.1-0.1-0.1l-0.6-0.2c-0.1,0-0.1-0.2,0-0.2l0.6-0.3c0,0,0.1-0.1,0.1-0.1l0-0.7
		c0-0.1,0.1-0.1,0.2-0.1l0.5,0.5c0,0,0.1,0,0.1,0l0.7-0.2c0.1,0,0.2,0.1,0.1,0.2l-0.3,0.6c0,0,0,0.1,0,0.1l0.4,0.6
		c0.1,0.1,0,0.2-0.1,0.2l-0.7-0.1c0,0-0.1,0-0.1,0l-0.4,0.5C41.1,164.1,41,164.1,41,164z"/>
</g>
</svg>
