<svg xmlns="http://www.w3.org/2000/svg" viewBox="0 0 94.44 61.9"><defs><style>.cls-1,.cls-12{fill:#fff;}.cls-2{fill:#d2d2d2;}.cls-3{fill:#0d131f;}.cls-4{fill:#bebdc2;}.cls-5{fill:#80a0cc;}.cls-6{opacity:0.7;}.cls-7{opacity:0.6;}.cls-8{fill:#00386f;}.cls-9{fill:#6a8ccc;}.cls-10{fill:none;stroke-miterlimit:10;stroke-width:5px;}.cls-10,.cls-13,.cls-14,.cls-15{stroke:#000;}.cls-11{fill:#3e3d4b;}.cls-12{opacity:0.74;font-size:6.48px;font-family:NotoSansCJKkr-Medium-KSCpc-EUC-H, Noto Sans CJK KR;letter-spacing:-0.05em;}.cls-13{fill:#d9dad1;}.cls-13,.cls-14,.cls-15{stroke-linejoin:round;}.cls-14{fill:#c3c4ba;}.cls-15{fill:#f1f1e9;}</style></defs><title>내가_오픈</title><g id="Layer_2" data-name="Layer 2"><g id="일러스트"><g id="내가_오픈"><rect class="cls-1" x="46.29" y="9" width="12.24" height="4.76" rx="2.38" ry="2.38"/><path d="M56.16,14.69H48.68a3.32,3.32,0,1,1,0-6.63h7.48a3.32,3.32,0,0,1,0,6.63ZM48.68,9.93a1.45,1.45,0,1,0,0,2.89h7.48a1.45,1.45,0,0,0,0-2.89Z"/><ellipse class="cls-2" cx="53.43" cy="49.29" rx="30.79" ry="12.62"/><rect class="cls-3" x="24.14" y="51.99" width="57.68" height="1.5" rx="0.75" ry="0.75"/><rect class="cls-3" x="15.73" y="45.98" width="72.4" height="1.5" rx="0.75" ry="0.75"/><rect class="cls-3" x="9.42" y="45.98" width="4.21" height="1.5" rx="0.75" ry="0.75"/><rect class="cls-3" x="90.23" y="45.98" width="4.21" height="1.5" rx="0.75" ry="0.75"/><path class="cls-1" d="M27.89,51.84a2.49,2.49,0,0,1-1-.23,2.52,2.52,0,0,1-1.24-3.32l7.5-16.43a2.51,2.51,0,0,1,2.28-1.47,2.42,2.42,0,0,1,1,.23,2.49,2.49,0,0,1,1.24,3.31L30.18,50.37A2.51,2.51,0,0,1,27.89,51.84Z"/><path d="M35.41,31h0a1.91,1.91,0,0,1,.78.16,1.89,1.89,0,0,1,.93,2.49l-7.5,16.44a1.88,1.88,0,0,1-1.72,1.1,1.91,1.91,0,0,1-.77-.17,1.88,1.88,0,0,1-.93-2.49l7.5-16.43A1.87,1.87,0,0,1,35.41,31m0-1.25a3.12,3.12,0,0,0-2.85,1.83L25.05,48a3.13,3.13,0,0,0,5.7,2.6l7.49-16.44a3.12,3.12,0,0,0-1.55-4.14,3.06,3.06,0,0,0-1.29-.28Z"/><path class="cls-1" d="M78.9,51.83a2.52,2.52,0,0,1-2.29-1.46L69.12,33.93a2.51,2.51,0,0,1,2.27-3.54,2.53,2.53,0,0,1,2.29,1.47l7.49,16.43a2.5,2.5,0,0,1-1.24,3.32A2.41,2.41,0,0,1,78.9,51.83Z"/><path d="M71.39,29.77V31a1.88,1.88,0,0,1,1.72,1.1L80.6,48.55A1.85,1.85,0,0,1,80.65,50a1.87,1.87,0,0,1-1,1,1.84,1.84,0,0,1-.77.17,1.89,1.89,0,0,1-1.72-1.1L69.69,33.68a1.88,1.88,0,0,1,.93-2.49,1.7,1.7,0,0,1,.77-.17V29.77m0,0a3.12,3.12,0,0,0-2.84,4.42l7.5,16.44A3.13,3.13,0,1,0,81.74,48L74.25,31.6a3.15,3.15,0,0,0-2.86-1.83Z"/><polygon class="cls-4" points="26.57 47.76 30.34 48.53 31.3 46.38 28.82 42.76 26.57 47.76"/><path class="cls-5" d="M5.14,28.11a16.29,16.29,0,0,1,.46-23,16.27,16.27,0,0,1,23,.46l3.48,3.61L8.61,31.73Z"/><path d="M16.85,0V1.25A15.49,15.49,0,0,1,28.12,6l3,3.17L8.63,30.84l-3-3.16A15.6,15.6,0,0,1,16.85,1.25V0m0,0A16.87,16.87,0,0,0,5.16,4.68h0a16.94,16.94,0,0,0-.48,23.86l3.91,4.07L32.93,9.23,29,5.16A16.84,16.84,0,0,0,16.85,0Z"/><g class="cls-6"><g class="cls-7"><path class="cls-1" d="M13.88,4.69a.92.92,0,0,1-.17-.29.75.75,0,0,1,.48-.94A11.11,11.11,0,0,1,25.7,5.79a.75.75,0,1,1-1.09,1h0a9.62,9.62,0,0,0-9.94-1.93A.77.77,0,0,1,13.88,4.69Z"/></g><g class="cls-7"><path class="cls-1" d="M8.17,7.7a.76.76,0,0,1,0-1.06,7,7,0,0,1,3.39-2,.75.75,0,0,1,.25,1.48,5.93,5.93,0,0,0-2.6,1.63A.75.75,0,0,1,8.17,7.7Z"/></g></g><ellipse class="cls-8" cx="20.95" cy="21.29" rx="16.31" ry="4.97" transform="translate(-8.92 21.05) rotate(-45)"/><path d="M10.94,34a2.64,2.64,0,0,1-2-.71c-1.17-1.16-.9-3.45.78-6.6A42.13,42.13,0,0,1,17,17.33a42.13,42.13,0,0,1,9.33-7.23c3.15-1.68,5.44-1.95,6.6-.78,2.57,2.57-2.21,10.12-8,15.92h0C20.2,29.94,14.36,34,10.94,34ZM31,9.86a9.62,9.62,0,0,0-4.05,1.34,40.49,40.49,0,0,0-9,7,40.72,40.72,0,0,0-7,9c-1.31,2.47-1.7,4.43-1,5.13,1.45,1.45,7.62-1.49,14.16-8h0c6.53-6.53,9.47-12.71,8-14.16A1.49,1.49,0,0,0,31,9.86ZM24.46,24.8Z"/><path class="cls-5" d="M35.33,46.18V13.68H76.84a16.25,16.25,0,0,1,0,32.5Z"/><path d="M76.84,14.3a15.63,15.63,0,0,1,0,31.25H36V14.3H76.84m0-1.25H34.7V46.8H76.84A16.93,16.93,0,0,0,93.72,29.93h0A16.93,16.93,0,0,0,76.84,13.05Z"/><path class="cls-9" d="M88.86,39.72s-14.8,15.1-12.69-25.45h-1l0,31.28S84.52,47.21,88.86,39.72Z"/><line class="cls-10" x1="69.56" y1="13.22" x2="69.56" y2="46.8"/><rect class="cls-11" x="32.52" y="13.72" width="42" height="32.33"/><path d="M73.9,14.34V45.43H33.15V14.34H73.9m1.25-1.25H31.9V46.68H75.15V13.09Z"/><rect class="cls-1" x="32.57" y="23.01" width="41.87" height="18.04"/><path d="M73.81,23.64V40.43H33.19V23.64H73.81m1.25-1.25H31.94V41.68H75.06V22.39Z"/><path class="cls-4" d="M33.2,26.24a85.64,85.64,0,0,1,11.57-1.19c5.73-.12,28.44-.94,29,3V23.61H33.2Z"/><text class="cls-12" transform="translate(42.25 20.55)">타임캡슐</text><polygon class="cls-4" points="80.32 47.96 76.38 48.32 75.58 46.61 79.66 46.53 80.32 47.96"/><ellipse class="cls-8" cx="31.82" cy="30.11" rx="3.45" ry="16.5"/><path d="M31.82,47.24c-3.22,0-4.08-11.2-4.08-17.13S28.6,13,31.82,13s4.08,11.2,4.08,17.12S35.05,47.24,31.82,47.24Zm0-33c-.24,0-1.09.8-1.83,4.34a59.37,59.37,0,0,0-1,11.53,59.4,59.4,0,0,0,1,11.54c.74,3.54,1.59,4.34,1.83,4.34s1.09-.8,1.83-4.34a59.4,59.4,0,0,0,1-11.54,59.37,59.37,0,0,0-1-11.53C32.91,15,32.06,14.24,31.82,14.24Z"/><path class="cls-13" d="M34.32,33.17c0,7.12-4.54,12.9-8.9,12.9s-7.9-5.78-7.9-12.9,3.54-12.91,7.9-12.91S34.32,26,34.32,33.17Z"/><path class="cls-14" d="M24.61,25.68s-4.52.27-2.71,8.91l12.17-2.25S33,26.05,24.61,25.68Z"/><path class="cls-15" d="M35.45,28.67a13.73,13.73,0,0,1-.21-3H24.69c7.65,1,4,20.18-.38,20.25a76.86,76.86,0,0,0,8.47.34A25.28,25.28,0,0,0,35,37.4a1,1,0,0,1,.18-.61q0-.91.12-1.83a52.57,52.57,0,0,0,.21-6A1,1,0,0,1,35.45,28.67Z"/><path class="cls-14" d="M35.24,25c0-1.3-.34-2.57-.43-3.86-.07-.28-.14-.56-.19-.84h-9s5.79.74,7.12,8.07c0,0,1-.93,2.56-2.16C35.25,25.79,35.25,25.39,35.24,25Z"/><path d="M32.41,47.39a.62.62,0,0,1-.56-.89c5.42-11.13,1.82-27.72,1.78-27.88a.63.63,0,0,1,.48-.75.62.62,0,0,1,.74.47C35,19,38.59,35.52,33,47A.61.61,0,0,1,32.41,47.39Z"/></g></g></g></svg>