<svg xmlns="http://www.w3.org/2000/svg" viewBox="0 0 92.69 58.43"><defs><style>.cls-1,.cls-11{fill:#fff;}.cls-2{fill:#d2d2d2;}.cls-3{fill:#0d131f;}.cls-4{fill:#bebdc2;}.cls-5{fill:#f42d31;}.cls-6{opacity:0.8;}.cls-7{opacity:0.7;}.cls-8{fill:#ab2d38;}.cls-9{fill:none;stroke:#000;stroke-miterlimit:10;stroke-width:5px;}.cls-10{fill:#3e3d4b;}.cls-11{opacity:0.74;font-size:7.07px;font-family:NotoSansCJKkr-Medium-KSCpc-EUC-H, Noto Sans CJK KR;letter-spacing:-0.05em;}</style></defs><title>타임캡슐_친구가</title><g id="Layer_2" data-name="Layer 2"><g id="일러스트"><g id="타임캡슐_친구가"><rect class="cls-1" x="41.02" y="1.02" width="13.35" height="5.19" rx="2.07" ry="2.07"/><path d="M51.77,7.23H43.61a3.62,3.62,0,0,1,0-7.23h8.16a3.62,3.62,0,1,1,0,7.23ZM43.61,2a1.58,1.58,0,0,0,0,3.15h8.16a1.58,1.58,0,1,0,0-3.15Z"/><ellipse class="cls-2" cx="47.98" cy="44.67" rx="33.57" ry="13.76"/><rect class="cls-3" x="16.05" y="47.62" width="62.88" height="1.64" rx="0.82" ry="0.82"/><rect class="cls-3" x="6.88" y="41.07" width="78.93" height="1.64" rx="0.82" ry="0.82"/><rect class="cls-3" y="41.07" width="4.59" height="1.64" rx="0.82" ry="0.82"/><rect class="cls-3" x="88.1" y="41.07" width="4.59" height="1.64" rx="0.82" ry="0.82"/><path class="cls-1" d="M20.14,47.45a2.73,2.73,0,0,1-2.47-3.86l8.16-17.92a2.77,2.77,0,0,1,2.5-1.6,2.74,2.74,0,0,1,2.47,3.86L22.63,45.86A2.75,2.75,0,0,1,20.14,47.45Z"/><path d="M28.33,24.75h0a2.06,2.06,0,0,1,1.85,2.9L22,45.57a2,2,0,1,1-3.72-1.7L26.45,26a2.07,2.07,0,0,1,1.88-1.2m0-1.36a3.43,3.43,0,0,0-3.12,2L17.05,43.31a3.43,3.43,0,0,0,1.68,4.52h0a3.54,3.54,0,0,0,1.41.3,3.41,3.41,0,0,0,3.11-2l8.17-17.92a3.42,3.42,0,0,0-1.69-4.52h0a3.31,3.31,0,0,0-1.4-.31Z"/><path class="cls-1" d="M75.75,47.45a2.74,2.74,0,0,1-2.49-1.6L65.09,27.94A2.71,2.71,0,0,1,65,25.85a2.73,2.73,0,0,1,2.54-1.78,2.77,2.77,0,0,1,2.5,1.6l8.17,17.92a2.7,2.7,0,0,1,.06,2.09,2.73,2.73,0,0,1-1.42,1.53A2.68,2.68,0,0,1,75.75,47.45Z"/><path d="M67.56,23.39v1.37A2.08,2.08,0,0,1,69.44,26l8.17,17.92a2.06,2.06,0,0,1-1,2.72,2.06,2.06,0,0,1-2.71-1L65.71,27.65a2,2,0,0,1,0-1.56,2,2,0,0,1,1.06-1.15,2,2,0,0,1,.84-.18V23.39m0,0a3.31,3.31,0,0,0-1.4.31h0a3.42,3.42,0,0,0-1.69,4.52l8.17,17.92a3.41,3.41,0,0,0,3.11,2,3.54,3.54,0,0,0,1.41-.3,3.44,3.44,0,0,0,1.69-4.52L70.68,25.39a3.45,3.45,0,0,0-3.12-2Z"/><polygon class="cls-4" points="18.69 43.01 22.8 43.85 23.85 41.51 19.26 41.55 18.69 43.01"/><path class="cls-5" d="M21,41.28A17.72,17.72,0,0,1,21,5.85H73.5a17.72,17.72,0,1,1,0,35.43Z"/><path d="M73.5,6.53a17,17,0,0,1,12,29.06,16.89,16.89,0,0,1-12,5H21A17,17,0,0,1,9,11.54a16.91,16.91,0,0,1,12-5H73.5m0-1.36H21A18.45,18.45,0,0,0,2.63,23.57h0A18.45,18.45,0,0,0,21,42H73.5A18.45,18.45,0,0,0,91.9,23.57h0A18.45,18.45,0,0,0,73.5,5.17Z"/><g class="cls-6"><g class="cls-7"><path class="cls-1" d="M9.22,16.71a.78.78,0,0,1-.36-.08.81.81,0,0,1-.38-1.09A12.1,12.1,0,0,1,19,8.25a.82.82,0,0,1,.81.83.82.82,0,0,1-.82.81h0a10.49,10.49,0,0,0-9,6.36A.81.81,0,0,1,9.22,16.71Z"/></g><g class="cls-7"><path class="cls-1" d="M7.27,23.48a.82.82,0,0,1-.82-.82,7.7,7.7,0,0,1,1-4.19.82.82,0,0,1,1.35.92,6.57,6.57,0,0,0-.67,3.27A.82.82,0,0,1,7.27,23.48Z"/></g></g><path class="cls-8" d="M7.9,34.28S26,50.74,23.42,6.53h1.22l.07,34.1S13.21,42.44,7.9,34.28Z"/><path class="cls-8" d="M86.61,34.25S70.47,50.71,72.78,6.5h-1.1l-.06,34.1S81.88,42.41,86.61,34.25Z"/><line class="cls-9" x1="65.57" y1="5.36" x2="65.57" y2="41.96"/><rect class="cls-10" x="25.19" y="5.9" width="45.79" height="35.25"/><path d="M70.29,6.58V40.46H25.87V6.58H70.29m1.37-1.36H24.51V41.83H71.66V5.22Z"/><rect class="cls-1" x="25.23" y="16.03" width="45.65" height="19.67"/><path d="M70.2,16.71V35H25.92V16.71H70.2m1.37-1.37h-47v21h47v-21Z"/><path class="cls-4" d="M25.93,19.55a92.62,92.62,0,0,1,12.61-1.3c6.25-.13,31-1,31.62,3.27V16.68H25.93Z"/><text class="cls-11" transform="translate(35.8 13.34)">타임캡슐</text><polygon class="cls-4" points="77.29 43.22 73 43.62 72.13 41.76 76.58 41.67 77.29 43.22"/></g></g></g></svg>