<svg xmlns="http://www.w3.org/2000/svg" viewBox="0 0 92.69 58.7"><defs><style>.cls-1,.cls-11{fill:#fff;}.cls-2{fill:#d2d2d2;}.cls-3{fill:#0d131f;}.cls-4{fill:#bebdc2;}.cls-5{fill:#80a0cc;}.cls-6{opacity:0.7;}.cls-7{opacity:0.6;}.cls-8{fill:#6a8ccc;}.cls-9{fill:none;stroke:#000;stroke-miterlimit:10;stroke-width:5px;}.cls-10{fill:#3e3d4b;}.cls-11{opacity:0.74;font-size:7.07px;font-family:NotoSansCJKkr-Medium-KSCpc-EUC-H, Noto Sans CJK KR;letter-spacing:-0.05em;}</style></defs><title>타임캡슐_내가</title><g id="Layer_2" data-name="Layer 2"><g id="일러스트"><g id="타임캡슐_내가"><rect class="cls-1" x="41.02" y="1.02" width="13.35" height="5.19" rx="2.07" ry="2.07"/><path d="M51.77,7.23H43.61a3.62,3.62,0,0,1,0-7.23h8.16a3.62,3.62,0,1,1,0,7.23ZM43.61,2a1.58,1.58,0,0,0,0,3.15h8.16a1.58,1.58,0,1,0,0-3.15Z"/><ellipse class="cls-2" cx="47.98" cy="44.94" rx="33.57" ry="13.76"/><rect class="cls-3" x="16.05" y="47.89" width="62.88" height="1.64" rx="0.82" ry="0.82"/><rect class="cls-3" x="6.88" y="41.34" width="78.93" height="1.64" rx="0.82" ry="0.82"/><rect class="cls-3" y="41.34" width="4.59" height="1.64" rx="0.82" ry="0.82"/><rect class="cls-3" x="88.1" y="41.34" width="4.59" height="1.64" rx="0.82" ry="0.82"/><path class="cls-1" d="M20.14,47.72A2.68,2.68,0,0,1,19,47.48a2.73,2.73,0,0,1-1.35-3.62l8.16-17.92a2.76,2.76,0,0,1,2.5-1.59,2.68,2.68,0,0,1,1.12.24,2.73,2.73,0,0,1,1.35,3.62L22.63,46.13A2.73,2.73,0,0,1,20.14,47.72Z"/><path d="M28.33,25a2,2,0,0,1,1.85,2.89L22,45.85a2,2,0,0,1-3.72-1.7l8.16-17.93A2.08,2.08,0,0,1,28.33,25m0-1.37a3.45,3.45,0,0,0-3.12,2L17.05,43.58a3.42,3.42,0,0,0,1.68,4.52h0a3.4,3.4,0,0,0,4.52-1.69l8.17-17.92A3.42,3.42,0,0,0,29.73,24h0a3.31,3.31,0,0,0-1.4-.31Z"/><path class="cls-1" d="M75.75,47.72a2.73,2.73,0,0,1-2.49-1.59L65.09,28.21a2.72,2.72,0,0,1,2.47-3.86,2.76,2.76,0,0,1,2.5,1.59l8.17,17.92a2.73,2.73,0,0,1-2.48,3.86Z"/><path d="M67.56,23.67V25a2.07,2.07,0,0,1,1.88,1.2l8.17,17.91a2,2,0,1,1-3.73,1.7L65.71,27.93a2,2,0,0,1,0-1.57A2,2,0,0,1,67.56,25V23.67m0,0a3.3,3.3,0,0,0-1.4.3h0a3.42,3.42,0,0,0-1.69,4.52l8.17,17.92a3.41,3.41,0,0,0,3.11,2,3.38,3.38,0,0,0,1.41-.3,3.44,3.44,0,0,0,1.69-4.52L70.68,25.66a3.44,3.44,0,0,0-3.12-2Z"/><polygon class="cls-4" points="18.69 43.28 22.8 44.12 23.85 41.78 19.26 41.83 18.69 43.28"/><path class="cls-5" d="M21,41.55A17.72,17.72,0,0,1,21,6.12H73.5a17.72,17.72,0,1,1,0,35.43Z"/><path d="M73.5,6.81a17,17,0,0,1,12,29.06,16.93,16.93,0,0,1-12,5H21A17,17,0,0,1,21,6.81H73.5m0-1.37H21A18.45,18.45,0,0,0,2.63,23.84h0A18.44,18.44,0,0,0,21,42.23H73.5A18.45,18.45,0,0,0,91.9,23.84h0A18.45,18.45,0,0,0,73.5,5.44Z"/><g class="cls-6"><g class="cls-7"><path class="cls-1" d="M9.22,17a.78.78,0,0,1-.36-.08.81.81,0,0,1-.38-1.09A12.08,12.08,0,0,1,19,8.53a.82.82,0,1,1,0,1.63h0a10.51,10.51,0,0,0-9,6.36A.81.81,0,0,1,9.22,17Z"/></g><g class="cls-7"><path class="cls-1" d="M7.27,23.75a.82.82,0,0,1-.82-.82,7.7,7.7,0,0,1,1-4.19.83.83,0,0,1,1.14-.21.82.82,0,0,1,.21,1.13,6.57,6.57,0,0,0-.67,3.27A.82.82,0,0,1,7.27,23.75Z"/></g></g><path class="cls-8" d="M7.9,34.55S26,51,23.42,6.81h1.22l.07,34.1S13.21,42.71,7.9,34.55Z"/><path class="cls-8" d="M86.61,34.52S70.47,51,72.78,6.77h-1.1l-.06,34.1S81.88,42.68,86.61,34.52Z"/><line class="cls-9" x1="65.57" y1="5.63" x2="65.57" y2="42.23"/><rect class="cls-10" x="25.19" y="6.17" width="45.79" height="35.25"/><path d="M70.29,6.85V40.74H25.87V6.85H70.29m1.37-1.36H24.51V42.1H71.66V5.49Z"/><rect class="cls-1" x="25.23" y="16.3" width="45.65" height="19.67"/><path d="M70.2,17V35.29H25.92V17H70.2m1.37-1.36h-47v21h47v-21Z"/><path class="cls-4" d="M25.93,19.82a92.62,92.62,0,0,1,12.61-1.3c6.25-.13,31-1,31.62,3.27V17H25.93Z"/><text class="cls-11" transform="translate(35.8 13.61)">타임캡슐</text><polygon class="cls-4" points="77.29 43.49 73 43.89 72.13 42.03 76.58 41.95 77.29 43.49"/></g></g></g></svg>