<svg xmlns="http://www.w3.org/2000/svg" viewBox="0 0 36 36"><defs><style>.cls-1{fill:#0faeb0;fill-rule:evenodd;}.cls-2{fill:#fff;}</style></defs><title>버킷</title><g id="Layer_2" data-name="Layer 2"><g id="타임라인"><g id="버킷"><path class="cls-1" d="M18,0A18,18,0,1,1,0,18,18,18,0,0,1,18,0Z"/><path class="cls-2" d="M25.77,8.8a.44.44,0,0,0-.47,0L7.23,19.3a.44.44,0,0,0-.21.43.43.43,0,0,0,.32.36l4.59,1.26a.48.48,0,0,0,.4-.09l7.33-5.87-5.11,6.4a.45.45,0,0,0-.1.27v5.75a.44.44,0,0,0,.33.42l.12,0a.45.45,0,0,0,.37-.2l3.2-4.92,4.67,1.27a.42.42,0,0,0,.36,0,.44.44,0,0,0,.2-.3L26,9.23A.42.42,0,0,0,25.77,8.8Z"/></g></g></g></svg>