<svg xmlns="http://www.w3.org/2000/svg" viewBox="0 0 36 36"><defs><style>.cls-1{fill:#efb951;fill-rule:evenodd;}.cls-2{fill:#fff;}</style></defs><title>커리어</title><g id="Layer_2" data-name="Layer 2"><g id="타임라인"><g id="커리어"><path class="cls-1" d="M18,0A18,18,0,1,1,0,18,18,18,0,0,1,18,0Z"/><path class="cls-2" d="M22.71,15.65a.32.32,0,0,1-.26-.13L21,14.1l-.83,3.21,3.58,1.15h0l.05,0h0s0,0,.06,0l0,0,0,0,.05.08a0,0,0,0,0,0,0l0,.11v3.79a.35.35,0,0,1-.35.35H22.26a.35.35,0,0,1-.35-.35v-2L16,18.43h0l-.11,0h0a.39.39,0,0,1-.16-.35V18l.72-4.62L14.21,14.5,13.36,17a.34.34,0,0,1-.43.22l-1-.35a.32.32,0,0,1-.21-.43L13,12.87a.25.25,0,0,1,.21-.21h0l.08-.06,3.8-1.84a.29.29,0,0,1,.16,0h.05l3.93.62a.12.12,0,0,1,.08,0h0s.08,0,.1.06l2.65,2.64,0,0H26a.35.35,0,0,1,.35.35v.9a.35.35,0,0,1-.35.35H22.71Z"/><path class="cls-2" d="M28.83,24.26V25a.24.24,0,0,1-.24.24H22.07a.24.24,0,0,1-.24-.24v-.69a.24.24,0,0,1,.24-.24h6.5A.24.24,0,0,1,28.83,24.26Z"/><path class="cls-2" d="M25.17,26.31V27a.24.24,0,0,1-.24.24H18.44A.24.24,0,0,1,18.2,27v-.7a.24.24,0,0,1,.24-.24h6.49A.24.24,0,0,1,25.17,26.31Z"/><path class="cls-2" d="M21.54,28.48v.69a.24.24,0,0,1-.24.24H14.8a.24.24,0,0,1-.24-.24v-.69a.24.24,0,0,1,.24-.24h6.5A.24.24,0,0,1,21.54,28.48Z"/><path class="cls-2" d="M19.67,6.24a2,2,0,1,1-2,2A2.05,2.05,0,0,1,19.67,6.24Z"/><path class="cls-2" d="M19.16,20.49l-.67,3a.27.27,0,0,1,0,.11v0l0,0-2.3,2.94a.36.36,0,0,1-.48.06l-1.12-.91a.36.36,0,0,1-.06-.48L16,23.37l.8-3.77Z"/><path class="cls-2" d="M15.15,19.82a.33.33,0,0,1,.21.43l-1.28,3.5a.34.34,0,0,1-.43.21L7.1,21.58a.34.34,0,0,1-.21-.42l1.28-3.53a.35.35,0,0,1,.43-.22Z"/><path class="cls-2" d="M11,17l2.49.91a.14.14,0,0,1,.08.16l-.22.59a.15.15,0,0,1-.16.08l-2.48-.91c-.06,0-.11-.08-.08-.16l.21-.59C10.92,17,11,16.93,11,17Z"/></g></g></g></svg>