<svg xmlns="http://www.w3.org/2000/svg" viewBox="0 0 36 36"><defs><style>.cls-1{fill:#72c14c;fill-rule:evenodd;}.cls-2{fill:#fff;}</style></defs><title>육아자녀</title><g id="Layer_2" data-name="Layer 2"><g id="타임라인"><g id="육아자녀"><path class="cls-1" d="M18,0A18,18,0,1,1,0,18,18,18,0,0,1,18,0Z"/><path class="cls-2" d="M17.88,12a2.93,2.93,0,1,0-3-2.93,3,3,0,0,0,3,2.93Z"/><path class="cls-2" d="M17.88,18.12H14.69V15.88l-2.43,2.38c-1.11,1.08-2.6-.3-1.49-1.37l4-3.93a1.74,1.74,0,0,1,1.26-.52h3.62A1.79,1.79,0,0,1,21,13l4.07,4c1.05,1-.48,2.4-1.48,1.36L21,15.87v2.25Z"/><path class="cls-2" d="M17.23,22,14.7,19.54c-.65,5.31-1.1,9.14-1.1,9.14h1.92C16.4,25.52,17.23,22,17.23,22Z"/><path class="cls-2" d="M15.51,28.74a1,1,0,0,1-1,.93h0a1,1,0,0,1-1-.93h0a.94.94,0,0,1,1-.93h0a.94.94,0,0,1,1,.93Z"/><polygon class="cls-2" points="15.49 28.94 16.14 26.36 15.3 25.85 14.94 27.64 14.74 28.94 15.49 28.94"/><path class="cls-2" d="M18.53,22l2.53-2.45c.65,5.31,1.1,9.14,1.1,9.14H20.23C19.36,25.52,18.53,22,18.53,22Z"/><path class="cls-2" d="M20.25,28.74a.94.94,0,0,0,.95.93h0a1,1,0,0,0,1-.93h0a.94.94,0,0,0-1-.93h0a.93.93,0,0,0-.95.93Z"/><polygon class="cls-2" points="20.27 28.94 19.61 26.36 20.46 25.85 20.82 27.64 21.02 28.94 20.27 28.94"/></g></g></g></svg>