<svg xmlns="http://www.w3.org/2000/svg" viewBox="0 0 36 36"><defs><style>.cls-1{fill:#efb951;fill-rule:evenodd;}.cls-2{fill:#fff;}</style></defs><title>꿈</title><g id="Layer_2" data-name="Layer 2"><g id="타임라인"><g id="꿈"><path class="cls-1" d="M18,0A18,18,0,1,1,0,18,18,18,0,0,1,18,0Z"/><path class="cls-2" d="M18.45,9.3,21,14.42a.57.57,0,0,0,.38.28l5.64.81a.49.49,0,0,1,.27.85l-4.08,4a.5.5,0,0,0-.14.44L24,26.4a.48.48,0,0,1-.7.52l-5.07-2.67a.47.47,0,0,0-.46,0L12.7,26.92a.48.48,0,0,1-.7-.52L13,20.77a.5.5,0,0,0-.14-.44l-4.08-4A.49.49,0,0,1,9,15.51l5.64-.81a.57.57,0,0,0,.38-.28L17.55,9.3A.5.5,0,0,1,18.45,9.3Z"/><path class="cls-2" d="M12.47,27.56a1,1,0,0,1-.63-.22,1,1,0,0,1-.41-1.05l1-5.58L8.33,16.77a1.07,1.07,0,0,1,.59-1.83l5.6-.81L17,9.05a1.06,1.06,0,0,1,1.92,0h0l2.52,5.08,5.6.81a1.07,1.07,0,0,1,.6,1.82l-4.06,3.95.95,5.6a1,1,0,0,1-.41,1,1.07,1.07,0,0,1-1.14.09l-5-2.65-5,2.65A1.13,1.13,0,0,1,12.47,27.56Zm11-1h0Zm-10.88,0Zm-.13-.08Zm11.13,0ZM18,23.62a1,1,0,0,1,.54.14l4.88,2.57-.92-5.47a1.06,1.06,0,0,1,.29-.93l4-3.87-5.48-.8a1.11,1.11,0,0,1-.79-.54L18,9.69l-2.47,5a1.15,1.15,0,0,1-.8.58l-5.49.8,4,3.86a1.07,1.07,0,0,1,.3.94l-.92,5.47,4.91-2.58A.92.92,0,0,1,18,23.62Zm0,1.14h0Zm.1,0h0Zm8.86-8.67Zm-17.84,0Z"/></g></g></g></svg>