<svg xmlns="http://www.w3.org/2000/svg" viewBox="0 0 36 36"><defs><style>.cls-1{fill:#dd9ec7;fill-rule:evenodd;}.cls-2{fill:#fff;}</style></defs><title>가족</title><g id="Layer_2" data-name="Layer 2"><g id="타임라인"><g id="가족"><path class="cls-1" d="M18,0A18,18,0,1,1,0,18,18,18,0,0,1,18,0Z"/><path class="cls-2" d="M11.65,16.76A3.63,3.63,0,0,0,15,12.9a3.63,3.63,0,0,0-3.34-3.85A3.63,3.63,0,0,0,8.31,12.9,3.63,3.63,0,0,0,11.65,16.76Z"/><path class="cls-2" d="M12.76,24.48A6.6,6.6,0,0,1,15.22,21a4.57,4.57,0,0,1-.66-2.38c0-.06,0-.13,0-.2a5.89,5.89,0,0,0-2.92-.79c-3,0-5.71,2.45-6.38,5.83a.94.94,0,0,0,.19.8.58.58,0,0,0,.45.24Z"/><path class="cls-2" d="M25.33,17.38a3.35,3.35,0,0,0,3.08-3.57,3.35,3.35,0,0,0-3.08-3.57,3.35,3.35,0,0,0-3.08,3.57A3.35,3.35,0,0,0,25.33,17.38Z"/><path class="cls-2" d="M21.75,21a6.5,6.5,0,0,1,2.46,3.5h6.38a.59.59,0,0,0,.46-.24,1,1,0,0,0,.18-.83,6.28,6.28,0,0,0-5.9-5.27,5.47,5.47,0,0,0-2.94.87A4.41,4.41,0,0,1,21.75,21Z"/><path class="cls-2" d="M17.26,21.32a5.25,5.25,0,0,0-3.52,4.43.69.69,0,0,0,.61.83h8.27a.7.7,0,0,0,.62-.83,5.26,5.26,0,0,0-3.53-4.43,3.11,3.11,0,0,0,1.47-2.71,2.89,2.89,0,0,0-2.69-3.06,2.9,2.9,0,0,0-2.7,3.06A3.11,3.11,0,0,0,17.26,21.32Z"/></g></g></g></svg>