<svg xmlns="http://www.w3.org/2000/svg" viewBox="0 0 36 36"><defs><style>.cls-1{fill:#fc5a80;fill-rule:evenodd;}.cls-2{fill:#fff;}</style></defs><title>친구</title><g id="Layer_2" data-name="Layer 2"><g id="타임라인"><g id="친구"><g id="버킷"><path class="cls-1" d="M18,0A18,18,0,1,1,0,18,18,18,0,0,1,18,0Z"/><path class="cls-2" d="M24.37,21.67a1.71,1.71,0,0,0-1.7.76l-.17.2-.17-.2a1.66,1.66,0,0,0-1.41-.76,1.46,1.46,0,0,0-.29,0,1.67,1.67,0,0,0-1.36,1.66v.37c.1,1.2,1.19,2.56,3.23,4,2.05-1.45,3.13-2.81,3.23-4v-.37A1.7,1.7,0,0,0,24.37,21.67Z"/><path class="cls-2" d="M18.41,23.72v-.45a2.48,2.48,0,0,1,2.14-2.46,2.34,2.34,0,0,1,1.95.54c.08-.07.17-.12.27-.2A8.91,8.91,0,0,0,20.09,20a6.41,6.41,0,1,0-4.49-.11l.15.11-.57.13A8.3,8.3,0,0,0,10,26a.91.91,0,0,0,.46.79c.46.21,5.33,1.62,7.29,1.54h0a.44.44,0,0,0,.2,0l.08,0,.12,0,.07,0,.2-.1.07-.05.18-.15c.27-.25.69-.71,1.2-1.26a4.87,4.87,0,0,1-1.47-2.88Z"/></g></g></g></g></svg>