<svg xmlns="http://www.w3.org/2000/svg" viewBox="0 0 36 36"><defs><style>.cls-1{fill:#797c9a;fill-rule:evenodd;}.cls-2{fill:#fff;}</style></defs><title>상속</title><g id="Layer_2" data-name="Layer 2"><g id="타임라인"><g id="상속"><path class="cls-1" d="M18,0A18,18,0,1,1,0,18,18,18,0,0,1,18,0Z"/><rect class="cls-2" x="11.41" y="25.23" width="13.88" height="1.74"/><path class="cls-2" d="M25.3,13.09a6.93,6.93,0,0,0-6.94-6.95h0a6.94,6.94,0,0,0-6.95,7v11H25.3Zm-1.74,9.25H13.15V13.09a5.21,5.21,0,1,1,10.41,0Z"/><path class="cls-2" d="M24.06,13.56C23.94,9,21.5,7.87,18.42,7.27s-5.36,3.5-5.48,3.64-.79,11.94-.9,12,11.94.27,11.88.27S24.19,18.08,24.06,13.56Zm-8-2.21h1.74V9.61h1.15v1.74h1.74v1.16H18.93v4H17.78v-4H16Zm4.63,9.83H16V20h4.63Zm1.16-2.31H14.88V17.71h6.95Z"/></g></g></g></svg>