<svg xmlns="http://www.w3.org/2000/svg" viewBox="0 0 36 36"><defs><style>.cls-1{fill:#f3b7cb;fill-rule:evenodd;}.cls-2{fill:#fff;}</style></defs><title>모임</title><g id="Layer_2" data-name="Layer 2"><g id="타임라인"><g id="모임"><path class="cls-1" d="M18,0A18,18,0,1,1,0,18,18,18,0,0,1,18,0Z"/><path class="cls-2" d="M11.86,6.48a4.85,4.85,0,0,0-.26,9.7v3.26a4.85,4.85,0,1,0,5.11,5.1H20a4.86,4.86,0,1,0,5.11-5.1V16.18A4.85,4.85,0,1,0,20,11.08H16.71A4.87,4.87,0,0,0,11.86,6.48Zm0,.51a4.35,4.35,0,1,1-4.35,4.34A4.34,4.34,0,0,1,11.86,7Zm13,0a4.35,4.35,0,1,1-4.34,4.34A4.34,4.34,0,0,1,24.81,7Zm-8.1,4.6H20a4.85,4.85,0,0,0,4.59,4.59v3.26A4.86,4.86,0,0,0,20,24H16.71a4.86,4.86,0,0,0-4.6-4.59V16.18A4.85,4.85,0,0,0,16.71,11.59Zm-4.85,8.35a4.35,4.35,0,1,1-4.35,4.35A4.34,4.34,0,0,1,11.86,19.94Zm13,0a4.35,4.35,0,1,1-4.34,4.35A4.34,4.34,0,0,1,24.81,19.94Z"/><path class="cls-2" d="M11.89,10.6a1.21,1.21,0,1,1,1.2-1.2A1.24,1.24,0,0,1,11.89,10.6Z"/><path class="cls-2" d="M10.91,10.89a1.25,1.25,0,0,0-1.21,1.2V14H14V12.09a1.24,1.24,0,0,0-1.2-1.2Z"/><path class="cls-2" d="M24.85,10.6a1.25,1.25,0,0,1-1.21-1.2,1.21,1.21,0,1,1,2.41,0A1.25,1.25,0,0,1,24.85,10.6Z"/><path class="cls-2" d="M23.86,10.89a1.24,1.24,0,0,0-1.2,1.2V14H27V12.09a1.24,1.24,0,0,0-1.2-1.2Z"/><path class="cls-2" d="M11.89,23.55a1.2,1.2,0,1,1,1.2-1.2A1.24,1.24,0,0,1,11.89,23.55Z"/><path class="cls-2" d="M10.91,23.84A1.26,1.26,0,0,0,9.7,25.05v1.88H14V25.05a1.25,1.25,0,0,0-1.2-1.21Z"/><path class="cls-2" d="M24.85,23.55a1.2,1.2,0,1,1,1.2-1.2A1.25,1.25,0,0,1,24.85,23.55Z"/><path class="cls-2" d="M23.86,23.84a1.25,1.25,0,0,0-1.2,1.21v1.88H27V25.05a1.25,1.25,0,0,0-1.2-1.21Z"/></g></g></g></svg>