<svg xmlns="http://www.w3.org/2000/svg" viewBox="0 0 36 36.03"><defs><style>.cls-1{fill:#fff;fill-rule:evenodd;}.cls-2{fill:#0fa99e;}.cls-3{fill:#09a99e;}.cls-4{fill:#14a99e;}.cls-5{fill:#00a99e;}.cls-6{fill:#f74f45;}.cls-7{fill:#ff8500;}.cls-8{fill:#88c340;}.cls-9{fill:#0faeb0;}</style></defs><title>icon-bi</title><g id="Layer_2" data-name="Layer 2"><g id="일러스트"><g id="타임라인"><g id="버킷"><path class="cls-1" d="M18,0A18,18,0,1,1,0,18,18,18,0,0,1,18,0Z"/><path class="cls-2" d="M28.11,18.59S28,16,28.38,15.35c.28-.41,1.26-.1,1.26-1.45,0,0-.66-.29-1.44,1,0,0-.1-1.44-1.45-1a1.2,1.2,0,0,0,.88,1.41A20.86,20.86,0,0,0,28.11,18.59Z"/><path class="cls-2" d="M14.33,23.48a1.13,1.13,0,1,1-1.12-1.12A1.12,1.12,0,0,1,14.33,23.48Z"/><path class="cls-3" d="M13.21,24.81a1.33,1.33,0,1,1,0-2.65,1.33,1.33,0,0,1,0,2.65Zm0-2.25a.92.92,0,1,0,.91.92A.92.92,0,0,0,13.21,22.56Z"/><path class="cls-2" d="M33.72,11.17A1.33,1.33,0,1,1,32.4,9.84,1.32,1.32,0,0,1,33.72,11.17Z"/><path class="cls-3" d="M32.4,12.78A1.62,1.62,0,1,1,34,11.17,1.61,1.61,0,0,1,32.4,12.78Zm0-2.64a1,1,0,1,0,0,2.06,1,1,0,0,0,0-2.06Z"/><path class="cls-4" d="M31.53,15.37c-.29-1.3-.1-1.76.25-2.14s.8-.25.88.58a2.89,2.89,0,0,1-.15.82c0,.23-.1.8.32.75.23,0,.61-.62.85-.73a1.19,1.19,0,0,1,1.14.08.53.53,0,0,1,0,.91c-.27.12-.69-.08-1,.11s-.73.66-.21.88.63.08.88.49c.16.25.23.65-.19.77-.65.18-1.28-1.14-1.67-.21-.18.42.18,1.78-.76,1.61-1.15-.2.2-1.59-.43-2.06s-1.77,1.09-2.17.28,1.48-.79,1.52-1.43-1.73-.6-1.6-1.4.76-.74,1.27-.42.73.92,1.13,1.11"/><path class="cls-5" d="M24.45,2.73a10,10,0,0,1,2.35,1,12.9,12.9,0,0,1,1.64,1.4S27.91-1.29,21,1c0,0,.36,5.25,7.4,4.15C28.44,5.12,25.46,4.42,24.45,2.73Z"/><path class="cls-2" d="M27.31,28.81a11.34,11.34,0,0,1,1-1.53,3.78,3.78,0,0,1,1.52-1.15s-5.44.39-6.64,5.21c0,0,5.54,1.61,6.64-5.21C29.28,27,28.43,28.6,27.31,28.81Z"/><path class="cls-2" d="M32.74,21.05a.22.22,0,1,1-.22-.22A.22.22,0,0,1,32.74,21.05Z"/><path class="cls-3" d="M32.52,21.56a.52.52,0,1,1,.52-.51A.51.51,0,0,1,32.52,21.56Z"/><path class="cls-5" d="M17,3.21c-.47.1-.36.69-.36.69-.05.66-.9,1.25-1.33,1.51a.83.83,0,0,1,.25-.35h0c.39-.33.75-.84.38-1.14a.29.29,0,0,0-.4,0c-.07.09,0,.25,0,.36a1.87,1.87,0,0,1-.39.75,1,1,0,0,1,0-.86c.11-.26.22-.63-.19-.63s-.49.34-.47.63a1.9,1.9,0,0,0,.3.78l0,.08c-.18,0-.34-.43-.42-.57s-.28-.65-.54-.72-.48.14-.38.43c0,.13.19.24.27.33s.68.71.82.83c-.12-.08-.8-.51-.95-.58s-.61-.43-.93-.41-.33.49,0,.64a13.63,13.63,0,0,1,1.64.51,4.27,4.27,0,0,1-1.69-.21c-.81-.35-1.21.61-.35.79A3,3,0,0,0,13.59,6a1.59,1.59,0,0,0-.59.56.58.58,0,0,0-.06.41c0,.21.18.26.4.27s.43-.47.61-.66c.5-.53.62-.53.66-.54,0,.17-.16.34-.23.47s-.13.22-.19.34-.33.67,0,.8c.7.28.81-1.07.85-1.45l0-.24c0,.31,0,.62.08.93s.12.55.45.57.29-.14.33-.32a.55.55,0,0,0-.08-.39,7.53,7.53,0,0,0-.41-.8l-.09-.13a1.92,1.92,0,0,0,.2.23,2.23,2.23,0,0,0,.51.26c.18.08.62.26.7,0s-.26-.51-.52-.54a2.15,2.15,0,0,1-.84-.14l-.08,0C17.67,5.11,17.64,3.05,17,3.21Z"/><path class="cls-2" d="M7,22.2A1.17,1.17,0,0,0,6,21.49a1.23,1.23,0,0,0-1.08,1.12A1.8,1.8,0,0,0,3,24c-.06.79.7,1.2,1.47,1.12a1.91,1.91,0,0,0,.88-.43c.12-.1.23-.31.39-.28s.3.3.44.4c.65.44,1.37-.14,1.27-1,.63.05,1.17-.21,1.06-1A1.11,1.11,0,0,0,7,22.2"/><path class="cls-5" d="M18.09.63A1,1,0,0,0,17.14,0a1.1,1.1,0,0,0-.95,1,1.59,1.59,0,0,0-1.7,1.25c-.05.7.62,1.07,1.3,1a1.73,1.73,0,0,0,.78-.38c.11-.09.2-.28.34-.25s.27.27.39.36c.58.39,1.22-.13,1.12-.85.56,0,1-.19.95-.85S18.58.48,18.09.63"/><path class="cls-6" d="M23.51,6.54a.07.07,0,0,0-.06,0h-.11a25.34,25.34,0,0,0-2.78.4l-.15-.33-.13-.32a16.1,16.1,0,0,0-.73-1.62.09.09,0,0,0-.06,0,.05.05,0,0,0,0,0,11,11,0,0,0-1.22,2.74h0A26.28,26.28,0,0,0,15.44,8s0,0,0,0a.07.07,0,0,0,0,.06c.7.45,1.54.94,2.25,1.34a17.75,17.75,0,0,0-.4,3,.08.08,0,0,0,0,.06h.06a8,8,0,0,0,1.83-1.76c.07-.08.13-.16.2-.23l.19.12a26.81,26.81,0,0,0,2.64,1.49.06.06,0,0,0,.07,0s0,0,0-.06a25.22,25.22,0,0,0-1-3.29v0l0,0a11.71,11.71,0,0,0,2.14-2A.06.06,0,0,0,23.51,6.54Z"/><path class="cls-7" d="M12.75,26.37a.37.37,0,0,0-.38-.2h-.08c-.72.08-1.31.15-1.89.26l-.09-.23a10.6,10.6,0,0,0-.61-1.32.4.4,0,0,0-.32-.17.38.38,0,0,0-.32.18,8.43,8.43,0,0,0-.91,2c-.76.14-1.47.28-2,.43a.39.39,0,0,0-.09.7c.4.26.91.57,1.52.91A13.53,13.53,0,0,0,7.35,31a.38.38,0,0,0,.2.34.33.33,0,0,0,.19.06.36.36,0,0,0,.2-.06A6.32,6.32,0,0,0,9.39,30a21.3,21.3,0,0,0,1.94,1.1.4.4,0,0,0,.41-.05.38.38,0,0,0,.15-.38,18.85,18.85,0,0,0-.7-2.36,8.89,8.89,0,0,0,1.53-1.48A.38.38,0,0,0,12.75,26.37Z"/><path class="cls-8" d="M7.14,16.47a.62.62,0,0,1-.3.3.74.74,0,0,1-.35.08.72.72,0,0,1-.35-.08.61.61,0,0,1-.29-.3L4.14,13.26v6.5a.5.5,0,0,1-.3.46,1.52,1.52,0,0,1-.66.15,1.47,1.47,0,0,1-.67-.15.5.5,0,0,1-.3-.46V10.48a.88.88,0,0,1,.3-.75,1.13,1.13,0,0,1,.67-.21,3.13,3.13,0,0,1,.46,0A1.25,1.25,0,0,1,4,9.7a1.88,1.88,0,0,1,.33.31,3.74,3.74,0,0,1,.35.53L6.5,13.87l1.83-3.33A3.78,3.78,0,0,1,8.67,10,1.88,1.88,0,0,1,9,9.7a1.26,1.26,0,0,1,.38-.15,3.13,3.13,0,0,1,.46,0,1.13,1.13,0,0,1,.67.21.88.88,0,0,1,.3.75v9.28a.5.5,0,0,1-.31.46,1.45,1.45,0,0,1-.66.15,1.43,1.43,0,0,1-.66-.15.5.5,0,0,1-.3-.46V13.38Z"/><path class="cls-8" d="M19.6,22.77a2.12,2.12,0,0,0,1.16-.31,1.07,1.07,0,0,0,.5-1,1.22,1.22,0,0,0-.35-.9A3.79,3.79,0,0,0,20,20a12.13,12.13,0,0,0-1.14-.53,6.1,6.1,0,0,1-1.15-.63,3.44,3.44,0,0,1-.88-.94,2.66,2.66,0,0,1-.35-1.45A2.7,2.7,0,0,1,16.82,15a2.73,2.73,0,0,1,.84-.91,3.29,3.29,0,0,1,1.16-.51,5.68,5.68,0,0,1,1.28-.16c.22,0,.49,0,.81.05a4.78,4.78,0,0,1,.93.18,2.74,2.74,0,0,1,.77.36.72.72,0,0,1,.32.6,1.32,1.32,0,0,1-.05.31,1.56,1.56,0,0,1-.14.33,1.12,1.12,0,0,1-.25.28.55.55,0,0,1-.34.11.69.69,0,0,1-.34-.09c-.11-.06-.24-.13-.38-.19a3.41,3.41,0,0,0-.55-.2,2.88,2.88,0,0,0-.78-.09,2.13,2.13,0,0,0-1.24.31,1,1,0,0,0-.43.84.93.93,0,0,0,.35.75,3.73,3.73,0,0,0,.89.52l1.14.5a5,5,0,0,1,1.14.67,3.52,3.52,0,0,1,.89,1,3.23,3.23,0,0,1,.35,1.59,3.57,3.57,0,0,1-.26,1.4,2.87,2.87,0,0,1-.74,1,3.14,3.14,0,0,1-1.11.61,4.6,4.6,0,0,1-1.42.21,5.33,5.33,0,0,1-1.36-.17,3.88,3.88,0,0,1-1.09-.43,2.28,2.28,0,0,1-.72-.59,1,1,0,0,1-.26-.65,1.16,1.16,0,0,1,.06-.34,1.41,1.41,0,0,1,.19-.34,1.33,1.33,0,0,1,.27-.26.55.55,0,0,1,.32-.1.68.68,0,0,1,.44.18l.49.39a3.71,3.71,0,0,0,.66.39A2.16,2.16,0,0,0,19.6,22.77Z"/><path class="cls-8" d="M25.17,20.46a.67.67,0,0,0,.13.45.69.69,0,0,0,.49.13h.43a.57.57,0,0,1,.46.19.65.65,0,0,1,.15.41.64.64,0,0,1-.15.42.54.54,0,0,1-.46.19h-.43a2.34,2.34,0,0,1-1.53-.43,1.68,1.68,0,0,1-.52-1.36V15.1a.38.38,0,0,1,.23-.33,1,1,0,0,1,.48-.12,1,1,0,0,1,.5.12.37.37,0,0,1,.22.33V17h1.31a.31.31,0,0,1,.27.16.76.76,0,0,1,0,.72.33.33,0,0,1-.27.16H25.17Z"/><path class="cls-8" d="M11.46,14.42a.53.53,0,0,1-.05-.2.48.48,0,0,1,.11-.29,1.55,1.55,0,0,1,.27-.24,1.33,1.33,0,0,1,.34-.16,1.16,1.16,0,0,1,.34-.06.76.76,0,0,1,.27,0,.38.38,0,0,1,.17.2l1.14,2.74.84-2.74a.38.38,0,0,1,.17-.2.69.69,0,0,1,.24,0,1.1,1.1,0,0,1,.32.06,1.89,1.89,0,0,1,.36.16,1.38,1.38,0,0,1,.28.25.48.48,0,0,1,.12.31.33.33,0,0,1,0,.17L14.9,18c-.13.32-.25.63-.36.94a3.06,3.06,0,0,1-.44.82,2.06,2.06,0,0,1-.74.58,3,3,0,0,1-1.23.21,1.23,1.23,0,0,1-.28,0,.43.43,0,0,1-.23-.09.35.35,0,0,1-.15-.2.88.88,0,0,1-.06-.35,1.08,1.08,0,0,1,.09-.46.28.28,0,0,1,.29-.19l.38,0a1.25,1.25,0,0,0,.48-.14,1.09,1.09,0,0,0,.41-.39,1.37,1.37,0,0,0,.17-.74Z"/><path class="cls-8" d="M29.05,19.48a2.53,2.53,0,0,1,.91.17,2.47,2.47,0,0,1,.77.49,2.36,2.36,0,0,1,.52.71,2,2,0,0,1,.2.87v.91a2,2,0,0,1-.2.85,2.28,2.28,0,0,1-.52.72,2.72,2.72,0,0,1-.77.51,2.35,2.35,0,0,1-.91.19,2.45,2.45,0,0,1-.93-.19,2.64,2.64,0,0,1-.76-.5,2.45,2.45,0,0,1-.52-.72,2,2,0,0,1-.19-.86v-.91a2,2,0,0,1,.19-.85,2.25,2.25,0,0,1,.51-.72,2.61,2.61,0,0,1,.76-.49A2.5,2.5,0,0,1,29.05,19.48Zm1,2.24a.78.78,0,0,0-.08-.36,1,1,0,0,0-.21-.32.9.9,0,0,0-.31-.23.77.77,0,0,0-.37-.08.84.84,0,0,0-.38.08,1,1,0,0,0-.31.23,1,1,0,0,0-.21.32.92.92,0,0,0-.07.36v.91a1,1,0,0,0,.28.7,1.19,1.19,0,0,0,.31.23.85.85,0,0,0,.38.09.78.78,0,0,0,.37-.09,1,1,0,0,0,.31-.23,1,1,0,0,0,.21-.32.84.84,0,0,0,.08-.38Z"/><path class="cls-8" d="M16.83,26.3a.73.73,0,0,1-.06-.26.52.52,0,0,1,.14-.37,1.45,1.45,0,0,1,.34-.31,2.56,2.56,0,0,1,.44-.21,1.31,1.31,0,0,1,.41-.07.8.8,0,0,1,.36.07.43.43,0,0,1,.22.27l1.86,4.64,1.51-4.64a.45.45,0,0,1,.21-.27.71.71,0,0,1,.32-.07,1.41,1.41,0,0,1,.42.07,3.55,3.55,0,0,1,.44.21,1.59,1.59,0,0,1,.36.32.64.64,0,0,1,.15.39.59.59,0,0,1-.05.23l-2.27,5.8c-.18.47-.36.93-.53,1.4a5.15,5.15,0,0,1-.67,1.25,3.2,3.2,0,0,1-1.06.9,3.55,3.55,0,0,1-1.68.35,1.34,1.34,0,0,1-.66-.15c-.17-.1-.26-.33-.26-.7a1.57,1.57,0,0,1,.11-.6.41.41,0,0,1,.4-.24,2.2,2.2,0,0,0,.61-.1,2,2,0,0,0,.71-.35,2.2,2.2,0,0,0,.6-.7A2.57,2.57,0,0,0,19.5,32Z"/><path class="cls-8" d="M16.09,28.55a1.08,1.08,0,0,0-.47.11,1.3,1.3,0,0,0-.41.33,1.79,1.79,0,0,0-.29.51,2.11,2.11,0,0,0-.11.68v2a.39.39,0,0,1-.21.31.91.91,0,0,1-.52.15.8.8,0,0,1-.5-.15.38.38,0,0,1-.19-.31V27.81a.35.35,0,0,1,.19-.32,1,1,0,0,1,.5-.12.85.85,0,0,1,.46.12.37.37,0,0,1,.19.32v.45a1.62,1.62,0,0,1,.21-.35,2.36,2.36,0,0,1,.32-.31,1.57,1.57,0,0,1,.38-.22,1.33,1.33,0,0,1,.45-.08h.34a.48.48,0,0,1,.36.18.68.68,0,0,1,0,.88.47.47,0,0,1-.36.19Z"/><path class="cls-2" d="M17.28,32a.22.22,0,1,1-.22-.22A.22.22,0,0,1,17.28,32Z"/><path class="cls-3" d="M17.06,32.48a.52.52,0,1,1,.52-.52A.52.52,0,0,1,17.06,32.48Z"/><path class="cls-9" d="M11.3,2.34a.17.17,0,0,0-.18,0l-6.79,4a.17.17,0,0,0-.08.17.18.18,0,0,0,.12.13l1.73.47a.14.14,0,0,0,.15,0L9,4.81,7.08,7.22a.19.19,0,0,0,0,.1V9.48a.16.16,0,0,0,.12.16h0a.16.16,0,0,0,.14-.08L8.56,7.72l1.75.48a.14.14,0,0,0,.14,0,.14.14,0,0,0,.07-.11l.85-5.57A.14.14,0,0,0,11.3,2.34Z"/><path class="cls-9" d="M15.39,9.51a.87.87,0,0,0-.64-.29h0a1,1,0,0,0-.55.18,1.07,1.07,0,0,0-.38.44,1.24,1.24,0,0,0-.38-.44,1,1,0,0,0-.56-.18h0a.87.87,0,0,0-.64.29.93.93,0,0,0-.24.62,1.26,1.26,0,0,0,.17.61,2.35,2.35,0,0,0,.45.6,6.82,6.82,0,0,0,.73.64l.42.31a.1.1,0,0,0,.12,0l.07,0a3.14,3.14,0,0,0,.29-.23,7.34,7.34,0,0,0,.77-.67,2.93,2.93,0,0,0,.45-.6,1.38,1.38,0,0,0,.17-.61A1,1,0,0,0,15.39,9.51Z"/><path class="cls-9" d="M24.31,8.1a.78.78,0,0,1,.22-.68.74.74,0,0,1,.69-.22.26.26,0,0,0,.09-.51l-.24,0a1.33,1.33,0,0,0-.9.38,1.31,1.31,0,0,0-.36,1.14.25.25,0,0,0,.25.21h0A.26.26,0,0,0,24.31,8.1Z"/><path class="cls-9" d="M29.79,7.05a1.32,1.32,0,0,0-.9-.38l-.23,0a.26.26,0,0,0-.21.3.25.25,0,0,0,.29.21.74.74,0,0,1,.69.22.78.78,0,0,1,.22.68.26.26,0,0,0,.21.3h0a.25.25,0,0,0,.25-.21A1.28,1.28,0,0,0,29.79,7.05Z"/><path class="cls-9" d="M29.76,9.8a2.78,2.78,0,0,0-5.56,0,2.74,2.74,0,0,0,1,2.09l-.5.5a.25.25,0,0,0,0,.36.26.26,0,0,0,.18.07.26.26,0,0,0,.19-.07l.55-.55a2.77,2.77,0,0,0,1.4.38,2.83,2.83,0,0,0,1.41-.38l.55.55a.24.24,0,0,0,.18.07.26.26,0,0,0,.18-.07.25.25,0,0,0,0-.36l-.49-.5A2.77,2.77,0,0,0,29.76,9.8Zm-2.52,0a.24.24,0,0,1-.13.22l-.66.66a.25.25,0,0,1-.18.08.27.27,0,0,1-.18-.08.25.25,0,0,1,0-.36l.63-.63V8.1a.26.26,0,0,1,.52,0Z"/><path class="cls-9" d="M26.16,23.61a.58.58,0,0,0-.43-.2h0a.68.68,0,0,0-.38.12.83.83,0,0,0-.26.3.72.72,0,0,0-.25-.3.68.68,0,0,0-.38-.12h0a.58.58,0,0,0-.43.2.61.61,0,0,0-.17.42.9.9,0,0,0,.12.41,1.74,1.74,0,0,0,.3.4,4.78,4.78,0,0,0,.5.44,2.79,2.79,0,0,0,.28.21l0,0,0,0,0,0,.2-.16a5.06,5.06,0,0,0,.52-.46,1.74,1.74,0,0,0,.3-.4.9.9,0,0,0,.12-.42A.6.6,0,0,0,26.16,23.61Z"/></g></g></g></g></svg>