<svg xmlns="http://www.w3.org/2000/svg" viewBox="0 0 36 36"><defs><style>.cls-1{fill:#f74f45;fill-rule:evenodd;}.cls-2{fill:#fff;}</style></defs><title>일상</title><g id="Layer_2" data-name="Layer 2"><g id="타임라인"><g id="일상"><path class="cls-1" d="M18,0A18,18,0,1,1,0,18,18,18,0,0,1,18,0Z"/><path class="cls-2" d="M12.5,23.82a19,19,0,0,0-2.72,0c-.2,1.24-.42,3.06.22,3.82a3.1,3.1,0,0,0,4.16.16c1-1.06.62-2.72.48-3.71A21.19,21.19,0,0,0,12.5,23.82Zm1.88-11.31c-2.32-.09-5.19,4.26-4.83,6.62a16.46,16.46,0,0,1,.41,3.6c0,.12,0,.31-.08.54a20,20,0,0,1,2.68,0c.7,0,1.37.15,2,.26A6.26,6.26,0,0,1,15,21.3a22.22,22.22,0,0,1,1.56-2.89C17.25,17.2,16.71,12.61,14.38,12.51ZM20,20.43c-.55.9-1.45,2.25-.95,3.44s2.72,1.75,4,1c.87-.51,1.39-2.14,1.71-3.36a18.69,18.69,0,0,0-2.57-.75A18.35,18.35,0,0,0,20,20.43Zm5.06-11c-2.24-.55-4.62,3.63-4.46,5A19.09,19.09,0,0,1,21,17.52a6.28,6.28,0,0,1-.61,2.38A17.64,17.64,0,0,1,24.94,21l.18-.71A19.26,19.26,0,0,1,27,17C28.28,14.84,27.34,10,25.1,9.43Z"/></g></g></g></svg>