<svg xmlns="http://www.w3.org/2000/svg" viewBox="0 0 36 36"><defs><style>.cls-1{fill:#fc5a80;fill-rule:evenodd;}.cls-2{fill:#fff;}</style></defs><title>연애</title><g id="Layer_2" data-name="Layer 2"><g id="타임라인"><g id="연애"><path class="cls-1" d="M18,0A18,18,0,1,1,0,18,18,18,0,0,1,18,0Z"/><path class="cls-2" d="M26.86,12.46a4.69,4.69,0,0,0-3.51-1.61h0a5.37,5.37,0,0,0-3,1,6.3,6.3,0,0,0-2.09,2.42,6.42,6.42,0,0,0-2.09-2.42,5.39,5.39,0,0,0-3-1h0a4.64,4.64,0,0,0-3.5,1.62,4.82,4.82,0,0,0-1.36,3.38,7.2,7.2,0,0,0,.93,3.34,15,15,0,0,0,2.47,3.3,40.31,40.31,0,0,0,4,3.52c1,.81,1.9,1.43,2.32,1.73a.59.59,0,0,0,.33.11.6.6,0,0,0,.34-.11l.36-.27c.41-.31,1-.74,1.63-1.26a44.38,44.38,0,0,0,4.18-3.72,14.75,14.75,0,0,0,2.48-3.3,7.32,7.32,0,0,0,.93-3.34A4.91,4.91,0,0,0,26.86,12.46Z"/></g></g></g></svg>