<svg xmlns="http://www.w3.org/2000/svg" viewBox="0 0 36 36"><defs><style>.cls-1{fill:#a6cc80;fill-rule:evenodd;}.cls-2{fill:#fff;}</style></defs><title>육아반려동물</title><g id="Layer_2" data-name="Layer 2"><g id="타임라인"><g id="육아반려동물"><path class="cls-1" d="M18,0A18,18,0,1,1,0,18,18,18,0,0,1,18,0Z"/><path class="cls-2" d="M18,28.44a10.49,10.49,0,0,1-.88-.6c-.47-.35-.92-.72-1.39-1.07a8.5,8.5,0,0,0-2.7-1.37,21.66,21.66,0,0,1-3-1.1,2.53,2.53,0,0,1-1-.82,2.46,2.46,0,0,1-.48-1.3,4.16,4.16,0,0,1,.5-2.37,3.06,3.06,0,0,1,1.32-1.25,7.5,7.5,0,0,1,1.92-.65,16.73,16.73,0,0,0,3.47-1.19,10.36,10.36,0,0,1,1-.5,2.7,2.7,0,0,1,2.24,0,3.62,3.62,0,0,1,1.08.65,2.45,2.45,0,0,1,.77,1.57,18.74,18.74,0,0,0,1,3.69c.28.72.58,1.45.82,2.2a3.48,3.48,0,0,1,.2,1.69,3.53,3.53,0,0,1-1,2,3.17,3.17,0,0,1-2,1,5.22,5.22,0,0,1-.88-.07,1.23,1.23,0,0,1-.25-.05Z"/><path class="cls-2" d="M21.15,8.31a2.86,2.86,0,0,1,.45.55,2.42,2.42,0,0,1,.33,1.6A4,4,0,0,1,20.7,13a2.42,2.42,0,0,1-1.64.75,1.63,1.63,0,0,1-1.5-1,3.07,3.07,0,0,1,0-2.25,3.74,3.74,0,0,1,1.4-1.94,2,2,0,0,1,1.79-.43h.05Z"/><path class="cls-2" d="M15.64,14A3.12,3.12,0,0,1,14,15.62a1.78,1.78,0,0,1-2.35-.9,1.48,1.48,0,0,1-.1-.27A3.56,3.56,0,0,1,11.7,12,3.62,3.62,0,0,1,13,10.41a1.9,1.9,0,0,1,1.47-.4,1.74,1.74,0,0,1,1.4,1.09,3.43,3.43,0,0,1-.08,2.7A1.22,1.22,0,0,1,15.64,14Z"/><path class="cls-2" d="M22.23,12.9a3.77,3.77,0,0,1,2.07-1.82,2.21,2.21,0,0,1,1.54,0,1.21,1.21,0,0,1,.75.73,3.19,3.19,0,0,1-.75,3.52,3.32,3.32,0,0,1-1.87,1,1.81,1.81,0,0,1-2.12-1.42,1.49,1.49,0,0,1,0-.47A3.11,3.11,0,0,1,22.23,12.9Z"/><path class="cls-2" d="M23,19.26a3.88,3.88,0,0,1,1.6-1.79,2.08,2.08,0,0,1,1.55-.15,1.1,1.1,0,0,1,.62.44,2.79,2.79,0,0,1,.57,2.72,3.62,3.62,0,0,1-1,1.72,2.07,2.07,0,0,1-2.59.23,2.1,2.1,0,0,1-.93-1.1,2.05,2.05,0,0,1-.07-1.15C22.82,19.84,23,19.46,23,19.26Z"/></g></g></g></svg>