<svg xmlns="http://www.w3.org/2000/svg" viewBox="0 0 36 36"><defs><style>.cls-1{fill:#f8936b;fill-rule:evenodd;}.cls-2{fill:#fff;}</style></defs><title>학교</title><g id="Layer_2" data-name="Layer 2"><g id="타임라인"><g id="학교"><path class="cls-1" d="M18,0A18,18,0,1,1,0,18,18,18,0,0,1,18,0Z"/><path class="cls-2" d="M27.46,15.11H23.31V13a1,1,0,0,0-1-1H19.16V11L23.31,9.4,19.16,7.85a1,1,0,1,0-2.07,0V12H14a1,1,0,0,0-1,1v2.07H8.79a1,1,0,0,0-1,1V27.56h8.3V23.41a1,1,0,0,1,1-1h2.07a1,1,0,0,1,1,1v4.15h8.3V16.15A1,1,0,0,0,27.46,15.11ZM11.9,25.49H9.82V23.41H11.9Zm0-4.15H9.82V19.26H11.9Zm6.23-3.12a2.08,2.08,0,1,1,2.07-2.07A2.08,2.08,0,0,1,18.13,18.22Zm8.3,7.27H24.35V23.41h2.08Zm0-4.15H24.35V19.26h2.08Z"/></g></g></g></svg>