<svg xmlns="http://www.w3.org/2000/svg" viewBox="0 0 36 36"><defs><style>.cls-1{fill:#4d4d4d;fill-rule:evenodd;}.cls-2{fill:#fff;}</style></defs><title>공감</title><g id="Layer_2" data-name="Layer 2"><g id="일러스트"><g id="타임라인"><g id="연애"><path class="cls-1" d="M18,0A18,18,0,1,1,0,18,18,18,0,0,1,18,0Z"/><path id="마이" class="cls-2" d="M24.47,13a6.61,6.61,0,0,0-13.22,0,6.51,6.51,0,0,0,3.36,5.69c-4.49,1.21-7.76,4.84-7.76,9.12a.68.68,0,0,0,1.36,0c0-4.52,4.33-8.15,9.65-8.2A6.55,6.55,0,0,0,24.47,13ZM12.61,13a5.25,5.25,0,1,1,5.25,5.19A5.22,5.22,0,0,1,12.61,13Z"/><path class="cls-2" d="M23.34,24.64a.71.71,0,0,1-.51-.21,3.63,3.63,0,0,1,0-5.12L24.16,18a3.61,3.61,0,0,1,5.11,0,3.61,3.61,0,0,1,0,5.11.72.72,0,0,1-1-1,2.17,2.17,0,0,0,.64-1.54A2.15,2.15,0,0,0,28.25,19a2.22,2.22,0,0,0-3.07,0l-1.33,1.33a2.18,2.18,0,0,0,0,3.08.72.72,0,0,1,0,1A.75.75,0,0,1,23.34,24.64Zm-.94,3.82a3.61,3.61,0,0,1-2.55-6.17.72.72,0,0,1,1,1,2.17,2.17,0,0,0,0,3.08,2.22,2.22,0,0,0,3.07,0l1.22-1.23a2.17,2.17,0,0,0,.64-1.54,2.15,2.15,0,0,0-.64-1.53.72.72,0,0,1,1-1,3.61,3.61,0,0,1,0,5.11L25,27.41A3.59,3.59,0,0,1,22.4,28.46Z"/></g></g></g></g></svg>