<svg xmlns="http://www.w3.org/2000/svg" viewBox="0 0 36 36"><defs><style>.cls-1{fill:#80a0cc;fill-rule:evenodd;}.cls-2{fill:#fff;}</style></defs><title>타임캡슐나</title><g id="Layer_2" data-name="Layer 2"><g id="타임라인"><g id="타임캡슐나"><path class="cls-1" d="M18,0A18,18,0,1,1,0,18,18,18,0,0,1,18,0Z"/><path class="cls-2" d="M12.07,8.51a4.1,4.1,0,0,0-4,4.79.81.81,0,0,0,.8.67H9A.81.81,0,0,0,9.67,13a2.48,2.48,0,0,1,2.86-2.86.79.79,0,0,0,.93-.65.81.81,0,0,0-.65-.94,4.71,4.71,0,0,0-.74-.06Zm12.05,0a4.52,4.52,0,0,0-.74.06.81.81,0,1,0,.28,1.59A2.47,2.47,0,0,1,26.51,13a.82.82,0,0,0,.66.94h.14a.81.81,0,0,0,.8-.67A4.11,4.11,0,0,0,27,9.71a4.06,4.06,0,0,0-2.85-1.2Zm-6,1.12A8.75,8.75,0,0,0,12.33,25l-1.55,1.56a.81.81,0,1,0,1.14,1.14l1.74-1.74a8.73,8.73,0,0,0,8.87,0l1.73,1.74a.81.81,0,0,0,1.15-1.14L23.85,25A8.75,8.75,0,0,0,18.09,9.63Zm0,1.61A7.15,7.15,0,1,1,11,18.39,7.16,7.16,0,0,1,18.09,11.24Zm0,1a.81.81,0,0,0-.81.81v5l-2,2a.8.8,0,0,0,0,1.14.81.81,0,0,0,.57.24.78.78,0,0,0,.57-.24l2.08-2.07a.81.81,0,0,0,.4-.7V13a.81.81,0,0,0-.81-.81Z"/></g></g></g></svg>